<svg width="54" height="45" viewBox="0 0 54 45" fill="none" xmlns="http://www.w3.org/2000/svg">
<path d="M26.9982 0.736816C25.1036 0.736816 23.2161 0.788138 21.7668 0.908964C21.0422 0.969201 20.4315 1.04682 19.9468 1.15064C19.7045 1.20237 19.4959 1.25375 19.2693 1.35934C19.156 1.41213 19.0329 1.47587 18.8884 1.61583C18.744 1.75544 18.5625 2.034 18.5625 2.37579V7.99525H4.5C2.43872 7.99525 0.75 9.68576 0.75 11.747V40.8132C0.75 42.8745 2.43872 44.5633 4.5 44.5633H49.4982C51.5595 44.5633 53.2482 42.8745 53.2482 40.8132V20.267C53.2524 20.2158 53.2524 20.1644 53.2482 20.1132V11.7471C53.2482 9.68587 51.5595 7.99525 49.4982 7.99525H35.4357V2.37579C35.4357 2.03386 35.2542 1.75572 35.1098 1.61594C34.9653 1.47598 34.8422 1.41249 34.7289 1.35934C34.5022 1.25339 34.2938 1.20237 34.0514 1.15064C33.5667 1.04682 32.9559 0.969309 32.2313 0.909072C30.7821 0.788246 28.8927 0.736816 26.9982 0.736816H26.9982ZM26.9982 2.61185C28.8536 2.61185 30.7161 2.66279 32.0793 2.77653C32.7191 2.83004 33.2179 2.90306 33.5588 2.97074V7.99514H20.4375C20.4375 7.99514 20.4375 4.94585 20.4375 2.97074C20.7784 2.90306 21.2791 2.83004 21.9188 2.77653C23.2821 2.66279 25.1427 2.61185 26.9982 2.61185ZM4.5 9.87007H49.4982C50.5531 9.87007 51.3732 10.692 51.3732 11.7469V19.2488H40.1268V17.3719C40.1268 16.3494 39.2744 15.4969 38.2518 15.4969H36.3768C35.3543 15.4969 34.5018 16.3494 34.5018 17.3719V19.2488H19.4963V17.3719C19.4963 16.3494 18.6439 15.4969 17.6213 15.4969H15.7537C14.7311 15.4969 13.8787 16.3494 13.8787 17.3719V19.2488H2.625V11.7469C2.625 10.692 3.44503 9.87007 4.5 9.87007ZM15.7537 17.3719H17.6213V22.9987H15.7537V17.3719ZM36.3768 17.3719H38.2518V22.9987H36.3768V20.3913C36.4082 20.2539 36.4082 20.1112 36.3768 19.9738V17.3719ZM2.625 21.1237H13.8787V22.9987C13.8787 24.0213 14.7311 24.8756 15.7537 24.8756H17.6213C18.6439 24.8756 19.4963 24.0213 19.4963 22.9987V21.1237H34.5018V22.9987C34.5018 24.0213 35.3543 24.8756 36.3768 24.8756H38.2518C39.2744 24.8756 40.1268 24.0213 40.1268 22.9987V21.1237H51.3732V40.8131C51.3732 41.8681 50.5531 42.688 49.4982 42.688H4.5C3.44503 42.688 2.625 41.8681 2.625 40.8131V21.1237Z" fill="#589585"/>
</svg>
