<svg width="30" height="30" viewBox="0 0 30 30" fill="none" xmlns="http://www.w3.org/2000/svg">
<path fill-rule="evenodd" clip-rule="evenodd" d="M15.0391 20.0509V23.4273H17.7332V18.2028L16.9644 18.533C16.9013 18.7197 16.8107 18.9016 16.6937 19.0754C16.4562 19.4358 16.0563 19.7264 15.5605 19.8991C15.3918 19.9595 15.2174 20.0102 15.0391 20.0509ZM15.057 19.3524L15.0391 19.3601V19.3638C15.0451 19.36 15.0511 19.3562 15.057 19.3524Z" fill="#47A68A"/>
<path d="M26.0591 0L22.1296 6.00623H23.512V21.1497L19.12 25.4461H4.76779L0.0109863 29.9793H21.51L28.2906 23.4274V6.00623H29.9995L26.0591 0Z" fill="#47A68A"/>
<path d="M20.5555 5.85677L23.3595 1.62683H6.82859L0 8.13443V30L4.7568 25.4668V10.4121L9.21859 5.85677H20.5555Z" fill="white"/>
<path d="M21.5186 11.5613H18.6172V23.082L21.5186 19.8156V11.5613Z" fill="#47A68A"/>
<path fill-rule="evenodd" clip-rule="evenodd" d="M11.8955 17.7751H11.7528C11.8012 17.782 11.8489 17.792 11.8955 17.805V17.7751ZM12.0377 19.2679C12.1626 19.3619 12.314 19.4276 12.4781 19.4577C12.7291 19.5205 12.9891 19.5528 13.2505 19.5536C13.3999 19.5547 13.548 19.5391 13.6912 19.5077V19.2679H13.691V19.4545H12.793V19.2679H12.0377ZM13.2449 20.1735C12.3823 20.1735 11.7527 19.9946 11.3561 19.6366C11.2116 19.5175 11.091 19.3809 10.9971 19.2323V23.3729H13.6912V20.1512C13.5435 20.1664 13.3944 20.1739 13.2449 20.1735Z" fill="#47A68A"/>
<path d="M13.4731 19.5852C12.6979 19.5852 12.132 19.407 11.7755 19.0506C11.4453 18.7489 11.2537 18.3347 11.2426 17.8985C11.2385 17.766 11.2707 17.6348 11.3359 17.5177C11.3967 17.4166 11.4846 17.3327 11.5905 17.2746C11.7136 17.216 11.8493 17.1855 11.9869 17.1855C12.1245 17.1855 12.2602 17.216 12.3833 17.2746C12.489 17.3325 12.5765 17.4165 12.6364 17.5177C12.7035 17.6342 12.7369 17.7656 12.7331 17.8985C12.7401 18.0572 12.6924 18.2137 12.5974 18.344C12.5182 18.4505 12.4049 18.5295 12.2747 18.5694C12.4021 18.7241 12.5823 18.8314 12.784 18.8724C13.0096 18.9349 13.2433 18.9671 13.4782 18.9679C13.7893 18.9705 14.094 18.8836 14.3525 18.7184C14.6207 18.5376 14.8207 18.2791 14.9229 17.9813C15.0524 17.6268 15.1156 17.2534 15.1096 16.878C15.12 16.4867 15.0509 16.0972 14.9059 15.731C14.7968 15.4381 14.5898 15.1876 14.3168 15.0181C14.0631 14.8649 13.7685 14.7845 13.4682 14.7865C13.2065 14.8076 12.9542 14.8894 12.7331 15.0246L12.1881 15.2854V15.0246L14.6377 11.8885H11.2426V15.1429C11.233 15.3777 11.2981 15.6099 11.4293 15.8088C11.4928 15.8954 11.5786 15.965 11.6786 16.0107C11.7785 16.0564 11.8891 16.0766 11.9996 16.0696C12.2039 16.0656 12.4015 15.9992 12.5632 15.88C12.7465 15.7518 12.906 15.5952 13.0351 15.4167C13.0468 15.3854 13.0682 15.3582 13.0965 15.3389C13.1193 15.3202 13.1483 15.3098 13.1784 15.3098C13.2373 15.3149 13.2932 15.3376 13.338 15.3745C13.3947 15.4351 13.4256 15.5137 13.4245 15.5949C13.4179 15.6494 13.4077 15.7036 13.3939 15.7569C13.2733 16.0355 13.0712 16.275 12.8116 16.4468C12.5706 16.6025 12.2859 16.685 11.9949 16.6836C11.2598 16.6836 10.7506 16.5454 10.4672 16.2689C10.3215 16.116 10.2093 15.937 10.137 15.7423C10.0647 15.5476 10.0338 15.341 10.0462 15.1348V11.8885H8.31934V11.2838H10.0542V9.90506L9.65702 9.52572V9.21655H10.8096L11.2426 9.43043V11.2838L15.7274 11.2708L16.1739 11.6985L13.4239 14.3358C13.59 14.272 13.765 14.2316 13.9433 14.2159C14.2962 14.2307 14.6405 14.3245 14.9484 14.4897C15.305 14.6515 15.6055 14.9074 15.8142 15.2271C16.0013 15.4978 16.1338 15.7995 16.2047 16.1166C16.263 16.3667 16.2943 16.6219 16.2981 16.8781C16.2999 17.3671 16.1837 17.8499 15.9586 18.2892C15.745 18.7145 15.3857 19.0575 14.94 19.2613C14.4838 19.4758 13.9817 19.5867 13.4731 19.5852Z" fill="#47A68A"/>
</svg>
