<svg width="70" height="70" viewBox="0 0 70 70" fill="none" xmlns="http://www.w3.org/2000/svg">
<path d="M44.3273 59.5211C44.3273 54.2999 40.0948 50.0674 34.8736 50.0674C29.6525 50.0674 25.7754 54.0309 25.7754 59.252C25.7754 64.4732 29.6526 68.855 34.8736 68.855C35.3052 68.855 35.7302 68.9459 36.1465 68.8899C40.7656 68.2681 44.3273 64.3106 44.3273 59.5211Z" fill="#D3D5DA"/>
<path d="M36.2412 68.8749C35.7941 68.9419 35.3389 68.9747 34.874 68.9747C29.6527 68.9747 25.4199 64.7419 25.4199 59.5206C25.4199 54.2993 29.6527 50.0679 34.874 50.0679C35.3389 50.0679 35.7941 50.1007 36.2412 50.1677C31.668 50.828 28.1543 54.7642 28.1543 59.5206C28.1542 64.277 31.668 68.2145 36.2412 68.8749Z" fill="#D3D5DA"/>
<path d="M34.9424 3.69141C31.5445 3.69141 28.79 6.44588 28.79 9.84375V9.90527L28.9441 10.3567L28.79 19.2773H41.0947L41.0532 10.0784C41.0532 7.72023 39.7863 5.72619 37.8471 4.64475C37.5288 4.46729 37.1641 4.09295 36.8139 3.98139C36.2238 3.79299 35.5949 3.69141 34.9424 3.69141Z" fill="#D3D5DA"/>
<path d="M36.8142 3.98096C35.5535 5.18381 34.4458 6.54525 33.5216 8.03248C33.1012 8.70896 32.3967 9.15439 31.6092 9.27471C30.647 9.42168 29.7055 9.6325 28.79 9.90498V19.277H30.4348H41.0947V9.94599V9.84346C41.0949 7.09814 39.2969 4.77393 36.8142 3.98096Z" fill="#D3D5DA"/>
<path d="M14.2607 51.4828C16.0693 47.1424 16.6618 42.6396 16.6618 37.9374V30.5756C16.6618 20.2672 25.6717 11.7544 35.9802 11.7544C46.2886 11.7544 53.5387 20.1143 53.5387 30.4228L53.0316 36.5948C53.0316 37.0955 53.5492 38.7853 53.5703 39.2848C53.706 42.5038 54.2778 45.6874 55.2683 48.7487C55.567 49.672 54.932 50.5842 55.3064 51.4829H14.2607V51.4828Z" fill="#589585"/>
<path d="M68.848 18.8672C68.848 9.01346 60.86 1.02539 51.0062 1.02539C46.7759 1.02539 42.8894 2.49771 39.8311 4.95783C38.1306 6.3257 37.0399 8.25809 35.9349 10.1536C34.3983 12.7895 33.5869 15.4317 33.5869 18.7029C33.5869 28.5566 41.1629 36.3066 51.0166 36.3066C55.4776 36.3066 59.3905 34.7033 62.5161 32.0988C63.274 31.4672 64.1351 30.9902 64.7738 30.2162C67.3191 27.1321 68.848 23.1782 68.848 18.8672Z" fill="#A6A7AC"/>
<path d="M41.6842 19.6646C41.6156 19.5409 41.2857 19.6777 41.2431 19.5378C41.2302 19.4952 41.2186 19.4521 41.2082 19.4082C40.9487 18.3056 41.6321 17.2016 42.7346 16.942C48.0751 15.6854 54.1727 15.7952 59.4642 17.2433C60.4202 17.5049 61.032 18.4012 60.9699 19.353C60.9609 19.4891 60.8339 19.4999 60.7966 19.6364C60.4976 20.7288 59.3696 21.3719 58.2772 21.0731C53.6253 19.8001 48.6425 19.5606 43.9475 20.6654C43.0335 20.8806 42.1181 20.4473 41.6842 19.6646Z" fill="#D3D5DA"/>
<path d="M61.8897 20.0332C62.337 18.397 61.3703 16.702 59.7344 16.2542C54.2833 14.7624 48.0011 14.6492 42.4992 15.9438C41.6994 16.1321 41.0207 16.6204 40.5882 17.3193C40.1558 18.0179 40.0212 18.8433 40.2093 19.6424C40.4573 21.0618 42.3195 22.3906 43.9084 21.9328C48.442 20.8659 53.6184 20.9592 58.1104 22.1886C59.7463 22.636 61.4415 21.6692 61.8897 20.0332ZM58.6518 20.2103C53.84 18.8936 48.295 18.7936 43.4387 19.9364C42.9935 20.0411 42.526 19.8422 42.3071 19.4366C42.3071 19.4366 42.3071 19.4366 42.3071 19.4364C42.2617 19.3546 42.2277 19.2663 42.2059 19.1731C42.1431 18.9064 42.188 18.6314 42.332 18.3985C42.4761 18.1657 42.7024 18.0029 42.969 17.9402C48.1482 16.7214 54.0616 16.828 59.1931 18.2323C59.6097 18.3648 60.05 18.7987 59.9115 19.4919C59.7622 20.0373 59.197 20.3595 58.6518 20.2103Z" fill="#161718"/>
<path d="M9.72774 30.5803C9.64871 30.5789 9.569 30.5731 9.48861 30.5623C8.36602 30.4119 7.57797 29.3798 7.72836 28.2573C8.84029 19.9575 13.3848 12.4037 20.1966 7.53266C21.0537 6.91975 22.2225 7.06126 22.9114 7.82593C22.9629 7.88307 22.7275 7.95827 22.7733 8.02239C23.4321 8.9436 23.2193 10.2247 22.2981 10.8834C16.404 15.0981 12.6038 21.2218 11.6415 28.4035C11.509 29.393 10.8432 30.5211 9.8825 30.5772C9.83137 30.5802 9.77969 30.5813 9.72774 30.5803Z" fill="#D3D5DA"/>
<path d="M3.0735 22.4902C2.93213 22.4877 2.88565 22.8418 2.74319 22.8087C2.69985 22.7986 2.65664 22.7871 2.61344 22.7741C1.52885 22.4477 0.914435 21.3037 1.24092 20.2191C2.82289 14.9659 5.96674 9.74006 9.86664 5.88158C10.5712 5.18445 11.6533 5.1027 12.4465 5.63248C12.5599 5.70822 12.5057 5.82362 12.6053 5.92424C13.4018 6.72938 13.3948 8.02779 12.5898 8.82445C9.16145 12.2166 6.46262 16.4121 5.07192 21.0304C4.80121 21.9296 3.96832 22.5058 3.0735 22.4902Z" fill="#D3D5DA"/>
<path d="M22.5826 10.869C16.6887 15.0841 12.7566 21.6206 11.7941 28.8024C11.6615 29.7923 10.8439 30.521 9.88281 30.5757C10.0182 28.8858 10.107 27.5063 10.1535 27.1618C11.116 19.98 15.048 13.4435 20.942 9.22842C21.1963 9.04658 21.9564 8.51748 22.9121 7.82568C22.9641 7.88311 23.0119 7.94326 23.0584 8.00752C23.7175 8.929 23.5041 10.2101 22.5826 10.869Z" fill="#D3D5DA"/>
<path d="M12.751 8.79668C9.32207 12.1887 6.55898 16.7838 5.16856 21.4021C4.89785 22.3004 4.06387 22.8773 3.16973 22.8609C3.02754 22.8582 2.88535 22.8418 2.74316 22.8076C3.13145 21.3256 3.43223 20.0787 3.52793 19.7615C4.91836 15.1432 7.68145 10.548 11.1104 7.15605C11.3086 6.96055 11.8213 6.39863 12.4707 5.64941C12.5746 5.72051 12.6744 5.80391 12.766 5.89688C13.563 6.70215 13.5563 8.00098 12.751 8.79668Z" fill="#D3D5DA"/>
<path d="M57.8132 60.2038L11.9434 60.1248C10.4332 60.1248 9.20898 58.9006 9.20898 57.3904L9.234 54.646C9.234 53.1358 10.1901 51.4829 11.7001 51.4829H58.0478C59.558 51.4829 60.7822 52.7071 60.7822 54.2173V57.6525C60.7823 59.1624 59.3232 60.2038 57.8132 60.2038Z" fill="#589585"/>
<path d="M69.8732 18.8672C69.8732 13.987 68.0164 9.35717 64.6451 5.83078C64.2536 5.42131 63.6045 5.40668 63.1953 5.79824C62.786 6.18953 62.7713 6.83867 63.1628 7.24801C66.1677 10.391 67.8224 14.5175 67.8224 18.8672C67.8224 28.1397 60.2785 35.6836 51.006 35.6836C41.7335 35.6836 34.1896 28.1397 34.1896 18.8672C34.1896 9.59465 41.7335 2.05078 51.006 2.05078C54.0617 2.05078 57.0531 2.8782 59.657 4.4435C60.1425 4.73539 60.7724 4.57844 61.0641 4.09309C61.356 3.60773 61.1989 2.97773 60.7137 2.68598C57.7907 0.92873 54.4338 0 51.006 0C46.5696 0 42.4865 1.54 39.2614 4.11236C38.0211 3.1757 36.513 2.66602 34.9415 2.66602C30.9838 2.66602 27.7638 5.88588 27.7638 9.84375V12.0522C25.1763 13.0525 22.809 14.602 20.8122 16.6387C17.1818 20.3414 15.1825 25.2366 15.1825 30.4229V37.7847C15.1825 42.1457 14.3711 46.4063 12.7748 50.4576H11.6992C9.62615 50.4576 7.93945 52.1441 7.93945 54.2173V57.6525C7.93945 59.7257 9.62615 61.4123 11.6992 61.4123H15.8799C16.4464 61.4123 16.9053 60.9532 16.9053 60.3869C16.9053 59.8206 16.4464 59.3615 15.8799 59.3615H11.6994C10.757 59.3615 9.99037 58.5949 9.99037 57.6525V54.2173C9.99037 53.2749 10.757 52.5083 11.6994 52.5083H58.047C58.9894 52.5083 59.756 53.2749 59.756 54.2173V57.6525C59.756 58.5949 58.9894 59.3615 58.047 59.3615H20.639C20.0726 59.3615 19.6136 59.8206 19.6136 60.3869C19.6136 60.9532 20.0726 61.4123 20.639 61.4123H24.5672C25.4647 66.3556 29.7723 70 34.8732 70C39.9683 70 44.2812 66.3536 45.1793 61.4123H58.047C60.1201 61.4123 61.8068 59.7257 61.8068 57.6525V54.2173C61.8068 52.1441 60.1201 50.4576 58.047 50.4576H56.9697C56.4593 49.1612 56.0239 47.8253 55.6743 46.4792C55.5319 45.9311 54.9732 45.6024 54.424 45.7445C53.8759 45.8869 53.5469 46.4466 53.6894 46.9947C53.9925 48.1619 54.3567 49.3218 54.7751 50.4577H14.9695C16.4706 46.3921 17.2333 42.1356 17.2333 37.7848V30.4231C17.2333 21.3631 24.24 13.7635 33.1158 12.8715C32.4825 14.7561 32.1388 16.7722 32.1388 18.8673C32.1388 29.2707 40.6025 37.7345 51.006 37.7345C51.5132 37.7345 52.0157 37.7137 52.5129 37.6742V37.7847C52.5129 39.2405 52.6011 40.7114 52.7747 42.1568C52.8373 42.6776 53.2798 43.06 53.7915 43.06C53.8324 43.06 53.8737 43.0575 53.9152 43.0525C54.4774 42.9849 54.8784 42.4743 54.8109 41.9121C54.647 40.5478 54.5637 39.159 54.5637 37.7848V37.3967C63.272 35.7278 69.8732 28.0546 69.8732 18.8672ZM34.8732 67.9492C30.8982 67.9492 27.5222 65.1984 26.6594 61.4123H43.0871C42.2235 65.1971 38.8436 67.9492 34.8732 67.9492ZM29.8146 11.3868V9.84375C29.8146 7.01668 32.1145 4.7168 34.9415 4.7168C35.925 4.7168 36.8735 4.99598 37.689 5.51482C36.1716 7.0283 34.9101 8.79799 33.9751 10.7527C32.555 10.8162 31.1621 11.0307 29.8146 11.3868Z" fill="#161718"/>
<path d="M9.71017 31.6055C9.72849 31.6057 9.7464 31.6059 9.76458 31.6059C11.301 31.6057 12.6053 30.4677 12.8101 28.9379C13.735 22.0357 17.5142 15.7539 23.179 11.7029C24.4247 10.844 24.9291 8.82361 23.892 7.41157C23.0334 6.16566 21.0128 5.66103 19.6004 6.69845C15.6706 9.50857 12.3877 13.2666 10.1066 17.566C9.84128 18.0662 10.0316 18.6869 10.5318 18.9524C11.032 19.2178 11.6528 19.0273 11.9182 18.5272C14.0514 14.5066 17.1203 10.9932 20.7934 8.36655C21.1422 8.12907 21.7906 8.06099 22.2238 8.60445C22.4615 8.95335 22.5292 9.60154 21.9863 10.0348C15.8626 14.4136 11.7774 21.2043 10.7777 28.6656C10.7086 29.1816 10.2595 29.566 9.74544 29.5548C9.28087 29.5361 8.67425 29.1341 8.7452 28.3931C8.99813 26.5052 9.44042 24.6294 10.0599 22.8176C10.2431 22.2818 9.95722 21.6988 9.42142 21.5156C8.88479 21.3323 8.30251 21.6183 8.11944 22.1541C7.45649 24.0928 6.98317 26.1002 6.71261 28.1209C6.48374 29.7428 7.78394 31.6057 9.71017 31.6055Z" fill="#161718"/>
<path d="M13.4958 5.17555C12.3024 3.9701 10.3512 3.95971 9.14545 5.15258C5.12796 9.12754 1.88882 14.5114 0.259 19.9235C0.0222029 20.7104 0.105738 21.5423 0.494703 22.2662C0.883531 22.99 1.53103 23.5192 2.31716 23.7559C3.67041 24.2508 5.75222 23.3025 6.15021 21.6976C7.49306 17.238 10.1621 12.8017 13.4727 9.52621C14.6782 8.3332 14.6886 6.38168 13.4958 5.17555ZM12.0302 8.06824C8.484 11.577 5.62494 16.3291 4.18652 21.1062C4.05459 21.5441 3.64853 21.8495 3.18779 21.8362C3.18779 21.8362 3.18779 21.8362 3.18765 21.8362C3.09414 21.8346 3.00062 21.8198 2.90902 21.7922C2.64666 21.7132 2.43091 21.5368 2.3013 21.2956C2.17169 21.0545 2.1438 20.7771 2.22283 20.5148C3.75695 15.4202 6.80591 10.3523 10.5878 6.61041C10.9109 6.31592 11.5069 6.15158 12.0379 6.61807C12.4356 7.02002 12.432 7.67066 12.0302 8.06824Z" fill="#161718"/>
</svg>
