<svg width="12" height="16" viewBox="0 0 12 16" fill="none" xmlns="http://www.w3.org/2000/svg">
<path d="M7.32118 15.4968L7.32235 15.4957C7.32359 15.4944 7.32466 15.4933 7.32559 15.4923V12.5072C7.32464 12.5062 7.32354 12.505 7.32227 12.5037L7.32087 12.5023L7.32088 12.5023C7.31981 12.5013 7.31884 12.5003 7.31796 12.4995H4.33292C4.33171 12.5006 4.33031 12.5019 4.32873 12.5035L4.32544 12.5002V12.5069M7.32118 15.4968L4.32544 12.4994C4.32544 12.4988 4.32547 12.4985 4.32547 12.4985C4.32547 12.4985 4.32545 12.4987 4.32539 12.4991C4.32538 12.4992 4.32536 12.4993 4.32535 12.4994C4.32532 12.4994 4.3253 12.4994 4.32528 12.4994L3.97549 12.1497L4.32474 12.4995C4.3246 12.4995 4.32453 12.4995 4.32453 12.4995C4.32453 12.4995 4.3246 12.4995 4.32475 12.4995L4.32487 12.4996L4.32525 12.5C4.32521 12.5003 4.32516 12.5005 4.3251 12.5008C4.32459 12.5034 4.32369 12.5063 4.32248 12.5092C4.3215 12.5115 4.32075 12.5126 4.32075 12.5126C4.32075 12.5126 4.32079 12.5126 4.32086 12.5125C4.32122 12.512 4.32258 12.5101 4.32544 12.5069M7.32118 15.4968C7.32004 15.498 7.319 15.499 7.31807 15.4998H4.33278M7.32118 15.4968L4.33278 15.4998M4.32544 12.5069C4.32644 12.5058 4.32764 12.5046 4.32904 12.5032L4.32544 12.4996C4.32544 12.4996 4.32544 12.4995 4.32544 12.4995L7.67528 12.1496C7.57568 12.0496 7.45865 11.9995 7.32546 11.9995H4.32539C4.19221 11.9995 4.07548 12.0498 3.97548 12.1496C3.8754 12.2497 3.82544 12.3663 3.82544 12.4996V15.4998C3.82544 15.6332 3.87557 15.7499 3.97548 15.8498L4.32471 15.4998C4.32469 15.4998 4.32468 15.4998 4.32466 15.4998C4.3245 15.4998 4.32442 15.4998 4.32442 15.4998C4.32442 15.4998 4.32452 15.4998 4.32473 15.4998L4.32524 15.4993C4.3252 15.4991 4.32515 15.4988 4.3251 15.4985C4.32458 15.496 4.3237 15.4931 4.32251 15.4903C4.32156 15.4881 4.32083 15.4869 4.32083 15.4869C4.32083 15.4869 4.32087 15.487 4.32095 15.4871C4.32132 15.4876 4.32265 15.4895 4.32544 15.4925M4.32544 12.5069V15.4925M4.32544 15.4925C4.32644 15.4936 4.32763 15.4949 4.32904 15.4963L4.32548 15.4998M4.32544 15.4925V15.4991L4.32865 15.4959C4.33021 15.4975 4.33159 15.4988 4.33278 15.4998" stroke="#589585"/>
<path d="M10.8239 3.25745L10.8239 3.25742C10.5129 2.68462 10.114 2.20582 9.62586 1.81534L9.62581 1.8153C9.12641 1.41569 8.56317 1.09495 7.93452 0.854402L10.8239 3.25745ZM10.8239 3.25745C11.1271 3.81576 11.2758 4.39444 11.2758 4.99975L10.8239 3.25745ZM0.726474 3.58707L0.726453 3.58706C0.726329 3.58726 0.72621 3.58745 0.726095 3.58764C0.727194 3.58857 0.728453 3.58959 0.729887 3.5907C0.730071 3.59085 0.730259 3.59099 0.73045 3.59114L2.75479 5.13416C2.76452 5.13945 2.77232 5.14304 2.77831 5.14546C2.78084 5.14275 2.78374 5.13947 2.78697 5.13554C3.38234 4.39144 3.86714 3.85961 4.22253 3.60559L4.2337 3.59761L4.2338 3.59777C4.69351 3.28789 5.24723 3.15002 5.86323 3.15002C6.46425 3.15002 7.01255 3.30946 7.49023 3.6378L7.49051 3.63799C7.96245 3.96286 8.28804 4.40683 8.28804 4.97493C8.28804 5.45768 8.15785 5.89941 7.85435 6.2514C7.5772 6.57289 7.15122 6.84254 6.63358 7.07947L6.63021 7.08101L6.63021 7.081C6.05409 7.33956 5.51395 7.74528 5.01277 8.31227L5.01267 8.31239C4.5362 8.85108 4.32563 9.38936 4.32563 9.93742V10.4999C4.32563 10.5571 4.33914 10.6222 4.3797 10.7H7.23019L7.23038 10.6998C7.27336 10.6443 7.27565 10.614 7.27565 10.6002C7.27565 10.2372 7.46274 9.85265 7.70087 9.48885L7.70092 9.48876C7.97081 9.07663 8.3138 8.74789 8.7305 8.51411C9.05309 8.33209 9.3007 8.18794 9.47643 8.08008L9.47713 8.07965C9.62807 7.98735 9.84449 7.82515 10.1345 7.58033C10.4046 7.35193 10.5979 7.1387 10.7271 6.94307L10.7273 6.94279C10.8578 6.74544 10.9868 6.47066 11.1071 6.10567L11.1072 6.10534C11.2184 5.76892 11.2758 5.40149 11.2758 4.99982L0.726474 3.58707ZM0.726474 3.58707L0.729016 3.58284M0.726474 3.58707L0.729016 3.58284M0.729016 3.58284C1.97438 1.51251 3.74726 0.5 6.10053 0.5C6.70124 0.5 7.3116 0.616186 7.93444 0.85437L0.729016 3.58284Z" stroke="#589585"/>
</svg>
