<svg width="16" height="16" viewBox="0 0 16 16" fill="none" xmlns="http://www.w3.org/2000/svg">
<g clip-path="url(#clip0)">
<path d="M9.71765 16H6.27808V12.8733H9.71765V16ZM7.21558 15.0625H8.78015V13.8108H7.21558V15.0625Z" fill="#589585"/>
<path d="M9.71765 11.9342H6.27808V7.24573H7.99792C9.04785 7.24573 9.90198 6.3916 9.90198 5.34167C9.90198 4.29175 9.04785 3.4375 7.99792 3.4375C6.948 3.4375 6.09375 4.29175 6.09375 5.34167V5.81042H2.65625V5.34167C2.65625 2.39624 5.05249 0 7.99792 0C10.9432 0 13.3395 2.39624 13.3395 5.34167C13.3395 7.64026 11.8674 9.67065 9.71765 10.4V11.9342ZM7.21558 10.9967H8.78015V9.69141L9.12878 9.599C11.056 9.0885 12.402 7.33789 12.402 5.34167C12.402 2.91321 10.4263 0.9375 7.99792 0.9375C5.72766 0.9375 3.85327 2.66394 3.61853 4.87292H5.19482C5.41895 3.5282 6.59058 2.5 7.99792 2.5C9.5647 2.5 10.8395 3.77478 10.8395 5.34167C10.8395 6.90845 9.5647 8.18323 7.99792 8.18323H7.21558V10.9967Z" fill="#589585"/>
</g>
<defs>
<clipPath id="clip0">
<rect width="16" height="16" fill="white"/>
</clipPath>
</defs>
</svg>
