<svg width="21" height="19" viewBox="0 0 21 19" fill="none" xmlns="http://www.w3.org/2000/svg">
<path d="M8.30871 9.03898L5.45196 7.54353L2.59518 9.03898L3.14078 5.87156L0.82959 3.62836L4.02355 3.16623L5.45196 0.284424L6.88034 3.16623L10.0743 3.62836L7.76311 5.87156L8.30871 9.03898ZM3.35866 4.44657L4.40529 5.46243L4.15822 6.89683L5.45196 6.21959L6.7457 6.89683L6.49864 5.46243L7.54527 4.44657L6.09885 4.23728L5.452 2.93222L4.80511 4.23728L3.35866 4.44657Z" fill="#F41A1A"/>
<path d="M8.30871 19.5192L5.45196 18.0238L2.59518 19.5192L3.14078 16.3518L0.82959 14.1086L4.02355 13.6465L5.45196 10.7646L6.88034 13.6465L10.0743 14.1086L7.76311 16.3518L8.30871 19.5192ZM3.35866 14.9268L4.40529 15.9427L4.15822 17.3771L5.45196 16.6998L6.7457 17.3771L6.49864 15.9427L7.54527 14.9268L6.09885 14.7175L5.452 13.4124L4.80511 14.7175L3.35866 14.9268Z" fill="#F41A1A"/>
<path d="M19.15 9.03898L16.2933 7.54353L13.4365 9.03898L13.9821 5.87156L11.6709 3.62836L14.8649 3.16623L16.2933 0.284424L17.7216 3.16623L20.9156 3.62836L18.6044 5.87156L19.15 9.03898ZM14.2 4.44657L15.2466 5.46243L14.9995 6.89683L16.2933 6.21959L17.587 6.89683L17.3399 5.46243L18.3866 4.44657L16.9402 4.23728L16.2933 2.93222L15.6464 4.23728L14.2 4.44657Z" fill="#F41A1A"/>
<path d="M19.15 19.5192L16.2933 18.0238L13.4365 19.5192L13.9821 16.3518L11.6709 14.1086L14.8649 13.6465L16.2933 10.7646L17.7216 13.6465L20.9156 14.1086L18.6044 16.3518L19.15 19.5192ZM14.2 14.9268L15.2466 15.9427L14.9995 17.3771L16.2933 16.6998L17.587 17.3771L17.3399 15.9427L18.3866 14.9268L16.9402 14.7175L16.2933 13.4124L15.6464 14.7175L14.2 14.9268Z" fill="#F41A1A"/>
</svg>
