<svg width="288" height="280" viewBox="0 0 288 280" fill="none" xmlns="http://www.w3.org/2000/svg">
<g style="mix-blend-mode:lighten">
<path d="M143.996 178.273C143.121 178.294 142.255 178.091 141.481 177.685L84.8474 145.149C84.5213 144.993 84.2436 144.753 84.0437 144.453C83.8437 144.153 83.7291 143.805 83.7119 143.446C83.7579 142.996 83.9221 142.567 84.1878 142.2C84.4536 141.834 84.8116 141.544 85.2259 141.359L141.102 109.247C141.969 108.761 142.94 108.489 143.935 108.452C144.929 108.415 145.918 108.615 146.819 109.035L203.452 141.57C203.778 141.726 204.056 141.966 204.256 142.266C204.456 142.566 204.57 142.914 204.588 143.273C204.542 143.723 204.378 144.153 204.112 144.519C203.846 144.885 203.488 145.176 203.074 145.361L147.198 177.473C146.216 178.005 145.114 178.28 143.996 178.273ZM141.914 176.931C142.685 177.268 143.524 177.424 144.365 177.386C145.206 177.348 146.027 177.117 146.764 176.712L202.64 144.607C202.916 144.49 203.158 144.307 203.345 144.075C203.532 143.842 203.658 143.567 203.712 143.273C203.688 143.07 203.612 142.877 203.49 142.712C203.368 142.546 203.206 142.416 203.018 142.332L146.377 109.788C145.607 109.456 144.77 109.303 143.931 109.341C143.092 109.379 142.273 109.607 141.536 110.008L85.6596 142.112C85.3841 142.229 85.1419 142.412 84.9548 142.645C84.7676 142.877 84.6413 143.153 84.5872 143.446C84.6113 143.649 84.6879 143.843 84.8095 144.008C84.9311 144.173 85.0936 144.304 85.2811 144.388L141.914 176.931Z" fill="#518274"/>
</g>
<path opacity="0.5" d="M77.5221 182.016C77.4346 182.007 77.3521 181.971 77.285 181.914C77.218 181.858 77.1695 181.782 77.1457 181.698C77.122 181.614 77.1242 181.524 77.1519 181.441C77.1796 181.358 77.2316 181.285 77.3013 181.231L113.078 160.671C113.182 160.613 113.306 160.598 113.421 160.631C113.536 160.663 113.634 160.74 113.693 160.844C113.751 160.948 113.766 161.071 113.733 161.186C113.701 161.3 113.624 161.398 113.519 161.456L77.7429 181.922C77.6787 181.972 77.6026 182.004 77.5221 182.016Z" fill="url(#paint0_linear)"/>
<path opacity="0.5" d="M210.699 181.922C210.622 181.921 210.546 181.899 210.479 181.86L174.907 161.456C174.856 161.428 174.81 161.389 174.773 161.344C174.736 161.298 174.709 161.245 174.692 161.189C174.676 161.132 174.671 161.073 174.677 161.014C174.684 160.956 174.702 160.899 174.73 160.848C174.758 160.796 174.797 160.751 174.843 160.714C174.889 160.677 174.942 160.65 174.999 160.634C175.056 160.617 175.115 160.612 175.174 160.619C175.232 160.625 175.289 160.643 175.341 160.671L210.96 181.083C211.059 181.142 211.132 181.237 211.161 181.349C211.191 181.46 211.175 181.579 211.117 181.679C211.08 181.756 211.02 181.821 210.946 181.864C210.871 181.907 210.785 181.928 210.699 181.922Z" fill="url(#paint1_linear)"/>
<path d="M204.146 119.543V126.464L144.004 161.024L83.8535 126.464V119.543H204.146Z" fill="#589685"/>
<path d="M144.004 154.103L83.8535 119.542L144.004 84.9899L204.146 119.542L144.004 154.103Z" fill="#71AB9B"/>
<path d="M144.004 153.294L84.5632 119.142L83.8535 119.542L144.004 154.103L204.146 119.542L203.444 119.142L144.004 153.294Z" fill="#518274"/>
<path d="M144.004 146.13L97.7397 119.55L144.004 92.9708L190.259 119.558L144.004 146.13Z" fill="#4E8274"/>
<path opacity="0.5" d="M144.004 86.2691L190.26 112.849V119.558L144.004 92.9709V86.2691Z" fill="#76BBA9"/>
<path opacity="0.5" d="M144.004 92.9709L97.7397 119.55V112.849L144.004 86.2691V92.9709Z" fill="#76BBA9"/>
<path opacity="0.5" d="M144.629 139.149L98.3652 112.569L144.629 85.9899L190.885 112.569L144.629 139.149Z" fill="#76BBA9"/>
<path d="M144.004 123.474L125.521 112.848L144.004 102.231L162.487 112.848L144.004 123.474Z" fill="#4E8274"/>
<path opacity="0.5" d="M144.004 103.204L161.636 113.343L162.487 112.848L144.004 102.231L125.521 112.848L126.372 113.343L144.004 103.204Z" fill="#518274"/>
<path opacity="0.5" d="M144.004 139.428V146.138L190.26 119.558V112.849L144.004 139.428Z" fill="#76BBA9"/>
<path opacity="0.8" d="M144.004 138.698L98.3785 112.488L97.7397 112.849L144.004 139.428L190.259 112.849L189.629 112.488L144.004 138.698Z" fill="#518274"/>
<g opacity="0.11">
<path opacity="0.11" d="M55.0246 168.652C53.8352 167.97 52.4864 167.61 51.1134 167.61C49.7405 167.61 48.3917 167.97 47.2023 168.652L0.552081 195.389C0.385156 195.485 0.246639 195.624 0.150361 195.79C0.0540835 195.957 0.00341797 196.146 0.00341797 196.338C0.00341797 196.53 0.0540835 196.719 0.150361 196.886C0.246639 197.052 0.385156 197.191 0.552081 197.288L47.5887 224.299C48.638 224.904 49.8294 225.223 51.0425 225.223C52.2555 225.223 53.447 224.904 54.4963 224.299L101.604 197.303C101.773 197.208 101.913 197.07 102.011 196.904C102.109 196.737 102.16 196.547 102.16 196.354C102.16 196.161 102.109 195.971 102.011 195.804C101.913 195.637 101.773 195.499 101.604 195.404L55.0246 168.652Z" fill="url(#paint2_linear)"/>
</g>
<g opacity="0.11">
<path opacity="0.11" d="M55.0246 160.836C53.8357 160.152 52.4867 159.792 51.1134 159.792C49.7402 159.792 48.3912 160.152 47.2023 160.836L0.552081 187.572C0.385156 187.669 0.246639 187.808 0.150361 187.974C0.0540835 188.141 0.00341797 188.33 0.00341797 188.522C0.00341797 188.714 0.0540835 188.903 0.150361 189.07C0.246639 189.236 0.385156 189.375 0.552081 189.471L47.5887 216.498C48.6393 217.1 49.8302 217.417 51.0425 217.417C52.2547 217.417 53.4457 217.1 54.4963 216.498L101.604 189.495C101.773 189.4 101.913 189.262 102.011 189.095C102.109 188.928 102.16 188.739 102.16 188.545C102.16 188.352 102.109 188.163 102.011 187.996C101.913 187.829 101.773 187.691 101.604 187.596L55.0246 160.836Z" fill="url(#paint3_linear)"/>
</g>
<g opacity="0.11">
<path opacity="0.11" d="M55.0246 153.012C53.8352 152.33 52.4864 151.97 51.1134 151.97C49.7405 151.97 48.3917 152.33 47.2023 153.012L0.552081 179.756C0.385156 179.853 0.246639 179.992 0.150361 180.158C0.0540835 180.325 0.00341797 180.514 0.00341797 180.706C0.00341797 180.898 0.0540835 181.087 0.150361 181.253C0.246639 181.42 0.385156 181.559 0.552081 181.655L47.5887 208.682C48.638 209.288 49.8294 209.607 51.0425 209.607C52.2555 209.607 53.447 209.288 54.4963 208.682L101.604 181.679C101.773 181.584 101.913 181.446 102.011 181.279C102.109 181.112 102.16 180.923 102.16 180.729C102.16 180.536 102.109 180.347 102.011 180.18C101.913 180.013 101.773 179.875 101.604 179.78L55.0246 153.012Z" fill="url(#paint4_linear)"/>
</g>
<g opacity="0.11">
<path opacity="0.11" d="M55.0247 145.188C53.8353 144.505 52.4864 144.146 51.1135 144.146C49.7405 144.146 48.3917 144.505 47.2023 145.188L0.552151 171.932C0.385072 172.028 0.246282 172.166 0.14977 172.332C0.0532579 172.498 0.00244141 172.686 0.00244141 172.878C0.00244141 173.07 0.0532579 173.258 0.14977 173.424C0.246282 173.59 0.385072 173.728 0.552151 173.823L47.5887 200.858C48.6393 201.46 49.8303 201.777 51.0425 201.777C52.2548 201.777 53.4457 201.46 54.4963 200.858L101.604 173.855C101.773 173.76 101.913 173.622 102.011 173.455C102.109 173.288 102.16 173.098 102.16 172.905C102.16 172.712 102.109 172.523 102.011 172.356C101.913 172.189 101.773 172.051 101.604 171.956L55.0247 145.188Z" fill="url(#paint5_linear)"/>
</g>
<path d="M101.604 171.956L55.0246 145.188C53.8352 144.505 52.4864 144.146 51.1135 144.146C49.7405 144.146 48.3917 144.505 47.2023 145.188L0.552103 171.932C0.382353 172.026 0.241356 172.164 0.144145 172.331C0.0469338 172.498 -0.00284285 172.689 0.000125398 172.882V188.577C-0.00115946 188.77 0.0493257 188.959 0.146365 189.126C0.243404 189.293 0.383474 189.431 0.552103 189.526L47.5887 216.553C48.638 217.159 49.8295 217.478 51.0425 217.478C52.2555 217.478 53.447 217.159 54.4963 216.553L101.604 189.55C101.773 189.457 101.914 189.321 102.011 189.155C102.108 188.989 102.158 188.8 102.156 188.608V172.913C102.159 172.719 102.109 172.528 102.012 172.359C101.915 172.191 101.774 172.051 101.604 171.956Z" fill="#589685"/>
<g opacity="0.11">
<path opacity="0.11" d="M55.0247 145.188C53.8353 144.505 52.4864 144.146 51.1135 144.146C49.7405 144.146 48.3917 144.505 47.2023 145.188L0.552151 171.932C0.385072 172.028 0.246282 172.166 0.14977 172.332C0.0532579 172.498 0.00244141 172.686 0.00244141 172.878C0.00244141 173.07 0.0532579 173.258 0.14977 173.424C0.246282 173.59 0.385072 173.728 0.552151 173.823L47.5887 200.858C48.6393 201.46 49.8303 201.777 51.0425 201.777C52.2548 201.777 53.4457 201.46 54.4963 200.858L101.604 173.855C101.773 173.76 101.913 173.622 102.011 173.455C102.109 173.288 102.16 173.098 102.16 172.905C102.16 172.712 102.109 172.523 102.011 172.356C101.913 172.189 101.773 172.051 101.604 171.956L55.0247 145.188Z" fill="url(#paint6_linear)"/>
</g>
<g opacity="0.5">
<path opacity="0.5" d="M52.7534 160.522C52.2485 160.233 51.6761 160.081 51.0935 160.081C50.5109 160.081 49.9386 160.233 49.4336 160.522L28.5373 172.505C28.4618 172.548 28.399 172.609 28.3553 172.684C28.3116 172.758 28.2886 172.843 28.2886 172.929C28.2886 173.015 28.3116 173.1 28.3553 173.174C28.399 173.249 28.4618 173.31 28.5373 173.353L49.5204 185.414C49.9888 185.684 50.5206 185.827 51.062 185.827C51.6034 185.827 52.1351 185.684 52.6036 185.414L73.6261 173.368C73.6996 173.324 73.7604 173.262 73.8026 173.188C73.8448 173.114 73.867 173.03 73.867 172.945C73.867 172.859 73.8448 172.775 73.8026 172.701C73.7604 172.627 73.6996 172.565 73.6261 172.521L52.7534 160.522Z" fill="#314842"/>
</g>
<path d="M28.5373 173.29L49.4337 161.307C49.9381 161.016 50.5106 160.863 51.0935 160.863C51.6764 160.863 52.249 161.016 52.7534 161.307L73.6262 173.29L73.6735 173.337C73.7344 173.289 73.7829 173.227 73.8146 173.157C73.8464 173.087 73.8606 173.009 73.8559 172.932C73.8513 172.855 73.828 172.78 73.7879 172.714C73.7479 172.648 73.6924 172.593 73.6262 172.552L52.7534 160.561C52.2485 160.272 51.6761 160.12 51.0935 160.12C50.511 160.12 49.9386 160.272 49.4337 160.561L28.5373 172.505C28.471 172.545 28.4155 172.601 28.3755 172.667C28.3355 172.733 28.3122 172.808 28.3075 172.885C28.3029 172.962 28.317 173.039 28.3488 173.11C28.3806 173.18 28.429 173.242 28.49 173.29H28.5373Z" fill="#518274"/>
<path d="M101.603 172.772L54.4959 199.775C53.4453 200.377 52.2543 200.694 51.0421 200.694C49.8299 200.694 48.6389 200.377 47.5883 199.775L0.551729 172.748C0.381863 172.65 0.240577 172.509 0.141689 172.34C-0.000737595 172.591 -0.037561 172.888 0.0392708 173.166C0.116103 173.444 0.300341 173.68 0.551729 173.824L47.5883 200.858C48.6389 201.46 49.8299 201.777 51.0421 201.777C52.2543 201.777 53.4453 201.46 54.4959 200.858L101.603 173.855C101.729 173.784 101.839 173.689 101.928 173.576C102.016 173.462 102.082 173.333 102.12 173.194C102.158 173.056 102.168 172.911 102.15 172.769C102.132 172.626 102.085 172.489 102.014 172.364C101.919 172.536 101.777 172.678 101.603 172.772Z" fill="#518274"/>
<g opacity="0.11">
<path opacity="0.11" d="M240.876 168.652C239.684 167.974 238.334 167.617 236.961 167.617C235.587 167.617 234.238 167.974 233.046 168.652L186.395 195.389C186.228 195.485 186.09 195.624 185.994 195.79C185.897 195.957 185.847 196.146 185.847 196.338C185.847 196.53 185.897 196.719 185.994 196.886C186.09 197.052 186.228 197.191 186.395 197.288L233.432 224.299C234.481 224.904 235.673 225.223 236.886 225.223C238.099 225.223 239.29 224.904 240.34 224.299L287.447 197.319C287.614 197.222 287.753 197.084 287.849 196.917C287.945 196.751 287.996 196.562 287.996 196.37C287.996 196.177 287.945 195.988 287.849 195.822C287.753 195.655 287.614 195.517 287.447 195.42L240.876 168.652Z" fill="url(#paint7_linear)"/>
</g>
<g opacity="0.11">
<path opacity="0.11" d="M240.876 160.836C239.686 160.151 238.335 159.791 236.961 159.791C235.586 159.791 234.236 160.151 233.046 160.836L186.395 187.572C186.228 187.669 186.09 187.808 185.994 187.974C185.897 188.141 185.847 188.33 185.847 188.522C185.847 188.714 185.897 188.903 185.994 189.07C186.09 189.236 186.228 189.375 186.395 189.472L233.432 216.498C234.483 217.1 235.674 217.417 236.886 217.417C238.098 217.417 239.289 217.1 240.34 216.498L287.447 189.495C287.614 189.398 287.753 189.26 287.849 189.093C287.945 188.927 287.996 188.738 287.996 188.546C287.996 188.353 287.945 188.164 287.849 187.998C287.753 187.831 287.614 187.693 287.447 187.596L240.876 160.836Z" fill="url(#paint8_linear)"/>
</g>
<g opacity="0.11">
<path opacity="0.11" d="M240.876 153.012C239.684 152.333 238.334 151.976 236.961 151.976C235.587 151.976 234.238 152.333 233.046 153.012L186.395 179.756C186.228 179.853 186.09 179.991 185.994 180.158C185.897 180.325 185.847 180.514 185.847 180.706C185.847 180.898 185.897 181.087 185.994 181.253C186.09 181.42 186.228 181.559 186.395 181.655L233.432 208.682C234.481 209.288 235.673 209.607 236.886 209.607C238.099 209.607 239.29 209.288 240.34 208.682L287.447 181.671C287.614 181.574 287.753 181.436 287.849 181.269C287.945 181.103 287.996 180.914 287.996 180.721C287.996 180.529 287.945 180.34 287.849 180.174C287.753 180.007 287.614 179.869 287.447 179.772L240.876 153.012Z" fill="url(#paint9_linear)"/>
</g>
<g opacity="0.11">
<path opacity="0.11" d="M240.876 145.188C239.684 144.509 238.335 144.152 236.961 144.152C235.588 144.152 234.238 144.509 233.046 145.188L186.396 171.932C186.229 172.028 186.09 172.166 185.994 172.332C185.897 172.498 185.846 172.686 185.846 172.878C185.846 173.07 185.897 173.258 185.994 173.424C186.09 173.59 186.229 173.728 186.396 173.823L233.432 200.858C234.483 201.46 235.674 201.777 236.886 201.777C238.099 201.777 239.29 201.46 240.34 200.858L287.448 173.855C287.615 173.758 287.753 173.62 287.849 173.453C287.946 173.286 287.996 173.098 287.996 172.905C287.996 172.713 287.946 172.524 287.849 172.358C287.753 172.191 287.615 172.052 287.448 171.956L240.876 145.188Z" fill="url(#paint10_linear)"/>
</g>
<path d="M287.448 171.956L240.868 145.188C239.676 144.509 238.327 144.152 236.953 144.152C235.58 144.152 234.23 144.509 233.038 145.188L186.388 171.932C186.219 172.027 186.079 172.165 185.982 172.332C185.885 172.499 185.835 172.689 185.836 172.882V188.577C185.836 188.769 185.887 188.958 185.984 189.125C186.081 189.292 186.22 189.43 186.388 189.526L233.424 216.553C234.474 217.159 235.665 217.478 236.878 217.478C238.091 217.478 239.283 217.159 240.332 216.553L287.448 189.573C287.616 189.48 287.755 189.343 287.852 189.177C287.949 189.012 288 188.823 288 188.632V172.937C288.005 172.739 287.956 172.543 287.859 172.371C287.762 172.198 287.62 172.055 287.448 171.956Z" fill="#589685"/>
<g opacity="0.11">
<path opacity="0.11" d="M240.876 145.188C239.684 144.509 238.335 144.152 236.961 144.152C235.588 144.152 234.238 144.509 233.046 145.188L186.396 171.932C186.229 172.028 186.09 172.166 185.994 172.332C185.897 172.498 185.846 172.686 185.846 172.878C185.846 173.07 185.897 173.258 185.994 173.424C186.09 173.59 186.229 173.728 186.396 173.823L233.432 200.858C234.483 201.46 235.674 201.777 236.886 201.777C238.099 201.777 239.29 201.46 240.34 200.858L287.448 173.855C287.615 173.758 287.753 173.62 287.849 173.453C287.946 173.286 287.996 173.098 287.996 172.905C287.996 172.713 287.946 172.524 287.849 172.358C287.753 172.191 287.615 172.052 287.448 171.956L240.876 145.188Z" fill="url(#paint11_linear)"/>
</g>
<g opacity="0.5">
<path opacity="0.5" d="M238.598 160.522C238.094 160.233 237.523 160.081 236.942 160.081C236.36 160.081 235.789 160.233 235.286 160.522L214.381 172.505C214.306 172.548 214.243 172.609 214.2 172.684C214.156 172.758 214.133 172.843 214.133 172.929C214.133 173.015 214.156 173.1 214.2 173.174C214.243 173.249 214.306 173.31 214.381 173.353L235.404 185.407C235.872 185.677 236.404 185.819 236.946 185.819C237.487 185.819 238.019 185.677 238.487 185.407L259.51 173.361C259.585 173.318 259.648 173.257 259.692 173.182C259.735 173.108 259.758 173.023 259.758 172.937C259.758 172.851 259.735 172.766 259.692 172.692C259.648 172.617 259.585 172.556 259.51 172.513L238.598 160.522Z" fill="#314842"/>
</g>
<path d="M214.382 173.29L235.286 161.307C235.789 161.016 236.36 160.863 236.942 160.863C237.523 160.863 238.095 161.016 238.598 161.307L259.47 173.29C259.47 173.29 259.47 173.29 259.518 173.337C259.579 173.289 259.627 173.228 259.659 173.157C259.691 173.087 259.705 173.01 259.7 172.932C259.696 172.855 259.672 172.781 259.632 172.714C259.592 172.648 259.537 172.593 259.47 172.552L238.598 160.561C238.094 160.272 237.523 160.12 236.942 160.12C236.36 160.12 235.789 160.272 235.286 160.561L214.382 172.505C214.315 172.545 214.26 172.601 214.22 172.667C214.18 172.733 214.156 172.808 214.152 172.885C214.147 172.962 214.161 173.04 214.193 173.11C214.225 173.18 214.273 173.242 214.334 173.29H214.382Z" fill="#518274"/>
<path d="M287.448 172.772L240.332 199.775C239.282 200.377 238.091 200.694 236.879 200.694C235.666 200.694 234.475 200.377 233.425 199.775L186.388 172.748C186.218 172.65 186.077 172.509 185.978 172.34C185.836 172.591 185.799 172.888 185.876 173.166C185.953 173.444 186.137 173.68 186.388 173.824L233.425 200.858C234.475 201.46 235.666 201.777 236.879 201.777C238.091 201.777 239.282 201.46 240.332 200.858L287.448 173.855C287.698 173.709 287.881 173.471 287.958 173.193C288.034 172.914 287.999 172.617 287.858 172.364C287.761 172.535 287.619 172.676 287.448 172.772Z" fill="#518274"/>
<path opacity="0.5" d="M275.351 107.371V79.5517C274.705 70.072 270.935 61.0395 264.611 52.7839V80.5876C270.92 88.851 274.705 97.8521 275.351 107.355V107.371ZM261.378 76.6874V48.8759C259.073 46.3018 256.603 43.8797 253.982 41.6248V69.4285C256.603 71.686 259.073 74.1108 261.378 76.6874ZM249.4 65.7009V37.9208C246.374 35.6283 243.229 33.4961 239.977 31.5329V59.3444C243.229 61.305 246.374 63.4346 249.4 65.7244V65.7009ZM233.629 63.9509V19.7382C259.367 33.33 275.422 52.7604 275.422 74.2704V118.507C275.422 97.0045 259.352 77.5663 233.629 63.9745V63.9509Z" fill="#589585"/>
<path opacity="0.5" d="M186.569 42.7391V34.7503C184.603 34.3737 182.619 34.0258 180.616 33.7066V41.6954C182.619 42.0145 184.603 42.3624 186.569 42.7391ZM175.861 33.0004V25.9376C173.826 25.6551 171.771 25.3935 169.694 25.1529V32.2156C171.766 32.4406 173.821 32.7021 175.861 33.0004ZM196.875 36.9947V27.3266C194.993 26.861 193.088 26.4215 191.158 26.0082V35.645C193.083 36.0635 194.988 36.5029 196.875 36.9633V36.9947ZM164.782 31.7683V17.5329C162.679 17.3551 160.576 17.206 158.473 17.0856V31.3131C160.602 31.4309 162.716 31.5878 164.782 31.7683ZM141.772 30.9835V16.7325C139.617 16.7639 137.474 16.8267 135.345 16.9208V31.1483C137.448 31.0646 139.59 31.0019 141.772 30.96V30.9835ZM130.346 31.4465V13.5229C128.243 13.6641 126.14 13.8316 124.038 14.0251V31.9174C126.119 31.7291 128.209 31.5564 130.346 31.423V31.4465ZM153.395 31.0777V10.6036C151.471 10.5408 149.531 10.4937 147.584 10.4781H146.898V30.9443H147.584C149.531 30.9443 151.471 31.0071 153.395 31.0699V31.0777ZM119.204 32.4275V6.82112C117.154 7.05655 115.119 7.31813 113.101 7.60588V33.2279C115.119 32.9402 117.154 32.6786 119.204 32.4432V32.4275ZM100.003 4.63168C115.643 1.36366 131.596 -0.183741 147.576 0.0173509C169.923 0.237081 190.851 3.65859 209.043 9.50497V53.7491C190.851 47.9027 169.923 44.4812 147.576 44.2537C131.596 44.0565 115.643 45.6038 100.003 48.868V4.63168Z" fill="#589585"/>
<path opacity="0.5" d="M24.366 64.6336V55.7267C21.7724 59.4063 19.6531 63.3952 18.0576 67.6V93.9753C19.6549 89.7738 21.7741 85.7878 24.366 82.11V73.2031C25.1545 72.0966 25.943 71.0136 26.8104 69.9306V74.7333C28.4801 72.6482 30.2649 70.6571 32.1568 68.7692V63.9666C40.5469 55.5697 51.7126 48.201 64.9365 42.2682V33.6988C62.5814 34.7451 60.2946 35.8464 58.0762 37.0026C56.9617 37.5781 55.8682 38.1614 54.7958 38.7526C46.8215 43.0566 39.4621 48.4037 32.9138 54.6516L32.1252 55.4363V50.6337C30.2314 52.5224 28.4464 54.5162 26.7789 56.6056V61.4083C25.9168 62.486 25.1019 63.5742 24.3344 64.6728L24.366 64.6336ZM16.3149 64.3589C21.3695 42.7705 42.6207 24.1719 72.7667 12.6047V56.841C42.6207 68.4161 21.3695 87.0068 16.3149 108.634V64.3589Z" fill="#589585"/>
<path opacity="0.5" d="M32.1565 55.3971L32.9451 54.6123V63.1818C37.7223 58.5793 42.9681 54.4844 48.5977 50.9633C50.6005 49.692 52.677 48.4625 54.8271 47.2749V38.7526C55.8785 38.1561 56.972 37.5728 58.1075 37.0026V45.5642C60.3233 44.4263 62.6101 43.3198 64.9678 42.2682C51.7439 48.2009 40.5782 55.5697 32.1881 63.9665V55.3971H32.1565ZM24.3657 64.6336C25.1385 63.5349 25.9533 62.4467 26.8102 61.369V69.9306C25.9507 71.0136 25.1385 72.0965 24.3657 73.203V64.6336Z" fill="#589585"/>
<path opacity="0.88" d="M58.0767 37.0025C60.2951 35.8568 62.5819 34.7555 64.937 33.6987V42.2368C62.5714 43.2884 60.2925 44.3949 58.0767 45.5327V37.0025Z" fill="#42E8E0"/>
<path opacity="0.5" d="M33.1328 54.5546C37.912 49.9543 43.1576 45.8596 48.7854 42.336V50.9055C43.1559 54.4266 37.9101 58.5215 33.1328 63.124V54.5546Z" fill="#589585"/>
<path opacity="0.97" d="M48.5669 42.433C50.5698 41.1721 52.6463 39.9453 54.7964 38.7525V47.3141C52.6516 48.5069 50.5751 49.7364 48.5669 51.0024V42.433Z" fill="#42E8E0"/>
<path opacity="0.75" d="M18.0503 67.5999C19.6457 63.3952 21.7651 59.4062 24.3586 55.7267V64.6336C21.7651 68.3131 19.6457 72.3021 18.0503 76.5068V85.0684C19.6459 80.8662 21.7652 76.8799 24.3586 73.203V82.1099C21.7668 85.7877 19.6475 89.7738 18.0503 93.9753V67.5999Z" fill="#589585"/>
<path opacity="0.88" d="M18.0503 76.5068C19.6457 72.302 21.7651 68.3131 24.3586 64.6335V73.203C21.7652 76.8798 19.6459 80.8661 18.0503 85.0684V76.5068Z" fill="#42E8E0"/>
<path opacity="0.75" d="M26.8101 69.9306C28.4797 67.8455 30.2646 65.8544 32.1564 63.9665V68.7692C30.2646 70.657 28.4797 72.6481 26.8101 74.7333V69.9306ZM26.8101 56.5899C28.4776 54.5005 30.2626 52.5066 32.1564 50.6179V55.4206C30.2645 57.3111 28.4796 59.3048 26.8101 61.3925V56.5899Z" fill="#589585"/>
<path opacity="0.88" d="M26.8101 61.3691C28.4796 59.2814 30.2645 57.2877 32.1564 55.3972V63.9666C30.2646 65.8545 28.4797 67.8456 26.8101 69.9307V61.3691Z" fill="#42E8E0"/>
<path opacity="0.75" d="M264.58 52.7839C270.888 61.0395 274.673 70.0484 275.32 79.5517V107.371C274.673 97.8991 270.904 88.8667 264.58 80.6033V52.7839Z" fill="#589585"/>
<path d="M253.981 41.6248C256.602 43.8797 259.073 46.3018 261.378 48.8759V76.6874C259.073 74.1108 256.602 71.686 253.981 69.4285V41.6248Z" fill="#589585"/>
<path opacity="0.75" d="M239.978 31.5328C243.229 33.496 246.374 35.6282 249.401 37.9207V65.7243C246.374 63.4345 243.229 61.3049 239.978 59.3443V31.5328Z" fill="#589585"/>
<path opacity="0.75" d="M191.159 26.0397C193.083 26.4583 194.988 26.8977 196.876 27.3581V36.9948C194.994 36.5344 193.088 36.095 191.159 35.6764V26.0397Z" fill="#589585"/>
<path opacity="0.75" d="M180.616 33.7065C182.619 34.0309 184.604 34.3788 186.57 34.7503V42.739C184.604 42.3623 182.619 42.0144 180.616 41.6953V33.7065Z" fill="#589585"/>
<path opacity="0.75" d="M169.695 25.1685C171.766 25.3986 173.821 25.6602 175.861 25.9532V33.0159C173.827 32.7334 171.771 32.4718 169.695 32.2312V25.1685Z" fill="#589585"/>
<path opacity="0.75" d="M158.442 17.1249C160.571 17.24 162.674 17.3891 164.751 17.5722V31.7684C162.653 31.5879 160.54 31.4309 158.442 31.3132V17.1249Z" fill="#589585"/>
<path opacity="0.75" d="M146.89 10.4702H147.576C149.523 10.4702 151.463 10.533 153.387 10.5958V31.0777C151.463 31.015 149.523 30.9679 147.576 30.9522H146.89V10.4702Z" fill="#589585"/>
<path d="M135.346 16.9207C137.448 16.8265 139.591 16.7638 141.772 16.7324V30.9598C139.617 31.0017 137.475 31.0645 135.346 31.1482V16.9207Z" fill="#589585"/>
<path opacity="0.75" d="M124.069 14.0252C126.172 13.8316 128.275 13.6642 130.378 13.5229V31.4231C128.272 31.5565 126.183 31.7291 124.069 31.9175V14.0252Z" fill="#589585"/>
<path d="M113.101 7.62154C115.119 7.32334 117.154 7.06175 119.204 6.83679V32.4275C117.154 32.6733 115.119 32.9349 113.101 33.2122V7.62154Z" fill="#589585"/>
<g opacity="0.11">
<path opacity="0.11" d="M140.093 226.151C141.211 225.509 142.48 225.171 143.771 225.171C145.062 225.171 146.331 225.509 147.45 226.151L191.308 251.263C191.468 251.352 191.6 251.482 191.692 251.64C191.784 251.797 191.833 251.975 191.833 252.157C191.833 252.339 191.784 252.518 191.692 252.675C191.6 252.832 191.468 252.962 191.308 253.052L147.087 278.486C146.099 279.052 144.979 279.351 143.838 279.351C142.698 279.351 141.577 279.052 140.589 278.486L96.2969 253.099C96.1398 253.008 96.0095 252.877 95.919 252.72C95.8284 252.563 95.7808 252.385 95.7808 252.204C95.7808 252.023 95.8284 251.846 95.919 251.689C96.0095 251.532 96.1398 251.401 96.2969 251.31L140.093 226.151Z" fill="url(#paint12_linear)"/>
</g>
<g opacity="0.11">
<path opacity="0.11" d="M140.093 218.805C141.211 218.163 142.48 217.826 143.771 217.826C145.062 217.826 146.331 218.163 147.45 218.805L191.308 243.917C191.468 244.007 191.6 244.137 191.692 244.294C191.784 244.451 191.833 244.63 191.833 244.812C191.833 244.994 191.784 245.173 191.692 245.33C191.6 245.487 191.468 245.617 191.308 245.707L147.087 271.132C146.099 271.699 144.979 271.998 143.838 271.998C142.698 271.998 141.577 271.699 140.589 271.132L96.2969 245.746C96.1398 245.655 96.0095 245.524 95.919 245.367C95.8284 245.21 95.7808 245.032 95.7808 244.851C95.7808 244.67 95.8284 244.492 95.919 244.335C96.0095 244.178 96.1398 244.048 96.2969 243.957L140.093 218.805Z" fill="url(#paint13_linear)"/>
</g>
<g opacity="0.11">
<path opacity="0.11" d="M140.093 211.444C141.211 210.802 142.48 210.465 143.771 210.465C145.062 210.465 146.331 210.802 147.45 211.444L191.308 236.556C191.468 236.646 191.6 236.776 191.692 236.933C191.784 237.09 191.833 237.269 191.833 237.451C191.833 237.633 191.784 237.812 191.692 237.969C191.6 238.126 191.468 238.256 191.308 238.346L147.087 263.779C146.099 264.346 144.979 264.644 143.838 264.644C142.698 264.644 141.577 264.346 140.589 263.779L96.2969 238.424C96.1398 238.333 96.0095 238.202 95.919 238.045C95.8284 237.888 95.7808 237.71 95.7808 237.529C95.7808 237.348 95.8284 237.171 95.919 237.014C96.0095 236.857 96.1398 236.726 96.2969 236.635L140.093 211.444Z" fill="url(#paint14_linear)"/>
</g>
<g opacity="0.11">
<path opacity="0.11" d="M140.093 204.091C141.211 203.449 142.48 203.112 143.771 203.112C145.062 203.112 146.331 203.449 147.45 204.091L191.308 229.203C191.468 229.293 191.6 229.423 191.692 229.58C191.784 229.737 191.833 229.916 191.833 230.098C191.833 230.28 191.784 230.458 191.692 230.616C191.6 230.773 191.468 230.903 191.308 230.992L147.087 256.426C146.099 256.993 144.979 257.291 143.838 257.291C142.698 257.291 141.577 256.993 140.589 256.426L96.2969 231.04C96.1398 230.948 96.0095 230.818 95.919 230.661C95.8284 230.504 95.7808 230.326 95.7808 230.145C95.7808 229.964 95.8284 229.786 95.919 229.629C96.0095 229.472 96.1398 229.342 96.2969 229.25L140.093 204.091Z" fill="url(#paint15_linear)"/>
</g>
<g opacity="0.11">
<path opacity="0.11" d="M139.304 186.058C140.661 185.279 142.2 184.869 143.767 184.869C145.334 184.869 146.873 185.279 148.23 186.058L201.409 216.545C201.599 216.655 201.757 216.812 201.866 217.002C201.976 217.191 202.034 217.406 202.034 217.624C202.034 217.843 201.976 218.057 201.866 218.247C201.757 218.436 201.599 218.594 201.409 218.703L147.789 249.52C146.59 250.209 145.23 250.572 143.846 250.572C142.462 250.572 141.102 250.209 139.903 249.52L86.1955 218.735C86.0057 218.624 85.8484 218.466 85.7391 218.276C85.6298 218.086 85.5723 217.871 85.5723 217.652C85.5723 217.433 85.6298 217.218 85.7391 217.028C85.8484 216.838 86.0057 216.68 86.1955 216.569L139.304 186.058Z" fill="url(#paint16_linear)"/>
</g>
<g opacity="0.11">
<path opacity="0.11" d="M139.304 177.143C140.661 176.364 142.2 175.954 143.767 175.954C145.334 175.954 146.873 176.364 148.23 177.143L201.409 207.623C201.599 207.734 201.757 207.892 201.866 208.082C201.975 208.272 202.033 208.487 202.033 208.706C202.033 208.925 201.975 209.14 201.866 209.33C201.757 209.52 201.599 209.678 201.409 209.789L147.789 240.598C146.59 241.287 145.23 241.649 143.846 241.649C142.462 241.649 141.102 241.287 139.903 240.598L86.1955 209.82C86.0057 209.709 85.8484 209.551 85.7391 209.361C85.6298 209.171 85.5723 208.956 85.5723 208.737C85.5723 208.518 85.6298 208.303 85.7391 208.113C85.8484 207.923 86.0057 207.765 86.1955 207.654L139.304 177.143Z" fill="url(#paint17_linear)"/>
</g>
<g opacity="0.11">
<path opacity="0.11" d="M139.304 168.228C140.662 167.451 142.201 167.042 143.767 167.042C145.333 167.042 146.872 167.451 148.23 168.228L201.409 198.716C201.599 198.827 201.757 198.985 201.866 199.175C201.975 199.365 202.033 199.58 202.033 199.799C202.033 200.018 201.975 200.233 201.866 200.423C201.757 200.613 201.599 200.771 201.409 200.882L147.789 231.691C146.59 232.38 145.23 232.742 143.846 232.742C142.462 232.742 141.102 232.38 139.903 231.691L86.1955 200.913C86.0057 200.802 85.8484 200.644 85.7391 200.454C85.6298 200.264 85.5723 200.049 85.5723 199.83C85.5723 199.611 85.6298 199.396 85.7391 199.206C85.8484 199.016 86.0057 198.858 86.1955 198.747L139.304 168.228Z" fill="url(#paint18_linear)"/>
</g>
<g opacity="0.11">
<path opacity="0.11" d="M139.304 159.313C140.662 158.536 142.201 158.127 143.767 158.127C145.333 158.127 146.872 158.536 148.23 159.313L201.409 189.77C201.599 189.88 201.757 190.039 201.866 190.228C201.975 190.418 202.033 190.634 202.033 190.852C202.033 191.071 201.975 191.286 201.866 191.476C201.757 191.666 201.599 191.825 201.409 191.935L147.789 222.745C146.59 223.433 145.23 223.796 143.846 223.796C142.462 223.796 141.102 223.433 139.903 222.745L86.1955 191.967C86.0057 191.856 85.8484 191.698 85.7391 191.508C85.6298 191.318 85.5723 191.103 85.5723 190.884C85.5723 190.665 85.6298 190.45 85.7391 190.26C85.8484 190.07 86.0057 189.912 86.1955 189.801L139.304 159.313Z" fill="url(#paint19_linear)"/>
</g>
<path d="M86.2032 189.824L139.304 159.313C140.661 158.536 142.2 158.127 143.767 158.127C145.333 158.127 146.872 158.536 148.23 159.313L201.409 189.77C201.601 189.878 201.759 190.036 201.869 190.227C201.978 190.417 202.035 190.633 202.032 190.852V217.597C202.035 217.816 201.979 218.033 201.87 218.223C201.76 218.414 201.601 218.571 201.409 218.68L147.788 249.497C146.59 250.186 145.23 250.548 143.846 250.548C142.461 250.548 141.102 250.186 139.903 249.497L86.1953 218.711C86.0031 218.602 85.8433 218.445 85.7325 218.255C85.6216 218.064 85.5636 217.848 85.5645 217.628V190.907C85.5636 190.686 85.6224 190.469 85.7348 190.279C85.8472 190.088 86.0089 189.931 86.2032 189.824Z" fill="#589685"/>
<g opacity="0.11">
<path opacity="0.11" d="M139.304 159.313C140.662 158.536 142.201 158.127 143.767 158.127C145.333 158.127 146.872 158.536 148.23 159.313L201.409 189.77C201.599 189.88 201.757 190.039 201.866 190.228C201.975 190.418 202.033 190.634 202.033 190.852C202.033 191.071 201.975 191.286 201.866 191.476C201.757 191.666 201.599 191.825 201.409 191.935L147.789 222.745C146.59 223.433 145.23 223.796 143.846 223.796C142.462 223.796 141.102 223.433 139.903 222.745L86.1955 191.967C86.0057 191.856 85.8484 191.698 85.7391 191.508C85.6298 191.318 85.5723 191.103 85.5723 190.884C85.5723 190.665 85.6298 190.45 85.7391 190.26C85.8484 190.07 86.0057 189.912 86.1955 189.801L139.304 159.313Z" fill="url(#paint20_linear)"/>
</g>
<path d="M86.2038 190.758L139.911 221.536C141.11 222.225 142.47 222.588 143.854 222.588C145.238 222.588 146.598 222.225 147.797 221.536L201.418 190.727C201.612 190.617 201.772 190.457 201.883 190.264C202.046 190.551 202.088 190.889 202.001 191.207C201.914 191.524 201.704 191.795 201.418 191.959L147.797 222.768C146.598 223.457 145.238 223.82 143.854 223.82C142.47 223.82 141.11 223.457 139.911 222.768L86.2038 191.991C85.9168 191.825 85.707 191.553 85.6199 191.234C85.5328 190.915 85.5754 190.575 85.7386 190.288C85.8467 190.485 86.0078 190.648 86.2038 190.758Z" fill="#518274"/>
<path d="M143.807 207.795C159.977 207.795 173.086 200.263 173.086 190.97C173.086 181.678 159.977 174.145 143.807 174.145C127.637 174.145 114.528 181.678 114.528 190.97C114.528 200.263 127.637 207.795 143.807 207.795Z" fill="#4E8274"/>
<path d="M154.972 176.704C154.972 176.704 155.682 177.449 156.423 178.273C157.546 179.287 158.785 180.167 160.113 180.894C160.981 181.436 164.979 184.449 165.814 187.415C166.65 190.382 163.796 190.782 160.87 190.264C157.945 189.746 155.224 187.062 154.428 186.097C152.329 184.058 149.918 182.366 147.284 181.083C143.696 179.238 145.864 176.759 145.864 176.759L154.972 176.704Z" fill="#151519"/>
<path d="M128.335 185.524C127.926 186.499 127.661 187.527 127.547 188.577C127.381 190.295 127.137 194.015 127.05 195.106C126.856 197.347 127.496 199.581 128.848 201.384C130.772 203.934 131.766 204.939 134.328 203.934C136.891 202.93 136.828 198.661 136.371 196.463C135.939 193.937 135.662 191.387 135.543 188.828C135.575 188.538 135.526 188.244 135.401 187.98L128.335 185.524Z" fill="#151519"/>
<path d="M163.781 126.276C163.781 126.276 163.244 145.894 158.647 156.284C156.505 162.776 155.253 169.525 154.925 176.35C155.137 176.903 155.219 177.497 155.164 178.086C155.11 178.675 154.92 179.244 154.61 179.748C153.538 181.279 146.796 182.675 145.684 177.661C144.572 172.646 144.998 163.269 146.22 159.361C147.442 155.452 145.786 144.67 145.786 144.67C145.786 144.67 143.933 145.824 141.567 153.585C139.202 161.346 137.38 164.281 136.544 166.423C135.709 168.566 134.967 181.687 135.48 188.09C135.48 188.09 130.023 188.875 128.446 186.27C126.869 183.664 126.341 170.245 126.735 165.96C127.129 161.676 128.935 147.958 128.691 143.713C128.446 139.467 127.555 136.022 128.533 131.784C129.511 127.547 158.3 118.13 158.3 118.13L163.781 126.276Z" fill="#21232F"/>
<path d="M128.651 143.713C128.406 139.475 127.515 136.022 128.493 131.784C128.856 130.215 133.154 127.861 138.374 125.585C147.19 124.8 158.371 123.851 159.136 123.968C160.512 124.336 161.858 124.803 163.165 125.365L163.781 126.276C163.781 126.276 163.781 127.468 163.631 129.415C161.573 130.027 157.622 129.415 157.622 129.415C157.062 130.796 153.632 135.693 149.358 137.788C145.084 139.883 132.586 139.177 131.868 139.977C131.151 140.778 131.017 151.513 131.08 152.879C131.143 154.244 129.897 162.829 128.714 170.426C127.531 178.022 129.313 186.984 129.369 187.274C128.963 187.029 128.62 186.693 128.367 186.293C126.79 183.696 126.262 170.269 126.656 165.984C127.05 161.699 128.895 147.958 128.651 143.713Z" fill="#151519"/>
<path d="M154.184 62.1617C154.184 62.1617 160.571 63.6135 162.716 64.1157C162.893 64.1545 163.058 64.2364 163.196 64.3542C163.333 64.472 163.439 64.622 163.504 64.7906C164.127 66.3601 165.681 71.2099 164.506 78.2962C163.649 83.1093 163.321 88.0009 163.528 92.8846L166.477 108.187C166.477 108.187 170.191 122.768 169.876 123.16C169.56 123.553 161.32 129.799 158.749 128.92C156.179 128.041 157.022 126.566 157.022 126.566C157.022 126.566 154.933 137.137 145.707 137.035C136.481 136.933 128.942 136.964 127.373 133.252C125.804 129.54 127.807 113.932 129.431 107.756C131.056 101.58 134.951 89.2591 134.951 89.2591L121.436 74.3489L132.893 65.6146C132.893 65.6146 135.653 60.5137 136.781 59.8702C137.908 59.2268 138.507 59.7682 138.507 59.7682L154.184 62.1617Z" fill="#21232F"/>
<path d="M158.544 125.554C158.544 126.087 158.844 126.872 160.5 127.437C162.298 128.049 166.682 125.397 169.56 123.396C168.125 124.588 161.052 129.721 158.702 128.889C158.288 128.759 157.897 128.566 157.543 128.316C157.945 127.421 158.28 126.498 158.544 125.554Z" fill="#09090B"/>
<path d="M127.373 132.036C129.029 135.959 136.977 135.92 146.716 136.03C148.867 136.083 150.981 135.474 152.772 134.288C151.828 135.2 150.711 135.915 149.485 136.391C148.26 136.867 146.951 137.094 145.636 137.058C136.41 136.956 128.871 136.988 127.302 133.268C126.79 132.051 126.663 129.548 126.774 126.519C126.774 128.983 126.947 130.968 127.373 132.036Z" fill="#09090B"/>
<path d="M137.057 59.7367C137.057 59.7367 134.691 62.5774 138.09 66.4149C141.358 70.3994 144.286 74.6493 146.842 79.12C148.758 82.4238 150.525 84.1816 151.526 87.0224C151.526 87.0224 151.668 83.648 151.802 78.4451C151.928 73.5325 151.992 68.4317 151.802 67.1447C151.321 64.5315 139.667 58.4497 137.057 59.7367Z" fill="#F0F6FF"/>
<path d="M145.88 68.2827C145.88 68.2827 147.095 69.0675 147.505 68.9733C148.152 68.6058 148.744 68.1487 149.263 67.6157C149.263 67.6157 152.614 67.5529 152.977 66.1246C153.218 64.9033 153.534 63.6977 153.923 62.5148C154.263 61.7771 155.706 58.2144 155.721 56.7704C155.737 55.3265 155.674 52.7368 156.305 51.3714C156.936 50.0059 157.772 36.3199 144.477 36.7123C131.182 37.1046 135.33 50.8377 135.33 50.8377C135.33 50.8377 134.36 51.2458 134.943 53.0115C135.527 54.7772 135.661 54.9655 135.96 55.8366C136.144 56.6747 136.598 57.43 137.254 57.9868L137.474 59.6112C137.147 61.3157 137.513 63.0799 138.492 64.5159C140.163 66.9015 145.88 68.2827 145.88 68.2827Z" fill="#F1D5D5"/>
<path d="M163.047 64.2726C163.047 64.2726 164.458 64.4845 169.055 75.981C171.618 82.3924 175.569 89.0393 176.405 93.8105C177.24 98.5818 176.775 103.675 175.829 104.012C174.883 104.35 158.418 110.502 153.253 112.44C153.187 112.464 153.116 112.474 153.046 112.468C152.976 112.463 152.908 112.442 152.847 112.408C152.785 112.373 152.732 112.326 152.69 112.27C152.649 112.213 152.62 112.148 152.606 112.079L151.179 104.146L161.43 100.222C162.493 98.927 163.774 97.8251 165.215 96.9652C165.215 96.9652 163.157 93.1984 163.291 92.1704C163.425 91.1424 163.11 80.509 164.308 76.1772C165.507 71.8454 163.047 64.2726 163.047 64.2726Z" fill="#1A1B22"/>
<path d="M157.046 94.658C157.046 94.658 158.458 93.7163 158.805 93.5828C159.152 93.4494 161.044 92.7981 161.399 92.649C162.035 92.5594 162.68 92.5594 163.315 92.649C163.414 92.6589 163.509 92.6927 163.591 92.7474C163.674 92.8021 163.741 92.8761 163.788 92.9629C164.222 93.7477 165.436 96.1019 165.295 96.9965C165.295 96.9965 161.888 99.1389 161.51 100.096L160.965 100.214C160.965 100.214 158.679 95.3642 157.046 94.658Z" fill="#F1D5D5"/>
<path d="M129.384 107.779C129.778 106.288 130.299 104.452 130.859 102.506L151.597 111.358C149.447 113.714 146.802 115.573 143.851 116.801C140.9 118.03 137.714 118.598 134.517 118.467C132.126 118.333 129.808 117.601 127.775 116.341C128.16 113.461 128.697 110.603 129.384 107.779Z" fill="#09090B"/>
<path d="M121.365 74.4115C121.365 74.4115 126.829 75.1962 131.253 82.1334C134.198 86.9352 136.753 91.9631 138.894 97.1692L139.044 98.0717C139.136 98.6252 139.355 99.1503 139.683 99.6067C140.01 100.063 140.439 100.439 140.935 100.705C141.432 100.971 141.983 101.12 142.546 101.141C143.11 101.162 143.67 101.054 144.185 100.826C148.846 98.7387 155.761 95.5997 157.046 94.658C158.394 95.5149 159.555 96.6334 160.458 97.9467C161.362 99.2599 161.99 100.741 162.306 102.301C163.205 106.586 162.976 106.602 162.976 106.602C162.976 106.602 144.564 115.156 137.451 115.069C130.338 114.983 121.318 91.7152 120.324 86.9047C119.33 82.0942 118.234 75.7534 121.365 74.4115Z" fill="#24126A"/>
<path d="M121.365 74.4115C121.365 74.4115 126.829 75.1962 131.253 82.1334C134.198 86.9352 136.753 91.9631 138.894 97.1692L139.044 98.0717C139.136 98.6252 139.355 99.1503 139.683 99.6067C140.01 100.063 140.439 100.439 140.935 100.705C141.432 100.971 141.983 101.12 142.546 101.141C143.11 101.162 143.67 101.054 144.185 100.826C148.846 98.7387 155.761 95.5997 157.046 94.658C158.394 95.5149 159.555 96.6334 160.458 97.9467C161.362 99.2599 161.99 100.741 162.306 102.301C163.205 106.586 162.976 106.602 162.976 106.602C162.976 106.602 144.564 115.156 137.451 115.069C130.338 114.983 121.318 91.7152 120.324 86.9047C119.33 82.0942 118.234 75.7534 121.365 74.4115Z" fill="#1A1B22"/>
<path d="M141.567 101.878C141.567 101.878 139.248 104.036 138.239 102.851C137.23 101.666 137.521 101.54 137.521 101.54C137.521 101.54 135.432 101.54 135.156 100.214C134.88 98.8879 133.87 99.602 133.807 98.1502C133.744 96.6984 135.503 96.9966 135.503 96.9966L141.567 101.878Z" fill="#151519"/>
<path d="M144.342 100.732C144.342 100.732 143.704 100.143 142.884 99.4529C142.064 98.7623 140.723 95.8823 140.518 95.6312C140.313 95.38 137.514 93.2769 136.173 93.222C134.833 93.1671 135.826 94.6738 136.134 94.8856C136.441 95.0975 137.75 95.741 137.75 95.741C137.75 95.741 139.099 96.8711 139.248 97.0359C139.398 97.2007 135.511 96.769 134.896 97.1457C134.772 97.2443 134.673 97.3691 134.604 97.511C134.536 97.653 134.5 97.8084 134.5 97.9658C134.5 98.1232 134.536 98.2786 134.604 98.4205C134.673 98.5625 134.772 98.6873 134.896 98.7858C135.13 98.9429 135.402 99.0325 135.684 99.0448C135.565 99.3682 135.575 99.7247 135.711 100.041C135.847 100.358 136.1 100.611 136.418 100.748C137.585 101.289 137.853 100.991 137.853 100.991C137.853 100.991 137.955 103.008 139.887 102.608L144.342 100.732Z" fill="#F1D5D5"/>
<path d="M156.604 44.3791C156.604 44.3791 158.331 49.8724 153.774 48.3029C149.216 46.7334 145.1 44.128 143.657 45.1639C142.56 45.9486 142.616 48.2401 142.702 49.3074C142.728 49.671 142.631 50.0328 142.426 50.3354L141.07 52.2894C140.921 52.5118 140.831 52.7684 140.81 53.0349L140.715 54.3925C140.704 54.5588 140.632 54.7151 140.513 54.8322C140.394 54.9493 140.236 55.019 140.069 55.0282H139.761C139.593 55.0384 139.426 54.9864 139.294 54.8821C139.161 54.7779 139.072 54.6287 139.044 54.4632L138.689 52.4699C138.689 52.4699 137.616 49.7782 135.353 50.8376C135.353 50.8376 133.831 48.8051 134.336 44.4655C134.841 40.1258 136.796 35.6214 145.376 34.8994C153.955 34.1774 156.604 44.3791 156.604 44.3791Z" fill="#21232F"/>
<path d="M143.531 73.1167L144.808 72.1279C145.48 72.6911 146.039 73.3753 146.456 74.1447C146.914 75.1884 146.456 78.4844 146.456 78.4844L146.851 79.1514L147.332 78.2803L147.734 74.3566C147.734 74.3566 147.3 71.4687 147.261 71.3981C146.434 71.4431 145.61 71.5295 144.792 71.657C144.28 72.0567 143.851 72.5527 143.531 73.1167Z" fill="#C4CCD6"/>
<path d="M149.681 69.2323C150.383 69.272 151.064 69.4793 151.668 69.8366C151.668 69.8366 150.233 69.9072 150.004 69.9307C149.776 69.9543 149.681 69.2323 149.681 69.2323Z" fill="#C4CCD6"/>
<path d="M147.087 69.5383L144.792 71.6807C145.96 72.2347 146.877 73.2032 147.363 74.3959C147.363 74.3959 149.863 74.8589 150.091 73.9565C150.32 73.054 150.091 70.8175 150.383 69.7816C150.675 68.7457 147.087 69.5383 147.087 69.5383Z" fill="#589585"/>
<path d="M149.989 73.9015C150.191 74.813 150.492 75.6998 150.888 76.5461C151.353 77.3309 151.826 78.1862 151.826 78.1862L151.771 89.1727C151.771 89.1727 147.718 80.8623 146.843 79.175C146.843 79.175 146.977 75.1728 147.355 74.4195C147.734 73.6661 149.989 73.9015 149.989 73.9015Z" fill="#589585"/>
<path d="M139.115 57.7043C141.773 65.3478 149.264 67.6157 149.264 67.6157C148.745 68.1487 148.153 68.6058 147.505 68.9734C147.095 69.0361 145.881 68.2828 145.881 68.2828C145.881 68.2828 140.164 66.9016 138.516 64.4924C137.537 63.0564 137.171 61.2922 137.499 59.5877L137.278 57.9633C137.579 58.0905 137.909 58.1336 138.233 58.088C138.556 58.0423 138.862 57.9097 139.115 57.7043Z" fill="#DDBEBE"/>
<path d="M133.028 66.6504C133.028 66.6504 134.077 70.2602 134.211 70.3936C135.094 70.4144 135.977 70.3645 136.852 70.2445L135.638 72.536C135.638 72.536 148.255 85.9866 150.849 93.222C145.945 86.0635 140.44 79.3323 134.392 73.101L135.874 70.8566L133.296 71.3589L133.028 66.6504Z" fill="#09090B"/>
<path d="M153.727 63.4644L154.397 64.2491L153.608 64.9789L155.974 67.0742C155.974 67.0742 156.684 81.7882 153.837 91.5348C153.837 91.5348 157.701 82.5965 156.826 66.674L154.302 64.9711L155.13 64.1863L153.727 63.4644Z" fill="#09090B"/>
<path d="M145.786 144.67L145.699 144.733L148.964 141.28C147.458 143.391 149.192 153.051 149.374 155.296C149.555 157.54 147.631 162.092 146.906 167.451C146.18 172.811 147.694 180.463 147.694 180.486C147.178 180.186 146.733 179.778 146.39 179.29C146.047 178.802 145.814 178.247 145.707 177.661C144.595 172.646 145.021 163.269 146.243 159.361C147.465 155.453 145.786 144.67 145.786 144.67Z" fill="#151519"/>
<path d="M137.451 115.069C130.354 114.983 121.317 91.7152 120.323 86.9047C120.158 86.12 119.992 85.2567 119.834 84.4014C119.834 84.472 121.703 89.4944 123.485 93.9439C125.268 98.3934 134.777 112.032 139.635 112.911C144.011 113.696 159.766 106.398 162.818 104.946C163.094 106.586 162.976 106.602 162.976 106.602C162.976 106.602 144.563 115.156 137.451 115.069Z" fill="#151519"/>
<path d="M139.761 55.0048C139.593 55.015 139.427 54.963 139.294 54.8587C139.162 54.7545 139.073 54.6053 139.044 54.4398L138.689 52.4465C138.689 52.4465 137.617 49.7548 135.354 50.8142C135.354 50.8142 133.918 48.8837 134.305 44.7874C136.828 48.5541 142.427 50.2806 142.427 50.2806L141.07 52.2346C140.921 52.457 140.832 52.7136 140.81 52.9801L140.716 54.3377C140.704 54.504 140.632 54.6603 140.513 54.7774C140.394 54.8945 140.236 54.9642 140.069 54.9734L139.761 55.0048Z" fill="#2A2C3A"/>
<path opacity="0.5" d="M56.4837 166.274V158.796C57.9872 159.596 59.5275 160.381 61.1046 161.15V168.628C59.5275 167.865 57.9872 167.08 56.4837 166.274ZM41.6985 156.928V143.156C42.9444 144.089 44.2298 145.015 45.5624 145.918V159.69C44.2324 158.785 42.9444 157.864 41.6985 156.928ZM48.7481 161.778V145.533C50.1307 146.407 51.5474 147.26 52.9983 148.092V164.344C51.5474 163.501 50.1307 162.646 48.7481 161.778ZM29.8231 146.263V128.214C30.7772 129.265 31.7866 130.301 32.8274 131.353V149.402C31.7866 148.382 30.7772 147.346 29.8231 146.263ZM35.3429 151.756V132.224C36.4521 133.223 37.6007 134.204 38.7888 135.167V154.691C37.606 153.723 36.4573 152.743 35.3429 151.749V151.756ZM21.2043 134.492V113.304C21.8457 114.449 22.5317 115.582 23.2624 116.702V137.89C22.5317 136.765 21.8457 135.632 21.2043 134.492ZM25.0682 140.511V112.966C25.8725 114.065 26.7215 115.153 27.6152 116.231V143.775C26.7267 142.698 25.8777 141.61 25.0682 140.511ZM18.2552 128.245V97.1222C18.723 98.3045 19.2487 99.479 19.8322 100.646V131.753C19.275 130.592 18.7493 129.417 18.2552 128.23V128.245ZM70.5986 135.128C40.8548 123.207 20.3133 104.365 16.0078 82.7848V127.029C20.3133 148.61 40.8548 167.444 70.5986 179.372V135.128Z" fill="#589585"/>
<path opacity="0.5" d="M238.677 152.455V143.885C259.423 131.698 272.923 115.446 275.131 97.3576V105.927C272.923 123.976 259.423 140.26 238.677 152.455ZM275.431 119.833V75.5886C274.768 97.232 257.964 116.545 231.682 129.862V174.075C257.964 160.734 274.768 141.437 275.431 119.801V119.833Z" fill="#589585"/>
<path opacity="0.75" d="M275.131 97.3577C272.923 115.407 259.423 131.698 238.676 143.886V152.455C259.423 140.26 272.923 124.008 275.131 105.927V97.3577Z" fill="#589585"/>
<path opacity="0.5" d="M157.795 184.277V174.295C162.916 174.012 167.941 173.567 172.872 172.96V182.942C167.946 183.544 162.921 183.989 157.795 184.277ZM133.745 184.316V166.133C136.815 166.29 139.911 166.382 143.034 166.408C145.168 166.408 147.292 166.408 149.405 166.408V184.598C147.302 184.64 145.179 184.64 143.034 184.598C139.911 184.567 136.815 184.473 133.745 184.316ZM110.569 181.962V154.126C115.411 154.911 120.379 155.5 125.441 155.939V183.751C120.379 183.303 115.411 182.699 110.569 181.93V181.962ZM180.797 181.844V152.447C185.607 151.668 190.302 150.739 194.88 149.661V179.027C190.307 180.11 185.612 181.038 180.797 181.812V181.844ZM206.74 139.828C187.815 145.635 166.059 148.829 143.034 148.602C127.738 148.492 112.496 146.766 97.5664 143.454V187.698C112.498 191.003 127.738 192.728 143.034 192.846C166.059 193.074 187.791 189.872 206.74 184.072V139.797V139.828Z" fill="#589585"/>
<path d="M125.441 155.939C120.379 155.5 115.411 154.888 110.569 154.127V181.922C115.411 182.707 120.379 183.296 125.441 183.743V155.939Z" fill="#589585"/>
<path d="M172.872 172.96C167.947 173.567 162.921 174.012 157.795 174.294V184.277C162.916 183.994 167.941 183.549 172.872 182.942V172.96Z" fill="#589585"/>
<path d="M194.881 149.661C190.307 150.739 185.613 151.667 180.797 152.447V181.812C185.607 181.033 190.302 180.104 194.881 179.026V149.661Z" fill="#589585"/>
<path opacity="0.75" d="M149.405 166.384C147.302 166.421 145.178 166.421 143.034 166.384C139.911 166.353 136.815 166.261 133.745 166.11V184.292C136.815 184.449 139.911 184.543 143.034 184.575C145.168 184.575 147.292 184.575 149.405 184.575V166.384Z" fill="#589585"/>
<path d="M19.8242 100.646C19.2669 99.4842 18.7412 98.3097 18.2471 97.1221V128.23C18.7149 129.412 19.2406 130.586 19.8242 131.753V100.646Z" fill="#589585"/>
<path d="M23.2856 116.702C22.5549 115.582 21.8689 114.45 21.2275 113.304V134.492C21.8689 135.638 22.5549 136.77 23.2856 137.89V116.702Z" fill="#589585"/>
<path opacity="0.75" d="M27.6461 116.215C26.7577 115.138 25.9087 114.049 25.0991 112.951V140.495C25.9034 141.594 26.7524 142.682 27.6461 143.76V116.215Z" fill="#589585"/>
<path d="M32.8354 131.345C31.7945 130.325 30.7852 129.289 29.8311 128.206V146.255C30.7852 147.307 31.7945 148.343 32.8354 149.394V131.345Z" fill="#589585"/>
<path opacity="0.75" d="M38.8204 135.167C37.6376 134.204 36.489 133.223 35.3745 132.224V151.749C36.4837 152.743 37.6324 153.724 38.8204 154.691V135.167Z" fill="#589585"/>
<path opacity="0.75" d="M45.5616 145.918C44.229 145.016 42.9437 144.09 41.6978 143.156V156.928C42.9437 157.87 44.2316 158.79 45.5616 159.69V145.918Z" fill="#589585"/>
<path opacity="0.75" d="M52.9983 148.092C51.5474 147.26 50.1306 146.407 48.748 145.533V161.778C50.1306 162.651 51.5474 163.507 52.9983 164.344V148.092Z" fill="#589585"/>
<path opacity="0.75" d="M61.136 161.142C59.5589 160.383 58.0186 159.599 56.5151 158.788V166.266C58.0186 167.067 59.5589 167.852 61.136 168.621V161.142Z" fill="#589585"/>
<defs>
<linearGradient id="paint0_linear" x1="77.0805" y1="171.297" x2="113.74" y2="171.297" gradientUnits="userSpaceOnUse">
<stop stop-color="#5761D7"/>
<stop offset="0.07" stop-color="#5472D8"/>
<stop offset="0.28" stop-color="#4E9CDB"/>
<stop offset="0.48" stop-color="#49BDDD"/>
<stop offset="0.67" stop-color="#45D5DF"/>
<stop offset="0.85" stop-color="#43E3E0"/>
<stop offset="1" stop-color="#42E8E0"/>
</linearGradient>
<linearGradient id="paint1_linear" x1="174.687" y1="171.242" x2="211.133" y2="171.242" gradientUnits="userSpaceOnUse">
<stop stop-color="#42E8E0"/>
<stop offset="0.15" stop-color="#43E3E0"/>
<stop offset="0.33" stop-color="#45D5DF"/>
<stop offset="0.52" stop-color="#49BDDD"/>
<stop offset="0.72" stop-color="#4E9CDB"/>
<stop offset="0.93" stop-color="#5472D8"/>
<stop offset="1" stop-color="#5761D7"/>
</linearGradient>
<linearGradient id="paint2_linear" x1="12000.4" y1="17767.2" x2="25234.8" y2="17767.2" gradientUnits="userSpaceOnUse">
<stop stop-color="#5761D7"/>
<stop offset="0.07" stop-color="#5472D8"/>
<stop offset="0.28" stop-color="#4E9CDB"/>
<stop offset="0.48" stop-color="#49BDDD"/>
<stop offset="0.67" stop-color="#45D5DF"/>
<stop offset="0.85" stop-color="#43E3E0"/>
<stop offset="1" stop-color="#42E8E0"/>
</linearGradient>
<linearGradient id="paint3_linear" x1="12000.4" y1="17188.6" x2="25234.8" y2="17188.6" gradientUnits="userSpaceOnUse">
<stop stop-color="#5761D7"/>
<stop offset="0.07" stop-color="#5472D8"/>
<stop offset="0.28" stop-color="#4E9CDB"/>
<stop offset="0.48" stop-color="#49BDDD"/>
<stop offset="0.67" stop-color="#45D5DF"/>
<stop offset="0.85" stop-color="#43E3E0"/>
<stop offset="1" stop-color="#42E8E0"/>
</linearGradient>
<linearGradient id="paint4_linear" x1="12000.4" y1="16610.1" x2="25234.8" y2="16610.1" gradientUnits="userSpaceOnUse">
<stop stop-color="#5761D7"/>
<stop offset="0.07" stop-color="#5472D8"/>
<stop offset="0.28" stop-color="#4E9CDB"/>
<stop offset="0.48" stop-color="#49BDDD"/>
<stop offset="0.67" stop-color="#45D5DF"/>
<stop offset="0.85" stop-color="#43E3E0"/>
<stop offset="1" stop-color="#42E8E0"/>
</linearGradient>
<linearGradient id="paint5_linear" x1="12000.5" y1="16026" x2="25235.1" y2="16026" gradientUnits="userSpaceOnUse">
<stop stop-color="#5761D7"/>
<stop offset="0.07" stop-color="#5472D8"/>
<stop offset="0.28" stop-color="#4E9CDB"/>
<stop offset="0.48" stop-color="#49BDDD"/>
<stop offset="0.67" stop-color="#45D5DF"/>
<stop offset="0.85" stop-color="#43E3E0"/>
<stop offset="1" stop-color="#42E8E0"/>
</linearGradient>
<linearGradient id="paint6_linear" x1="12000.5" y1="16026" x2="25235.1" y2="16026" gradientUnits="userSpaceOnUse">
<stop stop-color="#5761D7"/>
<stop offset="0.07" stop-color="#5472D8"/>
<stop offset="0.28" stop-color="#4E9CDB"/>
<stop offset="0.48" stop-color="#49BDDD"/>
<stop offset="0.67" stop-color="#45D5DF"/>
<stop offset="0.85" stop-color="#43E3E0"/>
<stop offset="1" stop-color="#42E8E0"/>
</linearGradient>
<linearGradient id="paint7_linear" x1="36259.8" y1="17765.3" x2="49494.2" y2="17765.3" gradientUnits="userSpaceOnUse">
<stop stop-color="#5761D7"/>
<stop offset="0.07" stop-color="#5472D8"/>
<stop offset="0.28" stop-color="#4E9CDB"/>
<stop offset="0.48" stop-color="#49BDDD"/>
<stop offset="0.67" stop-color="#45D5DF"/>
<stop offset="0.85" stop-color="#43E3E0"/>
<stop offset="1" stop-color="#42E8E0"/>
</linearGradient>
<linearGradient id="paint8_linear" x1="36259.8" y1="17188.9" x2="49494.2" y2="17188.9" gradientUnits="userSpaceOnUse">
<stop stop-color="#5761D7"/>
<stop offset="0.07" stop-color="#5472D8"/>
<stop offset="0.28" stop-color="#4E9CDB"/>
<stop offset="0.48" stop-color="#49BDDD"/>
<stop offset="0.67" stop-color="#45D5DF"/>
<stop offset="0.85" stop-color="#43E3E0"/>
<stop offset="1" stop-color="#42E8E0"/>
</linearGradient>
<linearGradient id="paint9_linear" x1="36259.8" y1="16608.3" x2="49494.2" y2="16608.3" gradientUnits="userSpaceOnUse">
<stop stop-color="#5761D7"/>
<stop offset="0.07" stop-color="#5472D8"/>
<stop offset="0.28" stop-color="#4E9CDB"/>
<stop offset="0.48" stop-color="#49BDDD"/>
<stop offset="0.67" stop-color="#45D5DF"/>
<stop offset="0.85" stop-color="#43E3E0"/>
<stop offset="1" stop-color="#42E8E0"/>
</linearGradient>
<linearGradient id="paint10_linear" x1="36260.2" y1="16024.2" x2="49494.7" y2="16024.2" gradientUnits="userSpaceOnUse">
<stop stop-color="#5761D7"/>
<stop offset="0.07" stop-color="#5472D8"/>
<stop offset="0.28" stop-color="#4E9CDB"/>
<stop offset="0.48" stop-color="#49BDDD"/>
<stop offset="0.67" stop-color="#45D5DF"/>
<stop offset="0.85" stop-color="#43E3E0"/>
<stop offset="1" stop-color="#42E8E0"/>
</linearGradient>
<linearGradient id="paint11_linear" x1="36260.2" y1="16024.2" x2="49494.7" y2="16024.2" gradientUnits="userSpaceOnUse">
<stop stop-color="#5761D7"/>
<stop offset="0.07" stop-color="#5472D8"/>
<stop offset="0.28" stop-color="#4E9CDB"/>
<stop offset="0.48" stop-color="#49BDDD"/>
<stop offset="0.67" stop-color="#45D5DF"/>
<stop offset="0.85" stop-color="#43E3E0"/>
<stop offset="1" stop-color="#42E8E0"/>
</linearGradient>
<linearGradient id="paint12_linear" x1="-15136.8" y1="20630.9" x2="-26836.8" y2="20630.9" gradientUnits="userSpaceOnUse">
<stop stop-color="#5761D7"/>
<stop offset="0.07" stop-color="#5472D8"/>
<stop offset="0.28" stop-color="#4E9CDB"/>
<stop offset="0.48" stop-color="#49BDDD"/>
<stop offset="0.67" stop-color="#45D5DF"/>
<stop offset="0.85" stop-color="#43E3E0"/>
<stop offset="1" stop-color="#42E8E0"/>
</linearGradient>
<linearGradient id="paint13_linear" x1="-15136.8" y1="20113" x2="-26836.8" y2="20113" gradientUnits="userSpaceOnUse">
<stop stop-color="#5761D7"/>
<stop offset="0.07" stop-color="#5472D8"/>
<stop offset="0.28" stop-color="#4E9CDB"/>
<stop offset="0.48" stop-color="#49BDDD"/>
<stop offset="0.67" stop-color="#45D5DF"/>
<stop offset="0.85" stop-color="#43E3E0"/>
<stop offset="1" stop-color="#42E8E0"/>
</linearGradient>
<linearGradient id="paint14_linear" x1="-15136.8" y1="19600.9" x2="-26836.8" y2="19600.9" gradientUnits="userSpaceOnUse">
<stop stop-color="#5761D7"/>
<stop offset="0.07" stop-color="#5472D8"/>
<stop offset="0.28" stop-color="#4E9CDB"/>
<stop offset="0.48" stop-color="#49BDDD"/>
<stop offset="0.67" stop-color="#45D5DF"/>
<stop offset="0.85" stop-color="#43E3E0"/>
<stop offset="1" stop-color="#42E8E0"/>
</linearGradient>
<linearGradient id="paint15_linear" x1="-15136.8" y1="19085.8" x2="-26836.8" y2="19085.8" gradientUnits="userSpaceOnUse">
<stop stop-color="#5761D7"/>
<stop offset="0.07" stop-color="#5472D8"/>
<stop offset="0.28" stop-color="#4E9CDB"/>
<stop offset="0.48" stop-color="#49BDDD"/>
<stop offset="0.67" stop-color="#45D5DF"/>
<stop offset="0.85" stop-color="#43E3E0"/>
<stop offset="1" stop-color="#42E8E0"/>
</linearGradient>
<linearGradient id="paint16_linear" x1="-16863.2" y1="22038.3" x2="-34063.4" y2="22038.3" gradientUnits="userSpaceOnUse">
<stop stop-color="#5761D7"/>
<stop offset="0.07" stop-color="#5472D8"/>
<stop offset="0.28" stop-color="#4E9CDB"/>
<stop offset="0.48" stop-color="#49BDDD"/>
<stop offset="0.67" stop-color="#45D5DF"/>
<stop offset="0.85" stop-color="#43E3E0"/>
<stop offset="1" stop-color="#42E8E0"/>
</linearGradient>
<linearGradient id="paint17_linear" x1="-16863.1" y1="21280.5" x2="-34063.1" y2="21280.5" gradientUnits="userSpaceOnUse">
<stop stop-color="#5761D7"/>
<stop offset="0.07" stop-color="#5472D8"/>
<stop offset="0.28" stop-color="#4E9CDB"/>
<stop offset="0.48" stop-color="#49BDDD"/>
<stop offset="0.67" stop-color="#45D5DF"/>
<stop offset="0.85" stop-color="#43E3E0"/>
<stop offset="1" stop-color="#42E8E0"/>
</linearGradient>
<linearGradient id="paint18_linear" x1="-16863.1" y1="20527" x2="-34063.1" y2="20527" gradientUnits="userSpaceOnUse">
<stop stop-color="#5761D7"/>
<stop offset="0.07" stop-color="#5472D8"/>
<stop offset="0.28" stop-color="#4E9CDB"/>
<stop offset="0.48" stop-color="#49BDDD"/>
<stop offset="0.67" stop-color="#45D5DF"/>
<stop offset="0.85" stop-color="#43E3E0"/>
<stop offset="1" stop-color="#42E8E0"/>
</linearGradient>
<linearGradient id="paint19_linear" x1="-16863.1" y1="19762.3" x2="-34063.1" y2="19762.3" gradientUnits="userSpaceOnUse">
<stop stop-color="#5761D7"/>
<stop offset="0.07" stop-color="#5472D8"/>
<stop offset="0.28" stop-color="#4E9CDB"/>
<stop offset="0.48" stop-color="#49BDDD"/>
<stop offset="0.67" stop-color="#45D5DF"/>
<stop offset="0.85" stop-color="#43E3E0"/>
<stop offset="1" stop-color="#42E8E0"/>
</linearGradient>
<linearGradient id="paint20_linear" x1="-16863.1" y1="19762.3" x2="-34063.1" y2="19762.3" gradientUnits="userSpaceOnUse">
<stop stop-color="#5761D7"/>
<stop offset="0.07" stop-color="#5472D8"/>
<stop offset="0.28" stop-color="#4E9CDB"/>
<stop offset="0.48" stop-color="#49BDDD"/>
<stop offset="0.67" stop-color="#45D5DF"/>
<stop offset="0.85" stop-color="#43E3E0"/>
<stop offset="1" stop-color="#42E8E0"/>
</linearGradient>
</defs>
</svg>
