<svg xmlns:xlink="http://www.w3.org/1999/xlink">
    <symbol viewBox="0 0 178 37" id="logo-icon" xmlns="http://www.w3.org/2000/svg">
        <defs>
            <g id="logo_icon">
                <path d="M50.2777 29.1315V28.1513C50.7661 28.5188 51.3039 28.7027 51.8908 28.7027C52.6783 28.7027 53.0719 28.4354 53.0719 27.9007C53.0719 27.7485 53.0373 27.6203 52.968 27.5164C52.9025 27.4087 52.8113 27.314 52.6946 27.2323C52.5816 27.1506 52.4468 27.0783 52.29 27.0151C52.1369 26.9483 51.971 26.8796 51.7924 26.809C51.5445 26.7088 51.3257 26.6085 51.1362 26.5083C50.9502 26.4043 50.7935 26.2892 50.6659 26.163C50.5419 26.0331 50.4472 25.8864 50.3816 25.723C50.3196 25.5596 50.2886 25.3684 50.2886 25.1494C50.2886 24.882 50.3487 24.6462 50.469 24.442C50.5893 24.2341 50.7497 24.0614 50.9502 23.924C51.1507 23.7829 51.3786 23.6772 51.6338 23.6066C51.8926 23.5361 52.1587 23.5007 52.4321 23.5007C52.917 23.5007 53.3508 23.5861 53.7336 23.757V24.6815C53.3216 24.4067 52.8478 24.2693 52.3118 24.2693C52.1442 24.2693 51.9929 24.2897 51.858 24.3306C51.7231 24.3677 51.6064 24.4216 51.508 24.4921C51.4133 24.5627 51.3385 24.648 51.2838 24.7483C51.2328 24.8449 51.2073 24.9525 51.2073 25.0713C51.2073 25.2199 51.2328 25.3443 51.2838 25.4445C51.3385 25.5448 51.4169 25.6339 51.519 25.7119C51.6211 25.7898 51.745 25.8603 51.8908 25.9235C52.0366 25.9866 52.2025 26.0553 52.3884 26.1296C52.6363 26.2261 52.8587 26.3263 53.0556 26.4303C53.2524 26.5306 53.4201 26.6456 53.5586 26.7756C53.6971 26.9019 53.8029 27.0485 53.8758 27.2156C53.9523 27.3827 53.9907 27.5814 53.9907 27.8116C53.9907 28.0938 53.9286 28.3388 53.8047 28.5467C53.6844 28.7547 53.5221 28.9273 53.318 29.0647C53.1138 29.2021 52.8788 29.3042 52.6126 29.371C52.3465 29.4379 52.0676 29.4713 51.7759 29.4713C51.1999 29.4713 50.7005 29.358 50.2777 29.1315Z"
                      fill="#D3D5DA"/>
                <path d="M64.8929 29.3376H63.996V26.0627C63.996 25.4316 63.8994 24.9748 63.7063 24.6926C63.5166 24.4104 63.1959 24.2693 62.7438 24.2693C62.361 24.2693 62.0348 24.4475 61.765 24.8041C61.4989 25.1605 61.3658 25.5875 61.3658 26.085V29.3376H60.469V25.9514C60.469 24.83 60.0443 24.2693 59.1949 24.2693C58.8012 24.2693 58.4767 24.4383 58.2215 24.7762C57.9664 25.1103 57.8388 25.5466 57.8388 26.085V29.3376H56.942V23.6344H57.8388V24.5367H57.8606C58.2579 23.846 58.8376 23.5007 59.5995 23.5007C59.9823 23.5007 60.3159 23.6103 60.6003 23.8293C60.8846 24.0447 61.0797 24.3287 61.1853 24.6815C61.6009 23.8943 62.2206 23.5007 63.0446 23.5007C64.2767 23.5007 64.8929 24.2749 64.8929 25.8232V29.3376Z"
                      fill="#D3D5DA"/>
                <path d="M72.1641 29.3376H71.2673V28.4465H71.2455C70.8554 29.1297 70.2812 29.4713 69.5229 29.4713C68.9652 29.4713 68.5277 29.3209 68.2106 29.0202C67.897 28.7194 67.7403 28.3202 67.7403 27.8227C67.7403 26.7571 68.3564 26.137 69.5885 25.9625L71.2673 25.723C71.2673 24.7539 70.8827 24.2693 70.1136 24.2693C69.4391 24.2693 68.8303 24.5033 68.2871 24.9711V24.0354C68.8376 23.6789 69.4719 23.5007 70.1901 23.5007C71.5061 23.5007 72.1641 24.2099 72.1641 25.6283V29.3376ZM71.2673 26.4526L69.9166 26.642C69.5011 26.7014 69.1875 26.8072 68.9761 26.9594C68.7647 27.1079 68.6589 27.3734 68.6589 27.7558C68.6589 28.0343 68.7555 28.2627 68.9488 28.4409C69.1456 28.6155 69.4063 28.7027 69.7308 28.7027C70.1755 28.7027 70.5419 28.5449 70.8298 28.2293C71.1215 27.91 71.2673 27.5071 71.2673 27.0207V26.4526Z"
                      fill="#D3D5DA"/>
                <path d="M78.3418 24.5589C78.185 24.4363 77.959 24.3751 77.6637 24.3751C77.281 24.3751 76.9601 24.5589 76.7013 24.9265C76.4461 25.2941 76.3185 25.7953 76.3185 26.4303V29.3375H75.4217V23.6343H76.3185V24.8095H76.3404C76.468 24.4086 76.663 24.0966 76.9255 23.8738C77.1879 23.6474 77.4815 23.5341 77.8059 23.5341C78.0392 23.5341 78.2178 23.5601 78.3418 23.6121V24.5589Z"
                      fill="#D3D5DA"/>
                <path d="M83.4804 29.282C83.269 29.4008 82.9901 29.4602 82.6438 29.4602C81.6631 29.4602 81.1728 28.9031 81.1728 27.7893V24.4142H80.2103V23.6344H81.1728V22.2421L82.0696 21.9468V23.6344H83.4804V24.4142H82.0696V27.6278C82.0696 28.0102 82.1334 28.2831 82.261 28.4465C82.3886 28.6099 82.6001 28.6916 82.8953 28.6916C83.1213 28.6916 83.3163 28.6284 83.4804 28.5022V29.282Z"
                      fill="#D3D5DA"/>
                <path d="M91.3462 22.1863C91.1858 22.1863 91.0491 22.1306 90.9361 22.0192C90.8231 21.9078 90.7666 21.7667 90.7666 21.5959C90.7666 21.4251 90.8231 21.2841 90.9361 21.1726C91.0491 21.0575 91.1858 21 91.3462 21C91.5102 21 91.6488 21.0575 91.7618 21.1726C91.8785 21.2841 91.9367 21.4251 91.9367 21.5959C91.9367 21.7593 91.8785 21.8985 91.7618 22.0137C91.6488 22.1288 91.5102 22.1863 91.3462 22.1863ZM91.7836 29.3376H90.8869V23.6343H91.7836V29.3376Z"
                      fill="#D3D5DA"/>
                <path d="M99.8148 29.3376H98.9186V26.085C98.9186 24.8745 98.4841 24.2693 97.6168 24.2693C97.1684 24.2693 96.7966 24.442 96.5012 24.7873C96.2096 25.129 96.0638 25.5615 96.0638 26.085V29.3376H95.167V23.6344H96.0638V24.5813H96.0857C96.5085 23.8609 97.121 23.5007 97.923 23.5007C98.5351 23.5007 99.0035 23.7031 99.3284 24.1078C99.6524 24.5088 99.8148 25.0899 99.8148 25.8511V29.3376Z"
                      fill="#D3D5DA"/>
                <path d="M107.48 23.6343L105.249 29.3376H104.369L102.247 23.6343H103.231L104.653 27.7781C104.759 28.0826 104.824 28.3481 104.85 28.5745H104.871C104.908 28.2887 104.967 28.0306 105.047 27.8004L106.534 23.6343H107.48Z"
                      fill="#D3D5DA"/>
                <path d="M114.516 26.7144H110.563C110.577 27.3492 110.745 27.8394 111.066 28.1847C111.386 28.53 111.827 28.7027 112.389 28.7027C113.02 28.7027 113.599 28.4911 114.128 28.0678V28.9254C113.636 29.2893 112.985 29.4713 112.176 29.4713C111.384 29.4713 110.763 29.2132 110.311 28.6972C109.859 28.1773 109.633 27.4477 109.633 26.5083C109.633 25.6209 109.879 24.8987 110.371 24.3418C110.867 23.781 111.482 23.5007 112.214 23.5007C112.946 23.5007 113.514 23.7421 113.914 24.2247C114.316 24.7074 114.516 25.3777 114.516 26.2354V26.7144ZM113.597 25.9402C113.594 25.4129 113.468 25.0027 113.22 24.7093C112.976 24.416 112.635 24.2693 112.197 24.2693C111.774 24.2693 111.415 24.4235 111.121 24.7316C110.825 25.0398 110.643 25.4427 110.574 25.9402H113.597Z"
                      fill="#D3D5DA"/>
                <path d="M117.107 29.1315V28.1513C117.595 28.5188 118.133 28.7027 118.72 28.7027C119.507 28.7027 119.901 28.4354 119.901 27.9007C119.901 27.7485 119.866 27.6203 119.797 27.5164C119.731 27.4087 119.641 27.314 119.524 27.2323C119.41 27.1506 119.276 27.0783 119.119 27.0151C118.966 26.9483 118.8 26.8796 118.622 26.809C118.373 26.7088 118.155 26.6085 117.965 26.5083C117.779 26.4043 117.622 26.2892 117.495 26.163C117.371 26.0331 117.276 25.8864 117.211 25.723C117.148 25.5596 117.118 25.3684 117.118 25.1494C117.118 24.882 117.178 24.6462 117.298 24.442C117.418 24.2341 117.579 24.0614 117.779 23.924C117.979 23.7829 118.208 23.6772 118.463 23.6066C118.722 23.5361 118.988 23.5007 119.261 23.5007C119.746 23.5007 120.18 23.5861 120.562 23.757V24.6815C120.151 24.4067 119.677 24.2693 119.141 24.2693C118.973 24.2693 118.822 24.2897 118.687 24.3306C118.552 24.3677 118.436 24.4216 118.337 24.4921C118.242 24.5627 118.167 24.648 118.113 24.7483C118.062 24.8449 118.036 24.9525 118.036 25.0713C118.036 25.2199 118.062 25.3443 118.113 25.4445C118.167 25.5448 118.246 25.6339 118.348 25.7119C118.45 25.7898 118.574 25.8603 118.72 25.9235C118.865 25.9866 119.031 26.0553 119.218 26.1296C119.465 26.2261 119.688 26.3263 119.884 26.4303C120.082 26.5306 120.249 26.6456 120.388 26.7756C120.527 26.9019 120.632 27.0485 120.705 27.2156C120.782 27.3827 120.819 27.5814 120.819 27.8116C120.819 28.0938 120.758 28.3388 120.633 28.5467C120.513 28.7547 120.351 28.9273 120.147 29.0647C119.943 29.2021 119.708 29.3042 119.441 29.371C119.175 29.4379 118.896 29.4713 118.605 29.4713C118.029 29.4713 117.53 29.358 117.107 29.1315Z"
                      fill="#D3D5DA"/>
                <path d="M126.369 29.282C126.157 29.4008 125.878 29.4602 125.532 29.4602C124.551 29.4602 124.061 28.9031 124.061 27.7893V24.4142H123.098V23.6344H124.061V22.2421L124.958 21.9468V23.6344H126.369V24.4142H124.958V27.6278C124.958 28.0102 125.021 28.2831 125.149 28.4465C125.276 28.6099 125.488 28.6916 125.783 28.6916C126.009 28.6916 126.204 28.6284 126.369 28.5022V29.282Z"
                      fill="#D3D5DA"/>
                <path d="M137.084 29.3376H136.188V26.0627C136.188 25.4316 136.091 24.9748 135.898 24.6926C135.708 24.4104 135.387 24.2693 134.936 24.2693C134.552 24.2693 134.227 24.4475 133.956 24.8041C133.691 25.1605 133.558 25.5875 133.558 26.085V29.3376H132.661V25.9514C132.661 24.83 132.236 24.2693 131.387 24.2693C130.993 24.2693 130.669 24.4383 130.413 24.7762C130.158 25.1103 130.03 25.5466 130.03 26.085V29.3376H129.134V23.6344H130.03V24.5367H130.052C130.45 23.846 131.03 23.5007 131.792 23.5007C132.174 23.5007 132.508 23.6103 132.792 23.8293C133.076 24.0447 133.272 24.3287 133.378 24.6815C133.793 23.8943 134.413 23.5007 135.236 23.5007C136.469 23.5007 137.084 24.2749 137.084 25.8232V29.3376Z"
                      fill="#D3D5DA"/>
                <path d="M144.848 26.7144H140.894C140.91 27.3492 141.077 27.8394 141.398 28.1847C141.719 28.53 142.16 28.7027 142.721 28.7027C143.352 28.7027 143.931 28.4911 144.46 28.0678V28.9254C143.968 29.2893 143.317 29.4713 142.508 29.4713C141.717 29.4713 141.095 29.2132 140.643 28.6972C140.191 28.1773 139.965 27.4477 139.965 26.5083C139.965 25.6209 140.211 24.8987 140.704 24.3418C141.199 23.781 141.813 23.5007 142.546 23.5007C143.279 23.5007 143.846 23.7421 144.246 24.2247C144.648 24.7074 144.848 25.3777 144.848 26.2354V26.7144ZM143.93 25.9402C143.926 25.4129 143.8 25.0027 143.552 24.7093C143.307 24.416 142.967 24.2693 142.529 24.2693C142.107 24.2693 141.747 24.4235 141.453 24.7316C141.157 25.0398 140.975 25.4427 140.906 25.9402H143.93Z"
                      fill="#D3D5DA"/>
                <path d="M152.426 29.3376H151.529V26.085C151.529 24.8745 151.095 24.2693 150.227 24.2693C149.779 24.2693 149.407 24.442 149.112 24.7873C148.82 25.129 148.675 25.5615 148.675 26.085V29.3376H147.778V23.6344H148.675V24.5813H148.696C149.12 23.8609 149.732 23.5007 150.533 23.5007C151.146 23.5007 151.615 23.7031 151.939 24.1078C152.264 24.5088 152.426 25.0899 152.426 25.8511V29.3376Z"
                      fill="#D3D5DA"/>
                <path d="M158.286 29.282C158.075 29.4008 157.796 29.4602 157.45 29.4602C156.469 29.4602 155.978 28.9031 155.978 27.7893V24.4142H155.016V23.6344H155.978V22.2421L156.875 21.9468V23.6344H158.286V24.4142H156.875V27.6278C156.875 28.0102 156.939 28.2831 157.067 28.4465C157.195 28.6099 157.406 28.6916 157.701 28.6916C157.927 28.6916 158.122 28.6284 158.286 28.5022V29.282Z"
                      fill="#D3D5DA"/>
                <path d="M46.1834 10.8236C48.1466 10.6902 49.0806 9.31783 49.0806 7.79301C49.0806 5.60107 47.1174 4.40027 44.182 4.40027H35.1666V17.7425H44.7348C47.8797 17.7425 49.8429 16.4845 49.8429 14.0829C49.8429 11.91 48.261 10.957 46.1834 10.8236ZM37.4157 6.3063H43.8199C45.6116 6.3063 46.8124 6.68751 46.8124 8.15515C46.8124 9.62279 45.6116 10.0231 43.8199 10.0231H37.4157V6.3063ZM44.2964 15.8364H37.4157V11.8719H44.2964C46.2978 11.8719 47.4986 12.3484 47.4986 13.8542C47.4986 15.36 46.2978 15.8364 44.2964 15.8364Z"
                      fill="#47A68A"/>
                <path d="M65.9048 4.40027V11.3001C65.9048 14.2925 64.1323 16.1033 60.9302 16.1033C57.7471 16.1033 55.9745 14.2925 55.9745 11.3001V4.40027H53.6872V11.4526C53.6872 15.3981 56.2222 18.1428 60.9302 18.1428C65.6571 18.1428 68.1921 15.3981 68.1921 11.4526V4.40027H65.9048Z"
                      fill="#47A68A"/>
                <path d="M71.2091 4.40027L77.785 13.1299V17.7425H80.0722V13.1299L86.629 4.40027H83.9986L78.9476 11.1667L73.8586 4.40027H71.2091Z"
                      fill="#47A68A"/>
                <path d="M102.294 4.40027H87.8845V6.4016H93.9266V17.7425H96.2139V6.4016H102.294V4.40027Z"
                      fill="#D3D5DA"/>
                <path d="M108.011 15.7411V11.9672H117.121V9.96588H108.011V6.4016H118.837V4.40027H105.742V17.7425H119.027V15.7411H108.011Z"
                      fill="#D3D5DA"/>
                <path d="M136.058 4.40027H122.277V6.36348H132.627L121.934 16.1414V17.7425H136.363V15.7793H125.365L136.058 6.00134V4.40027Z"
                      fill="#D3D5DA"/>
                <path d="M147.323 18.1428C152.451 18.1428 155.615 15.4743 155.615 11.0714C155.615 6.66844 152.451 4 147.323 4C142.196 4 139.032 6.66844 139.032 11.0714C139.032 15.4743 142.196 18.1428 147.323 18.1428ZM147.323 16.1223C143.682 16.1223 141.357 14.3116 141.357 11.0714C141.357 7.83112 143.701 6.02039 147.323 6.02039C150.944 6.02039 153.269 7.83112 153.269 11.0714C153.269 14.3116 150.944 16.1223 147.323 16.1223Z"
                      fill="#D3D5DA"/>
                <path d="M166.447 9.85151C163.532 9.62279 161.301 9.37501 161.301 7.96454C161.301 6.47784 163.817 5.96321 165.934 5.98228C168.144 6.00133 170.031 6.57314 171.404 7.77394L172.852 6.21099C171.251 4.85771 168.792 4 165.895 4C162.064 4 158.995 5.46764 158.995 8.11703C158.995 10.8427 162.465 11.6622 166.143 11.9672C169.497 12.2531 171.174 12.6153 171.174 13.9876C171.174 15.379 169.536 16.1605 166.563 16.1605C163.875 16.1605 161.74 15.4362 159.929 13.8161L158.5 15.4362C160.578 17.2279 163.341 18.1428 166.467 18.1428C171.003 18.1428 173.5 16.332 173.5 13.797C173.5 11.0142 170.603 10.1755 166.447 9.85151Z"
                      fill="#D3D5DA"/>
                <path fill-rule="evenodd" clip-rule="evenodd"
                      d="M17.1058 23.0444V26.2515H19.5444V21.2892L18.8493 21.6025C18.7922 21.7798 18.7102 21.9526 18.6043 22.1177C18.3893 22.46 18.0274 22.736 17.5785 22.9C17.4256 22.9575 17.2675 23.0057 17.1058 23.0444ZM17.123 22.3807L17.1058 22.3884V22.3921C17.1115 22.3883 17.1173 22.3846 17.123 22.3807Z"
                      fill="#47A68A"/>
                <path d="M26.9697 4L23.5046 9.67647H24.7237V23.9885L20.8507 28.049H8.19464L4 32.3333H22.9583L28.9375 26.1411V9.67647H30.4444L26.9697 4Z"
                      fill="#47A68A"/>
                <path d="M21.4526 9.83132L23.8333 5.88892H9.7978L4 11.9542V32.3334L8.03876 28.1083V14.077L11.827 9.83132H21.4526Z"
                      fill="#D3D5DA"/>
                <path d="M22.8889 15.3333H20.0555V25.7222L22.8889 22.7768V15.3333Z" fill="#47A68A"/>
                <path fill-rule="evenodd" clip-rule="evenodd"
                      d="M14.2609 20.8839H14.1345C14.1773 20.8903 14.2195 20.8996 14.2609 20.9117V20.8839ZM15.4831 23.1616C14.7023 23.1616 14.1325 22.9916 13.7735 22.6516C13.6424 22.5381 13.533 22.4081 13.4479 22.2666V26.2007H15.8866V23.1404C15.753 23.1549 15.6183 23.1619 15.4831 23.1616Z"
                      fill="#47A68A"/>
                <path d="M15.8259 21.9445C15.1835 21.9445 14.7147 21.7984 14.4193 21.5061C14.1457 21.2588 13.9869 20.9193 13.9777 20.5617C13.9744 20.4531 14.001 20.3455 14.055 20.2496C14.1054 20.1666 14.1783 20.0979 14.266 20.0502C14.368 20.0022 14.4805 19.9772 14.5945 19.9772C14.7085 19.9772 14.8209 20.0022 14.9229 20.0502C15.0105 20.0977 15.0829 20.1665 15.1326 20.2496C15.1883 20.345 15.2159 20.4528 15.2128 20.5617C15.2185 20.6918 15.179 20.8201 15.1002 20.9269C15.0346 21.0142 14.9408 21.079 14.833 21.1116C14.9384 21.2386 15.0878 21.3264 15.2548 21.36C15.4418 21.4113 15.6354 21.4377 15.8302 21.4384C16.0879 21.4405 16.3404 21.3693 16.5546 21.2339C16.7768 21.0857 16.9425 20.8737 17.0272 20.6296C17.1345 20.339 17.1869 20.0329 17.1819 19.7252C17.1906 19.4044 17.1332 19.0851 17.0131 18.7848C16.9227 18.5447 16.7512 18.3394 16.525 18.2005C16.3148 18.0748 16.0706 18.0089 15.8219 18.0106C15.605 18.0278 15.3959 18.0949 15.2128 18.2058L14.7612 18.4196V18.2058L16.7908 15.6348H13.9777V18.3028C13.9697 18.4953 14.0237 18.6856 14.1325 18.8486C14.1851 18.9197 14.2562 18.9766 14.339 19.0141C14.4217 19.0515 14.5134 19.0682 14.6051 19.0624C14.7743 19.0592 14.938 19.0047 15.072 18.907C15.2239 18.8019 15.3561 18.6735 15.463 18.5272C15.4726 18.5015 15.4904 18.4793 15.5139 18.4634C15.5327 18.448 15.5568 18.4396 15.5817 18.4395C15.6305 18.4438 15.6768 18.4623 15.7139 18.4926C15.761 18.5423 15.7866 18.6067 15.7856 18.6733C15.7802 18.718 15.7717 18.7623 15.7603 18.8061C15.6604 19.0344 15.4928 19.2308 15.2778 19.3717C15.0781 19.4993 14.8422 19.5669 14.6011 19.5658C13.992 19.5658 13.57 19.4524 13.3352 19.2258C13.2145 19.1005 13.1215 18.9538 13.0616 18.7941C13.0017 18.6345 12.9761 18.4651 12.9864 18.2961V15.6348H11.5555V15.1391H12.9931V14.0089L12.6639 13.6979V13.4445H13.619L13.9777 13.6197V15.1391L17.6938 15.1284L18.0638 15.4791L15.7851 17.6411C15.9227 17.5888 16.0677 17.5557 16.2155 17.5428C16.5079 17.5549 16.7932 17.6318 17.0483 17.7673C17.3438 17.8999 17.5927 18.1096 17.7657 18.3718C17.9207 18.5937 18.0305 18.841 18.0893 19.1009C18.1376 19.306 18.1635 19.5152 18.1667 19.7252C18.1682 20.1261 18.0719 20.5218 17.8853 20.882C17.7084 21.2306 17.4106 21.5118 17.0413 21.6789C16.6633 21.8547 16.2474 21.9457 15.8259 21.9445Z"
                      fill="#47A68A"/>
            </g>
        </defs>
        <use xlink:href="#logo_icon" transform="translate(0 0 178 37)"/>
    </symbol>
    <symbol viewBox="0 0 20 20" id="home-icon" xmlns="http://www.w3.org/2000/svg">
        <defs>
            <g id="home_icon">
                <path fill-rule="evenodd" clip-rule="evenodd"
                      d="M9.48846 1.00885C9.78939 0.7748 10.2108 0.7748 10.5117 1.00885L18.0117 6.84219C18.2147 7.00007 18.3334 7.24282 18.3334 7.49998V16.6666C18.3334 17.3297 18.07 17.9656 17.6012 18.4344C17.1323 18.9033 16.4965 19.1666 15.8334 19.1666H4.16675C3.50371 19.1666 2.86782 18.9033 2.39898 18.4344C1.93014 17.9656 1.66675 17.3297 1.66675 16.6666V7.49998C1.66675 7.24282 1.78548 7.00007 1.98846 6.84219L9.48846 1.00885ZM3.33341 7.90755V16.6666C3.33341 16.8877 3.42121 17.0996 3.57749 17.2559C3.73377 17.4122 3.94573 17.5 4.16675 17.5H15.8334C16.0544 17.5 16.2664 17.4122 16.4227 17.2559C16.579 17.0996 16.6667 16.8877 16.6667 16.6666V7.90755L10.0001 2.72236L3.33341 7.90755Z"
                />
                <path fill-rule="evenodd" clip-rule="evenodd"
                      d="M6.66675 9.99998C6.66675 9.53974 7.03984 9.16665 7.50008 9.16665H12.5001C12.9603 9.16665 13.3334 9.53974 13.3334 9.99998V18.3333C13.3334 18.7935 12.9603 19.1666 12.5001 19.1666C12.0398 19.1666 11.6667 18.7935 11.6667 18.3333V10.8333H8.33342V18.3333C8.33342 18.7935 7.96032 19.1666 7.50008 19.1666C7.03984 19.1666 6.66675 18.7935 6.66675 18.3333V9.99998Z"
                />
            </g>
        </defs>
        <use xlink:href="#home_icon" transform="translate(0 0 20 20)"/>
    </symbol>
    <symbol viewBox="0 0 20 20" id="briefcases-icon" xmlns="http://www.w3.org/2000/svg">
        <defs>
            <g id="briefcases_icon">
                <path d="M18.4445 4.42838H14.9776V2.13299C14.9776 1.76482 14.6791 1.46631 14.3109 1.46631H5.68906C5.3209 1.46631 5.02238 1.76479 5.02238 2.13299V4.42838H1.55555C0.697812 4.42838 0 5.12619 0 5.98393V16.9781C0 17.8358 0.697812 18.5336 1.55555 18.5336H18.4445C19.3022 18.5336 20 17.8358 20 16.9781V5.98393C20 5.12619 19.3022 4.42838 18.4445 4.42838ZM6.35574 2.79967H13.6442V4.42838H6.35574V2.79967ZM18.6667 16.9781C18.6667 17.1006 18.567 17.2003 18.4445 17.2003H1.55555C1.43301 17.2003 1.33332 17.1006 1.33332 16.9781V5.98393C1.33332 5.86139 1.43301 5.7617 1.55555 5.7617C1.9934 5.7617 17.989 5.7617 18.4445 5.7617C18.567 5.7617 18.6667 5.86139 18.6667 5.98393V16.9781Z"
                />
                <path d="M15.8567 7.82227H4.14324C3.77508 7.82227 3.47656 8.12074 3.47656 8.48895C3.47656 8.85715 3.77504 9.15563 4.14324 9.15563H15.8567C16.2248 9.15563 16.5234 8.85715 16.5234 8.48895C16.5234 8.12074 16.2248 7.82227 15.8567 7.82227Z"
                />
                <path d="M15.8567 10.8144H4.14324C3.77508 10.8144 3.47656 11.1129 3.47656 11.4811C3.47656 11.8493 3.77504 12.1478 4.14324 12.1478H15.8567C16.2248 12.1478 16.5234 11.8493 16.5234 11.4811C16.5234 11.1129 16.2248 10.8144 15.8567 10.8144Z"
                />
                <path d="M15.8567 13.8065H4.14324C3.77508 13.8065 3.47656 14.1049 3.47656 14.4731C3.47656 14.8413 3.77504 15.1398 4.14324 15.1398H15.8567C16.2248 15.1398 16.5234 14.8413 16.5234 14.4731C16.5234 14.1049 16.2248 13.8065 15.8567 13.8065Z"
                />
            </g>
        </defs>
        <use xlink:href="#briefcases_icon" transform="translate(0 0 20 20)"/>
    </symbol>
    <symbol viewBox="0 0 20 20" id="partners-icon" xmlns="http://www.w3.org/2000/svg">
        <defs>
            <g id="partners_icon">
                <path fill-rule="evenodd" clip-rule="evenodd"
                      d="M1.22039 12.8871C2.00179 12.1057 3.0616 11.6667 4.16667 11.6667H10.8333C11.9384 11.6667 12.9982 12.1057 13.7796 12.8871C14.561 13.6685 15 14.7283 15 15.8334V17.5C15 17.9603 14.6269 18.3334 14.1667 18.3334C13.7064 18.3334 13.3333 17.9603 13.3333 17.5V15.8334C13.3333 15.1703 13.0699 14.5344 12.6011 14.0656C12.1323 13.5967 11.4964 13.3334 10.8333 13.3334H4.16667C3.50363 13.3334 2.86774 13.5967 2.3989 14.0656C1.93006 14.5344 1.66667 15.1703 1.66667 15.8334V17.5C1.66667 17.9603 1.29357 18.3334 0.833333 18.3334C0.373096 18.3334 0 17.9603 0 17.5V15.8334C0 14.7283 0.438987 13.6685 1.22039 12.8871Z"
                />
                <path fill-rule="evenodd" clip-rule="evenodd"
                      d="M7.49992 3.33335C6.11921 3.33335 4.99992 4.45264 4.99992 5.83335C4.99992 7.21407 6.11921 8.33335 7.49992 8.33335C8.88063 8.33335 9.99992 7.21407 9.99992 5.83335C9.99992 4.45264 8.88063 3.33335 7.49992 3.33335ZM3.33325 5.83335C3.33325 3.53217 5.19873 1.66669 7.49992 1.66669C9.8011 1.66669 11.6666 3.53217 11.6666 5.83335C11.6666 8.13454 9.8011 10 7.49992 10C5.19873 10 3.33325 8.13454 3.33325 5.83335Z"
                />
                <path fill-rule="evenodd" clip-rule="evenodd"
                      d="M15.8599 12.4C15.975 11.9544 16.4295 11.6864 16.8751 11.8014C17.769 12.0322 18.5609 12.5534 19.1265 13.283C19.6922 14.0127 19.9994 14.9095 20.0001 15.8327L20.0001 17.5C20.0001 17.9602 19.627 18.3333 19.1668 18.3333C18.7066 18.3333 18.3335 17.9602 18.3335 17.5L18.3335 15.8339C18.3335 15.8339 18.3335 15.834 18.3335 15.8339C18.333 15.2801 18.1486 14.7419 17.8093 14.3041C17.4699 13.8663 16.9948 13.5537 16.4585 13.4152C16.0128 13.3001 15.7449 12.8456 15.8599 12.4Z"
                />
                <path fill-rule="evenodd" clip-rule="evenodd"
                      d="M12.526 2.40161C12.6402 1.95576 13.0941 1.68687 13.54 1.80102C14.4363 2.0305 15.2307 2.55175 15.7979 3.2826C16.3652 4.01344 16.6732 4.9123 16.6732 5.83748C16.6732 6.76266 16.3652 7.66152 15.7979 8.39236C15.2307 9.12321 14.4363 9.64446 13.54 9.87394C13.0941 9.9881 12.6402 9.7192 12.526 9.27335C12.4118 8.82749 12.6807 8.37351 13.1266 8.25936C13.6643 8.12167 14.141 7.80892 14.4814 7.37041C14.8217 6.9319 15.0065 6.39259 15.0065 5.83748C15.0065 5.28237 14.8217 4.74306 14.4814 4.30455C14.141 3.86604 13.6643 3.55329 13.1266 3.41561C12.6807 3.30145 12.4118 2.84747 12.526 2.40161Z"
                />
            </g>
        </defs>
        <use xlink:href="#partners_icon" transform="translate(0 0 20 20)"/>
    </symbol>
    <symbol viewBox="0 0 20 20" id="partners-icon" xmlns="http://www.w3.org/2000/svg">
        <defs>
            <g id="partners_icon">
                <svg xmlns="http://www.w3.org/2000/svg" width="20" height="20" viewBox="0 0 20 20"
                     fill="none">
                    <path d="M7.21224 6.73473L3.88571 10.9388C3.54286 10.7878 3.16735 10.7021 2.77143 10.7021C1.2449 10.7021 0 11.947 0 13.4735C0 15 1.2449 16.2449 2.77143 16.2449C4.29796 16.2449 5.54286 15 5.54286 13.4735C5.54286 12.849 5.33469 12.2694 4.98367 11.8041L8.3102 7.60004C8.61633 7.75922 8.95102 7.87759 9.29796 7.94289V13.8817C8.10612 14.1919 7.22449 15.2776 7.22449 16.5633C7.22449 18.0939 8.46939 19.3347 9.99592 19.3347C11.5224 19.3347 12.7673 18.0898 12.7673 16.5633C12.7673 15.2776 11.8857 14.1919 10.6939 13.8817V7.94698C11.0327 7.88167 11.351 7.77147 11.649 7.62045L14.9796 11.8449C14.6449 12.3021 14.4449 12.8653 14.4449 13.4776C14.4449 15.0041 15.6898 16.249 17.2163 16.249C18.7429 16.249 20 15.0041 20 13.4735C20 11.947 18.7551 10.7021 17.2286 10.7021C16.8163 10.7021 16.4245 10.7919 16.0735 10.9551L12.7633 6.75922C13.3306 6.11024 13.6776 5.26534 13.6776 4.33881C13.6776 2.31432 12.0286 0.665344 10.0041 0.665344C7.97959 0.665344 6.33061 2.31432 6.33061 4.33881C6.32653 5.2531 6.66122 6.08983 7.21224 6.73473ZM2.77143 14.849C2.01633 14.849 1.4 14.2327 1.4 13.4776C1.4 12.7225 2.01633 12.1062 2.77143 12.1062C3.52653 12.1062 4.14286 12.7225 4.14286 13.4776C4.14286 14.2327 3.53061 14.849 2.77143 14.849ZM11.3714 16.5715C11.3714 17.3266 10.7551 17.9429 10 17.9429C9.2449 17.9429 8.62857 17.3266 8.62857 16.5715C8.62857 15.8245 9.22857 15.2164 9.97551 15.2C9.98367 15.2 9.99184 15.2 10.0041 15.2C10.0122 15.2 10.0204 15.2 10.0327 15.2C10.7714 15.2123 11.3714 15.8245 11.3714 16.5715ZM18.6 13.4735C18.6 14.2286 17.9837 14.8449 17.2286 14.8449C16.4735 14.8449 15.8571 14.2286 15.8571 13.4735C15.8571 12.7184 16.4735 12.1021 17.2286 12.1021C17.9837 12.1021 18.6 12.7184 18.6 13.4735ZM10 2.06534C11.2531 2.06534 12.2735 3.08575 12.2735 4.33881C12.2735 5.59187 11.2531 6.61228 10 6.61228C8.74694 6.61228 7.72653 5.59187 7.72653 4.33881C7.72653 3.08575 8.74694 2.06534 10 2.06534Z"
                          fill="#A6A7AC"/>
                </svg>
            </g>
        </defs>
        <use xlink:href="#partners_icon" transform="translate(0 0 20 20)"/>
    </symbol>
    <symbol viewBox="0 0 20 20" id="binary-icon" xmlns="http://www.w3.org/2000/svg">
        <defs>
            <g id="binary_icon">
                fill="none">
                <path d="M7.21224 6.73473L3.88571 10.9388C3.54286 10.7878 3.16735 10.7021 2.77143 10.7021C1.2449 10.7021 0 11.947 0 13.4735C0 15 1.2449 16.2449 2.77143 16.2449C4.29796 16.2449 5.54286 15 5.54286 13.4735C5.54286 12.849 5.33469 12.2694 4.98367 11.8041L8.3102 7.60004C8.61633 7.75922 8.95102 7.87759 9.29796 7.94289V13.8817C8.10612 14.1919 7.22449 15.2776 7.22449 16.5633C7.22449 18.0939 8.46939 19.3347 9.99592 19.3347C11.5224 19.3347 12.7673 18.0898 12.7673 16.5633C12.7673 15.2776 11.8857 14.1919 10.6939 13.8817V7.94698C11.0327 7.88167 11.351 7.77147 11.649 7.62045L14.9796 11.8449C14.6449 12.3021 14.4449 12.8653 14.4449 13.4776C14.4449 15.0041 15.6898 16.249 17.2163 16.249C18.7429 16.249 20 15.0041 20 13.4735C20 11.947 18.7551 10.7021 17.2286 10.7021C16.8163 10.7021 16.4245 10.7919 16.0735 10.9551L12.7633 6.75922C13.3306 6.11024 13.6776 5.26534 13.6776 4.33881C13.6776 2.31432 12.0286 0.665344 10.0041 0.665344C7.97959 0.665344 6.33061 2.31432 6.33061 4.33881C6.32653 5.2531 6.66122 6.08983 7.21224 6.73473ZM2.77143 14.849C2.01633 14.849 1.4 14.2327 1.4 13.4776C1.4 12.7225 2.01633 12.1062 2.77143 12.1062C3.52653 12.1062 4.14286 12.7225 4.14286 13.4776C4.14286 14.2327 3.53061 14.849 2.77143 14.849ZM11.3714 16.5715C11.3714 17.3266 10.7551 17.9429 10 17.9429C9.2449 17.9429 8.62857 17.3266 8.62857 16.5715C8.62857 15.8245 9.22857 15.2164 9.97551 15.2C9.98367 15.2 9.99184 15.2 10.0041 15.2C10.0122 15.2 10.0204 15.2 10.0327 15.2C10.7714 15.2123 11.3714 15.8245 11.3714 16.5715ZM18.6 13.4735C18.6 14.2286 17.9837 14.8449 17.2286 14.8449C16.4735 14.8449 15.8571 14.2286 15.8571 13.4735C15.8571 12.7184 16.4735 12.1021 17.2286 12.1021C17.9837 12.1021 18.6 12.7184 18.6 13.4735ZM10 2.06534C11.2531 2.06534 12.2735 3.08575 12.2735 4.33881C12.2735 5.59187 11.2531 6.61228 10 6.61228C8.74694 6.61228 7.72653 5.59187 7.72653 4.33881C7.72653 3.08575 8.74694 2.06534 10 2.06534Z"
                />
            </g>
        </defs>
        <use xlink:href="#binary_icon" transform="translate(0 0 20 20)"/>
    </symbol>
    <symbol viewBox="0 0 20 20" id="history-icon" xmlns="http://www.w3.org/2000/svg">
        <defs>
            <g id="history_icon">
                <path fill-rule="evenodd" clip-rule="evenodd"
                      d="M2.5 5.83332C2.96024 5.83332 3.33333 6.20642 3.33333 6.66666V16.6667H16.6667V6.66666C16.6667 6.20642 17.0398 5.83332 17.5 5.83332C17.9602 5.83332 18.3333 6.20642 18.3333 6.66666V17.5C18.3333 17.9602 17.9602 18.3333 17.5 18.3333H2.5C2.03976 18.3333 1.66667 17.9602 1.66667 17.5V6.66666C1.66667 6.20642 2.03976 5.83332 2.5 5.83332Z"
                />
                <path fill-rule="evenodd" clip-rule="evenodd"
                      d="M0 2.49999C0 2.03975 0.373096 1.66666 0.833333 1.66666H19.1667C19.6269 1.66666 20 2.03975 20 2.49999V6.66666C20 7.12689 19.6269 7.49999 19.1667 7.49999H0.833333C0.373096 7.49999 0 7.12689 0 6.66666V2.49999ZM1.66667 3.33332V5.83332H18.3333V3.33332H1.66667Z"
                />
                <path fill-rule="evenodd" clip-rule="evenodd"
                      d="M7.5 9.99999C7.5 9.53975 7.8731 9.16666 8.33333 9.16666H11.6667C12.1269 9.16666 12.5 9.53975 12.5 9.99999C12.5 10.4602 12.1269 10.8333 11.6667 10.8333H8.33333C7.8731 10.8333 7.5 10.4602 7.5 9.99999Z"
                />
            </g>
        </defs>
        <use xlink:href="#history_icon" transform="translate(0 0 20 20)"/>
    </symbol>
    <symbol viewBox="0 0 20 20" id="faq-icon" xmlns="http://www.w3.org/2000/svg">
        <defs>
            <g id="faq_icon">
                <path d="M9.99984 15C10.4601 15 10.8332 14.6269 10.8332 14.1667C10.8332 13.7064 10.4601 13.3333 9.99984 13.3333C9.5396 13.3333 9.1665 13.7064 9.1665 14.1667C9.1665 14.6269 9.5396 15 9.99984 15Z"
                />
                <path fill-rule="evenodd" clip-rule="evenodd"
                      d="M10.2966 7.13343C9.89196 7.15119 9.67618 7.314 9.60148 7.47271C9.4055 7.88913 8.90904 8.06783 8.49262 7.87184C8.0762 7.67585 7.8975 7.1794 8.09349 6.76297C8.52864 5.83839 9.46609 5.50161 10.2235 5.46837C10.9521 5.43639 11.8589 5.66847 12.3605 6.3226C12.7465 6.82598 12.9634 7.46407 12.8758 8.13498C12.787 8.81528 12.399 9.42551 11.7693 9.88871C10.9286 10.5072 10.93 10.8228 10.9303 10.8688C10.9303 10.8695 10.9303 10.8701 10.9303 10.8706C10.9303 11.3309 10.5572 11.704 10.0969 11.704C9.63669 11.704 9.2636 11.3309 9.2636 10.8706C9.2636 10.0734 9.72733 9.32185 10.7817 8.5462C11.1058 8.30778 11.2022 8.07966 11.2231 7.91925C11.2453 7.74946 11.1972 7.54448 11.0379 7.33682C11.0267 7.32221 10.9659 7.26142 10.8135 7.20665C10.6679 7.15436 10.485 7.12517 10.2966 7.13343Z"
                />
                <path d="M9.99992 19.1667C4.91658 19.1667 0.833252 15.0833 0.833252 10C0.833252 4.91668 4.91658 0.833344 9.99992 0.833344C15.0833 0.833344 19.1666 4.91668 19.1666 10C19.1666 15.0833 15.0833 19.1667 9.99992 19.1667ZM9.99992 2.50001C5.83325 2.50001 2.49992 5.83334 2.49992 10C2.49992 14.1667 5.83325 17.5 9.99992 17.5C14.1666 17.5 17.4999 14.1667 17.4999 10C17.4999 5.83334 14.1666 2.50001 9.99992 2.50001Z"
                />

            </g>
        </defs>
        <use xlink:href="#faq_icon" transform="translate(0 0 20 20)"/>
    </symbol>
    <symbol viewBox="0 0 20 20" id="statistics-icon" xmlns="http://www.w3.org/2000/svg">
        <defs>
            <g id="statistics_icon">
                <path d="M5.00001 7.85715H0.714299C0.319796 7.85715 0 8.17694 0 8.57145V19.2857C0 19.6802 0.319796 20 0.714299 20H5.00001C5.39451 20 5.71431 19.6802 5.71431 19.2857V8.57145C5.71427 8.17694 5.39447 7.85715 5.00001 7.85715ZM4.28571 18.5714H1.42856V9.28575H4.28571V18.5714Z"
                />
                <path d="M12.1428 0H7.85712C7.46262 0 7.14282 0.319796 7.14282 0.714299V19.2857C7.14282 19.6802 7.46262 20 7.85712 20H12.1428C12.5373 20 12.8571 19.6802 12.8571 19.2857V0.714299C12.8571 0.319796 12.5373 0 12.1428 0ZM11.4286 18.5714H8.57142V1.42856H11.4286V18.5714Z"
                />
                <path d="M19.2857 5.71426H14.9999C14.6054 5.71426 14.2856 6.03406 14.2856 6.42856V19.2857C14.2856 19.6802 14.6054 20 14.9999 20H19.2857C19.6802 20 20 19.6802 20 19.2857V6.42856C20 6.03406 19.6802 5.71426 19.2857 5.71426ZM18.5714 18.5714H15.7142V7.14286H18.5714V18.5714Z"
                />


            </g>
        </defs>
        <use xlink:href="#statistics_icon" transform="translate(0 0 20 20)"/>
    </symbol>
    <symbol viewBox="0 0 20 20" id="promotional-icon" xmlns="http://www.w3.org/2000/svg">
        <defs>
            <g id="promotional_icon">
                <path fill-rule="evenodd" clip-rule="evenodd"
                      d="M9.99992 2.49998C8.67384 2.49998 7.40207 3.02676 6.46438 3.96445C5.5267 4.90213 4.99992 6.1739 4.99992 7.49998V11.6666C4.99992 12.2568 4.8434 12.8309 4.55335 13.3333H15.4465C15.1564 12.8309 14.9999 12.2568 14.9999 11.6666V7.49998C14.9999 6.1739 14.4731 4.90213 13.5355 3.96445C12.5978 3.02676 11.326 2.49998 9.99992 2.49998ZM18.3333 13.3333C17.8912 13.3333 17.4673 13.1577 17.1547 12.8452C16.8422 12.5326 16.6666 12.1087 16.6666 11.6666V7.49998C16.6666 5.73187 15.9642 4.03618 14.714 2.78593C13.4637 1.53569 11.768 0.833313 9.99992 0.833313C8.23181 0.833313 6.53612 1.53569 5.28587 2.78593C4.03563 4.03618 3.33325 5.73187 3.33325 7.49998V11.6666C3.33325 12.1087 3.15766 12.5326 2.8451 12.8452C2.53254 13.1577 2.10861 13.3333 1.66659 13.3333C1.20635 13.3333 0.833252 13.7064 0.833252 14.1666C0.833252 14.6269 1.20635 15 1.66659 15H18.3333V13.3333ZM8.14011 16.7791C8.53821 16.5482 9.04815 16.6837 9.27909 17.0818C9.35234 17.2081 9.45749 17.3129 9.58399 17.3858C9.7105 17.4587 9.85393 17.497 9.99992 17.497C10.1459 17.497 10.2893 17.4587 10.4158 17.3858C10.5424 17.3129 10.6475 17.2081 10.7208 17.0818C10.9517 16.6837 11.4616 16.5482 11.8597 16.7791C12.2578 17.0101 12.3934 17.52 12.1624 17.9181C11.9427 18.297 11.6272 18.6114 11.2477 18.83C10.8682 19.0486 10.4379 19.1637 9.99992 19.1637C9.56194 19.1637 9.13166 19.0486 8.75214 18.83C8.37261 18.6114 8.05718 18.297 7.83742 17.9181C7.60648 17.52 7.742 17.0101 8.14011 16.7791Z"
                />
            </g>
        </defs>
        <use xlink:href="#promotional_icon" transform="translate(0 0 20 20)"/>
    </symbol>
    <symbol viewBox="0 0 16 16" id="lus-icon" xmlns="http://www.w3.org/2000/svg">
        <defs>
            <g id="lus_icon">
                <path d="M15.865 6.53159C15.8245 6.31313 15.6362 6.15309 15.414 6.14841C15.1907 6.14356 14.9969 6.29566 14.9473 6.51222C14.4704 8.59028 12.6459 10.0416 10.5104 10.0416C8.00041 10.0416 5.95834 7.99956 5.95834 5.48956C5.95834 3.35409 7.40969 1.52962 9.48778 1.05281C9.70434 1.00312 9.85625 0.808219 9.85163 0.586125C9.84697 0.364 9.68697 0.175625 9.46853 0.135063C8.98578 0.0454375 8.49172 0 8 0C5.86312 0 3.85416 0.832156 2.34313 2.34316C0.832156 3.85416 0 5.86312 0 8C0 10.1369 0.832156 12.1458 2.34313 13.6568C3.85416 15.1678 5.86312 16 8 16C10.1369 16 12.1458 15.1678 13.6569 13.6568C15.1678 12.1458 16 10.1369 16 8C16 7.50869 15.9546 7.01466 15.865 6.53159ZM8 15.0625C4.10572 15.0625 0.9375 11.8943 0.9375 8C0.9375 4.30541 3.7895 1.26425 7.40737 0.962125C6.96859 1.26306 6.57225 1.62784 6.23509 2.04591C5.45203 3.01688 5.02081 4.23987 5.02081 5.48956C5.02081 8.51653 7.48344 10.9791 10.5104 10.9791C11.7601 10.9791 12.9831 10.5479 13.9541 9.76484C14.3721 9.42769 14.7369 9.03137 15.0379 8.59262C14.7358 12.2105 11.6946 15.0625 8 15.0625Z"/>
            </g>
        </defs>
        <use xlink:href="#lus_icon" transform="translate(0 0 16 16)"/>
    </symbol>
    <symbol viewBox="0 0 16 16" id="arev-icon" xmlns="http://www.w3.org/2000/svg">
        <defs>
            <g id="arev_icon">
                <path d="M7.99911 13.3555C7.69758 13.3555 7.45312 13.6 7.45312 13.9015V15.4539C7.45312 15.7554 7.69758 15.9998 7.99911 15.9998C8.30071 15.9998 8.54509 15.7554 8.54509 15.4539V13.9015C8.54509 13.5999 8.30064 13.3555 7.99911 13.3555Z"/>
                <path d="M7.99911 2.64471C8.30071 2.64471 8.54509 2.40025 8.54509 2.09872V0.54623C8.54509 0.2447 8.30071 0.000244141 7.99911 0.000244141C7.69758 0.000244141 7.45312 0.2447 7.45312 0.54623V2.09872C7.45312 2.40025 7.69758 2.64471 7.99911 2.64471Z"/>
                <path d="M3.44098 11.7868L2.34289 12.8843C2.12959 13.0975 2.12952 13.4432 2.34267 13.6564C2.44932 13.763 2.58909 13.8164 2.72887 13.8164C2.86857 13.8164 3.00819 13.7631 3.11484 13.6566L4.21293 12.5591C4.42623 12.346 4.4263 12.0002 4.21315 11.787C3.99985 11.5737 3.6542 11.5737 3.44098 11.7868Z"/>
                <path d="M12.1724 4.3729C12.3121 4.3729 12.4518 4.31961 12.5585 4.21303L13.6564 3.11553C13.8696 2.9023 13.8697 2.55666 13.6565 2.34336C13.4433 2.13006 13.0977 2.12999 12.8844 2.34329L11.7864 3.44079C11.5732 3.65394 11.5731 3.99966 11.7863 4.21289C11.8929 4.31961 12.0326 4.3729 12.1724 4.3729Z"/>
                <path d="M2.64432 8.00009C2.64432 7.69856 2.39986 7.4541 2.09833 7.4541H0.545986C0.244456 7.4541 0 7.69856 0 8.00009C0 8.30162 0.244456 8.54607 0.545986 8.54607H2.09833C2.39986 8.54607 2.64432 8.30162 2.64432 8.00009Z"/>
                <path d="M15.454 7.4541H13.901C13.5994 7.4541 13.355 7.69856 13.355 8.00009C13.355 8.30162 13.5994 8.54607 13.901 8.54607H15.454C15.7556 8.54607 16 8.30162 16 8.00009C16 7.69863 15.7556 7.4541 15.454 7.4541Z"/>
                <path d="M3.44102 4.21289C3.54759 4.31946 3.68736 4.37275 3.82706 4.37275C3.96676 4.37275 4.10654 4.31946 4.21311 4.21289C4.42634 3.99966 4.42634 3.65394 4.21311 3.44071L3.11561 2.34321C2.90238 2.12998 2.55667 2.12998 2.34351 2.34321C2.13029 2.55643 2.13029 2.90215 2.34351 3.11531L3.44102 4.21289Z"/>
                <path d="M12.5591 11.7867C12.3459 11.5735 12.0002 11.5734 11.7869 11.7867C11.5736 11.9999 11.5736 12.3456 11.7869 12.5587L12.8842 13.6563C12.9909 13.7629 13.1306 13.8162 13.2703 13.8162C13.41 13.8162 13.5498 13.7629 13.6564 13.6563C13.8697 13.4431 13.8697 13.0974 13.6565 12.8842L12.5591 11.7867Z"/>
                <path d="M7.99968 3.75037C5.65653 3.75037 3.75024 5.6568 3.75024 8.0001C3.75024 10.3433 5.65653 12.2497 7.99968 12.2497C10.3431 12.2497 12.2495 10.3433 12.2495 8.0001C12.2495 5.6568 10.343 3.75037 7.99968 3.75037ZM7.99968 11.1577C6.25865 11.1577 4.84221 9.74121 4.84221 8.0001C4.84221 6.25892 6.25865 4.84234 7.99968 4.84234C9.74094 4.84234 11.1575 6.25892 11.1575 8.0001C11.1575 9.74121 9.74094 11.1577 7.99968 11.1577Z"/>
            </g>
        </defs>
        <use xlink:href="#arev_icon" transform="translate(0 0 16 16)"/>
    </symbol>
    <symbol viewBox="0 0 20 20" id="zang-icon" xmlns="http://www.w3.org/2000/svg">
        <defs>
            <g id="zang_icon">
                <path fill-rule="evenodd" clip-rule="evenodd"
                      d="M9.99992 2.49998C8.67384 2.49998 7.40207 3.02676 6.46438 3.96445C5.5267 4.90213 4.99992 6.1739 4.99992 7.49998V11.6666C4.99992 12.2568 4.8434 12.8309 4.55335 13.3333H15.4465C15.1564 12.8309 14.9999 12.2568 14.9999 11.6666V7.49998C14.9999 6.1739 14.4731 4.90213 13.5355 3.96445C12.5978 3.02676 11.326 2.49998 9.99992 2.49998ZM18.3333 13.3333C17.8912 13.3333 17.4673 13.1577 17.1547 12.8452C16.8422 12.5326 16.6666 12.1087 16.6666 11.6666V7.49998C16.6666 5.73187 15.9642 4.03618 14.714 2.78593C13.4637 1.53569 11.768 0.833313 9.99992 0.833313C8.23181 0.833313 6.53612 1.53569 5.28587 2.78593C4.03563 4.03618 3.33325 5.73187 3.33325 7.49998V11.6666C3.33325 12.1087 3.15766 12.5326 2.8451 12.8452C2.53254 13.1577 2.10861 13.3333 1.66659 13.3333C1.20635 13.3333 0.833252 13.7064 0.833252 14.1666C0.833252 14.6269 1.20635 15 1.66659 15H18.3333V13.3333ZM8.14011 16.7791C8.53821 16.5482 9.04815 16.6837 9.27909 17.0818C9.35234 17.2081 9.45749 17.3129 9.58399 17.3858C9.7105 17.4587 9.85393 17.497 9.99992 17.497C10.1459 17.497 10.2893 17.4587 10.4158 17.3858C10.5424 17.3129 10.6475 17.2081 10.7208 17.0818C10.9517 16.6837 11.4616 16.5482 11.8597 16.7791C12.2578 17.0101 12.3934 17.52 12.1624 17.9181C11.9427 18.297 11.6272 18.6114 11.2477 18.83C10.8682 19.0486 10.4379 19.1637 9.99992 19.1637C9.56194 19.1637 9.13166 19.0486 8.75214 18.83C8.37261 18.6114 8.05718 18.297 7.83742 17.9181C7.60648 17.52 7.742 17.0101 8.14011 16.7791Z"/>
            </g>
        </defs>
        <use xlink:href="#zang_icon" transform="translate(0 0 20 20)"/>
    </symbol>
    <symbol viewBox="0 0 20 20" id="log-out-icon" xmlns="http://www.w3.org/2000/svg">
        <defs>
            <g id="log-out_icon">
                <path fill-rule="evenodd" clip-rule="evenodd"
                      d="M4.16675 3.33335C3.94573 3.33335 3.73377 3.42115 3.57749 3.57743C3.42121 3.73371 3.33341 3.94567 3.33341 4.16669V15.8334C3.33341 16.0544 3.42121 16.2663 3.57749 16.4226C3.73377 16.5789 3.94573 16.6667 4.16675 16.6667H7.50008C7.96032 16.6667 8.33341 17.0398 8.33341 17.5C8.33341 17.9603 7.96032 18.3334 7.50008 18.3334H4.16675C3.50371 18.3334 2.86782 18.07 2.39898 17.6011C1.93014 17.1323 1.66675 16.4964 1.66675 15.8334V4.16669C1.66675 3.50365 1.93014 2.86776 2.39898 2.39892C2.86782 1.93008 3.50371 1.66669 4.16675 1.66669H7.50008C7.96032 1.66669 8.33341 2.03978 8.33341 2.50002C8.33341 2.96026 7.96032 3.33335 7.50008 3.33335H4.16675Z"/>
                <path fill-rule="evenodd" clip-rule="evenodd"
                      d="M12.7441 5.24408C13.0695 4.91864 13.5972 4.91864 13.9226 5.24408L18.0893 9.41074C18.4147 9.73618 18.4147 10.2638 18.0893 10.5893L13.9226 14.7559C13.5972 15.0814 13.0695 15.0814 12.7441 14.7559C12.4186 14.4305 12.4186 13.9028 12.7441 13.5774L16.3215 10L12.7441 6.42259C12.4186 6.09715 12.4186 5.56951 12.7441 5.24408Z"/>
                <path fill-rule="evenodd" clip-rule="evenodd"
                      d="M6.66675 10C6.66675 9.53978 7.03984 9.16669 7.50008 9.16669H17.5001C17.9603 9.16669 18.3334 9.53978 18.3334 10C18.3334 10.4603 17.9603 10.8334 17.5001 10.8334H7.50008C7.03984 10.8334 6.66675 10.4603 6.66675 10Z"/>
            </g>
        </defs>
        <use xlink:href="#log-out_icon" transform="translate(0 0 20 20)"/>
    </symbol>
    <symbol viewBox="0 0 30 33" id="logo-mob" xmlns="http://www.w3.org/2000/svg">
        <defs>
            <g id="logo_mob">
                <path fill-rule="evenodd" clip-rule="evenodd"
                      d="M14.8677 21.605V25.2433H17.6342V19.6138L16.8456 19.9692C16.7808 20.1704 16.6878 20.3663 16.5677 20.5536C16.3237 20.942 15.9132 21.2551 15.4039 21.4412C15.2305 21.5063 15.0511 21.5611 14.8677 21.605ZM14.8872 20.852L14.8677 20.8608V20.865C14.8742 20.8607 14.8807 20.8564 14.8872 20.852Z"
                      fill="#47A68A"/>
                <path d="M26.0581 0L22.127 6.43969H23.51V22.676L19.1163 27.2825H4.75862L0 32.1429H21.5073L28.2904 25.118V6.43969H30L26.0581 0Z"
                      fill="#47A68A"/>
                <path d="M19.7991 6.6153L22.5 2.14282H6.57734L0 9.02356V32.1428L4.58178 27.3497V11.4318L8.87941 6.6153H19.7991Z"
                      fill="#D3D5DA"/>
                <path d="M21.4289 12.8571H18.2146V24.6428L21.4289 21.3014V12.8571Z" fill="#47A68A"/>
                <path fill-rule="evenodd" clip-rule="evenodd"
                      d="M11.641 19.1539H11.4976C11.5462 19.1612 11.5941 19.1718 11.641 19.1855V19.1539ZM13.0276 21.7379C12.1418 21.7379 11.4953 21.545 11.0881 21.1593C10.9394 21.0306 10.8153 20.8831 10.7188 20.7226V25.1856H13.4853V21.7139C13.3338 21.7303 13.1809 21.7383 13.0276 21.7379Z"
                      fill="#47A68A"/>
                <path d="M13.4163 20.3572C12.6876 20.3572 12.1557 20.1914 11.8206 19.8599C11.5102 19.5793 11.3301 19.1941 11.3196 18.7885C11.3158 18.6653 11.346 18.5432 11.4073 18.4344C11.4645 18.3403 11.5471 18.2623 11.6467 18.2082C11.7624 18.1538 11.89 18.1254 12.0193 18.1254C12.1486 18.1254 12.2761 18.1538 12.3918 18.2082C12.4913 18.2621 12.5735 18.3402 12.6298 18.4344C12.6929 18.5427 12.7243 18.6649 12.7208 18.7885C12.7272 18.9361 12.6824 19.0816 12.5931 19.2028C12.5186 19.3018 12.4122 19.3753 12.2898 19.4124C12.4095 19.5564 12.5789 19.656 12.7685 19.6942C12.9806 19.7523 13.2002 19.7822 13.4212 19.7831C13.7136 19.7854 14 19.7047 14.243 19.551C14.4951 19.3829 14.683 19.1425 14.7791 18.8655C14.9008 18.5358 14.9603 18.1886 14.9546 17.8395C14.9645 17.4755 14.8994 17.1133 14.7631 16.7727C14.6606 16.5003 14.466 16.2674 14.2094 16.1098C13.9709 15.9672 13.694 15.8924 13.4117 15.8943C13.1657 15.9139 12.9285 15.99 12.7208 16.1158L12.2084 16.3584V16.1158L14.5109 13.1992H11.3196V16.2258C11.3106 16.4442 11.3717 16.6601 11.4952 16.845C11.5548 16.9257 11.6355 16.9903 11.7295 17.0328C11.8233 17.0753 11.9274 17.0942 12.0313 17.0876C12.2233 17.0839 12.409 17.0221 12.561 16.9113C12.7333 16.7921 12.8833 16.6464 13.0046 16.4804C13.0155 16.4513 13.0357 16.4261 13.0623 16.4081C13.0837 16.3906 13.111 16.3811 13.1393 16.381C13.1947 16.3858 13.2472 16.4068 13.2893 16.4412C13.3426 16.4975 13.3717 16.5706 13.3706 16.6462C13.3645 16.6968 13.3548 16.7472 13.3419 16.7968C13.2285 17.0559 13.0385 17.2786 12.7945 17.4385C12.568 17.5832 12.3003 17.6599 12.0268 17.6587C11.3358 17.6587 10.8571 17.5301 10.5907 17.2729C10.4538 17.1309 10.3483 16.9644 10.2803 16.7832C10.2124 16.6021 10.1834 16.41 10.195 16.2182V13.1992H8.57178V12.6368H10.2026V11.3546L9.8292 11.0019V10.7143H10.9126L11.3196 10.9132V12.6368L15.5353 12.6247L15.9551 13.0225L13.3701 15.4752C13.5262 15.4158 13.6906 15.3783 13.8583 15.3637C14.19 15.3774 14.5137 15.4647 14.8031 15.6183C15.1382 15.7688 15.4207 16.0067 15.617 16.3042C15.7928 16.5558 15.9173 16.8364 15.984 17.1313C16.0388 17.3639 16.0682 17.6012 16.0718 17.8395C16.0735 18.2943 15.9643 18.7433 15.7526 19.1518C15.5519 19.5474 15.2141 19.8663 14.7952 20.0559C14.3663 20.2554 13.8944 20.3585 13.4163 20.3572Z"
                      fill="#47A68A"/>
            </g>
        </defs>
        <use xlink:href="#logo_mob" transform="translate(0 0 30 33)"/>
    </symbol>
    <symbol viewBox="0 0 20 20" id="user-icon" xmlns="http://www.w3.org/2000/svg">
        <defs>
            <g id="user_icon">
                <path d="M10 0C7.09223 0 4.72656 2.36566 4.72656 5.27344C4.72656 8.18121 7.09223 10.5469 10 10.5469C12.9078 10.5469 15.2734 8.18121 15.2734 5.27344C15.2734 2.36566 12.9078 0 10 0ZM10 9.375C7.7384 9.375 5.89844 7.53504 5.89844 5.27344C5.89844 3.01184 7.7384 1.17188 10 1.17188C12.2616 1.17188 14.1016 3.01184 14.1016 5.27344C14.1016 7.53504 12.2616 9.375 10 9.375Z"/>
                <path d="M11.6341 11.7578H8.36586C5.66266 11.7578 2.99488 13.0059 1.21094 15.682V20H18.7891V15.682C17.0077 13.0098 14.3407 11.7578 11.6341 11.7578ZM17.6172 18.8281H17.6172H2.38281V16.0405C3.75121 14.0892 5.97469 12.9297 8.3659 12.9297H11.6341C14.0254 12.9297 16.2488 14.0892 17.6172 16.0405V18.8281Z"/>
            </g>
        </defs>
        <use xlink:href="#user_icon" transform="translate(0 0 20 20)"/>
    </symbol>
</svg>


