<svg width="20" height="20" viewBox="0 0 20 20" fill="none" xmlns="http://www.w3.org/2000/svg">
<path fill-rule="evenodd" clip-rule="evenodd" d="M10.0002 2.50004C8.67408 2.50004 7.40231 3.02682 6.46463 3.96451C5.52695 4.90219 5.00016 6.17396 5.00016 7.50004V11.6667C5.00016 12.2569 4.84364 12.831 4.55359 13.3334H15.4467C15.1567 12.831 15.0002 12.2569 15.0002 11.6667V7.50004C15.0002 6.17396 14.4734 4.90219 13.5357 3.96451C12.598 3.02682 11.3262 2.50004 10.0002 2.50004ZM18.3335 13.3334C17.8915 13.3334 17.4675 13.1578 17.155 12.8452C16.8424 12.5327 16.6668 12.1087 16.6668 11.6667V7.50004C16.6668 5.73193 15.9644 4.03624 14.7142 2.786C13.464 1.53575 11.7683 0.833374 10.0002 0.833374C8.23205 0.833374 6.53636 1.53575 5.28612 2.786C4.03587 4.03624 3.3335 5.73193 3.3335 7.50004V11.6667C3.3335 12.1087 3.1579 12.5327 2.84534 12.8452C2.53278 13.1578 2.10886 13.3334 1.66683 13.3334C1.20659 13.3334 0.833496 13.7065 0.833496 14.1667C0.833496 14.6269 1.20659 15 1.66683 15H18.3335V13.3334ZM8.14035 16.7792C8.53846 16.5483 9.0484 16.6838 9.27933 17.0819C9.35258 17.2082 9.45773 17.313 9.58424 17.3859C9.71074 17.4587 9.85417 17.4971 10.0002 17.4971C10.1462 17.4971 10.2896 17.4587 10.4161 17.3859C10.5426 17.313 10.6477 17.2082 10.721 17.0819C10.9519 16.6838 11.4619 16.5483 11.86 16.7792C12.2581 17.0101 12.3936 17.5201 12.1627 17.9182C11.9429 18.297 11.6275 18.6115 11.2479 18.8301C10.8684 19.0487 10.4381 19.1638 10.0002 19.1638C9.56219 19.1638 9.1319 19.0487 8.75238 18.8301C8.37286 18.6115 8.05743 18.297 7.83766 17.9182C7.60673 17.5201 7.74225 17.0101 8.14035 16.7792Z" fill="#A6A7AC"/>
</svg>
