<svg width="14" height="26" viewBox="0 0 14 26" fill="none" xmlns="http://www.w3.org/2000/svg">
<path d="M7.52122 11.504C4.4886 10.7016 3.51336 9.87201 3.51336 8.58001C3.51336 7.09761 4.86267 6.06401 7.12043 6.06401C9.49843 6.06401 10.3802 7.22001 10.4603 8.92001H13.4128C13.3193 6.58081 11.9165 4.43201 9.12436 3.73841V0.76001H5.1165V3.69761C2.52475 4.26881 0.440667 5.98241 0.440667 8.60721C0.440667 11.7488 2.99234 13.3128 6.71964 14.224C10.0595 15.04 10.7275 16.2368 10.7275 17.5016C10.7275 18.44 10.0729 19.936 7.12043 19.936C4.36837 19.936 3.28625 18.6848 3.13929 17.08H0.200195C0.36051 20.0584 2.55147 21.7312 5.1165 22.2888V25.24H9.12436V22.316C11.7295 21.8128 13.8002 20.276 13.8002 17.488C13.8002 13.6256 10.5538 12.3064 7.52122 11.504Z" fill="#A6A7AC"/>
</svg>
