<svg width="16" height="16" viewBox="0 0 16 16" fill="none" xmlns="http://www.w3.org/2000/svg">
<path d="M7.99911 13.3556C7.69758 13.3556 7.45312 13.6 7.45312 13.9016V15.4539C7.45312 15.7555 7.69758 15.9999 7.99911 15.9999C8.30071 15.9999 8.54509 15.7555 8.54509 15.4539V13.9016C8.54509 13.6 8.30064 13.3556 7.99911 13.3556Z" fill="#A6A7AC"/>
<path d="M7.99911 2.64471C8.30071 2.64471 8.54509 2.40025 8.54509 2.09872V0.54623C8.54509 0.2447 8.30071 0.000244141 7.99911 0.000244141C7.69758 0.000244141 7.45312 0.2447 7.45312 0.54623V2.09872C7.45312 2.40025 7.69758 2.64471 7.99911 2.64471Z" fill="#A6A7AC"/>
<path d="M3.44098 11.7869L2.34289 12.8844C2.12959 13.0975 2.12952 13.4432 2.34267 13.6565C2.44932 13.7631 2.58909 13.8165 2.72887 13.8165C2.86857 13.8165 3.00819 13.7632 3.11484 13.6567L4.21293 12.5592C4.42623 12.346 4.4263 12.0003 4.21315 11.7871C3.99985 11.5738 3.6542 11.5738 3.44098 11.7869Z" fill="#A6A7AC"/>
<path d="M12.1724 4.3729C12.3121 4.3729 12.4518 4.31961 12.5585 4.21303L13.6564 3.11553C13.8696 2.9023 13.8697 2.55666 13.6565 2.34336C13.4433 2.13006 13.0977 2.12999 12.8844 2.34329L11.7864 3.44079C11.5732 3.65394 11.5731 3.99966 11.7863 4.21289C11.8929 4.31961 12.0326 4.3729 12.1724 4.3729Z" fill="#A6A7AC"/>
<path d="M2.64432 8.00009C2.64432 7.69856 2.39986 7.4541 2.09833 7.4541H0.545986C0.244456 7.4541 0 7.69856 0 8.00009C0 8.30162 0.244456 8.54607 0.545986 8.54607H2.09833C2.39986 8.54607 2.64432 8.30162 2.64432 8.00009Z" fill="#A6A7AC"/>
<path d="M15.454 7.4541H13.901C13.5994 7.4541 13.355 7.69856 13.355 8.00009C13.355 8.30162 13.5994 8.54607 13.901 8.54607H15.454C15.7556 8.54607 16 8.30162 16 8.00009C16 7.69863 15.7556 7.4541 15.454 7.4541Z" fill="#A6A7AC"/>
<path d="M3.44102 4.21282C3.54759 4.3194 3.68736 4.37269 3.82706 4.37269C3.96676 4.37269 4.10654 4.3194 4.21311 4.21282C4.42634 3.9996 4.42634 3.65388 4.21311 3.44065L3.11561 2.34315C2.90238 2.12992 2.55667 2.12992 2.34351 2.34315C2.13029 2.55637 2.13029 2.90209 2.34351 3.11525L3.44102 4.21282Z" fill="#A6A7AC"/>
<path d="M12.5591 11.7867C12.3459 11.5734 12.0002 11.5734 11.7869 11.7866C11.5736 11.9998 11.5736 12.3455 11.7869 12.5587L12.8842 13.6562C12.9909 13.7628 13.1306 13.8161 13.2703 13.8161C13.41 13.8161 13.5498 13.7628 13.6564 13.6563C13.8697 13.443 13.8697 13.0973 13.6565 12.8842L12.5591 11.7867Z" fill="#A6A7AC"/>
<path d="M7.99968 3.75037C5.65653 3.75037 3.75024 5.6568 3.75024 8.0001C3.75024 10.3433 5.65653 12.2497 7.99968 12.2497C10.3431 12.2497 12.2495 10.3433 12.2495 8.0001C12.2495 5.6568 10.343 3.75037 7.99968 3.75037ZM7.99968 11.1577C6.25865 11.1577 4.84221 9.74121 4.84221 8.0001C4.84221 6.25892 6.25865 4.84234 7.99968 4.84234C9.74094 4.84234 11.1575 6.25892 11.1575 8.0001C11.1575 9.74121 9.74094 11.1577 7.99968 11.1577Z" fill="#A6A7AC"/>
</svg>
