<svg width="17" height="17" viewBox="0 0 17 17" fill="none" xmlns="http://www.w3.org/2000/svg">
<g clip-path="url(#clip0)">
<path d="M15.8411 8.5H13.1365C11.8582 8.5 10.8184 9.53985 10.8184 10.8182C10.8184 12.0965 11.8582 13.1364 13.1365 13.1364H15.8411C16.4803 13.1364 17.0002 12.6164 17.0002 11.9773V9.65909C17.0002 9.01992 16.4803 8.5 15.8411 8.5ZM13.1366 11.5909C12.7106 11.5909 12.3639 11.2441 12.3639 10.8182C12.3639 10.3922 12.7106 10.0455 13.1366 10.0455C13.5625 10.0455 13.9093 10.3922 13.9093 10.8182C13.9093 11.2441 13.5625 11.5909 13.1366 11.5909Z" fill="#589585"/>
<path d="M15.8409 13.9098H13.1363C11.432 13.9098 10.0454 12.52 10.0454 10.8144C10.0454 9.10889 11.432 7.72127 13.1363 7.72127H15.8409C16.0545 7.72127 16.2273 7.54835 16.2273 7.33464V6.17468C16.2273 5.36386 15.5988 4.71347 14.8048 4.64953L13.682 2.42491L12.7308 0.762048C12.3229 0.0502935 11.3408 -0.217384 10.6329 0.196412L8.88636 1.21362L2.88139 4.63707H1.54547C0.693101 4.63707 0 5.3217 0 6.17468V15.4542C0 16.3071 0.693101 17.0007 1.54547 17.0007H14.6819C15.5342 17.0007 16.2273 16.3071 16.2273 15.4542V14.2965C16.2273 14.0827 16.0545 13.9098 15.8409 13.9098ZM11.0219 0.864737C11.3743 0.657803 11.8584 0.793742 12.0599 1.1464L12.813 2.46265C11.6932 2.95994 10.37 2.605 9.63347 1.67313L11.0219 0.864737ZM8.96032 2.06545L8.96347 2.0628C9.61876 2.94755 10.6281 3.46817 11.7358 3.46817C12.2373 3.46817 12.7346 3.34969 13.1967 3.13163L13.1983 3.13627L13.9072 4.63707H4.41715L8.96032 2.06545Z" fill="#589585"/>
</g>
<defs>
<clipPath id="clip0">
<rect width="17" height="17" fill="white"/>
</clipPath>
</defs>
</svg>
