<svg width="1366" height="59" viewBox="0 0 1366 59" fill="none" xmlns="http://www.w3.org/2000/svg">
<path d="M4.61243 5.39824V5.05824H4.98312H5.51982L2.76376 1L0 5.05824H0.820203H1.1909V5.39824V19.8794L6.88232 25.1774H24.5621L21.1588 22.0529H8.80926H8.65276L8.54362 21.9501L4.71748 18.3444L4.61243 18.2454V18.1072V5.39824Z" stroke="#21232F"/>
<path d="M21.9587 8.34801L22.0584 8.44593V8.57989V21.0623L25.4589 24.183V6.81094L19.7301 1.55359H6.16187L8.13536 4.42033H17.8026H17.9637L18.0736 4.52838L21.9587 8.34801Z" stroke="#21232F"/>
<path d="M39.1212 35.3455V35.0055H39.4919H40.0286L37.2726 30.9473L34.5088 35.0055H35.329H35.6997V35.3455V49.8266L41.3911 55.1246H59.0709L55.6676 52.0002H43.3181H43.1616L43.0524 51.8973L39.2263 48.2916L39.1212 48.1926V48.0545V35.3455Z" stroke="#21232F"/>
<path d="M56.4674 38.2952L56.5671 38.3931V38.5271V51.0095L59.9677 54.1301V36.7581L54.2388 31.5007H40.6707L42.6441 34.3675H52.3113H52.4724L52.5824 34.4756L56.4674 38.2952Z" stroke="#21232F"/>
<path d="M75.7067 5.39824V5.05824H76.0774H76.614L73.858 1L71.0942 5.05824H71.9144H72.2851V5.39824V19.8794L77.9766 25.1774H95.6562L92.2532 22.0529H79.9035H79.747L79.6378 21.9501L75.8117 18.3444L75.7067 18.2454V18.1072V5.39824Z" stroke="#21232F"/>
<path d="M93.0531 8.34801L93.1525 8.44593V8.57989V21.0623L96.5532 24.183V6.81094L90.8245 1.55359H77.2561L79.2295 4.42033H88.8969H89.0578L89.1675 4.52838L93.0531 8.34801Z" stroke="#21232F"/>
<path d="M110.215 35.3455V35.0055H110.586H111.123L108.366 30.9473L105.603 35.0055H106.423H106.794V35.3455V49.8266L112.485 55.1246H130.165L126.762 52.0002H114.412H114.255L114.146 51.8973L110.32 48.2916L110.215 48.1926V48.0545V35.3455Z" stroke="#21232F"/>
<path d="M127.562 38.2952L127.661 38.3931V38.5271V51.0095L131.062 54.1301V36.7581L125.333 31.5007H111.765L113.739 34.3675H123.406H123.567L123.676 34.4756L127.562 38.2952Z" stroke="#21232F"/>
<path d="M181.403 35.3455V35.0055H181.774H182.311L179.555 30.9473L176.791 35.0055H177.611H177.982V35.3455V49.8266L183.674 55.1246H201.353L197.95 52.0002H185.6H185.444L185.335 51.8973L181.509 48.2916L181.403 48.1926V48.0545V35.3455Z" stroke="#21232F"/>
<path d="M198.75 38.2952L198.849 38.3931V38.5271V51.0095L202.25 54.1301V36.7581L196.521 31.5007H182.953L184.926 34.3675H194.593H194.754L194.865 34.4756L198.75 38.2952Z" stroke="#21232F"/>
<path d="M252.43 35.3455V35.0055H252.8H253.337L250.581 30.9473L247.817 35.0055H248.637H249.008V35.3455V49.8266L254.7 55.1246H272.379L268.976 52.0002H256.627H256.47L256.36 51.8973L252.535 48.2916L252.43 48.1926V48.0545V35.3455Z" stroke="#21232F"/>
<path d="M269.776 38.2952L269.875 38.3931V38.5271V51.0095L273.276 54.1301V36.7581L267.547 31.5007H253.979L255.953 34.3675H265.62H265.781L265.891 34.4756L269.776 38.2952Z" stroke="#21232F"/>
<path d="M146.801 5.39824V5.05824H147.172H147.708L144.952 1L142.188 5.05824H143.009H143.38V5.39824V19.8794L149.071 25.1774H166.751L163.348 22.0529H150.997H150.841L150.732 21.9501L146.906 18.3444L146.801 18.2454V18.1072V5.39824Z" stroke="#21232F"/>
<path d="M164.147 8.34801L164.247 8.44593V8.57989V21.0623L167.648 24.183V6.81094L161.918 1.55359H148.351L150.323 4.42033H159.991H160.152L160.262 4.52838L164.147 8.34801Z" stroke="#21232F"/>
<path d="M217.827 5.39824V5.05824H218.197H218.734L215.978 1L213.214 5.05824H214.034H214.405V5.39824V19.8794L220.097 25.1774H237.777L234.373 22.0529H222.024H221.867L221.758 21.9501L217.932 18.3444L217.827 18.2454V18.1072V5.39824Z" stroke="#21232F"/>
<path d="M235.173 8.34801L235.273 8.44593V8.57989V21.0623L238.673 24.183V6.81094L232.944 1.55359H219.376L221.35 4.42033H231.017H231.178L231.288 4.52838L235.173 8.34801Z" stroke="#21232F"/>
<path d="M75.2036 42.9645L77.3273 44.7905L75.2036 46.6166" stroke="#21232F"/>
<path opacity="0.6" d="M81.5745 42.9645L83.6981 44.7905L81.5745 46.6166" stroke="#21232F"/>
<path opacity="0.3" d="M87.9453 42.9645L90.0689 44.7905L87.9453 46.6166" stroke="#21232F"/>
<path opacity="0.3" d="M16.8513 42.9645L18.9749 44.7905L16.8513 46.6166" stroke="#21232F"/>
<path d="M146.298 42.9645L148.422 44.7905L146.298 46.6166" stroke="#21232F"/>
<path opacity="0.6" d="M152.668 42.9645L154.793 44.7905L152.668 46.6166" stroke="#21232F"/>
<path opacity="0.3" d="M159.039 42.9645L161.163 44.7905L159.039 46.6166" stroke="#21232F"/>
<path d="M217.324 42.9645L219.447 44.7905L217.324 46.6166" stroke="#21232F"/>
<path opacity="0.6" d="M223.695 42.9645L225.819 44.7905L223.695 46.6166" stroke="#21232F"/>
<path opacity="0.3" d="M230.065 42.9645L232.189 44.7905L230.065 46.6166" stroke="#21232F"/>
<path d="M551.453 5.39824V5.05824H551.824H552.361L549.605 1L546.841 5.05824H547.661H548.032V5.39824V19.8794L553.723 25.1774H571.403L568 22.0529H555.65H555.494L555.384 21.9501L551.558 18.3444L551.453 18.2454V18.1072V5.39824Z" stroke="#21232F"/>
<path d="M568.8 8.34801L568.899 8.44593V8.57989V21.0623L572.3 24.183V6.81094L566.571 1.55359H553.003L554.976 4.42033H564.643H564.805L564.914 4.52838L568.8 8.34801Z" stroke="#21232F"/>
<path d="M585.962 35.3455V35.0055H586.333H586.869L584.113 30.9473L581.35 35.0055H582.17H582.541V35.3455V49.8266L588.232 55.1246H605.912L602.508 52.0002H590.159H590.002L589.893 51.8973L586.067 48.2916L585.962 48.1926V48.0545V35.3455Z" stroke="#21232F"/>
<path d="M603.308 38.2952L603.408 38.3931V38.5271V51.0095L606.809 54.1301V36.7581L601.08 31.5007H587.511L589.485 34.3675H599.152H599.313L599.423 34.4756L603.308 38.2952Z" stroke="#21232F"/>
<path d="M622.547 5.39824V5.05824H622.918H623.455L620.699 1L617.935 5.05824H618.755H619.126V5.39824V19.8794L624.817 25.1774H642.497L639.094 22.0529H626.744H626.588L626.479 21.9501L622.653 18.3444L622.547 18.2454V18.1072V5.39824Z" stroke="#21232F"/>
<path d="M639.894 8.34801L639.993 8.44593V8.57989V21.0623L643.394 24.183V6.81094L637.665 1.55359H624.097L626.07 4.42033H635.738H635.899L636.008 4.52838L639.894 8.34801Z" stroke="#21232F"/>
<path d="M657.056 35.3455V35.0055H657.427H657.964L655.207 30.9473L652.443 35.0055H653.264H653.635V35.3455V49.8266L659.326 55.1246H677.006L673.603 52.0002H661.253H661.096L660.987 51.8973L657.161 48.2916L657.056 48.1926V48.0545V35.3455Z" stroke="#21232F"/>
<path d="M674.403 38.2952L674.502 38.3931V38.5271V51.0095L677.903 54.1301V36.7581L672.174 31.5007H658.606L660.58 34.3675H670.247H670.407L670.517 34.4756L674.403 38.2952Z" stroke="#21232F"/>
<path d="M728.244 35.3455V35.0055H728.615H729.152L726.396 30.9473L723.632 35.0055H724.452H724.823V35.3455V49.8266L730.514 55.1246H748.194L744.791 52.0002H732.441H732.285L732.176 51.8973L728.35 48.2916L728.244 48.1926V48.0545V35.3455Z" stroke="#21232F"/>
<path d="M745.591 38.2952L745.69 38.3931V38.5271V51.0095L749.091 54.1301V36.7581L743.362 31.5007H729.794L731.768 34.3675H741.434H741.595L741.706 34.4756L745.591 38.2952Z" stroke="#21232F"/>
<path d="M799.27 35.3455V35.0055H799.641H800.178L797.421 30.9473L794.658 35.0055H795.478H795.849V35.3455V49.8266L801.541 55.1246H819.22L815.817 52.0002H803.467H803.311L803.201 51.8973L799.376 48.2916L799.27 48.1926V48.0545V35.3455Z" stroke="#21232F"/>
<path d="M816.617 38.2952L816.716 38.3931V38.5271V51.0095L820.117 54.1301V36.7581L814.388 31.5007H800.82L802.793 34.3675H812.46H812.621L812.732 34.4756L816.617 38.2952Z" stroke="#21232F"/>
<path d="M693.642 5.39824V5.05824H694.013H694.549L691.793 1L689.029 5.05824H689.85H690.22V5.39824V19.8794L695.911 25.1774H713.591L710.188 22.0529H697.838H697.682L697.573 21.9501L693.747 18.3444L693.642 18.2454V18.1072V5.39824Z" stroke="#21232F"/>
<path d="M710.988 8.34801L711.088 8.44593V8.57989V21.0623L714.488 24.183V6.81094L708.759 1.55359H695.191L697.164 4.42033H706.832H706.993L707.103 4.52838L710.988 8.34801Z" stroke="#21232F"/>
<path d="M764.667 5.39824V5.05824H765.038H765.575L762.819 1L760.055 5.05824H760.875H761.246V5.39824V19.8794L766.938 25.1774H784.617L781.214 22.0529H768.864H768.708L768.599 21.9501L764.773 18.3444L764.667 18.2454V18.1072V5.39824Z" stroke="#21232F"/>
<path d="M782.014 8.34801L782.114 8.44593V8.57989V21.0623L785.514 24.183V6.81094L779.785 1.55359H766.217L768.19 4.42033H777.857H778.019L778.129 4.52838L782.014 8.34801Z" stroke="#21232F"/>
<path d="M622.044 42.9645L624.168 44.7905L622.044 46.6166" stroke="#21232F"/>
<path opacity="0.6" d="M628.416 42.9645L630.539 44.7905L628.416 46.6166" stroke="#21232F"/>
<path opacity="0.3" d="M634.786 42.9645L636.91 44.7905L634.786 46.6166" stroke="#21232F"/>
<path opacity="0.3" d="M563.692 42.9645L565.816 44.7905L563.692 46.6166" stroke="#21232F"/>
<path d="M693.139 42.9645L695.263 44.7905L693.139 46.6166" stroke="#21232F"/>
<path opacity="0.6" d="M699.509 42.9645L701.633 44.7905L699.509 46.6166" stroke="#21232F"/>
<path opacity="0.3" d="M705.88 42.9645L708.004 44.7905L705.88 46.6166" stroke="#21232F"/>
<path d="M764.165 42.9645L766.288 44.7905L764.165 46.6166" stroke="#21232F"/>
<path opacity="0.6" d="M770.535 42.9645L772.659 44.7905L770.535 46.6166" stroke="#21232F"/>
<path opacity="0.3" d="M776.906 42.9645L779.03 44.7905L776.906 46.6166" stroke="#21232F"/>
<path d="M277.888 5.39824V5.05824H278.259H278.796L276.04 1L273.276 5.05824H274.096H274.467V5.39824V19.8794L280.158 25.1774H297.838L294.435 22.0529H282.085H281.929L281.82 21.9501L277.993 18.3444L277.888 18.2454V18.1072V5.39824Z" stroke="#21232F"/>
<path d="M295.235 8.34801L295.334 8.44593V8.57989V21.0623L298.735 24.183V6.81094L293.006 1.55359H279.438L281.411 4.42033H291.078H291.24L291.349 4.52838L295.235 8.34801Z" stroke="#21232F"/>
<path d="M312.397 35.3455V35.0055H312.768H313.304L310.548 30.9473L307.785 35.0055H308.605H308.976V35.3455V49.8266L314.667 55.1246H332.347L328.944 52.0002H316.594H316.437L316.328 51.8973L312.502 48.2916L312.397 48.1926V48.0545V35.3455Z" stroke="#21232F"/>
<path d="M329.743 38.2952L329.843 38.3931V38.5271V51.0095L333.244 54.1301V36.7581L327.515 31.5007H313.947L315.92 34.3675H325.587H325.748L325.858 34.4756L329.743 38.2952Z" stroke="#21232F"/>
<path d="M348.983 5.39824V5.05824H349.353H349.89L347.134 1L344.37 5.05824H345.19H345.561V5.39824V19.8794L351.252 25.1774H368.932L365.529 22.0529H353.179H353.023L352.914 21.9501L349.088 18.3444L348.983 18.2454V18.1072V5.39824Z" stroke="#21232F"/>
<path d="M366.329 8.34801L366.428 8.44593V8.57989V21.0623L369.829 24.183V6.81094L364.1 1.55359H350.532L352.505 4.42033H362.173H362.334L362.443 4.52838L366.329 8.34801Z" stroke="#21232F"/>
<path d="M383.491 35.3455V35.0055H383.862H384.399L381.642 30.9473L378.878 35.0055H379.699H380.07V35.3455V49.8266L385.761 55.1246H403.441L400.038 52.0002H387.688H387.531L387.422 51.8973L383.596 48.2916L383.491 48.1926V48.0545V35.3455Z" stroke="#21232F"/>
<path d="M400.838 38.2952L400.937 38.3931V38.5271V51.0095L404.338 54.1301V36.7581L398.609 31.5007H385.041L387.015 34.3675H396.682H396.843L396.952 34.4756L400.838 38.2952Z" stroke="#21232F"/>
<path d="M454.679 35.3455V35.0055H455.05H455.587L452.831 30.9473L450.067 35.0055H450.887H451.258V35.3455V49.8266L456.949 55.1246H474.629L471.226 52.0002H458.876H458.72L458.611 51.8973L454.785 48.2916L454.679 48.1926V48.0545V35.3455Z" stroke="#21232F"/>
<path d="M472.026 38.2952L472.125 38.3931V38.5271V51.0095L475.526 54.1301V36.7581L469.797 31.5007H456.229L458.202 34.3675H467.869H468.03L468.141 34.4756L472.026 38.2952Z" stroke="#21232F"/>
<path d="M525.705 35.3455V35.0055H526.076H526.613L523.856 30.9473L521.093 35.0055H521.913H522.284V35.3455V49.8266L527.976 55.1246H545.655L542.252 52.0002H529.902H529.746L529.636 51.8973L525.811 48.2916L525.705 48.1926V48.0545V35.3455Z" stroke="#21232F"/>
<path d="M543.052 38.2952L543.151 38.3931V38.5271V51.0095L546.552 54.1301V36.7581L540.823 31.5007H527.255L529.228 34.3675H538.895H539.056L539.167 34.4756L543.052 38.2952Z" stroke="#21232F"/>
<path d="M420.077 5.39824V5.05824H420.448H420.984L418.228 1L415.464 5.05824H416.285H416.656V5.39824V19.8794L422.346 25.1774H440.026L436.623 22.0529H424.273H424.117L424.008 21.9501L420.182 18.3444L420.077 18.2454V18.1072V5.39824Z" stroke="#21232F"/>
<path d="M437.423 8.34801L437.523 8.44593V8.57989V21.0623L440.923 24.183V6.81094L435.194 1.55359H421.626L423.599 4.42033H433.267H433.428L433.538 4.52838L437.423 8.34801Z" stroke="#21232F"/>
<path d="M491.102 5.39824V5.05824H491.473H492.01L489.254 1L486.49 5.05824H487.31H487.681V5.39824V19.8794L493.373 25.1774H511.053L507.649 22.0529H495.299H495.143L495.034 21.9501L491.208 18.3444L491.102 18.2454V18.1072V5.39824Z" stroke="#21232F"/>
<path d="M508.449 8.34801L508.549 8.44593V8.57989V21.0623L511.949 24.183V6.81094L506.22 1.55359H492.652L494.625 4.42033H504.292H504.454L504.564 4.52838L508.449 8.34801Z" stroke="#21232F"/>
<path d="M348.479 42.9645L350.603 44.7905L348.479 46.6166" stroke="#21232F"/>
<path opacity="0.6" d="M354.851 42.9645L356.974 44.7905L354.851 46.6166" stroke="#21232F"/>
<path opacity="0.3" d="M361.221 42.9645L363.345 44.7905L361.221 46.6166" stroke="#21232F"/>
<path opacity="0.3" d="M290.127 42.9645L292.251 44.7905L290.127 46.6166" stroke="#21232F"/>
<path d="M419.574 42.9645L421.698 44.7905L419.574 46.6166" stroke="#21232F"/>
<path opacity="0.6" d="M425.944 42.9645L428.068 44.7905L425.944 46.6166" stroke="#21232F"/>
<path opacity="0.3" d="M432.315 42.9645L434.439 44.7905L432.315 46.6166" stroke="#21232F"/>
<path d="M490.6 42.9645L492.723 44.7905L490.6 46.6166" stroke="#21232F"/>
<path opacity="0.6" d="M496.97 42.9645L499.095 44.7905L496.97 46.6166" stroke="#21232F"/>
<path opacity="0.3" d="M503.341 42.9645L505.465 44.7905L503.341 46.6166" stroke="#21232F"/>
<path d="M551.453 5.39824V5.05824H551.824H552.361L549.605 1L546.841 5.05824H547.661H548.032V5.39824V19.8794L553.723 25.1774H571.403L568 22.0529H555.65H555.494L555.384 21.9501L551.558 18.3444L551.453 18.2454V18.1072V5.39824Z" stroke="#21232F"/>
<path d="M568.8 8.34801L568.899 8.44593V8.57989V21.0623L572.3 24.183V6.81094L566.571 1.55359H553.003L554.976 4.42033H564.643H564.805L564.914 4.52838L568.8 8.34801Z" stroke="#21232F"/>
<path d="M585.962 35.3455V35.0055H586.333H586.869L584.113 30.9473L581.35 35.0055H582.17H582.541V35.3455V49.8266L588.232 55.1246H605.912L602.508 52.0002H590.159H590.002L589.893 51.8973L586.067 48.2916L585.962 48.1926V48.0545V35.3455Z" stroke="#21232F"/>
<path d="M603.308 38.2952L603.408 38.3931V38.5271V51.0095L606.809 54.1301V36.7581L601.08 31.5007H587.511L589.485 34.3675H599.152H599.313L599.423 34.4756L603.308 38.2952Z" stroke="#21232F"/>
<path d="M622.547 5.39824V5.05824H622.918H623.455L620.699 1L617.935 5.05824H618.755H619.126V5.39824V19.8794L624.817 25.1774H642.497L639.094 22.0529H626.744H626.588L626.479 21.9501L622.653 18.3444L622.547 18.2454V18.1072V5.39824Z" stroke="#21232F"/>
<path d="M639.894 8.34801L639.993 8.44593V8.57989V21.0623L643.394 24.183V6.81094L637.665 1.55359H624.097L626.07 4.42033H635.738H635.899L636.008 4.52838L639.894 8.34801Z" stroke="#21232F"/>
<path d="M657.056 35.3455V35.0055H657.427H657.964L655.207 30.9473L652.443 35.0055H653.264H653.635V35.3455V49.8266L659.326 55.1246H677.006L673.603 52.0002H661.253H661.096L660.987 51.8973L657.161 48.2916L657.056 48.1926V48.0545V35.3455Z" stroke="#21232F"/>
<path d="M674.403 38.2952L674.502 38.3931V38.5271V51.0095L677.903 54.1301V36.7581L672.174 31.5007H658.606L660.58 34.3675H670.247H670.407L670.517 34.4756L674.403 38.2952Z" stroke="#21232F"/>
<path d="M728.244 35.3455V35.0055H728.615H729.152L726.396 30.9473L723.632 35.0055H724.452H724.823V35.3455V49.8266L730.514 55.1246H748.194L744.791 52.0002H732.441H732.285L732.176 51.8973L728.35 48.2916L728.244 48.1926V48.0545V35.3455Z" stroke="#21232F"/>
<path d="M745.591 38.2952L745.69 38.3931V38.5271V51.0095L749.091 54.1301V36.7581L743.362 31.5007H729.794L731.768 34.3675H741.434H741.595L741.706 34.4756L745.591 38.2952Z" stroke="#21232F"/>
<path d="M799.27 35.3455V35.0055H799.641H800.178L797.421 30.9473L794.658 35.0055H795.478H795.849V35.3455V49.8266L801.541 55.1246H819.22L815.817 52.0002H803.467H803.311L803.201 51.8973L799.376 48.2916L799.27 48.1926V48.0545V35.3455Z" stroke="#21232F"/>
<path d="M816.617 38.2952L816.716 38.3931V38.5271V51.0095L820.117 54.1301V36.7581L814.388 31.5007H800.82L802.793 34.3675H812.46H812.621L812.732 34.4756L816.617 38.2952Z" stroke="#21232F"/>
<path d="M693.642 5.39824V5.05824H694.013H694.549L691.793 1L689.029 5.05824H689.85H690.22V5.39824V19.8794L695.911 25.1774H713.591L710.188 22.0529H697.838H697.682L697.573 21.9501L693.747 18.3444L693.642 18.2454V18.1072V5.39824Z" stroke="#21232F"/>
<path d="M710.988 8.34801L711.088 8.44593V8.57989V21.0623L714.488 24.183V6.81094L708.759 1.55359H695.191L697.164 4.42033H706.832H706.993L707.103 4.52838L710.988 8.34801Z" stroke="#21232F"/>
<path d="M764.667 5.39824V5.05824H765.038H765.575L762.819 1L760.055 5.05824H760.875H761.246V5.39824V19.8794L766.938 25.1774H784.617L781.214 22.0529H768.864H768.708L768.599 21.9501L764.773 18.3444L764.667 18.2454V18.1072V5.39824Z" stroke="#21232F"/>
<path d="M782.014 8.34801L782.114 8.44593V8.57989V21.0623L785.514 24.183V6.81094L779.785 1.55359H766.217L768.19 4.42033H777.857H778.019L778.129 4.52838L782.014 8.34801Z" stroke="#21232F"/>
<path d="M622.044 42.9645L624.168 44.7905L622.044 46.6166" stroke="#21232F"/>
<path opacity="0.6" d="M628.416 42.9645L630.539 44.7905L628.416 46.6166" stroke="#21232F"/>
<path opacity="0.3" d="M634.786 42.9645L636.91 44.7905L634.786 46.6166" stroke="#21232F"/>
<path opacity="0.3" d="M563.692 42.9645L565.816 44.7905L563.692 46.6166" stroke="#21232F"/>
<path d="M693.139 42.9645L695.263 44.7905L693.139 46.6166" stroke="#21232F"/>
<path opacity="0.6" d="M699.509 42.9645L701.633 44.7905L699.509 46.6166" stroke="#21232F"/>
<path opacity="0.3" d="M705.88 42.9645L708.004 44.7905L705.88 46.6166" stroke="#21232F"/>
<path d="M764.165 42.9645L766.288 44.7905L764.165 46.6166" stroke="#21232F"/>
<path opacity="0.6" d="M770.535 42.9645L772.659 44.7905L770.535 46.6166" stroke="#21232F"/>
<path opacity="0.3" d="M776.906 42.9645L779.03 44.7905L776.906 46.6166" stroke="#21232F"/>
<path d="M824.729 5.39824V5.05824H825.1H825.637L822.881 1L820.117 5.05824H820.937H821.308V5.39824V19.8794L826.999 25.1774H844.679L841.276 22.0529H828.926H828.77L828.661 21.9501L824.834 18.3444L824.729 18.2454V18.1072V5.39824Z" stroke="#21232F"/>
<path d="M842.076 8.34801L842.175 8.44593V8.57989V21.0623L845.576 24.183V6.81094L839.847 1.55359H826.279L828.252 4.42033H837.92H838.081L838.191 4.52838L842.076 8.34801Z" stroke="#21232F"/>
<path d="M859.238 35.3455V35.0055H859.609H860.146L857.389 30.9473L854.626 35.0055H855.446H855.817V35.3455V49.8266L861.508 55.1246H879.188L875.785 52.0002H863.435H863.279L863.169 51.8973L859.343 48.2916L859.238 48.1926V48.0545V35.3455Z" stroke="#21232F"/>
<path d="M876.584 38.2952L876.684 38.3931V38.5271V51.0095L880.085 54.1301V36.7581L874.356 31.5007H860.788L862.761 34.3675H872.428H872.589L872.699 34.4756L876.584 38.2952Z" stroke="#21232F"/>
<path d="M895.824 5.39824V5.05824H896.194H896.731L893.975 1L891.211 5.05824H892.031H892.402V5.39824V19.8794L898.094 25.1774H915.773L912.37 22.0529H900.02H899.864L899.755 21.9501L895.929 18.3444L895.824 18.2454V18.1072V5.39824Z" stroke="#21232F"/>
<path d="M913.17 8.34801L913.269 8.44593V8.57989V21.0623L916.67 24.183V6.81094L910.941 1.55359H897.373L899.346 4.42033H909.014H909.175L909.284 4.52838L913.17 8.34801Z" stroke="#21232F"/>
<path d="M930.332 35.3455V35.0055H930.703H931.24L928.483 30.9473L925.719 35.0055H926.54H926.911V35.3455V49.8266L932.602 55.1246H950.282L946.879 52.0002H934.529H934.372L934.263 51.8973L930.437 48.2916L930.332 48.1926V48.0545V35.3455Z" stroke="#21232F"/>
<path d="M947.679 38.2952L947.778 38.3931V38.5271V51.0095L951.179 54.1301V36.7581L945.45 31.5007H931.882L933.856 34.3675H943.523H943.684L943.793 34.4756L947.679 38.2952Z" stroke="#21232F"/>
<path d="M1001.52 35.3455V35.0055H1001.89H1002.43L999.672 30.9473L996.908 35.0055H997.728H998.099V35.3455V49.8266L1003.79 55.1246H1021.47L1018.07 52.0002H1005.72H1005.56L1005.45 51.8973L1001.63 48.2916L1001.52 48.1926V48.0545V35.3455Z" stroke="#21232F"/>
<path d="M1018.87 38.2952L1018.97 38.3931V38.5271V51.0095L1022.37 54.1301V36.7581L1016.64 31.5007H1003.07L1005.04 34.3675H1014.71H1014.87L1014.98 34.4756L1018.87 38.2952Z" stroke="#21232F"/>
<path d="M1072.55 35.3455V35.0055H1072.92H1073.45L1070.7 30.9473L1067.93 35.0055H1068.75H1069.12V35.3455V49.8266L1074.82 55.1246H1092.5L1089.09 52.0002H1076.74H1076.59L1076.48 51.8973L1072.65 48.2916L1072.55 48.1926V48.0545V35.3455Z" stroke="#21232F"/>
<path d="M1089.89 38.2952L1089.99 38.3931V38.5271V51.0095L1093.39 54.1301V36.7581L1087.66 31.5007H1074.1L1076.07 34.3675H1085.74H1085.9L1086.01 34.4756L1089.89 38.2952Z" stroke="#21232F"/>
<path d="M966.918 5.39824V5.05824H967.289H967.825L965.069 1L962.305 5.05824H963.126H963.497V5.39824V19.8794L969.188 25.1774H986.868L983.465 22.0529H971.114H970.958L970.849 21.9501L967.023 18.3444L966.918 18.2454V18.1072V5.39824Z" stroke="#21232F"/>
<path d="M984.264 8.34801L984.364 8.44593V8.57989V21.0623L987.764 24.183V6.81094L982.035 1.55359H968.468L970.44 4.42033H980.108H980.269L980.379 4.52838L984.264 8.34801Z" stroke="#21232F"/>
<path d="M1037.94 5.39824V5.05824H1038.31H1038.85L1036.1 1L1033.33 5.05824H1034.15H1034.52V5.39824V19.8794L1040.21 25.1774H1057.89L1054.49 22.0529H1042.14H1041.98L1041.88 21.9501L1038.05 18.3444L1037.94 18.2454V18.1072V5.39824Z" stroke="#21232F"/>
<path d="M1055.29 8.34801L1055.39 8.44593V8.57989V21.0623L1058.79 24.183V6.81094L1053.06 1.55359H1039.49L1041.47 4.42033H1051.13H1051.3L1051.4 4.52838L1055.29 8.34801Z" stroke="#21232F"/>
<path d="M895.321 42.9645L897.444 44.7905L895.321 46.6166" stroke="#21232F"/>
<path opacity="0.6" d="M901.691 42.9645L903.815 44.7905L901.691 46.6166" stroke="#21232F"/>
<path opacity="0.3" d="M908.062 42.9645L910.186 44.7905L908.062 46.6166" stroke="#21232F"/>
<path opacity="0.3" d="M836.968 42.9645L839.092 44.7905L836.968 46.6166" stroke="#21232F"/>
<path d="M966.415 42.9645L968.539 44.7905L966.415 46.6166" stroke="#21232F"/>
<path opacity="0.6" d="M972.785 42.9645L974.909 44.7905L972.785 46.6166" stroke="#21232F"/>
<path opacity="0.3" d="M979.156 42.9645L981.28 44.7905L979.156 46.6166" stroke="#21232F"/>
<path d="M1037.44 42.9645L1039.56 44.7905L1037.44 46.6166" stroke="#21232F"/>
<path opacity="0.6" d="M1043.81 42.9645L1045.94 44.7905L1043.81 46.6166" stroke="#21232F"/>
<path opacity="0.3" d="M1050.18 42.9645L1052.31 44.7905L1050.18 46.6166" stroke="#21232F"/>
<g clip-path="url(#clip0)">
<path d="M595.968 35.3455V35.0055H596.305H596.792L594.291 30.9473L591.784 35.0055H592.529H592.865V35.3455V49.8266L598.027 55.1246H614.063L610.977 52.0002H599.775H599.633L599.534 51.8973L596.063 48.2916L595.968 48.1926V48.0545V35.3455Z" stroke="#292B39"/>
<path d="M611.702 38.2952L611.792 38.3931V38.5271V51.0095L614.877 54.1301V36.7581L609.681 31.5007H597.374L599.164 34.3675H607.932H608.078L608.178 34.4756L611.702 38.2952Z" stroke="#292B39"/>
<path d="M660.538 35.3455V35.0055H660.874H661.361L658.861 30.9473L656.354 35.0055H657.098H657.434V35.3455V49.8266L662.597 55.1246H678.633L675.546 52.0002H664.345H664.203L664.104 51.8973L660.633 48.2916L660.538 48.1926V48.0545V35.3455Z" stroke="#292B39"/>
<path d="M676.272 38.2952L676.362 38.3931V38.5271V51.0095L679.446 54.1301V36.7581L674.25 31.5007H661.943L663.733 34.3675H672.502H672.648L672.748 34.4756L676.272 38.2952Z" stroke="#292B39"/>
<path d="M724.96 35.3455V35.0055H725.297H725.784L723.283 30.9473L720.777 35.0055H721.521H721.857V35.3455V49.8266L727.02 55.1246H743.055L739.969 52.0002H728.767H728.625L728.526 51.8973L725.056 48.2916L724.96 48.1926V48.0545V35.3455Z" stroke="#292B39"/>
<path d="M740.694 38.2952L740.784 38.3931V38.5271V51.0095L743.869 54.1301V36.7581L738.673 31.5007H726.366L728.156 34.3675H736.924H737.07L737.17 34.4756L740.694 38.2952Z" stroke="#292B39"/>
<path d="M629.153 5.39824V5.05824H629.489H629.975L627.475 1L624.969 5.05824H625.713H626.049V5.39824V19.8794L631.211 25.1774H647.247L644.161 22.0529H632.959H632.817L632.718 21.9501L629.247 18.3444L629.153 18.2454V18.1072V5.39824Z" stroke="#292B39"/>
<path d="M644.886 8.34801L644.976 8.44593V8.57989V21.0623L648.061 24.183V6.81094L642.864 1.55359H630.558L632.348 4.42033H641.116H641.262L641.362 4.52838L644.886 8.34801Z" stroke="#292B39"/>
<path d="M693.575 5.39824V5.05824H693.911H694.398L691.898 1L689.391 5.05824H690.135H690.471V5.39824V19.8794L695.634 25.1774H711.67L708.583 22.0529H697.382H697.24L697.141 21.9501L693.67 18.3444L693.575 18.2454V18.1072V5.39824Z" stroke="#292B39"/>
<path d="M709.308 8.34801L709.399 8.44593V8.57989V21.0623L712.483 24.183V6.81094L707.287 1.55359H694.98L696.77 4.42033H705.539H705.685L705.785 4.52838L709.308 8.34801Z" stroke="#292B39"/>
<path d="M628.696 42.9645L630.623 44.7905L628.696 46.6165" stroke="#292B39"/>
<path opacity="0.6" d="M634.475 42.9645L636.401 44.7905L634.475 46.6165" stroke="#292B39"/>
<path opacity="0.3" d="M640.253 42.9645L642.18 44.7905L640.253 46.6165" stroke="#292B39"/>
<path d="M693.119 42.9645L695.045 44.7905L693.119 46.6165" stroke="#292B39"/>
<path opacity="0.6" d="M698.897 42.9645L700.824 44.7905L698.897 46.6165" stroke="#292B39"/>
<path opacity="0.3" d="M704.676 42.9645L706.602 44.7905L704.676 46.6165" stroke="#292B39"/>
</g>
<path d="M824.874 5.39824V5.05824H825.245H825.781L823.025 1L820.261 5.05824H821.082H821.452V5.39824V19.8794L827.144 25.1774H844.824L841.42 22.0529H829.071H828.914L828.805 21.9501L824.979 18.3444L824.874 18.2454V18.1072V5.39824Z" stroke="#292B39"/>
<path d="M842.22 8.34801L842.32 8.44593V8.57989V21.0623L845.72 24.183V6.81094L839.992 1.55359H826.423L828.397 4.42033H838.064H838.225L838.335 4.52838L842.22 8.34801Z" stroke="#292B39"/>
<path d="M859.383 35.3455V35.0055H859.753H860.29L857.534 30.9473L854.77 35.0055H855.59H855.961V35.3455V49.8266L861.653 55.1246H879.332L875.929 52.0002H863.58H863.423L863.314 51.8973L859.488 48.2916L859.383 48.1926V48.0545V35.3455Z" stroke="#292B39"/>
<path d="M876.729 38.2952L876.829 38.3931V38.5271V51.0095L880.229 54.1301V36.7581L874.5 31.5007H860.932L862.906 34.3675H872.573H872.734L872.844 34.4756L876.729 38.2952Z" stroke="#292B39"/>
<path d="M895.968 5.39824V5.05824H896.339H896.876L894.119 1L891.356 5.05824H892.176H892.547V5.39824V19.8794L898.238 25.1774H915.918L912.515 22.0529H900.165H900.008L899.899 21.9501L896.073 18.3444L895.968 18.2454V18.1072V5.39824Z" stroke="#292B39"/>
<path d="M913.315 8.34801L913.414 8.44593V8.57989V21.0623L916.815 24.183V6.81094L911.086 1.55359H897.518L899.491 4.42033H909.158H909.319L909.429 4.52838L913.315 8.34801Z" stroke="#292B39"/>
<path d="M930.477 35.3455V35.0055H930.848H931.385L928.628 30.9473L925.864 35.0055H926.685H927.056V35.3455V49.8266L932.747 55.1246H950.427L947.024 52.0002H934.674H934.517L934.408 51.8973L930.582 48.2916L930.477 48.1926V48.0545V35.3455Z" stroke="#292B39"/>
<path d="M947.823 38.2952L947.923 38.3931V38.5271V51.0095L951.324 54.1301V36.7581L945.595 31.5007H932.027L934 34.3675H943.667H943.828L943.938 34.4756L947.823 38.2952Z" stroke="#292B39"/>
<path d="M1001.66 35.3455V35.0055H1002.04H1002.57L999.817 30.9473L997.053 35.0055H997.873H998.243V35.3455V49.8266L1003.94 55.1246H1021.61L1018.21 52.0002H1005.86H1005.71L1005.6 51.8973L1001.77 48.2916L1001.66 48.1926V48.0545V35.3455Z" stroke="#292B39"/>
<path d="M1019.01 38.2952L1019.11 38.3931V38.5271V51.0095L1022.51 54.1301V36.7581L1016.78 31.5007H1003.21L1005.19 34.3675H1014.85H1015.02L1015.13 34.4756L1019.01 38.2952Z" stroke="#292B39"/>
<path d="M1072.69 35.3455V35.0055H1073.06H1073.6L1070.84 30.9473L1068.08 35.0055H1068.9H1069.27V35.3455V49.8266L1074.96 55.1246H1092.64L1089.24 52.0002H1076.89H1076.73L1076.62 51.8973L1072.8 48.2916L1072.69 48.1926V48.0545V35.3455Z" stroke="#292B39"/>
<path d="M1090.04 38.2952L1090.14 38.3931V38.5271V51.0095L1093.54 54.1301V36.7581L1087.81 31.5007H1074.24L1076.21 34.3675H1085.88H1086.04L1086.15 34.4756L1090.04 38.2952Z" stroke="#292B39"/>
<path d="M967.063 5.39824V5.05824H967.433H967.969L965.214 1L962.45 5.05824H963.27H963.641V5.39824V19.8794L969.332 25.1774H987.012L983.609 22.0529H971.259H971.103L970.994 21.9501L967.167 18.3444L967.063 18.2454V18.1072V5.39824Z" stroke="#292B39"/>
<path d="M984.409 8.34801L984.508 8.44593V8.57989V21.0623L987.909 24.183V6.81094L982.18 1.55359H968.612L970.585 4.42033H980.253H980.414L980.523 4.52838L984.409 8.34801Z" stroke="#292B39"/>
<path d="M1038.09 5.39824V5.05824H1038.46H1039L1036.24 1L1033.48 5.05824H1034.3H1034.67V5.39824V19.8794L1040.36 25.1774H1058.04L1054.63 22.0529H1042.29H1042.13L1042.02 21.9501L1038.19 18.3444L1038.09 18.2454V18.1072V5.39824Z" stroke="#292B39"/>
<path d="M1055.43 8.34801L1055.53 8.44593V8.57989V21.0623L1058.93 24.183V6.81094L1053.21 1.55359H1039.64L1041.61 4.42033H1051.28H1051.44L1051.55 4.52838L1055.43 8.34801Z" stroke="#292B39"/>
<path d="M895.465 42.9645L897.589 44.7905L895.465 46.6166" stroke="#292B39"/>
<path opacity="0.6" d="M901.836 42.9645L903.96 44.7905L901.836 46.6166" stroke="#292B39"/>
<path opacity="0.3" d="M908.207 42.9645L910.331 44.7905L908.207 46.6166" stroke="#292B39"/>
<path opacity="0.3" d="M837.113 42.9645L839.236 44.7905L837.113 46.6166" stroke="#292B39"/>
<path d="M966.559 42.9645L968.683 44.7905L966.559 46.6166" stroke="#292B39"/>
<path opacity="0.6" d="M972.93 42.9645L975.054 44.7905L972.93 46.6166" stroke="#292B39"/>
<path opacity="0.3" d="M979.301 42.9645L981.425 44.7905L979.301 46.6166" stroke="#292B39"/>
<path d="M1037.59 42.9645L1039.71 44.7905L1037.59 46.6166" stroke="#292B39"/>
<path opacity="0.6" d="M1043.96 42.9645L1046.08 44.7905L1043.96 46.6166" stroke="#292B39"/>
<path opacity="0.3" d="M1050.33 42.9645L1052.45 44.7905L1050.33 46.6166" stroke="#292B39"/>
<path d="M1097.19 5.39824V5.05824H1097.56H1098.1L1095.34 1L1092.58 5.05824H1093.4H1093.77V5.39824V19.8794L1099.46 25.1774H1117.14L1113.74 22.0529H1101.39H1101.23L1101.12 21.9501L1097.3 18.3444L1097.19 18.2454V18.1072V5.39824Z" stroke="#292B39"/>
<path d="M1114.54 8.34801L1114.64 8.44593V8.57989V21.0623L1118.04 24.183V6.81094L1112.31 1.55359H1098.74L1100.71 4.42033H1110.38H1110.54L1110.65 4.52838L1114.54 8.34801Z" stroke="#292B39"/>
<path d="M1131.7 35.3455V35.0055H1132.07H1132.61L1129.85 30.9473L1127.09 35.0055H1127.91H1128.28V35.3455V49.8266L1133.97 55.1246H1151.65L1148.25 52.0002H1135.9H1135.74L1135.63 51.8973L1131.81 48.2916L1131.7 48.1926V48.0545V35.3455Z" stroke="#292B39"/>
<path d="M1149.05 38.2952L1149.15 38.3931V38.5271V51.0095L1152.55 54.1301V36.7581L1146.82 31.5007H1133.25L1135.22 34.3675H1144.89H1145.05L1145.16 34.4756L1149.05 38.2952Z" stroke="#292B39"/>
<path d="M1168.29 5.39824V5.05824H1168.66H1169.19L1166.44 1L1163.67 5.05824H1164.49H1164.86V5.39824V19.8794L1170.56 25.1774H1188.24L1184.83 22.0529H1172.48H1172.33L1172.22 21.9501L1168.39 18.3444L1168.29 18.2454V18.1072V5.39824Z" stroke="#292B39"/>
<path d="M1185.63 8.34801L1185.73 8.44593V8.57989V21.0623L1189.13 24.183V6.81094L1183.4 1.55359H1169.84L1171.81 4.42033H1181.48H1181.64L1181.75 4.52838L1185.63 8.34801Z" stroke="#292B39"/>
<path d="M1202.8 35.3455V35.0055H1203.17H1203.7L1200.95 30.9473L1198.18 35.0055H1199H1199.37V35.3455V49.8266L1205.06 55.1246H1222.74L1219.34 52.0002H1206.99H1206.83L1206.73 51.8973L1202.9 48.2916L1202.8 48.1926V48.0545V35.3455Z" stroke="#292B39"/>
<path d="M1220.14 38.2952L1220.24 38.3931V38.5271V51.0095L1223.64 54.1301V36.7581L1217.91 31.5007H1204.34L1206.32 34.3675H1215.99H1216.15L1216.26 34.4756L1220.14 38.2952Z" stroke="#292B39"/>
<path d="M1273.98 35.3455V35.0055H1274.35H1274.89L1272.13 30.9473L1269.37 35.0055H1270.19H1270.56V35.3455V49.8266L1276.25 55.1246H1293.93L1290.53 52.0002H1278.18H1278.02L1277.91 51.8973L1274.09 48.2916L1273.98 48.1926V48.0545V35.3455Z" stroke="#292B39"/>
<path d="M1291.33 38.2952L1291.43 38.3931V38.5271V51.0095L1294.83 54.1301V36.7581L1289.1 31.5007H1275.53L1277.51 34.3675H1287.17H1287.33L1287.44 34.4756L1291.33 38.2952Z" stroke="#292B39"/>
<path d="M1345.01 35.3455V35.0055H1345.38H1345.92L1343.16 30.9473L1340.4 35.0055H1341.22H1341.59V35.3455V49.8266L1347.28 55.1246H1364.96L1361.56 52.0002H1349.21H1349.05L1348.94 51.8973L1345.11 48.2916L1345.01 48.1926V48.0545V35.3455Z" stroke="#292B39"/>
<path d="M1362.36 38.2952L1362.45 38.3931V38.5271V51.0095L1365.86 54.1301V36.7581L1360.13 31.5007H1346.56L1348.53 34.3675H1358.2H1358.36L1358.47 34.4756L1362.36 38.2952Z" stroke="#292B39"/>
<path d="M1239.38 5.39824V5.05824H1239.75H1240.29L1237.53 1L1234.77 5.05824H1235.59H1235.96V5.39824V19.8794L1241.65 25.1774H1259.33L1255.93 22.0529H1243.58H1243.42L1243.31 21.9501L1239.49 18.3444L1239.38 18.2454V18.1072V5.39824Z" stroke="#292B39"/>
<path d="M1256.73 8.34801L1256.83 8.44593V8.57989V21.0623L1260.23 24.183V6.81094L1254.5 1.55359H1240.93L1242.9 4.42033H1252.57H1252.73L1252.84 4.52838L1256.73 8.34801Z" stroke="#292B39"/>
<path d="M1310.41 5.39824V5.05824H1310.78H1311.31L1308.56 1L1305.79 5.05824H1306.61H1306.98V5.39824V19.8794L1312.68 25.1774H1330.36L1326.95 22.0529H1314.6H1314.45L1314.34 21.9501L1310.51 18.3444L1310.41 18.2454V18.1072V5.39824Z" stroke="#292B39"/>
<path d="M1327.75 8.34801L1327.85 8.44593V8.57989V21.0623L1331.25 24.183V6.81094L1325.52 1.55359H1311.96L1313.93 4.42033H1323.6H1323.76L1323.87 4.52838L1327.75 8.34801Z" stroke="#292B39"/>
<path d="M1167.78 42.9645L1169.91 44.7905L1167.78 46.6166" stroke="#292B39"/>
<path opacity="0.6" d="M1174.15 42.9645L1176.28 44.7905L1174.15 46.6166" stroke="#292B39"/>
<path opacity="0.3" d="M1180.52 42.9645L1182.65 44.7905L1180.52 46.6166" stroke="#292B39"/>
<path opacity="0.3" d="M1109.43 42.9645L1111.55 44.7905L1109.43 46.6166" stroke="#292B39"/>
<path d="M1238.88 42.9645L1241 44.7905L1238.88 46.6166" stroke="#292B39"/>
<path opacity="0.6" d="M1245.25 42.9645L1247.37 44.7905L1245.25 46.6166" stroke="#292B39"/>
<path opacity="0.3" d="M1251.62 42.9645L1253.74 44.7905L1251.62 46.6166" stroke="#292B39"/>
<path d="M1309.9 42.9645L1312.03 44.7905L1309.9 46.6166" stroke="#292B39"/>
<path opacity="0.6" d="M1316.27 42.9645L1318.4 44.7905L1316.27 46.6166" stroke="#292B39"/>
<path opacity="0.3" d="M1322.64 42.9645L1324.77 44.7905L1322.64 46.6166" stroke="#292B39"/>
<defs>
<clipPath id="clip0">
<rect width="129" height="88" fill="white" transform="translate(615 1)"/>
</clipPath>
</defs>
</svg>
