<svg width="1366" height="61" viewBox="0 0 1366 61" fill="none" xmlns="http://www.w3.org/2000/svg">
<path d="M4.61243 40.297V39.957H4.98312H5.51982L2.76376 35.8988L0 39.957H0.820203H1.1909V40.297V54.7782L6.88232 60.0761H24.5621L21.1588 56.9517H8.80926H8.65276L8.54362 56.8488L4.71748 53.2431L4.61243 53.1441V53.006V40.297Z" stroke="#21232F"/>
<path d="M21.9587 43.2467L22.0584 43.3447V43.4787V55.961L25.4589 59.0818V41.7097L19.7301 36.4523H6.16187L8.13536 39.3191H17.8026H17.9637L18.0736 39.4272L21.9587 43.2467Z" stroke="#21232F"/>
<path d="M39.1212 6.34551V6.00551H39.4919H40.0286L37.2726 1.94727L34.5088 6.00551H35.329H35.6997V6.34551V20.8266L41.3911 26.1246H59.0709L55.6676 23.0002H43.3181H43.1616L43.0524 22.8973L39.2263 19.2916L39.1212 19.1926V19.0545V6.34551Z" stroke="#21232F"/>
<path d="M56.4674 9.29522L56.5671 9.39321V9.52717V22.0095L59.9677 25.1302V7.75815L54.2388 2.50079H40.6707L42.6441 5.36754H52.3113H52.4724L52.5824 5.47566L56.4674 9.29522Z" stroke="#21232F"/>
<path d="M75.7067 40.297V39.957H76.0774H76.614L73.858 35.8988L71.0942 39.957H71.9144H72.2851V40.297V54.7782L77.9766 60.0761H95.6562L92.2532 56.9517H79.9035H79.747L79.6378 56.8488L75.8117 53.2431L75.7067 53.1441V53.006V40.297Z" stroke="#21232F"/>
<path d="M93.0531 43.2467L93.1525 43.3447V43.4787V55.961L96.5532 59.0818V41.7097L90.8245 36.4523H77.2561L79.2295 39.3191H88.8969H89.0578L89.1675 39.4272L93.0531 43.2467Z" stroke="#21232F"/>
<path d="M110.215 6.34551V6.00551H110.586H111.123L108.366 1.94727L105.603 6.00551H106.423H106.794V6.34551V20.8266L112.485 26.1246H130.165L126.762 23.0002H114.412H114.255L114.146 22.8973L110.32 19.2916L110.215 19.1926V19.0545V6.34551Z" stroke="#21232F"/>
<path d="M127.562 9.29522L127.661 9.39321V9.52717V22.0095L131.062 25.1302V7.75815L125.333 2.50079H111.765L113.739 5.36754H123.406H123.567L123.676 5.47566L127.562 9.29522Z" stroke="#21232F"/>
<path d="M181.403 6.34551V6.00551H181.774H182.311L179.555 1.94727L176.791 6.00551H177.611H177.982V6.34551V20.8266L183.674 26.1246H201.353L197.95 23.0002H185.6H185.444L185.335 22.8973L181.509 19.2916L181.403 19.1926V19.0545V6.34551Z" stroke="#21232F"/>
<path d="M198.75 9.29522L198.849 9.39321V9.52717V22.0095L202.25 25.1302V7.75815L196.521 2.50079H182.953L184.926 5.36754H194.593H194.754L194.865 5.47566L198.75 9.29522Z" stroke="#21232F"/>
<path d="M252.43 6.34551V6.00551H252.8H253.337L250.581 1.94727L247.817 6.00551H248.637H249.008V6.34551V20.8266L254.7 26.1246H272.379L268.976 23.0002H256.627H256.47L256.36 22.8973L252.535 19.2916L252.43 19.1926V19.0545V6.34551Z" stroke="#21232F"/>
<path d="M269.776 9.29522L269.875 9.39321V9.52717V22.0095L273.276 25.1302V7.75815L267.547 2.50079H253.979L255.953 5.36754H265.62H265.781L265.891 5.47566L269.776 9.29522Z" stroke="#21232F"/>
<path d="M146.801 40.297V39.957H147.172H147.708L144.952 35.8988L142.188 39.957H143.009H143.38V40.297V54.7782L149.071 60.0761H166.751L163.348 56.9517H150.997H150.841L150.732 56.8488L146.906 53.2431L146.801 53.1441V53.006V40.297Z" stroke="#21232F"/>
<path d="M164.147 43.2467L164.247 43.3447V43.4787V55.961L167.648 59.0818V41.7097L161.918 36.4523H148.351L150.323 39.3191H159.991H160.152L160.262 39.4272L164.147 43.2467Z" stroke="#21232F"/>
<path d="M217.827 40.297V39.957H218.197H218.734L215.978 35.8988L213.214 39.957H214.034H214.405V40.297V54.7782L220.097 60.0761H237.777L234.373 56.9517H222.024H221.867L221.758 56.8488L217.932 53.2431L217.827 53.1441V53.006V40.297Z" stroke="#21232F"/>
<path d="M235.173 43.2467L235.273 43.3447V43.4787V55.961L238.673 59.0818V41.7097L232.944 36.4523H219.376L221.35 39.3191H231.017H231.178L231.288 39.4272L235.173 43.2467Z" stroke="#21232F"/>
<path d="M40.6951 47.9154L42.8186 49.7414L40.6951 51.5674" stroke="#21232F"/>
<path opacity="0.6" d="M47.0659 47.9154L49.1895 49.7414L47.0659 51.5674" stroke="#21232F"/>
<path opacity="0.3" d="M53.4365 47.9154L55.5602 49.7414L53.4365 51.5674" stroke="#21232F"/>
<path d="M75.2036 13.9645L77.3273 15.7906L75.2036 17.6166" stroke="#21232F"/>
<path opacity="0.6" d="M81.5745 13.9645L83.6981 15.7906L81.5745 17.6166" stroke="#21232F"/>
<path opacity="0.3" d="M87.9453 13.9645L90.0689 15.7906L87.9453 17.6166" stroke="#21232F"/>
<path opacity="0.3" d="M16.8513 13.9645L18.9749 15.7906L16.8513 17.6166" stroke="#21232F"/>
<path d="M111.789 47.9154L113.913 49.7414L111.789 51.5674" stroke="#21232F"/>
<path opacity="0.6" d="M118.16 47.9154L120.284 49.7414L118.16 51.5674" stroke="#21232F"/>
<path opacity="0.3" d="M124.531 47.9154L126.655 49.7414L124.531 51.5674" stroke="#21232F"/>
<path d="M146.298 13.9645L148.422 15.7906L146.298 17.6166" stroke="#21232F"/>
<path opacity="0.6" d="M152.668 13.9645L154.793 15.7906L152.668 17.6166" stroke="#21232F"/>
<path opacity="0.3" d="M159.039 13.9645L161.163 15.7906L159.039 17.6166" stroke="#21232F"/>
<path d="M217.324 13.9645L219.447 15.7906L217.324 17.6166" stroke="#21232F"/>
<path opacity="0.6" d="M223.695 13.9645L225.819 15.7906L223.695 17.6166" stroke="#21232F"/>
<path opacity="0.3" d="M230.065 13.9645L232.189 15.7906L230.065 17.6166" stroke="#21232F"/>
<path d="M182.883 47.9154L185.007 49.7414L182.883 51.5674" stroke="#21232F"/>
<path opacity="0.6" d="M189.254 47.9154L191.378 49.7414L189.254 51.5674" stroke="#21232F"/>
<path opacity="0.3" d="M195.625 47.9154L197.749 49.7414L195.625 51.5674" stroke="#21232F"/>
<path d="M253.909 47.9154L256.033 49.7414L253.909 51.5674" stroke="#21232F"/>
<path opacity="0.6" d="M260.28 47.9154L262.403 49.7414L260.28 51.5674" stroke="#21232F"/>
<path opacity="0.3" d="M266.651 47.9154L268.775 49.7414L266.651 51.5674" stroke="#21232F"/>
<path d="M551.453 40.297V39.957H551.824H552.361L549.605 35.8988L546.841 39.957H547.661H548.032V40.297V54.7782L553.723 60.0761H571.403L568 56.9517H555.65H555.494L555.384 56.8488L551.558 53.2431L551.453 53.1441V53.006V40.297Z" stroke="#21232F"/>
<path d="M568.8 43.2467L568.899 43.3447V43.4787V55.961L572.3 59.0818V41.7097L566.571 36.4523H553.003L554.976 39.3191H564.643H564.805L564.914 39.4272L568.8 43.2467Z" stroke="#21232F"/>
<path d="M585.962 6.34551V6.00551H586.333H586.869L584.113 1.94727L581.35 6.00551H582.17H582.541V6.34551V20.8266L588.232 26.1246H605.912L602.508 23.0002H590.159H590.002L589.893 22.8973L586.067 19.2916L585.962 19.1926V19.0545V6.34551Z" stroke="#21232F"/>
<path d="M603.308 9.29522L603.408 9.39321V9.52717V22.0095L606.809 25.1302V7.75815L601.08 2.50079H587.511L589.485 5.36754H599.152H599.313L599.423 5.47566L603.308 9.29522Z" stroke="#21232F"/>
<path d="M622.547 40.297V39.957H622.918H623.455L620.699 35.8988L617.935 39.957H618.755H619.126V40.297V54.7782L624.817 60.0761H642.497L639.094 56.9517H626.744H626.588L626.479 56.8488L622.653 53.2431L622.547 53.1441V53.006V40.297Z" stroke="#21232F"/>
<path d="M639.894 43.2467L639.993 43.3447V43.4787V55.961L643.394 59.0818V41.7097L637.665 36.4523H624.097L626.07 39.3191H635.738H635.899L636.008 39.4272L639.894 43.2467Z" stroke="#21232F"/>
<path d="M657.056 6.34551V6.00551H657.427H657.964L655.207 1.94727L652.443 6.00551H653.264H653.635V6.34551V20.8266L659.326 26.1246H677.006L673.603 23.0002H661.253H661.096L660.987 22.8973L657.161 19.2916L657.056 19.1926V19.0545V6.34551Z" stroke="#21232F"/>
<path d="M674.403 9.29522L674.502 9.39321V9.52717V22.0095L677.903 25.1302V7.75815L672.174 2.50079H658.606L660.58 5.36754H670.247H670.407L670.517 5.47566L674.403 9.29522Z" stroke="#21232F"/>
<path d="M728.244 6.34551V6.00551H728.615H729.152L726.396 1.94727L723.632 6.00551H724.452H724.823V6.34551V20.8266L730.514 26.1246H748.194L744.791 23.0002H732.441H732.285L732.176 22.8973L728.35 19.2916L728.244 19.1926V19.0545V6.34551Z" stroke="#21232F"/>
<path d="M745.591 9.29522L745.69 9.39321V9.52717V22.0095L749.091 25.1302V7.75815L743.362 2.50079H729.794L731.768 5.36754H741.434H741.595L741.706 5.47566L745.591 9.29522Z" stroke="#21232F"/>
<path d="M799.27 6.34551V6.00551H799.641H800.178L797.421 1.94727L794.658 6.00551H795.478H795.849V6.34551V20.8266L801.541 26.1246H819.22L815.817 23.0002H803.467H803.311L803.201 22.8973L799.376 19.2916L799.27 19.1926V19.0545V6.34551Z" stroke="#21232F"/>
<path d="M816.617 9.29522L816.716 9.39321V9.52717V22.0095L820.117 25.1302V7.75815L814.388 2.50079H800.82L802.793 5.36754H812.46H812.621L812.732 5.47566L816.617 9.29522Z" stroke="#21232F"/>
<path d="M693.642 40.297V39.957H694.013H694.549L691.793 35.8988L689.029 39.957H689.85H690.22V40.297V54.7782L695.911 60.0761H713.591L710.188 56.9517H697.838H697.682L697.573 56.8488L693.747 53.2431L693.642 53.1441V53.006V40.297Z" stroke="#21232F"/>
<path d="M710.988 43.2467L711.088 43.3447V43.4787V55.961L714.488 59.0818V41.7097L708.759 36.4523H695.191L697.164 39.3191H706.832H706.993L707.103 39.4272L710.988 43.2467Z" stroke="#21232F"/>
<path d="M764.667 40.297V39.957H765.038H765.575L762.819 35.8988L760.055 39.957H760.875H761.246V40.297V54.7782L766.938 60.0761H784.617L781.214 56.9517H768.864H768.708L768.599 56.8488L764.773 53.2431L764.667 53.1441V53.006V40.297Z" stroke="#21232F"/>
<path d="M782.014 43.2467L782.114 43.3447V43.4787V55.961L785.514 59.0818V41.7097L779.785 36.4523H766.217L768.19 39.3191H777.857H778.019L778.129 39.4272L782.014 43.2467Z" stroke="#21232F"/>
<path d="M587.536 47.9154L589.659 49.7414L587.536 51.5674" stroke="#21232F"/>
<path opacity="0.6" d="M593.907 47.9154L596.03 49.7414L593.907 51.5674" stroke="#21232F"/>
<path opacity="0.3" d="M600.278 47.9154L602.401 49.7414L600.278 51.5674" stroke="#21232F"/>
<path d="M622.044 13.9645L624.168 15.7906L622.044 17.6166" stroke="#21232F"/>
<path opacity="0.6" d="M628.416 13.9645L630.539 15.7906L628.416 17.6166" stroke="#21232F"/>
<path opacity="0.3" d="M634.786 13.9645L636.91 15.7906L634.786 17.6166" stroke="#21232F"/>
<path opacity="0.3" d="M563.692 13.9645L565.816 15.7906L563.692 17.6166" stroke="#21232F"/>
<path d="M658.63 47.9154L660.754 49.7414L658.63 51.5674" stroke="#21232F"/>
<path opacity="0.6" d="M665.001 47.9154L667.125 49.7414L665.001 51.5674" stroke="#21232F"/>
<path opacity="0.3" d="M671.372 47.9154L673.495 49.7414L671.372 51.5674" stroke="#21232F"/>
<path d="M693.139 13.9645L695.263 15.7906L693.139 17.6166" stroke="#21232F"/>
<path opacity="0.6" d="M699.509 13.9645L701.633 15.7906L699.509 17.6166" stroke="#21232F"/>
<path opacity="0.3" d="M705.88 13.9645L708.004 15.7906L705.88 17.6166" stroke="#21232F"/>
<path d="M764.165 13.9645L766.288 15.7906L764.165 17.6166" stroke="#21232F"/>
<path opacity="0.6" d="M770.535 13.9645L772.659 15.7906L770.535 17.6166" stroke="#21232F"/>
<path opacity="0.3" d="M776.906 13.9645L779.03 15.7906L776.906 17.6166" stroke="#21232F"/>
<path d="M729.724 47.9154L731.848 49.7414L729.724 51.5674" stroke="#21232F"/>
<path opacity="0.6" d="M736.095 47.9154L738.219 49.7414L736.095 51.5674" stroke="#21232F"/>
<path opacity="0.3" d="M742.466 47.9154L744.59 49.7414L742.466 51.5674" stroke="#21232F"/>
<path d="M800.75 47.9154L802.874 49.7414L800.75 51.5674" stroke="#21232F"/>
<path opacity="0.6" d="M807.121 47.9154L809.244 49.7414L807.121 51.5674" stroke="#21232F"/>
<path opacity="0.3" d="M813.492 47.9154L815.616 49.7414L813.492 51.5674" stroke="#21232F"/>
<path d="M277.888 40.297V39.957H278.259H278.796L276.04 35.8988L273.276 39.957H274.096H274.467V40.297V54.7782L280.158 60.0761H297.838L294.435 56.9517H282.085H281.929L281.82 56.8488L277.993 53.2431L277.888 53.1441V53.006V40.297Z" stroke="#21232F"/>
<path d="M295.235 43.2467L295.334 43.3447V43.4787V55.961L298.735 59.0818V41.7097L293.006 36.4523H279.438L281.411 39.3191H291.078H291.24L291.349 39.4272L295.235 43.2467Z" stroke="#21232F"/>
<path d="M312.397 6.34551V6.00551H312.768H313.304L310.548 1.94727L307.785 6.00551H308.605H308.976V6.34551V20.8266L314.667 26.1246H332.347L328.944 23.0002H316.594H316.437L316.328 22.8973L312.502 19.2916L312.397 19.1926V19.0545V6.34551Z" stroke="#21232F"/>
<path d="M329.743 9.29522L329.843 9.39321V9.52717V22.0095L333.244 25.1302V7.75815L327.515 2.50079H313.947L315.92 5.36754H325.587H325.748L325.858 5.47566L329.743 9.29522Z" stroke="#21232F"/>
<path d="M348.983 40.297V39.957H349.353H349.89L347.134 35.8988L344.37 39.957H345.19H345.561V40.297V54.7782L351.252 60.0761H368.932L365.529 56.9517H353.179H353.023L352.914 56.8488L349.088 53.2431L348.983 53.1441V53.006V40.297Z" stroke="#21232F"/>
<path d="M366.329 43.2467L366.428 43.3447V43.4787V55.961L369.829 59.0818V41.7097L364.1 36.4523H350.532L352.505 39.3191H362.173H362.334L362.443 39.4272L366.329 43.2467Z" stroke="#21232F"/>
<path d="M383.491 6.34551V6.00551H383.862H384.399L381.642 1.94727L378.878 6.00551H379.699H380.07V6.34551V20.8266L385.761 26.1246H403.441L400.038 23.0002H387.688H387.531L387.422 22.8973L383.596 19.2916L383.491 19.1926V19.0545V6.34551Z" stroke="#21232F"/>
<path d="M400.838 9.29522L400.937 9.39321V9.52717V22.0095L404.338 25.1302V7.75815L398.609 2.50079H385.041L387.015 5.36754H396.682H396.843L396.952 5.47566L400.838 9.29522Z" stroke="#21232F"/>
<path d="M454.679 6.34551V6.00551H455.05H455.587L452.831 1.94727L450.067 6.00551H450.887H451.258V6.34551V20.8266L456.949 26.1246H474.629L471.226 23.0002H458.876H458.72L458.611 22.8973L454.785 19.2916L454.679 19.1926V19.0545V6.34551Z" stroke="#21232F"/>
<path d="M472.026 9.29522L472.125 9.39321V9.52717V22.0095L475.526 25.1302V7.75815L469.797 2.50079H456.229L458.202 5.36754H467.869H468.03L468.141 5.47566L472.026 9.29522Z" stroke="#21232F"/>
<path d="M525.705 6.34551V6.00551H526.076H526.613L523.856 1.94727L521.093 6.00551H521.913H522.284V6.34551V20.8266L527.976 26.1246H545.655L542.252 23.0002H529.902H529.746L529.636 22.8973L525.811 19.2916L525.705 19.1926V19.0545V6.34551Z" stroke="#21232F"/>
<path d="M543.052 9.29522L543.151 9.39321V9.52717V22.0095L546.552 25.1302V7.75815L540.823 2.50079H527.255L529.228 5.36754H538.895H539.056L539.167 5.47566L543.052 9.29522Z" stroke="#21232F"/>
<path d="M420.077 40.297V39.957H420.448H420.984L418.228 35.8988L415.464 39.957H416.285H416.656V40.297V54.7782L422.346 60.0761H440.026L436.623 56.9517H424.273H424.117L424.008 56.8488L420.182 53.2431L420.077 53.1441V53.006V40.297Z" stroke="#21232F"/>
<path d="M437.423 43.2467L437.523 43.3447V43.4787V55.961L440.923 59.0818V41.7097L435.194 36.4523H421.626L423.599 39.3191H433.267H433.428L433.538 39.4272L437.423 43.2467Z" stroke="#21232F"/>
<path d="M491.102 40.297V39.957H491.473H492.01L489.254 35.8988L486.49 39.957H487.31H487.681V40.297V54.7782L493.373 60.0761H511.053L507.649 56.9517H495.299H495.143L495.034 56.8488L491.208 53.2431L491.102 53.1441V53.006V40.297Z" stroke="#21232F"/>
<path d="M508.449 43.2467L508.549 43.3447V43.4787V55.961L511.949 59.0818V41.7097L506.22 36.4523H492.652L494.625 39.3191H504.292H504.454L504.564 39.4272L508.449 43.2467Z" stroke="#21232F"/>
<path d="M313.971 47.9154L316.095 49.7414L313.971 51.5674" stroke="#21232F"/>
<path opacity="0.6" d="M320.342 47.9154L322.465 49.7414L320.342 51.5674" stroke="#21232F"/>
<path opacity="0.3" d="M326.712 47.9154L328.836 49.7414L326.712 51.5674" stroke="#21232F"/>
<path d="M348.479 13.9645L350.603 15.7906L348.479 17.6166" stroke="#21232F"/>
<path opacity="0.6" d="M354.851 13.9645L356.974 15.7906L354.851 17.6166" stroke="#21232F"/>
<path opacity="0.3" d="M361.221 13.9645L363.345 15.7906L361.221 17.6166" stroke="#21232F"/>
<path opacity="0.3" d="M290.127 13.9645L292.251 15.7906L290.127 17.6166" stroke="#21232F"/>
<path d="M385.065 47.9154L387.189 49.7414L385.065 51.5674" stroke="#21232F"/>
<path opacity="0.6" d="M391.436 47.9154L393.56 49.7414L391.436 51.5674" stroke="#21232F"/>
<path opacity="0.3" d="M397.807 47.9154L399.93 49.7414L397.807 51.5674" stroke="#21232F"/>
<path d="M419.574 13.9645L421.698 15.7906L419.574 17.6166" stroke="#21232F"/>
<path opacity="0.6" d="M425.944 13.9645L428.068 15.7906L425.944 17.6166" stroke="#21232F"/>
<path opacity="0.3" d="M432.315 13.9645L434.439 15.7906L432.315 17.6166" stroke="#21232F"/>
<path d="M490.6 13.9645L492.723 15.7906L490.6 17.6166" stroke="#21232F"/>
<path opacity="0.6" d="M496.97 13.9645L499.095 15.7906L496.97 17.6166" stroke="#21232F"/>
<path opacity="0.3" d="M503.341 13.9645L505.465 15.7906L503.341 17.6166" stroke="#21232F"/>
<path d="M456.159 47.9154L458.283 49.7414L456.159 51.5674" stroke="#21232F"/>
<path opacity="0.6" d="M462.53 47.9154L464.654 49.7414L462.53 51.5674" stroke="#21232F"/>
<path opacity="0.3" d="M468.901 47.9154L471.025 49.7414L468.901 51.5674" stroke="#21232F"/>
<path d="M527.185 47.9154L529.308 49.7414L527.185 51.5674" stroke="#21232F"/>
<path opacity="0.6" d="M533.556 47.9154L535.679 49.7414L533.556 51.5674" stroke="#21232F"/>
<path opacity="0.3" d="M539.927 47.9154L542.051 49.7414L539.927 51.5674" stroke="#21232F"/>
<path d="M551.453 40.297V39.957H551.824H552.361L549.605 35.8988L546.841 39.957H547.661H548.032V40.297V54.7782L553.723 60.0761H571.403L568 56.9517H555.65H555.494L555.384 56.8488L551.558 53.2431L551.453 53.1441V53.006V40.297Z" stroke="#21232F"/>
<path d="M568.8 43.2467L568.899 43.3447V43.4787V55.961L572.3 59.0818V41.7097L566.571 36.4523H553.003L554.976 39.3191H564.643H564.805L564.914 39.4272L568.8 43.2467Z" stroke="#21232F"/>
<path d="M585.962 6.34551V6.00551H586.333H586.869L584.113 1.94727L581.35 6.00551H582.17H582.541V6.34551V20.8266L588.232 26.1246H605.912L602.508 23.0002H590.159H590.002L589.893 22.8973L586.067 19.2916L585.962 19.1926V19.0545V6.34551Z" stroke="#21232F"/>
<path d="M603.308 9.29522L603.408 9.39321V9.52717V22.0095L606.809 25.1302V7.75815L601.08 2.50079H587.511L589.485 5.36754H599.152H599.313L599.423 5.47566L603.308 9.29522Z" stroke="#21232F"/>
<path d="M622.547 40.297V39.957H622.918H623.455L620.699 35.8988L617.935 39.957H618.755H619.126V40.297V54.7782L624.817 60.0761H642.497L639.094 56.9517H626.744H626.588L626.479 56.8488L622.653 53.2431L622.547 53.1441V53.006V40.297Z" stroke="#21232F"/>
<path d="M639.894 43.2467L639.993 43.3447V43.4787V55.961L643.394 59.0818V41.7097L637.665 36.4523H624.097L626.07 39.3191H635.738H635.899L636.008 39.4272L639.894 43.2467Z" stroke="#21232F"/>
<path d="M657.056 6.34551V6.00551H657.427H657.964L655.207 1.94727L652.443 6.00551H653.264H653.635V6.34551V20.8266L659.326 26.1246H677.006L673.603 23.0002H661.253H661.096L660.987 22.8973L657.161 19.2916L657.056 19.1926V19.0545V6.34551Z" stroke="#21232F"/>
<path d="M674.403 9.29522L674.502 9.39321V9.52717V22.0095L677.903 25.1302V7.75815L672.174 2.50079H658.606L660.58 5.36754H670.247H670.407L670.517 5.47566L674.403 9.29522Z" stroke="#21232F"/>
<path d="M728.244 6.34551V6.00551H728.615H729.152L726.396 1.94727L723.632 6.00551H724.452H724.823V6.34551V20.8266L730.514 26.1246H748.194L744.791 23.0002H732.441H732.285L732.176 22.8973L728.35 19.2916L728.244 19.1926V19.0545V6.34551Z" stroke="#21232F"/>
<path d="M745.591 9.29522L745.69 9.39321V9.52717V22.0095L749.091 25.1302V7.75815L743.362 2.50079H729.794L731.768 5.36754H741.434H741.595L741.706 5.47566L745.591 9.29522Z" stroke="#21232F"/>
<path d="M799.27 6.34551V6.00551H799.641H800.178L797.421 1.94727L794.658 6.00551H795.478H795.849V6.34551V20.8266L801.541 26.1246H819.22L815.817 23.0002H803.467H803.311L803.201 22.8973L799.376 19.2916L799.27 19.1926V19.0545V6.34551Z" stroke="#21232F"/>
<path d="M816.617 9.29522L816.716 9.39321V9.52717V22.0095L820.117 25.1302V7.75815L814.388 2.50079H800.82L802.793 5.36754H812.46H812.621L812.732 5.47566L816.617 9.29522Z" stroke="#21232F"/>
<path d="M693.642 40.297V39.957H694.013H694.549L691.793 35.8988L689.029 39.957H689.85H690.22V40.297V54.7782L695.911 60.0761H713.591L710.188 56.9517H697.838H697.682L697.573 56.8488L693.747 53.2431L693.642 53.1441V53.006V40.297Z" stroke="#21232F"/>
<path d="M710.988 43.2467L711.088 43.3447V43.4787V55.961L714.488 59.0818V41.7097L708.759 36.4523H695.191L697.164 39.3191H706.832H706.993L707.103 39.4272L710.988 43.2467Z" stroke="#21232F"/>
<path d="M764.667 40.297V39.957H765.038H765.575L762.819 35.8988L760.055 39.957H760.875H761.246V40.297V54.7782L766.938 60.0761H784.617L781.214 56.9517H768.864H768.708L768.599 56.8488L764.773 53.2431L764.667 53.1441V53.006V40.297Z" stroke="#21232F"/>
<path d="M782.014 43.2467L782.114 43.3447V43.4787V55.961L785.514 59.0818V41.7097L779.785 36.4523H766.217L768.19 39.3191H777.857H778.019L778.129 39.4272L782.014 43.2467Z" stroke="#21232F"/>
<path d="M587.536 47.9154L589.659 49.7414L587.536 51.5674" stroke="#21232F"/>
<path opacity="0.6" d="M593.907 47.9154L596.03 49.7414L593.907 51.5674" stroke="#21232F"/>
<path opacity="0.3" d="M600.278 47.9154L602.401 49.7414L600.278 51.5674" stroke="#21232F"/>
<path d="M622.044 13.9645L624.168 15.7906L622.044 17.6166" stroke="#21232F"/>
<path opacity="0.6" d="M628.416 13.9645L630.539 15.7906L628.416 17.6166" stroke="#21232F"/>
<path opacity="0.3" d="M634.786 13.9645L636.91 15.7906L634.786 17.6166" stroke="#21232F"/>
<path opacity="0.3" d="M563.692 13.9645L565.816 15.7906L563.692 17.6166" stroke="#21232F"/>
<path d="M658.63 47.9154L660.754 49.7414L658.63 51.5674" stroke="#21232F"/>
<path opacity="0.6" d="M665.001 47.9154L667.125 49.7414L665.001 51.5674" stroke="#21232F"/>
<path opacity="0.3" d="M671.372 47.9154L673.495 49.7414L671.372 51.5674" stroke="#21232F"/>
<path d="M693.139 13.9645L695.263 15.7906L693.139 17.6166" stroke="#21232F"/>
<path opacity="0.6" d="M699.509 13.9645L701.633 15.7906L699.509 17.6166" stroke="#21232F"/>
<path opacity="0.3" d="M705.88 13.9645L708.004 15.7906L705.88 17.6166" stroke="#21232F"/>
<path d="M764.165 13.9645L766.288 15.7906L764.165 17.6166" stroke="#21232F"/>
<path opacity="0.6" d="M770.535 13.9645L772.659 15.7906L770.535 17.6166" stroke="#21232F"/>
<path opacity="0.3" d="M776.906 13.9645L779.03 15.7906L776.906 17.6166" stroke="#21232F"/>
<path d="M729.724 47.9154L731.848 49.7414L729.724 51.5674" stroke="#21232F"/>
<path opacity="0.6" d="M736.095 47.9154L738.219 49.7414L736.095 51.5674" stroke="#21232F"/>
<path opacity="0.3" d="M742.466 47.9154L744.59 49.7414L742.466 51.5674" stroke="#21232F"/>
<path d="M800.75 47.9154L802.874 49.7414L800.75 51.5674" stroke="#21232F"/>
<path opacity="0.6" d="M807.121 47.9154L809.244 49.7414L807.121 51.5674" stroke="#21232F"/>
<path opacity="0.3" d="M813.492 47.9154L815.616 49.7414L813.492 51.5674" stroke="#21232F"/>
<path d="M824.729 40.297V39.957H825.1H825.637L822.881 35.8988L820.117 39.957H820.937H821.308V40.297V54.7782L826.999 60.0761H844.679L841.276 56.9517H828.926H828.77L828.661 56.8488L824.834 53.2431L824.729 53.1441V53.006V40.297Z" stroke="#21232F"/>
<path d="M842.076 43.2467L842.175 43.3447V43.4787V55.961L845.576 59.0818V41.7097L839.847 36.4523H826.279L828.252 39.3191H837.92H838.081L838.191 39.4272L842.076 43.2467Z" stroke="#21232F"/>
<path d="M859.238 6.34551V6.00551H859.609H860.146L857.389 1.94727L854.626 6.00551H855.446H855.817V6.34551V20.8266L861.508 26.1246H879.188L875.785 23.0002H863.435H863.279L863.169 22.8973L859.343 19.2916L859.238 19.1926V19.0545V6.34551Z" stroke="#21232F"/>
<path d="M876.584 9.29522L876.684 9.39321V9.52717V22.0095L880.085 25.1302V7.75815L874.356 2.50079H860.788L862.761 5.36754H872.428H872.589L872.699 5.47566L876.584 9.29522Z" stroke="#21232F"/>
<path d="M895.824 40.297V39.957H896.194H896.731L893.975 35.8988L891.211 39.957H892.031H892.402V40.297V54.7782L898.094 60.0761H915.773L912.37 56.9517H900.02H899.864L899.755 56.8488L895.929 53.2431L895.824 53.1441V53.006V40.297Z" stroke="#21232F"/>
<path d="M913.17 43.2467L913.269 43.3447V43.4787V55.961L916.67 59.0818V41.7097L910.941 36.4523H897.373L899.346 39.3191H909.014H909.175L909.284 39.4272L913.17 43.2467Z" stroke="#21232F"/>
<path d="M930.332 6.34551V6.00551H930.703H931.24L928.483 1.94727L925.719 6.00551H926.54H926.911V6.34551V20.8266L932.602 26.1246H950.282L946.879 23.0002H934.529H934.372L934.263 22.8973L930.437 19.2916L930.332 19.1926V19.0545V6.34551Z" stroke="#21232F"/>
<path d="M947.679 9.29522L947.778 9.39321V9.52717V22.0095L951.179 25.1302V7.75815L945.45 2.50079H931.882L933.856 5.36754H943.523H943.684L943.793 5.47566L947.679 9.29522Z" stroke="#21232F"/>
<path d="M1001.52 6.34551V6.00551H1001.89H1002.43L999.672 1.94727L996.908 6.00551H997.728H998.099V6.34551V20.8266L1003.79 26.1246H1021.47L1018.07 23.0002H1005.72H1005.56L1005.45 22.8973L1001.63 19.2916L1001.52 19.1926V19.0545V6.34551Z" stroke="#21232F"/>
<path d="M1018.87 9.29522L1018.97 9.39321V9.52717V22.0095L1022.37 25.1302V7.75815L1016.64 2.50079H1003.07L1005.04 5.36754H1014.71H1014.87L1014.98 5.47566L1018.87 9.29522Z" stroke="#21232F"/>
<path d="M1072.55 6.34551V6.00551H1072.92H1073.45L1070.7 1.94727L1067.93 6.00551H1068.75H1069.12V6.34551V20.8266L1074.82 26.1246H1092.5L1089.09 23.0002H1076.74H1076.59L1076.48 22.8973L1072.65 19.2916L1072.55 19.1926V19.0545V6.34551Z" stroke="#21232F"/>
<path d="M1089.89 9.29522L1089.99 9.39321V9.52717V22.0095L1093.39 25.1302V7.75815L1087.66 2.50079H1074.1L1076.07 5.36754H1085.74H1085.9L1086.01 5.47566L1089.89 9.29522Z" stroke="#21232F"/>
<path d="M966.918 40.297V39.957H967.289H967.825L965.069 35.8988L962.305 39.957H963.126H963.497V40.297V54.7782L969.188 60.0761H986.868L983.465 56.9517H971.114H970.958L970.849 56.8488L967.023 53.2431L966.918 53.1441V53.006V40.297Z" stroke="#21232F"/>
<path d="M984.264 43.2467L984.364 43.3447V43.4787V55.961L987.764 59.0818V41.7097L982.035 36.4523H968.468L970.44 39.3191H980.108H980.269L980.379 39.4272L984.264 43.2467Z" stroke="#21232F"/>
<path d="M1037.94 40.297V39.957H1038.31H1038.85L1036.1 35.8988L1033.33 39.957H1034.15H1034.52V40.297V54.7782L1040.21 60.0761H1057.89L1054.49 56.9517H1042.14H1041.98L1041.88 56.8488L1038.05 53.2431L1037.94 53.1441V53.006V40.297Z" stroke="#21232F"/>
<path d="M1055.29 43.2467L1055.39 43.3447V43.4787V55.961L1058.79 59.0818V41.7097L1053.06 36.4523H1039.49L1041.47 39.3191H1051.13H1051.3L1051.4 39.4272L1055.29 43.2467Z" stroke="#21232F"/>
<path d="M860.812 47.9154L862.936 49.7414L860.812 51.5674" stroke="#21232F"/>
<path opacity="0.6" d="M867.183 47.9154L869.306 49.7414L867.183 51.5674" stroke="#21232F"/>
<path opacity="0.3" d="M873.554 47.9154L875.677 49.7414L873.554 51.5674" stroke="#21232F"/>
<path d="M895.321 13.9645L897.444 15.7906L895.321 17.6166" stroke="#21232F"/>
<path opacity="0.6" d="M901.691 13.9645L903.815 15.7906L901.691 17.6166" stroke="#21232F"/>
<path opacity="0.3" d="M908.062 13.9645L910.186 15.7906L908.062 17.6166" stroke="#21232F"/>
<path opacity="0.3" d="M836.968 13.9645L839.092 15.7906L836.968 17.6166" stroke="#21232F"/>
<path d="M931.906 47.9154L934.03 49.7414L931.906 51.5674" stroke="#21232F"/>
<path opacity="0.6" d="M938.277 47.9154L940.401 49.7414L938.277 51.5674" stroke="#21232F"/>
<path opacity="0.3" d="M944.648 47.9154L946.771 49.7414L944.648 51.5674" stroke="#21232F"/>
<path d="M966.415 13.9645L968.539 15.7906L966.415 17.6166" stroke="#21232F"/>
<path opacity="0.6" d="M972.785 13.9645L974.909 15.7906L972.785 17.6166" stroke="#21232F"/>
<path opacity="0.3" d="M979.156 13.9645L981.28 15.7906L979.156 17.6166" stroke="#21232F"/>
<path d="M1037.44 13.9645L1039.56 15.7906L1037.44 17.6166" stroke="#21232F"/>
<path opacity="0.6" d="M1043.81 13.9645L1045.94 15.7906L1043.81 17.6166" stroke="#21232F"/>
<path opacity="0.3" d="M1050.18 13.9645L1052.31 15.7906L1050.18 17.6166" stroke="#21232F"/>
<path d="M1003 47.9154L1005.12 49.7414L1003 51.5674" stroke="#21232F"/>
<path opacity="0.6" d="M1009.37 47.9154L1011.5 49.7414L1009.37 51.5674" stroke="#21232F"/>
<path opacity="0.3" d="M1015.74 47.9154L1017.87 49.7414L1015.74 51.5674" stroke="#21232F"/>
<path d="M1074.03 47.9154L1076.15 49.7414L1074.03 51.5674" stroke="#21232F"/>
<path opacity="0.6" d="M1080.4 47.9154L1082.52 49.7414L1080.4 51.5674" stroke="#21232F"/>
<path opacity="0.3" d="M1086.77 47.9154L1088.89 49.7414L1086.77 51.5674" stroke="#21232F"/>
<g clip-path="url(#clip0)">
<path d="M595.968 6.34551V6.00551H596.305H596.792L594.291 1.94727L591.784 6.00551H592.529H592.865V6.34551V20.8266L598.027 26.1246H614.063L610.977 23.0002H599.775H599.633L599.534 22.8973L596.063 19.2916L595.968 19.1926V19.0545V6.34551Z" stroke="#292B39"/>
<path d="M611.702 9.29522L611.792 9.39321V9.52717V22.0095L614.877 25.1302V7.75815L609.681 2.50079H597.374L599.164 5.36754H607.932H608.078L608.178 5.47566L611.702 9.29522Z" stroke="#292B39"/>
<path d="M660.538 6.34551V6.00551H660.874H661.361L658.861 1.94727L656.354 6.00551H657.098H657.434V6.34551V20.8266L662.597 26.1246H678.633L675.546 23.0002H664.345H664.203L664.104 22.8973L660.633 19.2916L660.538 19.1926V19.0545V6.34551Z" stroke="#292B39"/>
<path d="M676.272 9.29522L676.362 9.39321V9.52717V22.0095L679.446 25.1302V7.75815L674.25 2.50079H661.943L663.733 5.36754H672.502H672.648L672.748 5.47566L676.272 9.29522Z" stroke="#292B39"/>
<path d="M724.96 6.34551V6.00551H725.297H725.784L723.283 1.94727L720.777 6.00551H721.521H721.857V6.34551V20.8266L727.02 26.1246H743.055L739.969 23.0002H728.767H728.625L728.526 22.8973L725.056 19.2916L724.96 19.1926V19.0545V6.34551Z" stroke="#292B39"/>
<path d="M740.694 9.29522L740.784 9.39321V9.52717V22.0095L743.869 25.1302V7.75815L738.673 2.50079H726.366L728.156 5.36754H736.924H737.07L737.17 5.47566L740.694 9.29522Z" stroke="#292B39"/>
<path d="M629.153 40.297V39.957H629.489H629.975L627.475 35.8988L624.969 39.957H625.713H626.049V40.297V54.7782L631.211 60.0761H647.247L644.161 56.9517H632.959H632.817L632.718 56.8488L629.247 53.2431L629.153 53.1441V53.006V40.297Z" stroke="#292B39"/>
<path d="M644.886 43.2467L644.976 43.3447V43.4787V55.961L648.061 59.0818V41.7097L642.864 36.4523H630.558L632.348 39.3191H641.116H641.262L641.362 39.4272L644.886 43.2467Z" stroke="#292B39"/>
<path d="M693.575 40.297V39.957H693.911H694.398L691.898 35.8988L689.391 39.957H690.135H690.471V40.297V54.7782L695.634 60.0761H711.67L708.583 56.9517H697.382H697.24L697.141 56.8488L693.67 53.2431L693.575 53.1441V53.006V40.297Z" stroke="#292B39"/>
<path d="M709.308 43.2467L709.399 43.3447V43.4787V55.961L712.483 59.0818V41.7097L707.287 36.4523H694.98L696.77 39.3191H705.539H705.685L705.785 39.4272L709.308 43.2467Z" stroke="#292B39"/>
<path d="M628.696 13.9645L630.623 15.7906L628.696 17.6166" stroke="#292B39"/>
<path opacity="0.6" d="M634.475 13.9645L636.401 15.7906L634.475 17.6166" stroke="#292B39"/>
<path opacity="0.3" d="M640.253 13.9645L642.18 15.7906L640.253 17.6166" stroke="#292B39"/>
<path d="M693.119 13.9645L695.045 15.7906L693.119 17.6166" stroke="#292B39"/>
<path opacity="0.6" d="M698.897 13.9645L700.824 15.7906L698.897 17.6166" stroke="#292B39"/>
<path opacity="0.3" d="M704.676 13.9645L706.602 15.7906L704.676 17.6166" stroke="#292B39"/>
<path d="M661.88 47.9154L663.807 49.7414L661.88 51.5674" stroke="#292B39"/>
<path opacity="0.6" d="M667.659 47.9154L669.585 49.7414L667.659 51.5674" stroke="#292B39"/>
<path opacity="0.3" d="M673.437 47.9154L675.364 49.7414L673.437 51.5674" stroke="#292B39"/>
<path d="M726.303 47.9154L728.229 49.7414L726.303 51.5674" stroke="#292B39"/>
<path opacity="0.6" d="M732.081 47.9154L734.007 49.7414L732.081 51.5674" stroke="#292B39"/>
<path opacity="0.3" d="M737.86 47.9154L739.786 49.7414L737.86 51.5674" stroke="#292B39"/>
</g>
<path d="M824.874 40.297V39.957H825.245H825.781L823.025 35.8988L820.261 39.957H821.082H821.452V40.297V54.7782L827.144 60.0761H844.824L841.42 56.9517H829.071H828.914L828.805 56.8488L824.979 53.2431L824.874 53.1441V53.006V40.297Z" stroke="#292B39"/>
<path d="M842.22 43.2467L842.32 43.3447V43.4787V55.961L845.72 59.0818V41.7097L839.992 36.4523H826.423L828.397 39.3191H838.064H838.225L838.335 39.4272L842.22 43.2467Z" stroke="#292B39"/>
<path d="M859.383 6.34551V6.00551H859.753H860.29L857.534 1.94727L854.77 6.00551H855.59H855.961V6.34551V20.8266L861.653 26.1246H879.332L875.929 23.0002H863.58H863.423L863.314 22.8973L859.488 19.2916L859.383 19.1926V19.0545V6.34551Z" stroke="#292B39"/>
<path d="M876.729 9.29522L876.829 9.39321V9.52717V22.0095L880.229 25.1302V7.75815L874.5 2.50079H860.932L862.906 5.36754H872.573H872.734L872.844 5.47566L876.729 9.29522Z" stroke="#292B39"/>
<path d="M895.968 40.297V39.957H896.339H896.876L894.119 35.8988L891.356 39.957H892.176H892.547V40.297V54.7782L898.238 60.0761H915.918L912.515 56.9517H900.165H900.008L899.899 56.8488L896.073 53.2431L895.968 53.1441V53.006V40.297Z" stroke="#292B39"/>
<path d="M913.315 43.2467L913.414 43.3447V43.4787V55.961L916.815 59.0818V41.7097L911.086 36.4523H897.518L899.491 39.3191H909.158H909.319L909.429 39.4272L913.315 43.2467Z" stroke="#292B39"/>
<path d="M930.477 6.34551V6.00551H930.848H931.385L928.628 1.94727L925.864 6.00551H926.685H927.056V6.34551V20.8266L932.747 26.1246H950.427L947.024 23.0002H934.674H934.517L934.408 22.8973L930.582 19.2916L930.477 19.1926V19.0545V6.34551Z" stroke="#292B39"/>
<path d="M947.823 9.29522L947.923 9.39321V9.52717V22.0095L951.324 25.1302V7.75815L945.595 2.50079H932.027L934 5.36754H943.667H943.828L943.938 5.47566L947.823 9.29522Z" stroke="#292B39"/>
<path d="M1001.66 6.34551V6.00551H1002.04H1002.57L999.817 1.94727L997.053 6.00551H997.873H998.243V6.34551V20.8266L1003.94 26.1246H1021.61L1018.21 23.0002H1005.86H1005.71L1005.6 22.8973L1001.77 19.2916L1001.66 19.1926V19.0545V6.34551Z" stroke="#292B39"/>
<path d="M1019.01 9.29522L1019.11 9.39321V9.52717V22.0095L1022.51 25.1302V7.75815L1016.78 2.50079H1003.21L1005.19 5.36754H1014.85H1015.02L1015.13 5.47566L1019.01 9.29522Z" stroke="#292B39"/>
<path d="M1072.69 6.34551V6.00551H1073.06H1073.6L1070.84 1.94727L1068.08 6.00551H1068.9H1069.27V6.34551V20.8266L1074.96 26.1246H1092.64L1089.24 23.0002H1076.89H1076.73L1076.62 22.8973L1072.8 19.2916L1072.69 19.1926V19.0545V6.34551Z" stroke="#292B39"/>
<path d="M1090.04 9.29522L1090.14 9.39321V9.52717V22.0095L1093.54 25.1302V7.75815L1087.81 2.50079H1074.24L1076.21 5.36754H1085.88H1086.04L1086.15 5.47566L1090.04 9.29522Z" stroke="#292B39"/>
<path d="M967.063 40.297V39.957H967.433H967.969L965.214 35.8988L962.45 39.957H963.27H963.641V40.297V54.7782L969.332 60.0761H987.012L983.609 56.9517H971.259H971.103L970.994 56.8488L967.167 53.2431L967.063 53.1441V53.006V40.297Z" stroke="#292B39"/>
<path d="M984.409 43.2467L984.508 43.3447V43.4787V55.961L987.909 59.0818V41.7097L982.18 36.4523H968.612L970.585 39.3191H980.253H980.414L980.523 39.4272L984.409 43.2467Z" stroke="#292B39"/>
<path d="M1038.09 40.297V39.957H1038.46H1039L1036.24 35.8988L1033.48 39.957H1034.3H1034.67V40.297V54.7782L1040.36 60.0761H1058.04L1054.63 56.9517H1042.29H1042.13L1042.02 56.8488L1038.19 53.2431L1038.09 53.1441V53.006V40.297Z" stroke="#292B39"/>
<path d="M1055.43 43.2467L1055.53 43.3447V43.4787V55.961L1058.93 59.0818V41.7097L1053.21 36.4523H1039.64L1041.61 39.3191H1051.28H1051.44L1051.55 39.4272L1055.43 43.2467Z" stroke="#292B39"/>
<path d="M860.957 47.9154L863.08 49.7414L860.957 51.5674" stroke="#292B39"/>
<path opacity="0.6" d="M867.327 47.9154L869.451 49.7414L867.327 51.5674" stroke="#292B39"/>
<path opacity="0.3" d="M873.698 47.9154L875.822 49.7414L873.698 51.5674" stroke="#292B39"/>
<path d="M895.465 13.9645L897.589 15.7906L895.465 17.6166" stroke="#292B39"/>
<path opacity="0.6" d="M901.836 13.9645L903.96 15.7906L901.836 17.6166" stroke="#292B39"/>
<path opacity="0.3" d="M908.207 13.9645L910.331 15.7906L908.207 17.6166" stroke="#292B39"/>
<path opacity="0.3" d="M837.113 13.9645L839.236 15.7906L837.113 17.6166" stroke="#292B39"/>
<path d="M932.05 47.9154L934.174 49.7414L932.05 51.5674" stroke="#292B39"/>
<path opacity="0.6" d="M938.422 47.9154L940.545 49.7414L938.422 51.5674" stroke="#292B39"/>
<path opacity="0.3" d="M944.793 47.9154L946.916 49.7414L944.793 51.5674" stroke="#292B39"/>
<path d="M966.559 13.9645L968.683 15.7906L966.559 17.6166" stroke="#292B39"/>
<path opacity="0.6" d="M972.93 13.9645L975.054 15.7906L972.93 17.6166" stroke="#292B39"/>
<path opacity="0.3" d="M979.301 13.9645L981.425 15.7906L979.301 17.6166" stroke="#292B39"/>
<path d="M1037.59 13.9645L1039.71 15.7906L1037.59 17.6166" stroke="#292B39"/>
<path opacity="0.6" d="M1043.96 13.9645L1046.08 15.7906L1043.96 17.6166" stroke="#292B39"/>
<path opacity="0.3" d="M1050.33 13.9645L1052.45 15.7906L1050.33 17.6166" stroke="#292B39"/>
<path d="M1003.14 47.9154L1005.27 49.7414L1003.14 51.5674" stroke="#292B39"/>
<path opacity="0.6" d="M1009.52 47.9154L1011.64 49.7414L1009.52 51.5674" stroke="#292B39"/>
<path opacity="0.3" d="M1015.89 47.9154L1018.01 49.7414L1015.89 51.5674" stroke="#292B39"/>
<path d="M1074.17 47.9154L1076.29 49.7414L1074.17 51.5674" stroke="#292B39"/>
<path opacity="0.6" d="M1080.54 47.9154L1082.66 49.7414L1080.54 51.5674" stroke="#292B39"/>
<path opacity="0.3" d="M1086.91 47.9154L1089.04 49.7414L1086.91 51.5674" stroke="#292B39"/>
<path d="M1097.19 40.297V39.957H1097.56H1098.1L1095.34 35.8988L1092.58 39.957H1093.4H1093.77V40.297V54.7782L1099.46 60.0761H1117.14L1113.74 56.9517H1101.39H1101.23L1101.12 56.8488L1097.3 53.2431L1097.19 53.1441V53.006V40.297Z" stroke="#292B39"/>
<path d="M1114.54 43.2467L1114.64 43.3447V43.4787V55.961L1118.04 59.0818V41.7097L1112.31 36.4523H1098.74L1100.71 39.3191H1110.38H1110.54L1110.65 39.4272L1114.54 43.2467Z" stroke="#292B39"/>
<path d="M1131.7 6.34551V6.00551H1132.07H1132.61L1129.85 1.94727L1127.09 6.00551H1127.91H1128.28V6.34551V20.8266L1133.97 26.1246H1151.65L1148.25 23.0002H1135.9H1135.74L1135.63 22.8973L1131.81 19.2916L1131.7 19.1926V19.0545V6.34551Z" stroke="#292B39"/>
<path d="M1149.05 9.29522L1149.15 9.39321V9.52717V22.0095L1152.55 25.1302V7.75815L1146.82 2.50079H1133.25L1135.22 5.36754H1144.89H1145.05L1145.16 5.47566L1149.05 9.29522Z" stroke="#292B39"/>
<path d="M1168.29 40.297V39.957H1168.66H1169.19L1166.44 35.8988L1163.67 39.957H1164.49H1164.86V40.297V54.7782L1170.56 60.0761H1188.24L1184.83 56.9517H1172.48H1172.33L1172.22 56.8488L1168.39 53.2431L1168.29 53.1441V53.006V40.297Z" stroke="#292B39"/>
<path d="M1185.63 43.2467L1185.73 43.3447V43.4787V55.961L1189.13 59.0818V41.7097L1183.4 36.4523H1169.84L1171.81 39.3191H1181.48H1181.64L1181.75 39.4272L1185.63 43.2467Z" stroke="#292B39"/>
<path d="M1202.8 6.34551V6.00551H1203.17H1203.7L1200.95 1.94727L1198.18 6.00551H1199H1199.37V6.34551V20.8266L1205.06 26.1246H1222.74L1219.34 23.0002H1206.99H1206.83L1206.73 22.8973L1202.9 19.2916L1202.8 19.1926V19.0545V6.34551Z" stroke="#292B39"/>
<path d="M1220.14 9.29522L1220.24 9.39321V9.52717V22.0095L1223.64 25.1302V7.75815L1217.91 2.50079H1204.34L1206.32 5.36754H1215.99H1216.15L1216.26 5.47566L1220.14 9.29522Z" stroke="#292B39"/>
<path d="M1273.98 6.34551V6.00551H1274.35H1274.89L1272.13 1.94727L1269.37 6.00551H1270.19H1270.56V6.34551V20.8266L1276.25 26.1246H1293.93L1290.53 23.0002H1278.18H1278.02L1277.91 22.8973L1274.09 19.2916L1273.98 19.1926V19.0545V6.34551Z" stroke="#292B39"/>
<path d="M1291.33 9.29522L1291.43 9.39321V9.52717V22.0095L1294.83 25.1302V7.75815L1289.1 2.50079H1275.53L1277.51 5.36754H1287.17H1287.33L1287.44 5.47566L1291.33 9.29522Z" stroke="#292B39"/>
<path d="M1345.01 6.34551V6.00551H1345.38H1345.92L1343.16 1.94727L1340.4 6.00551H1341.22H1341.59V6.34551V20.8266L1347.28 26.1246H1364.96L1361.56 23.0002H1349.21H1349.05L1348.94 22.8973L1345.11 19.2916L1345.01 19.1926V19.0545V6.34551Z" stroke="#292B39"/>
<path d="M1362.36 9.29522L1362.45 9.39321V9.52717V22.0095L1365.86 25.1302V7.75815L1360.13 2.50079H1346.56L1348.53 5.36754H1358.2H1358.36L1358.47 5.47566L1362.36 9.29522Z" stroke="#292B39"/>
<path d="M1239.38 40.297V39.957H1239.75H1240.29L1237.53 35.8988L1234.77 39.957H1235.59H1235.96V40.297V54.7782L1241.65 60.0761H1259.33L1255.93 56.9517H1243.58H1243.42L1243.31 56.8488L1239.49 53.2431L1239.38 53.1441V53.006V40.297Z" stroke="#292B39"/>
<path d="M1256.73 43.2467L1256.83 43.3447V43.4787V55.961L1260.23 59.0818V41.7097L1254.5 36.4523H1240.93L1242.9 39.3191H1252.57H1252.73L1252.84 39.4272L1256.73 43.2467Z" stroke="#292B39"/>
<path d="M1310.41 40.297V39.957H1310.78H1311.31L1308.56 35.8988L1305.79 39.957H1306.61H1306.98V40.297V54.7782L1312.68 60.0761H1330.36L1326.95 56.9517H1314.6H1314.45L1314.34 56.8488L1310.51 53.2431L1310.41 53.1441V53.006V40.297Z" stroke="#292B39"/>
<path d="M1327.75 43.2467L1327.85 43.3447V43.4787V55.961L1331.25 59.0818V41.7097L1325.52 36.4523H1311.96L1313.93 39.3191H1323.6H1323.76L1323.87 39.4272L1327.75 43.2467Z" stroke="#292B39"/>
<path d="M1133.27 47.9154L1135.4 49.7414L1133.27 51.5674" stroke="#292B39"/>
<path opacity="0.6" d="M1139.65 47.9154L1141.77 49.7414L1139.65 51.5674" stroke="#292B39"/>
<path opacity="0.3" d="M1146.02 47.9154L1148.14 49.7414L1146.02 51.5674" stroke="#292B39"/>
<path d="M1167.78 13.9645L1169.91 15.7906L1167.78 17.6166" stroke="#292B39"/>
<path opacity="0.6" d="M1174.15 13.9645L1176.28 15.7906L1174.15 17.6166" stroke="#292B39"/>
<path opacity="0.3" d="M1180.52 13.9645L1182.65 15.7906L1180.52 17.6166" stroke="#292B39"/>
<path opacity="0.3" d="M1109.43 13.9645L1111.55 15.7906L1109.43 17.6166" stroke="#292B39"/>
<path d="M1204.37 47.9154L1206.49 49.7414L1204.37 51.5674" stroke="#292B39"/>
<path opacity="0.6" d="M1210.74 47.9154L1212.86 49.7414L1210.74 51.5674" stroke="#292B39"/>
<path opacity="0.3" d="M1217.11 47.9154L1219.23 49.7414L1217.11 51.5674" stroke="#292B39"/>
<path d="M1238.88 13.9645L1241 15.7906L1238.88 17.6166" stroke="#292B39"/>
<path opacity="0.6" d="M1245.25 13.9645L1247.37 15.7906L1245.25 17.6166" stroke="#292B39"/>
<path opacity="0.3" d="M1251.62 13.9645L1253.74 15.7906L1251.62 17.6166" stroke="#292B39"/>
<path d="M1309.9 13.9645L1312.03 15.7906L1309.9 17.6166" stroke="#292B39"/>
<path opacity="0.6" d="M1316.27 13.9645L1318.4 15.7906L1316.27 17.6166" stroke="#292B39"/>
<path opacity="0.3" d="M1322.64 13.9645L1324.77 15.7906L1322.64 17.6166" stroke="#292B39"/>
<path d="M1275.46 47.9154L1277.59 49.7414L1275.46 51.5674" stroke="#292B39"/>
<path opacity="0.6" d="M1281.83 47.9154L1283.96 49.7414L1281.83 51.5674" stroke="#292B39"/>
<path opacity="0.3" d="M1288.2 47.9154L1290.33 49.7414L1288.2 51.5674" stroke="#292B39"/>
<path d="M1346.49 47.9154L1348.61 49.7414L1346.49 51.5674" stroke="#292B39"/>
<path opacity="0.6" d="M1352.86 47.9154L1354.98 49.7414L1352.86 51.5674" stroke="#292B39"/>
<path opacity="0.3" d="M1359.23 47.9154L1361.35 49.7414L1359.23 51.5674" stroke="#292B39"/>
<defs>
<clipPath id="clip0">
<rect width="129" height="88" fill="white" transform="translate(615 -28)"/>
</clipPath>
</defs>
</svg>
