<svg width="14" height="14" viewBox="0 0 14 14" fill="none" xmlns="http://www.w3.org/2000/svg">
<path d="M6.99984 10.4999C7.322 10.4999 7.58317 10.2388 7.58317 9.91658C7.58317 9.59442 7.322 9.33325 6.99984 9.33325C6.67767 9.33325 6.4165 9.59442 6.4165 9.91658C6.4165 10.2388 6.67767 10.4999 6.99984 10.4999Z" fill="#A6A7AC"/>
<path fill-rule="evenodd" clip-rule="evenodd" d="M7.20753 4.99317C6.92427 5.0056 6.77323 5.11956 6.72094 5.23066C6.58375 5.52215 6.23623 5.64724 5.94474 5.51005C5.65324 5.37286 5.52815 5.02534 5.66534 4.73384C5.96995 4.08663 6.62616 3.85089 7.15637 3.82762C7.6664 3.80524 8.3011 3.96769 8.65224 4.42558C8.92245 4.77795 9.07426 5.22461 9.01296 5.69425C8.9508 6.17046 8.67917 6.59762 8.23843 6.92186C7.64989 7.35483 7.65093 7.57574 7.65108 7.60791C7.65109 7.60838 7.65109 7.60881 7.65109 7.6092C7.65109 7.93136 7.38992 8.19253 7.06775 8.19253C6.74559 8.19253 6.48442 7.93136 6.48442 7.6092C6.48442 7.05111 6.80903 6.52506 7.54708 5.9821C7.77394 5.81521 7.84145 5.65553 7.85611 5.54324C7.87162 5.42438 7.83793 5.2809 7.72645 5.13553C7.71861 5.12531 7.67601 5.08276 7.56932 5.04442C7.46746 5.00781 7.33938 4.98738 7.20753 4.99317Z" fill="#A6A7AC"/>
<path d="M6.99992 13.4166C3.44159 13.4166 0.583252 10.5583 0.583252 6.99992C0.583252 3.44159 3.44159 0.583252 6.99992 0.583252C10.5583 0.583252 13.4166 3.44159 13.4166 6.99992C13.4166 10.5583 10.5583 13.4166 6.99992 13.4166ZM6.99992 1.74992C4.08325 1.74992 1.74992 4.08325 1.74992 6.99992C1.74992 9.91658 4.08325 12.2499 6.99992 12.2499C9.91658 12.2499 12.2499 9.91658 12.2499 6.99992C12.2499 4.08325 9.91658 1.74992 6.99992 1.74992Z" fill="#A6A7AC"/>
</svg>
