<svg width="14" height="14" viewBox="0 0 14 14" fill="none" xmlns="http://www.w3.org/2000/svg">
<path fill-rule="evenodd" clip-rule="evenodd" d="M1.75 4.08342C2.07217 4.08342 2.33333 4.34458 2.33333 4.66675V11.6667H11.6667V4.66675C11.6667 4.34458 11.9278 4.08342 12.25 4.08342C12.5722 4.08342 12.8333 4.34458 12.8333 4.66675V12.2501C12.8333 12.5722 12.5722 12.8334 12.25 12.8334H1.75C1.42783 12.8334 1.16667 12.5722 1.16667 12.2501V4.66675C1.16667 4.34458 1.42783 4.08342 1.75 4.08342Z" fill="#A6A7AC"/>
<path fill-rule="evenodd" clip-rule="evenodd" d="M0 1.75008C0 1.42792 0.261167 1.16675 0.583333 1.16675H13.4167C13.7388 1.16675 14 1.42792 14 1.75008V4.66675C14 4.98891 13.7388 5.25008 13.4167 5.25008H0.583333C0.261167 5.25008 0 4.98891 0 4.66675V1.75008ZM1.16667 2.33341V4.08342H12.8333V2.33341H1.16667Z" fill="#A6A7AC"/>
<path fill-rule="evenodd" clip-rule="evenodd" d="M5.25 7.00008C5.25 6.67792 5.51117 6.41675 5.83333 6.41675H8.16667C8.48883 6.41675 8.75 6.67792 8.75 7.00008C8.75 7.32225 8.48883 7.58342 8.16667 7.58342H5.83333C5.51117 7.58342 5.25 7.32225 5.25 7.00008Z" fill="#A6A7AC"/>
</svg>
