<svg width="14" height="14" viewBox="0 0 14 14" fill="none" xmlns="http://www.w3.org/2000/svg">
<path d="M5.04857 4.71439L2.72 7.65725C2.48 7.55153 2.21714 7.49153 1.94 7.49153C0.871429 7.49153 0 8.36296 0 9.43153C0 10.5001 0.871429 11.3715 1.94 11.3715C3.00857 11.3715 3.88 10.5001 3.88 9.43153C3.88 8.99439 3.73429 8.58868 3.48857 8.26296L5.81714 5.32011C6.03143 5.43153 6.26571 5.51439 6.50857 5.56011V9.71725C5.67429 9.93439 5.05714 10.6944 5.05714 11.5944C5.05714 12.6658 5.92857 13.5344 6.99714 13.5344C8.06571 13.5344 8.93714 12.663 8.93714 11.5944C8.93714 10.6944 8.32 9.93439 7.48571 9.71725V5.56296C7.72286 5.51725 7.94571 5.44011 8.15429 5.33439L10.4857 8.29153C10.2514 8.61153 10.1114 9.00582 10.1114 9.43439C10.1114 10.503 10.9829 11.3744 12.0514 11.3744C13.12 11.3744 14 10.503 14 9.43153C14 8.36296 13.1286 7.49153 12.06 7.49153C11.7714 7.49153 11.4971 7.55439 11.2514 7.66868L8.93429 4.73153C9.33143 4.27725 9.57429 3.68582 9.57429 3.03725C9.57429 1.62011 8.42 0.46582 7.00286 0.46582C5.58571 0.46582 4.43143 1.62011 4.43143 3.03725C4.42857 3.67725 4.66286 4.26296 5.04857 4.71439ZM1.94 10.3944C1.41143 10.3944 0.98 9.96296 0.98 9.43439C0.98 8.90582 1.41143 8.47439 1.94 8.47439C2.46857 8.47439 2.9 8.90582 2.9 9.43439C2.9 9.96296 2.47143 10.3944 1.94 10.3944ZM7.96 11.6001C7.96 12.1287 7.52857 12.5601 7 12.5601C6.47143 12.5601 6.04 12.1287 6.04 11.6001C6.04 11.0772 6.46 10.6515 6.98286 10.6401C6.98857 10.6401 6.99429 10.6401 7.00286 10.6401C7.00857 10.6401 7.01429 10.6401 7.02286 10.6401C7.54 10.6487 7.96 11.0772 7.96 11.6001ZM13.02 9.43153C13.02 9.9601 12.5886 10.3915 12.06 10.3915C11.5314 10.3915 11.1 9.9601 11.1 9.43153C11.1 8.90296 11.5314 8.47153 12.06 8.47153C12.5886 8.47153 13.02 8.90296 13.02 9.43153ZM7 1.44582C7.87714 1.44582 8.59143 2.16011 8.59143 3.03725C8.59143 3.91439 7.87714 4.62868 7 4.62868C6.12286 4.62868 5.40857 3.91439 5.40857 3.03725C5.40857 2.16011 6.12286 1.44582 7 1.44582Z" fill="#A6A7AC"/>
</svg>
