<svg width="14" height="14" viewBox="0 0 14 14" fill="none" xmlns="http://www.w3.org/2000/svg">
<g clip-path="url(#clip0)">
<path d="M3.50001 5.5H0.500009C0.223857 5.5 0 5.72386 0 6.00001V13.5C0 13.7762 0.223857 14 0.500009 14H3.50001C3.77616 14 4.00002 13.7762 4.00002 13.5V6.00001C3.99999 5.72386 3.77613 5.5 3.50001 5.5ZM3 13H0.999989V6.50002H3V13Z" fill="#A6A7AC"/>
<path d="M8.50001 0H5.50001C5.22386 0 5 0.223857 5 0.500009V13.5C5 13.7761 5.22386 14 5.50001 14H8.50001C8.77617 14 9.00002 13.7761 9.00002 13.5V0.500009C9.00002 0.223857 8.77617 0 8.50001 0ZM8.00003 13H6.00002V0.99999H8.00003V13Z" fill="#A6A7AC"/>
<path d="M13.5 4H10.5C10.2239 4 10 4.22386 10 4.50001V13.5C10 13.7762 10.2239 14 10.5 14H13.5C13.7762 14 14 13.7762 14 13.5V4.50001C14 4.22386 13.7762 4 13.5 4ZM13 13H11V5.00002H13V13Z" fill="#A6A7AC"/>
</g>
<defs>
<clipPath id="clip0">
<rect width="14" height="14" fill="white"/>
</clipPath>
</defs>
</svg>
