<svg width="71" height="34" viewBox="0 0 71 34" fill="none" xmlns="http://www.w3.org/2000/svg">
<path d="M30.7116 17.0661L25.8551 14.5238L20.9986 17.0661L21.9261 11.6815L17.9971 7.86804L23.4268 7.08242L25.8551 2.18335L28.2833 7.08242L33.7131 7.86804L29.7841 11.6815L30.7116 17.0661ZM22.2965 9.259L24.0758 10.986L23.6557 13.4244L25.8551 12.2731L28.0545 13.4244L27.6345 10.986L29.4137 9.259L26.9548 8.90321L25.8552 6.6846L24.7555 8.90321L22.2965 9.259Z" fill="#131521"/>
<path d="M49.1422 17.0661L44.2858 14.5238L39.4292 17.0661L40.3568 11.6815L36.4277 7.86804L41.8575 7.08242L44.2858 2.18335L46.714 7.08242L52.1437 7.86804L48.2147 11.6815L49.1422 17.0661ZM40.7271 9.259L42.5064 10.986L42.0864 13.4244L44.2858 12.2731L46.4851 13.4244L46.0651 10.986L47.8444 9.259L45.3855 8.90321L44.2858 6.6846L43.1861 8.90321L40.7271 9.259Z" fill="#131521"/>
<path d="M39.7848 32.8827L34.9284 30.3405L30.0718 32.8827L30.9993 27.4981L27.0703 23.6847L32.5 22.8991L34.9284 18L37.3566 22.8991L42.7863 23.6847L38.8573 27.4981L39.7848 32.8827ZM31.3697 25.0757L33.149 26.8026L32.729 29.2411L34.9284 28.0898L37.1277 29.2411L36.7077 26.8026L38.487 25.0757L36.0281 24.7199L34.9284 22.5012L33.8287 24.7199L31.3697 25.0757Z" fill="#131521"/>
</svg>
