<svg width="20" height="20" viewBox="0 0 20 20" fill="none" xmlns="http://www.w3.org/2000/svg">
<path fill-rule="evenodd" clip-rule="evenodd" d="M2.5 5.83332C2.96024 5.83332 3.33333 6.20642 3.33333 6.66666V16.6667H16.6667V6.66666C16.6667 6.20642 17.0398 5.83332 17.5 5.83332C17.9602 5.83332 18.3333 6.20642 18.3333 6.66666V17.5C18.3333 17.9602 17.9602 18.3333 17.5 18.3333H2.5C2.03976 18.3333 1.66667 17.9602 1.66667 17.5V6.66666C1.66667 6.20642 2.03976 5.83332 2.5 5.83332Z" fill="#A6A7AC"/>
<path fill-rule="evenodd" clip-rule="evenodd" d="M0 2.49999C0 2.03975 0.373096 1.66666 0.833333 1.66666H19.1667C19.6269 1.66666 20 2.03975 20 2.49999V6.66666C20 7.12689 19.6269 7.49999 19.1667 7.49999H0.833333C0.373096 7.49999 0 7.12689 0 6.66666V2.49999ZM1.66667 3.33332V5.83332H18.3333V3.33332H1.66667Z" fill="#A6A7AC"/>
<path fill-rule="evenodd" clip-rule="evenodd" d="M7.5 9.99999C7.5 9.53975 7.8731 9.16666 8.33333 9.16666H11.6667C12.1269 9.16666 12.5 9.53975 12.5 9.99999C12.5 10.4602 12.1269 10.8333 11.6667 10.8333H8.33333C7.8731 10.8333 7.5 10.4602 7.5 9.99999Z" fill="#A6A7AC"/>
</svg>
