<svg width="20" height="20" viewBox="0 0 20 20" fill="none" xmlns="http://www.w3.org/2000/svg">
<path d="M18.4445 4.42838H14.9776V2.13299C14.9776 1.76482 14.6791 1.46631 14.3109 1.46631H5.68906C5.3209 1.46631 5.02238 1.76479 5.02238 2.13299V4.42838H1.55555C0.697812 4.42838 0 5.12619 0 5.98393V16.9781C0 17.8358 0.697812 18.5336 1.55555 18.5336H18.4445C19.3022 18.5336 20 17.8358 20 16.9781V5.98393C20 5.12619 19.3022 4.42838 18.4445 4.42838ZM6.35574 2.79967H13.6442V4.42838H6.35574V2.79967ZM18.6667 16.9781C18.6667 17.1006 18.567 17.2003 18.4445 17.2003H1.55555C1.43301 17.2003 1.33332 17.1006 1.33332 16.9781V5.98393C1.33332 5.86139 1.43301 5.7617 1.55555 5.7617C1.9934 5.7617 17.989 5.7617 18.4445 5.7617C18.567 5.7617 18.6667 5.86139 18.6667 5.98393V16.9781Z" fill="#A6A7AC"/>
<path d="M15.8567 7.82227H4.14324C3.77508 7.82227 3.47656 8.12074 3.47656 8.48895C3.47656 8.85715 3.77504 9.15563 4.14324 9.15563H15.8567C16.2248 9.15563 16.5234 8.85715 16.5234 8.48895C16.5234 8.12074 16.2248 7.82227 15.8567 7.82227Z" fill="#A6A7AC"/>
<path d="M15.8567 10.8144H4.14324C3.77508 10.8144 3.47656 11.1129 3.47656 11.4811C3.47656 11.8493 3.77504 12.1478 4.14324 12.1478H15.8567C16.2248 12.1478 16.5234 11.8493 16.5234 11.4811C16.5234 11.1129 16.2248 10.8144 15.8567 10.8144Z" fill="#A6A7AC"/>
<path d="M15.8567 13.8065H4.14324C3.77508 13.8065 3.47656 14.1049 3.47656 14.4731C3.47656 14.8413 3.77504 15.1398 4.14324 15.1398H15.8567C16.2248 15.1398 16.5234 14.8413 16.5234 14.4731C16.5234 14.1049 16.2248 13.8065 15.8567 13.8065Z" fill="#A6A7AC"/>
</svg>
