<svg width="20" height="20" viewBox="0 0 20 20" fill="none" xmlns="http://www.w3.org/2000/svg">
<path d="M17.8516 0.351562C16.8029 0.351562 15.9279 1.10691 15.7407 2.10199C11.8221 3.76738 5.68805 3.78906 5.625 3.78906H2.92969C1.31426 3.78906 0 5.10332 0 6.71875V9.53125C0 11.1467 1.31426 12.4609 2.92969 12.4609H5.15082L6.18617 17.3165C6.46789 18.6677 7.6741 19.6484 9.0543 19.6484C10.0576 19.6484 10.8021 18.7259 10.5982 17.7493L10.1746 15.7158C11.3263 15.3394 12.2301 14.4139 12.5786 13.2531C13.6774 13.4541 14.7475 13.7285 15.7408 14.1488C15.9284 15.1434 16.8032 15.8984 17.8516 15.8984C19.0362 15.8984 20 14.9346 20 13.75V2.5C20 1.31535 19.0362 0.351562 17.8516 0.351562ZM12.2319 12.0061C11.5846 11.8849 8.26559 11.4627 6.21094 11.3234V4.95133C7.80762 4.90816 12.2977 4.67148 15.7031 3.37977V12.8734C14.591 12.4605 13.4071 12.1978 12.2319 12.0061ZM1.17188 9.53125V6.71875C1.17188 5.74949 1.96043 4.96094 2.92969 4.96094H5.03906V11.2891H2.92969C1.96043 11.2891 1.17188 10.5005 1.17188 9.53125ZM9.0543 18.4766C8.22617 18.4766 7.50238 17.8881 7.33285 17.0747L6.35922 12.5086C7.00539 12.5556 7.68203 12.6178 8.3475 12.6914L9.45105 17.9885C9.50363 18.2405 9.31176 18.4766 9.0543 18.4766ZM9.9334 14.558L9.57414 12.8336C10.183 12.9044 10.7964 12.9774 11.4063 13.0644C11.154 13.7486 10.6146 14.2961 9.9334 14.558ZM18.8281 13.75C18.8281 14.2885 18.39 14.7266 17.8516 14.7266C17.3131 14.7266 16.875 14.2885 16.875 13.75V2.5C16.875 1.96152 17.3131 1.52344 17.8516 1.52344C18.39 1.52344 18.8281 1.96152 18.8281 2.5V13.75Z" fill="#A6A7AC"/>
</svg>
