<svg width="20" height="20" viewBox="0 0 20 20" fill="none" xmlns="http://www.w3.org/2000/svg">
<path d="M9.99984 15C10.4601 15 10.8332 14.6269 10.8332 14.1667C10.8332 13.7064 10.4601 13.3333 9.99984 13.3333C9.5396 13.3333 9.1665 13.7064 9.1665 14.1667C9.1665 14.6269 9.5396 15 9.99984 15Z" fill="#A6A7AC"/>
<path fill-rule="evenodd" clip-rule="evenodd" d="M10.2966 7.13343C9.89196 7.15119 9.67618 7.314 9.60148 7.47271C9.4055 7.88913 8.90904 8.06783 8.49262 7.87184C8.0762 7.67585 7.8975 7.1794 8.09349 6.76297C8.52864 5.83839 9.46609 5.50161 10.2235 5.46837C10.9521 5.43639 11.8589 5.66847 12.3605 6.3226C12.7465 6.82598 12.9634 7.46407 12.8758 8.13498C12.787 8.81528 12.399 9.42551 11.7693 9.88871C10.9286 10.5072 10.93 10.8228 10.9303 10.8688C10.9303 10.8695 10.9303 10.8701 10.9303 10.8706C10.9303 11.3309 10.5572 11.704 10.0969 11.704C9.63669 11.704 9.2636 11.3309 9.2636 10.8706C9.2636 10.0734 9.72733 9.32185 10.7817 8.5462C11.1058 8.30778 11.2022 8.07966 11.2231 7.91925C11.2453 7.74946 11.1972 7.54448 11.0379 7.33682C11.0267 7.32221 10.9659 7.26142 10.8135 7.20665C10.6679 7.15436 10.485 7.12517 10.2966 7.13343Z" fill="#A6A7AC"/>
<path d="M9.99992 19.1667C4.91658 19.1667 0.833252 15.0833 0.833252 10C0.833252 4.91668 4.91658 0.833344 9.99992 0.833344C15.0833 0.833344 19.1666 4.91668 19.1666 10C19.1666 15.0833 15.0833 19.1667 9.99992 19.1667ZM9.99992 2.50001C5.83325 2.50001 2.49992 5.83334 2.49992 10C2.49992 14.1667 5.83325 17.5 9.99992 17.5C14.1666 17.5 17.4999 14.1667 17.4999 10C17.4999 5.83334 14.1666 2.50001 9.99992 2.50001Z" fill="#A6A7AC"/>
</svg>
