<svg width="30" height="33" viewBox="0 0 30 33" fill="none" xmlns="http://www.w3.org/2000/svg">
<path fill-rule="evenodd" clip-rule="evenodd" d="M14.8677 21.605V25.2433H17.6342V19.6138L16.8456 19.9692C16.7808 20.1704 16.6878 20.3663 16.5677 20.5536C16.3237 20.942 15.9132 21.2551 15.4039 21.4412C15.2305 21.5063 15.0511 21.5611 14.8677 21.605ZM14.8872 20.852L14.8677 20.8608V20.865C14.8742 20.8607 14.8807 20.8564 14.8872 20.852Z" fill="#47A68A"/>
<path d="M26.0581 0L22.127 6.43969H23.51V22.676L19.1163 27.2825H4.75862L0 32.1429H21.5073L28.2904 25.118V6.43969H30L26.0581 0Z" fill="#47A68A"/>
<path d="M19.7991 6.6153L22.5 2.14282H6.57734L0 9.02356V32.1428L4.58178 27.3497V11.4318L8.87941 6.6153H19.7991Z" fill="#D3D5DA"/>
<path d="M21.4289 12.8571H18.2146V24.6428L21.4289 21.3014V12.8571Z" fill="#47A68A"/>
<path fill-rule="evenodd" clip-rule="evenodd" d="M11.641 19.1539H11.4976C11.5462 19.1612 11.5941 19.1718 11.641 19.1855V19.1539ZM13.0276 21.7379C12.1418 21.7379 11.4953 21.545 11.0881 21.1593C10.9394 21.0306 10.8153 20.8831 10.7188 20.7226V25.1856H13.4853V21.7139C13.3338 21.7303 13.1809 21.7383 13.0276 21.7379Z" fill="#47A68A"/>
<path d="M13.4163 20.3572C12.6876 20.3572 12.1557 20.1914 11.8206 19.8599C11.5102 19.5793 11.3301 19.1941 11.3196 18.7885C11.3158 18.6653 11.346 18.5432 11.4073 18.4344C11.4645 18.3403 11.5471 18.2623 11.6467 18.2082C11.7624 18.1538 11.89 18.1254 12.0193 18.1254C12.1486 18.1254 12.2761 18.1538 12.3918 18.2082C12.4913 18.2621 12.5735 18.3402 12.6298 18.4344C12.6929 18.5427 12.7243 18.6649 12.7208 18.7885C12.7272 18.9361 12.6824 19.0816 12.5931 19.2028C12.5186 19.3018 12.4122 19.3753 12.2898 19.4124C12.4095 19.5564 12.5789 19.656 12.7685 19.6942C12.9806 19.7523 13.2002 19.7822 13.4212 19.7831C13.7136 19.7854 14 19.7047 14.243 19.551C14.4951 19.3829 14.683 19.1425 14.7791 18.8655C14.9008 18.5358 14.9603 18.1886 14.9546 17.8395C14.9645 17.4755 14.8994 17.1133 14.7631 16.7727C14.6606 16.5003 14.466 16.2674 14.2094 16.1098C13.9709 15.9672 13.694 15.8924 13.4117 15.8943C13.1657 15.9139 12.9285 15.99 12.7208 16.1158L12.2084 16.3584V16.1158L14.5109 13.1992H11.3196V16.2258C11.3106 16.4442 11.3717 16.6601 11.4952 16.845C11.5548 16.9257 11.6355 16.9903 11.7295 17.0328C11.8233 17.0753 11.9274 17.0942 12.0313 17.0876C12.2233 17.0839 12.409 17.0221 12.561 16.9113C12.7333 16.7921 12.8833 16.6464 13.0046 16.4804C13.0155 16.4513 13.0357 16.4261 13.0623 16.4081C13.0837 16.3906 13.111 16.3811 13.1393 16.381C13.1947 16.3858 13.2472 16.4068 13.2893 16.4412C13.3426 16.4975 13.3717 16.5706 13.3706 16.6462C13.3645 16.6968 13.3548 16.7472 13.3419 16.7968C13.2285 17.0559 13.0385 17.2786 12.7945 17.4385C12.568 17.5832 12.3003 17.6599 12.0268 17.6587C11.3358 17.6587 10.8571 17.5301 10.5907 17.2729C10.4538 17.1309 10.3483 16.9644 10.2803 16.7832C10.2124 16.6021 10.1834 16.41 10.195 16.2182V13.1992H8.57178V12.6368H10.2026V11.3546L9.8292 11.0019V10.7143H10.9126L11.3196 10.9132V12.6368L15.5353 12.6247L15.9551 13.0225L13.3701 15.4752C13.5262 15.4158 13.6906 15.3783 13.8583 15.3637C14.19 15.3774 14.5137 15.4647 14.8031 15.6183C15.1382 15.7688 15.4207 16.0067 15.617 16.3042C15.7928 16.5558 15.9173 16.8364 15.984 17.1313C16.0388 17.3639 16.0682 17.6012 16.0718 17.8395C16.0735 18.2943 15.9643 18.7433 15.7526 19.1518C15.5519 19.5474 15.2141 19.8663 14.7952 20.0559C14.3663 20.2554 13.8944 20.3585 13.4163 20.3572Z" fill="#47A68A"/>
</svg>
