<svg width="178" height="37" viewBox="0 0 178 37" fill="none" xmlns="http://www.w3.org/2000/svg">
<g clip-path="url(#clip0)">
<path d="M50.2777 29.1315V28.1513C50.7661 28.5188 51.3039 28.7027 51.8908 28.7027C52.6783 28.7027 53.0719 28.4354 53.0719 27.9007C53.0719 27.7485 53.0373 27.6203 52.968 27.5164C52.9025 27.4087 52.8113 27.314 52.6946 27.2323C52.5816 27.1506 52.4468 27.0783 52.29 27.0151C52.1369 26.9483 51.971 26.8796 51.7924 26.809C51.5445 26.7088 51.3257 26.6085 51.1362 26.5083C50.9502 26.4043 50.7935 26.2892 50.6659 26.163C50.5419 26.0331 50.4472 25.8864 50.3816 25.723C50.3196 25.5596 50.2886 25.3684 50.2886 25.1494C50.2886 24.882 50.3487 24.6462 50.469 24.442C50.5893 24.2341 50.7497 24.0614 50.9502 23.924C51.1507 23.7829 51.3786 23.6772 51.6338 23.6066C51.8926 23.5361 52.1587 23.5007 52.4321 23.5007C52.917 23.5007 53.3508 23.5861 53.7336 23.757V24.6815C53.3216 24.4067 52.8478 24.2693 52.3118 24.2693C52.1442 24.2693 51.9929 24.2897 51.858 24.3306C51.7231 24.3677 51.6064 24.4216 51.508 24.4921C51.4133 24.5627 51.3385 24.648 51.2838 24.7483C51.2328 24.8449 51.2073 24.9525 51.2073 25.0713C51.2073 25.2199 51.2328 25.3443 51.2838 25.4445C51.3385 25.5448 51.4169 25.6339 51.519 25.7119C51.6211 25.7898 51.745 25.8603 51.8908 25.9235C52.0366 25.9866 52.2025 26.0553 52.3884 26.1296C52.6363 26.2261 52.8587 26.3263 53.0556 26.4303C53.2524 26.5306 53.4201 26.6456 53.5586 26.7756C53.6971 26.9019 53.8029 27.0485 53.8758 27.2156C53.9523 27.3827 53.9907 27.5814 53.9907 27.8116C53.9907 28.0938 53.9286 28.3388 53.8047 28.5467C53.6844 28.7547 53.5221 28.9273 53.318 29.0647C53.1138 29.2021 52.8788 29.3042 52.6126 29.371C52.3465 29.4379 52.0676 29.4713 51.7759 29.4713C51.1999 29.4713 50.7005 29.358 50.2777 29.1315Z" fill="#D3D5DA"/>
<path d="M64.8929 29.3376H63.996V26.0627C63.996 25.4316 63.8994 24.9748 63.7063 24.6926C63.5166 24.4104 63.1959 24.2693 62.7438 24.2693C62.361 24.2693 62.0348 24.4475 61.765 24.8041C61.4989 25.1605 61.3658 25.5875 61.3658 26.085V29.3376H60.469V25.9514C60.469 24.83 60.0443 24.2693 59.1949 24.2693C58.8012 24.2693 58.4767 24.4383 58.2215 24.7762C57.9664 25.1103 57.8388 25.5466 57.8388 26.085V29.3376H56.942V23.6344H57.8388V24.5367H57.8606C58.2579 23.846 58.8376 23.5007 59.5995 23.5007C59.9823 23.5007 60.3159 23.6103 60.6003 23.8293C60.8846 24.0447 61.0797 24.3287 61.1853 24.6815C61.6009 23.8943 62.2206 23.5007 63.0446 23.5007C64.2767 23.5007 64.8929 24.2749 64.8929 25.8232V29.3376Z" fill="#D3D5DA"/>
<path d="M72.1641 29.3376H71.2673V28.4465H71.2455C70.8554 29.1297 70.2812 29.4713 69.5229 29.4713C68.9652 29.4713 68.5277 29.3209 68.2106 29.0202C67.897 28.7194 67.7403 28.3202 67.7403 27.8227C67.7403 26.7571 68.3564 26.137 69.5885 25.9625L71.2673 25.723C71.2673 24.7539 70.8827 24.2693 70.1136 24.2693C69.4391 24.2693 68.8303 24.5033 68.2871 24.9711V24.0354C68.8376 23.6789 69.4719 23.5007 70.1901 23.5007C71.5061 23.5007 72.1641 24.2099 72.1641 25.6283V29.3376ZM71.2673 26.4526L69.9166 26.642C69.5011 26.7014 69.1875 26.8072 68.9761 26.9594C68.7647 27.1079 68.6589 27.3734 68.6589 27.7558C68.6589 28.0343 68.7555 28.2627 68.9488 28.4409C69.1456 28.6155 69.4063 28.7027 69.7308 28.7027C70.1755 28.7027 70.5419 28.5449 70.8298 28.2293C71.1215 27.91 71.2673 27.5071 71.2673 27.0207V26.4526Z" fill="#D3D5DA"/>
<path d="M78.3418 24.5589C78.185 24.4363 77.959 24.3751 77.6637 24.3751C77.281 24.3751 76.9601 24.5589 76.7013 24.9265C76.4461 25.2941 76.3185 25.7953 76.3185 26.4303V29.3375H75.4217V23.6343H76.3185V24.8095H76.3404C76.468 24.4086 76.663 24.0966 76.9255 23.8738C77.1879 23.6474 77.4815 23.5341 77.8059 23.5341C78.0392 23.5341 78.2178 23.5601 78.3418 23.6121V24.5589Z" fill="#D3D5DA"/>
<path d="M83.4804 29.282C83.269 29.4008 82.9901 29.4602 82.6438 29.4602C81.6631 29.4602 81.1728 28.9031 81.1728 27.7893V24.4142H80.2103V23.6344H81.1728V22.2421L82.0696 21.9468V23.6344H83.4804V24.4142H82.0696V27.6278C82.0696 28.0102 82.1334 28.2831 82.261 28.4465C82.3886 28.6099 82.6001 28.6916 82.8953 28.6916C83.1213 28.6916 83.3163 28.6284 83.4804 28.5022V29.282Z" fill="#D3D5DA"/>
<path d="M91.3462 22.1863C91.1858 22.1863 91.0491 22.1306 90.9361 22.0192C90.8231 21.9078 90.7666 21.7667 90.7666 21.5959C90.7666 21.4251 90.8231 21.2841 90.9361 21.1726C91.0491 21.0575 91.1858 21 91.3462 21C91.5102 21 91.6488 21.0575 91.7618 21.1726C91.8785 21.2841 91.9367 21.4251 91.9367 21.5959C91.9367 21.7593 91.8785 21.8985 91.7618 22.0137C91.6488 22.1288 91.5102 22.1863 91.3462 22.1863ZM91.7836 29.3376H90.8869V23.6343H91.7836V29.3376Z" fill="#D3D5DA"/>
<path d="M99.8148 29.3376H98.9186V26.085C98.9186 24.8745 98.4841 24.2693 97.6168 24.2693C97.1684 24.2693 96.7966 24.442 96.5012 24.7873C96.2096 25.129 96.0638 25.5615 96.0638 26.085V29.3376H95.167V23.6344H96.0638V24.5813H96.0857C96.5085 23.8609 97.121 23.5007 97.923 23.5007C98.5351 23.5007 99.0035 23.7031 99.3284 24.1078C99.6524 24.5088 99.8148 25.0899 99.8148 25.8511V29.3376Z" fill="#D3D5DA"/>
<path d="M107.48 23.6343L105.249 29.3376H104.369L102.247 23.6343H103.231L104.653 27.7781C104.759 28.0826 104.824 28.3481 104.85 28.5745H104.871C104.908 28.2887 104.967 28.0306 105.047 27.8004L106.534 23.6343H107.48Z" fill="#D3D5DA"/>
<path d="M114.516 26.7144H110.563C110.577 27.3492 110.745 27.8394 111.066 28.1847C111.386 28.53 111.827 28.7027 112.389 28.7027C113.02 28.7027 113.599 28.4911 114.128 28.0678V28.9254C113.636 29.2893 112.985 29.4713 112.176 29.4713C111.384 29.4713 110.763 29.2132 110.311 28.6972C109.859 28.1773 109.633 27.4477 109.633 26.5083C109.633 25.6209 109.879 24.8987 110.371 24.3418C110.867 23.781 111.482 23.5007 112.214 23.5007C112.946 23.5007 113.514 23.7421 113.914 24.2247C114.316 24.7074 114.516 25.3777 114.516 26.2354V26.7144ZM113.597 25.9402C113.594 25.4129 113.468 25.0027 113.22 24.7093C112.976 24.416 112.635 24.2693 112.197 24.2693C111.774 24.2693 111.415 24.4235 111.121 24.7316C110.825 25.0398 110.643 25.4427 110.574 25.9402H113.597Z" fill="#D3D5DA"/>
<path d="M117.107 29.1315V28.1513C117.595 28.5188 118.133 28.7027 118.72 28.7027C119.507 28.7027 119.901 28.4354 119.901 27.9007C119.901 27.7485 119.866 27.6203 119.797 27.5164C119.731 27.4087 119.641 27.314 119.524 27.2323C119.41 27.1506 119.276 27.0783 119.119 27.0151C118.966 26.9483 118.8 26.8796 118.622 26.809C118.373 26.7088 118.155 26.6085 117.965 26.5083C117.779 26.4043 117.622 26.2892 117.495 26.163C117.371 26.0331 117.276 25.8864 117.211 25.723C117.148 25.5596 117.118 25.3684 117.118 25.1494C117.118 24.882 117.178 24.6462 117.298 24.442C117.418 24.2341 117.579 24.0614 117.779 23.924C117.979 23.7829 118.208 23.6772 118.463 23.6066C118.722 23.5361 118.988 23.5007 119.261 23.5007C119.746 23.5007 120.18 23.5861 120.562 23.757V24.6815C120.151 24.4067 119.677 24.2693 119.141 24.2693C118.973 24.2693 118.822 24.2897 118.687 24.3306C118.552 24.3677 118.436 24.4216 118.337 24.4921C118.242 24.5627 118.167 24.648 118.113 24.7483C118.062 24.8449 118.036 24.9525 118.036 25.0713C118.036 25.2199 118.062 25.3443 118.113 25.4445C118.167 25.5448 118.246 25.6339 118.348 25.7119C118.45 25.7898 118.574 25.8603 118.72 25.9235C118.865 25.9866 119.031 26.0553 119.218 26.1296C119.465 26.2261 119.688 26.3263 119.884 26.4303C120.082 26.5306 120.249 26.6456 120.388 26.7756C120.527 26.9019 120.632 27.0485 120.705 27.2156C120.782 27.3827 120.819 27.5814 120.819 27.8116C120.819 28.0938 120.758 28.3388 120.633 28.5467C120.513 28.7547 120.351 28.9273 120.147 29.0647C119.943 29.2021 119.708 29.3042 119.441 29.371C119.175 29.4379 118.896 29.4713 118.605 29.4713C118.029 29.4713 117.53 29.358 117.107 29.1315Z" fill="#D3D5DA"/>
<path d="M126.369 29.282C126.157 29.4008 125.878 29.4602 125.532 29.4602C124.551 29.4602 124.061 28.9031 124.061 27.7893V24.4142H123.098V23.6344H124.061V22.2421L124.958 21.9468V23.6344H126.369V24.4142H124.958V27.6278C124.958 28.0102 125.021 28.2831 125.149 28.4465C125.276 28.6099 125.488 28.6916 125.783 28.6916C126.009 28.6916 126.204 28.6284 126.369 28.5022V29.282Z" fill="#D3D5DA"/>
<path d="M137.084 29.3376H136.188V26.0627C136.188 25.4316 136.091 24.9748 135.898 24.6926C135.708 24.4104 135.387 24.2693 134.936 24.2693C134.552 24.2693 134.227 24.4475 133.956 24.8041C133.691 25.1605 133.558 25.5875 133.558 26.085V29.3376H132.661V25.9514C132.661 24.83 132.236 24.2693 131.387 24.2693C130.993 24.2693 130.669 24.4383 130.413 24.7762C130.158 25.1103 130.03 25.5466 130.03 26.085V29.3376H129.134V23.6344H130.03V24.5367H130.052C130.45 23.846 131.03 23.5007 131.792 23.5007C132.174 23.5007 132.508 23.6103 132.792 23.8293C133.076 24.0447 133.272 24.3287 133.378 24.6815C133.793 23.8943 134.413 23.5007 135.236 23.5007C136.469 23.5007 137.084 24.2749 137.084 25.8232V29.3376Z" fill="#D3D5DA"/>
<path d="M144.848 26.7144H140.894C140.91 27.3492 141.077 27.8394 141.398 28.1847C141.719 28.53 142.16 28.7027 142.721 28.7027C143.352 28.7027 143.931 28.4911 144.46 28.0678V28.9254C143.968 29.2893 143.317 29.4713 142.508 29.4713C141.717 29.4713 141.095 29.2132 140.643 28.6972C140.191 28.1773 139.965 27.4477 139.965 26.5083C139.965 25.6209 140.211 24.8987 140.704 24.3418C141.199 23.781 141.813 23.5007 142.546 23.5007C143.279 23.5007 143.846 23.7421 144.246 24.2247C144.648 24.7074 144.848 25.3777 144.848 26.2354V26.7144ZM143.93 25.9402C143.926 25.4129 143.8 25.0027 143.552 24.7093C143.307 24.416 142.967 24.2693 142.529 24.2693C142.107 24.2693 141.747 24.4235 141.453 24.7316C141.157 25.0398 140.975 25.4427 140.906 25.9402H143.93Z" fill="#D3D5DA"/>
<path d="M152.426 29.3376H151.529V26.085C151.529 24.8745 151.095 24.2693 150.227 24.2693C149.779 24.2693 149.407 24.442 149.112 24.7873C148.82 25.129 148.675 25.5615 148.675 26.085V29.3376H147.778V23.6344H148.675V24.5813H148.696C149.12 23.8609 149.732 23.5007 150.533 23.5007C151.146 23.5007 151.615 23.7031 151.939 24.1078C152.264 24.5088 152.426 25.0899 152.426 25.8511V29.3376Z" fill="#D3D5DA"/>
<path d="M158.286 29.282C158.075 29.4008 157.796 29.4602 157.45 29.4602C156.469 29.4602 155.978 28.9031 155.978 27.7893V24.4142H155.016V23.6344H155.978V22.2421L156.875 21.9468V23.6344H158.286V24.4142H156.875V27.6278C156.875 28.0102 156.939 28.2831 157.067 28.4465C157.195 28.6099 157.406 28.6916 157.701 28.6916C157.927 28.6916 158.122 28.6284 158.286 28.5022V29.282Z" fill="#D3D5DA"/>
<path d="M46.1834 10.8236C48.1466 10.6902 49.0806 9.31783 49.0806 7.79301C49.0806 5.60107 47.1174 4.40027 44.182 4.40027H35.1666V17.7425H44.7348C47.8797 17.7425 49.8429 16.4845 49.8429 14.0829C49.8429 11.91 48.261 10.957 46.1834 10.8236ZM37.4157 6.3063H43.8199C45.6116 6.3063 46.8124 6.68751 46.8124 8.15515C46.8124 9.62279 45.6116 10.0231 43.8199 10.0231H37.4157V6.3063ZM44.2964 15.8364H37.4157V11.8719H44.2964C46.2978 11.8719 47.4986 12.3484 47.4986 13.8542C47.4986 15.36 46.2978 15.8364 44.2964 15.8364Z" fill="#47A68A"/>
<path d="M65.9048 4.40027V11.3001C65.9048 14.2925 64.1323 16.1033 60.9302 16.1033C57.7471 16.1033 55.9745 14.2925 55.9745 11.3001V4.40027H53.6872V11.4526C53.6872 15.3981 56.2222 18.1428 60.9302 18.1428C65.6571 18.1428 68.1921 15.3981 68.1921 11.4526V4.40027H65.9048Z" fill="#47A68A"/>
<path d="M71.2091 4.40027L77.785 13.1299V17.7425H80.0722V13.1299L86.629 4.40027H83.9986L78.9476 11.1667L73.8586 4.40027H71.2091Z" fill="#47A68A"/>
<path d="M102.294 4.40027H87.8845V6.4016H93.9266V17.7425H96.2139V6.4016H102.294V4.40027Z" fill="#D3D5DA"/>
<path d="M108.011 15.7411V11.9672H117.121V9.96588H108.011V6.4016H118.837V4.40027H105.742V17.7425H119.027V15.7411H108.011Z" fill="#D3D5DA"/>
<path d="M136.058 4.40027H122.277V6.36348H132.627L121.934 16.1414V17.7425H136.363V15.7793H125.365L136.058 6.00134V4.40027Z" fill="#D3D5DA"/>
<path d="M147.323 18.1428C152.451 18.1428 155.615 15.4743 155.615 11.0714C155.615 6.66844 152.451 4 147.323 4C142.196 4 139.032 6.66844 139.032 11.0714C139.032 15.4743 142.196 18.1428 147.323 18.1428ZM147.323 16.1223C143.682 16.1223 141.357 14.3116 141.357 11.0714C141.357 7.83112 143.701 6.02039 147.323 6.02039C150.944 6.02039 153.269 7.83112 153.269 11.0714C153.269 14.3116 150.944 16.1223 147.323 16.1223Z" fill="#D3D5DA"/>
<path d="M166.447 9.85151C163.532 9.62279 161.301 9.37501 161.301 7.96454C161.301 6.47784 163.817 5.96321 165.934 5.98228C168.144 6.00133 170.031 6.57314 171.404 7.77394L172.852 6.21099C171.251 4.85771 168.792 4 165.895 4C162.064 4 158.995 5.46764 158.995 8.11703C158.995 10.8427 162.465 11.6622 166.143 11.9672C169.497 12.2531 171.174 12.6153 171.174 13.9876C171.174 15.379 169.536 16.1605 166.563 16.1605C163.875 16.1605 161.74 15.4362 159.929 13.8161L158.5 15.4362C160.578 17.2279 163.341 18.1428 166.467 18.1428C171.003 18.1428 173.5 16.332 173.5 13.797C173.5 11.0142 170.603 10.1755 166.447 9.85151Z" fill="#D3D5DA"/>
<path fill-rule="evenodd" clip-rule="evenodd" d="M17.1058 23.0444V26.2515H19.5444V21.2892L18.8493 21.6025C18.7922 21.7798 18.7102 21.9526 18.6043 22.1177C18.3893 22.46 18.0274 22.736 17.5785 22.9C17.4256 22.9575 17.2675 23.0057 17.1058 23.0444ZM17.123 22.3807L17.1058 22.3884V22.3921C17.1115 22.3883 17.1173 22.3846 17.123 22.3807Z" fill="#47A68A"/>
<path d="M26.9697 4L23.5046 9.67647H24.7237V23.9885L20.8507 28.049H8.19464L4 32.3333H22.9583L28.9375 26.1411V9.67647H30.4444L26.9697 4Z" fill="#47A68A"/>
<path d="M21.4526 9.83132L23.8333 5.88892H9.7978L4 11.9542V32.3334L8.03876 28.1083V14.077L11.827 9.83132H21.4526Z" fill="#D3D5DA"/>
<path d="M22.8889 15.3333H20.0555V25.7222L22.8889 22.7768V15.3333Z" fill="#47A68A"/>
<path fill-rule="evenodd" clip-rule="evenodd" d="M14.2609 20.8839H14.1345C14.1773 20.8903 14.2195 20.8996 14.2609 20.9117V20.8839ZM15.4831 23.1616C14.7023 23.1616 14.1325 22.9916 13.7735 22.6516C13.6424 22.5381 13.533 22.4081 13.4479 22.2666V26.2007H15.8866V23.1404C15.753 23.1549 15.6183 23.1619 15.4831 23.1616Z" fill="#47A68A"/>
<path d="M15.8259 21.9445C15.1835 21.9445 14.7147 21.7984 14.4193 21.5061C14.1457 21.2588 13.9869 20.9193 13.9777 20.5617C13.9744 20.4531 14.001 20.3455 14.055 20.2496C14.1054 20.1666 14.1783 20.0979 14.266 20.0502C14.368 20.0022 14.4805 19.9772 14.5945 19.9772C14.7085 19.9772 14.8209 20.0022 14.9229 20.0502C15.0105 20.0977 15.0829 20.1665 15.1326 20.2496C15.1883 20.345 15.2159 20.4528 15.2128 20.5617C15.2185 20.6918 15.179 20.8201 15.1002 20.9269C15.0346 21.0142 14.9408 21.079 14.833 21.1116C14.9384 21.2386 15.0878 21.3264 15.2548 21.36C15.4418 21.4113 15.6354 21.4377 15.8302 21.4384C16.0879 21.4405 16.3404 21.3693 16.5546 21.2339C16.7768 21.0857 16.9425 20.8737 17.0272 20.6296C17.1345 20.339 17.1869 20.0329 17.1819 19.7252C17.1906 19.4044 17.1332 19.0851 17.0131 18.7848C16.9227 18.5447 16.7512 18.3394 16.525 18.2005C16.3148 18.0748 16.0706 18.0089 15.8219 18.0106C15.605 18.0278 15.3959 18.0949 15.2128 18.2058L14.7612 18.4196V18.2058L16.7908 15.6348H13.9777V18.3028C13.9697 18.4953 14.0237 18.6856 14.1325 18.8486C14.1851 18.9197 14.2562 18.9766 14.339 19.0141C14.4217 19.0515 14.5134 19.0682 14.6051 19.0624C14.7743 19.0592 14.938 19.0047 15.072 18.907C15.2239 18.8019 15.3561 18.6735 15.463 18.5272C15.4726 18.5015 15.4904 18.4793 15.5139 18.4634C15.5327 18.448 15.5568 18.4396 15.5817 18.4395C15.6305 18.4438 15.6768 18.4623 15.7139 18.4926C15.761 18.5423 15.7866 18.6067 15.7856 18.6733C15.7802 18.718 15.7717 18.7623 15.7603 18.8061C15.6604 19.0344 15.4928 19.2308 15.2778 19.3717C15.0781 19.4993 14.8422 19.5669 14.6011 19.5658C13.992 19.5658 13.57 19.4524 13.3352 19.2258C13.2145 19.1005 13.1215 18.9538 13.0616 18.7941C13.0017 18.6345 12.9761 18.4651 12.9864 18.2961V15.6348H11.5555V15.1391H12.9931V14.0089L12.6639 13.6979V13.4445H13.619L13.9777 13.6197V15.1391L17.6938 15.1284L18.0638 15.4791L15.7851 17.6411C15.9227 17.5888 16.0677 17.5557 16.2155 17.5428C16.5079 17.5549 16.7932 17.6318 17.0483 17.7673C17.3438 17.8999 17.5927 18.1096 17.7657 18.3718C17.9207 18.5937 18.0305 18.841 18.0893 19.1009C18.1376 19.306 18.1635 19.5152 18.1667 19.7252C18.1682 20.1261 18.0719 20.5218 17.8853 20.882C17.7084 21.2306 17.4106 21.5118 17.0413 21.6789C16.6633 21.8547 16.2474 21.9457 15.8259 21.9445Z" fill="#47A68A"/>
</g>
<rect x="2" y="2" width="174" height="32.3333" stroke="#EB5757" stroke-width="4"/>
<defs>
<clipPath id="clip0">
</clipPath>
</defs>
</svg>
