<svg width="20" height="20" viewBox="0 0 20 20" fill="none" xmlns="http://www.w3.org/2000/svg">
<path fill-rule="evenodd" clip-rule="evenodd" d="M9.99992 2.49998C8.67384 2.49998 7.40207 3.02676 6.46438 3.96445C5.5267 4.90213 4.99992 6.1739 4.99992 7.49998V11.6666C4.99992 12.2568 4.8434 12.8309 4.55335 13.3333H15.4465C15.1564 12.8309 14.9999 12.2568 14.9999 11.6666V7.49998C14.9999 6.1739 14.4731 4.90213 13.5355 3.96445C12.5978 3.02676 11.326 2.49998 9.99992 2.49998ZM18.3333 13.3333C17.8912 13.3333 17.4673 13.1577 17.1547 12.8452C16.8422 12.5326 16.6666 12.1087 16.6666 11.6666V7.49998C16.6666 5.73187 15.9642 4.03618 14.714 2.78593C13.4637 1.53569 11.768 0.833313 9.99992 0.833313C8.23181 0.833313 6.53612 1.53569 5.28587 2.78593C4.03563 4.03618 3.33325 5.73187 3.33325 7.49998V11.6666C3.33325 12.1087 3.15766 12.5326 2.8451 12.8452C2.53254 13.1577 2.10861 13.3333 1.66659 13.3333C1.20635 13.3333 0.833252 13.7064 0.833252 14.1666C0.833252 14.6269 1.20635 15 1.66659 15H18.3333V13.3333ZM8.14011 16.7791C8.53821 16.5482 9.04815 16.6837 9.27909 17.0818C9.35234 17.2081 9.45749 17.3129 9.58399 17.3858C9.7105 17.4587 9.85393 17.497 9.99992 17.497C10.1459 17.497 10.2893 17.4587 10.4158 17.3858C10.5424 17.3129 10.6475 17.2081 10.7208 17.0818C10.9517 16.6837 11.4616 16.5482 11.8597 16.7791C12.2578 17.0101 12.3934 17.52 12.1624 17.9181C11.9427 18.297 11.6272 18.6114 11.2477 18.83C10.8682 19.0486 10.4379 19.1637 9.99992 19.1637C9.56194 19.1637 9.13166 19.0486 8.75214 18.83C8.37261 18.6114 8.05718 18.297 7.83742 17.9181C7.60648 17.52 7.742 17.0101 8.14011 16.7791Z" fill="#A6A7AC"/>
</svg>
