<svg width="20" height="20" viewBox="0 0 20 20" fill="none" xmlns="http://www.w3.org/2000/svg">
<g clip-path="url(#clip0)">
<path d="M5.00001 7.85715H0.714299C0.319796 7.85715 0 8.17694 0 8.57145V19.2857C0 19.6802 0.319796 20 0.714299 20H5.00001C5.39451 20 5.71431 19.6802 5.71431 19.2857V8.57145C5.71427 8.17694 5.39447 7.85715 5.00001 7.85715ZM4.28571 18.5714H1.42856V9.28575H4.28571V18.5714Z" fill="#A6A7AC"/>
<path d="M12.1428 0H7.85712C7.46262 0 7.14282 0.319796 7.14282 0.714299V19.2857C7.14282 19.6802 7.46262 20 7.85712 20H12.1428C12.5373 20 12.8571 19.6802 12.8571 19.2857V0.714299C12.8571 0.319796 12.5373 0 12.1428 0ZM11.4286 18.5714H8.57142V1.42856H11.4286V18.5714Z" fill="#A6A7AC"/>
<path d="M19.2857 5.71426H14.9999C14.6054 5.71426 14.2856 6.03406 14.2856 6.42856V19.2857C14.2856 19.6802 14.6054 20 14.9999 20H19.2857C19.6802 20 20 19.6802 20 19.2857V6.42856C20 6.03406 19.6802 5.71426 19.2857 5.71426ZM18.5714 18.5714H15.7142V7.14286H18.5714V18.5714Z" fill="#A6A7AC"/>
</g>
<defs>
<clipPath id="clip0">
<rect width="20" height="20" fill="white"/>
</clipPath>
</defs>
</svg>
