<svg width="20" height="20" viewBox="0 0 20 20" fill="none" xmlns="http://www.w3.org/2000/svg">
<path fill-rule="evenodd" clip-rule="evenodd" d="M1.22039 12.8871C2.00179 12.1057 3.0616 11.6667 4.16667 11.6667H10.8333C11.9384 11.6667 12.9982 12.1057 13.7796 12.8871C14.561 13.6685 15 14.7283 15 15.8334V17.5C15 17.9603 14.6269 18.3334 14.1667 18.3334C13.7064 18.3334 13.3333 17.9603 13.3333 17.5V15.8334C13.3333 15.1703 13.0699 14.5344 12.6011 14.0656C12.1323 13.5967 11.4964 13.3334 10.8333 13.3334H4.16667C3.50363 13.3334 2.86774 13.5967 2.3989 14.0656C1.93006 14.5344 1.66667 15.1703 1.66667 15.8334V17.5C1.66667 17.9603 1.29357 18.3334 0.833333 18.3334C0.373096 18.3334 0 17.9603 0 17.5V15.8334C0 14.7283 0.438987 13.6685 1.22039 12.8871Z" fill="#A6A7AC"/>
<path fill-rule="evenodd" clip-rule="evenodd" d="M7.49992 3.33335C6.11921 3.33335 4.99992 4.45264 4.99992 5.83335C4.99992 7.21407 6.11921 8.33335 7.49992 8.33335C8.88063 8.33335 9.99992 7.21407 9.99992 5.83335C9.99992 4.45264 8.88063 3.33335 7.49992 3.33335ZM3.33325 5.83335C3.33325 3.53217 5.19873 1.66669 7.49992 1.66669C9.8011 1.66669 11.6666 3.53217 11.6666 5.83335C11.6666 8.13454 9.8011 10 7.49992 10C5.19873 10 3.33325 8.13454 3.33325 5.83335Z" fill="#A6A7AC"/>
<path fill-rule="evenodd" clip-rule="evenodd" d="M15.8599 12.4C15.975 11.9544 16.4295 11.6864 16.8751 11.8014C17.769 12.0322 18.5609 12.5534 19.1265 13.283C19.6922 14.0127 19.9994 14.9095 20.0001 15.8327L20.0001 17.5C20.0001 17.9602 19.627 18.3333 19.1668 18.3333C18.7066 18.3333 18.3335 17.9602 18.3335 17.5L18.3335 15.8339C18.3335 15.8339 18.3335 15.834 18.3335 15.8339C18.333 15.2801 18.1486 14.7419 17.8093 14.3041C17.4699 13.8663 16.9948 13.5537 16.4585 13.4152C16.0128 13.3001 15.7449 12.8456 15.8599 12.4Z" fill="#A6A7AC"/>
<path fill-rule="evenodd" clip-rule="evenodd" d="M12.526 2.40161C12.6402 1.95576 13.0941 1.68687 13.54 1.80102C14.4363 2.0305 15.2307 2.55175 15.7979 3.2826C16.3652 4.01344 16.6732 4.9123 16.6732 5.83748C16.6732 6.76266 16.3652 7.66152 15.7979 8.39236C15.2307 9.12321 14.4363 9.64446 13.54 9.87394C13.0941 9.9881 12.6402 9.7192 12.526 9.27335C12.4118 8.82749 12.6807 8.37351 13.1266 8.25936C13.6643 8.12167 14.141 7.80892 14.4814 7.37041C14.8217 6.9319 15.0065 6.39259 15.0065 5.83748C15.0065 5.28237 14.8217 4.74306 14.4814 4.30455C14.141 3.86604 13.6643 3.55329 13.1266 3.41561C12.6807 3.30145 12.4118 2.84747 12.526 2.40161Z" fill="#A6A7AC"/>
</svg>
