<svg width="20" height="20" viewBox="0 0 20 20" fill="none" xmlns="http://www.w3.org/2000/svg">
<path d="M7.21224 6.73473L3.88571 10.9388C3.54286 10.7878 3.16735 10.7021 2.77143 10.7021C1.2449 10.7021 0 11.947 0 13.4735C0 15 1.2449 16.2449 2.77143 16.2449C4.29796 16.2449 5.54286 15 5.54286 13.4735C5.54286 12.849 5.33469 12.2694 4.98367 11.8041L8.3102 7.60004C8.61633 7.75922 8.95102 7.87759 9.29796 7.94289V13.8817C8.10612 14.1919 7.22449 15.2776 7.22449 16.5633C7.22449 18.0939 8.46939 19.3347 9.99592 19.3347C11.5224 19.3347 12.7673 18.0898 12.7673 16.5633C12.7673 15.2776 11.8857 14.1919 10.6939 13.8817V7.94698C11.0327 7.88167 11.351 7.77147 11.649 7.62045L14.9796 11.8449C14.6449 12.3021 14.4449 12.8653 14.4449 13.4776C14.4449 15.0041 15.6898 16.249 17.2163 16.249C18.7429 16.249 20 15.0041 20 13.4735C20 11.947 18.7551 10.7021 17.2286 10.7021C16.8163 10.7021 16.4245 10.7919 16.0735 10.9551L12.7633 6.75922C13.3306 6.11024 13.6776 5.26534 13.6776 4.33881C13.6776 2.31432 12.0286 0.665344 10.0041 0.665344C7.97959 0.665344 6.33061 2.31432 6.33061 4.33881C6.32653 5.2531 6.66122 6.08983 7.21224 6.73473ZM2.77143 14.849C2.01633 14.849 1.4 14.2327 1.4 13.4776C1.4 12.7225 2.01633 12.1062 2.77143 12.1062C3.52653 12.1062 4.14286 12.7225 4.14286 13.4776C4.14286 14.2327 3.53061 14.849 2.77143 14.849ZM11.3714 16.5715C11.3714 17.3266 10.7551 17.9429 10 17.9429C9.2449 17.9429 8.62857 17.3266 8.62857 16.5715C8.62857 15.8245 9.22857 15.2164 9.97551 15.2C9.98367 15.2 9.99184 15.2 10.0041 15.2C10.0122 15.2 10.0204 15.2 10.0327 15.2C10.7714 15.2123 11.3714 15.8245 11.3714 16.5715ZM18.6 13.4735C18.6 14.2286 17.9837 14.8449 17.2286 14.8449C16.4735 14.8449 15.8571 14.2286 15.8571 13.4735C15.8571 12.7184 16.4735 12.1021 17.2286 12.1021C17.9837 12.1021 18.6 12.7184 18.6 13.4735ZM10 2.06534C11.2531 2.06534 12.2735 3.08575 12.2735 4.33881C12.2735 5.59187 11.2531 6.61228 10 6.61228C8.74694 6.61228 7.72653 5.59187 7.72653 4.33881C7.72653 3.08575 8.74694 2.06534 10 2.06534Z" fill="#A6A7AC"/>
</svg>
