<svg width="34" height="34" viewBox="0 0 34 34" fill="none" xmlns="http://www.w3.org/2000/svg">
<path d="M15.7048 5.25666L7.9905 13.3689C7.30981 14.0847 7.30981 15.2777 7.9905 15.9934L9.57875 17.6636C9.88128 17.9818 10.335 18.2203 10.7888 18.2203C11.2426 18.2203 11.6964 18.0613 11.9989 17.6636L14.1165 15.4367L14.1165 26.6508C14.1165 27.6847 14.9485 28.5596 15.9317 28.5596L18.125 28.5596C19.0325 28.5596 19.7888 27.6847 19.7888 26.6508L19.7888 15.5163L21.8309 17.6637C22.1334 17.9818 22.5872 18.2204 23.1166 18.2204C23.5704 18.2204 24.0241 18.0613 24.4023 17.6637L25.9905 15.9935C26.2931 15.6753 26.52 15.1982 26.52 14.721C26.52 14.2438 26.3687 13.7666 25.9905 13.4485L18.2762 5.3362C17.8981 4.93852 17.4443 4.77945 16.9905 4.77945C16.5368 4.69992 16.083 4.85899 15.7048 5.25666ZM17.2174 6.3701L24.9317 14.4824C25.083 14.6414 25.083 14.7209 24.9317 14.88L23.3435 16.5502C23.2679 16.6298 23.1922 16.6298 23.1166 16.6298C23.041 16.6298 22.9654 16.6298 22.8898 16.5502L19.5621 13.0508C19.3352 12.8123 19.0326 12.7327 18.7301 12.8918C18.4276 13.0508 18.2763 13.2894 18.2763 13.6075L18.2763 26.6508C18.2763 26.8099 18.2007 26.9689 18.125 26.9689L15.9318 26.9689C15.7805 26.9689 15.6292 26.8099 15.6292 26.6508L15.6292 13.4484C15.6292 13.1303 15.478 12.8121 15.1754 12.7327C14.8729 12.6531 14.5704 12.6531 14.3435 12.8917L10.9401 16.4707C10.8645 16.5502 10.7889 16.5502 10.7889 16.5502C10.7132 16.5502 10.7132 16.5502 10.6376 16.4707L9.04941 14.8005C8.97377 14.7209 8.89814 14.5619 9.04941 14.4028L16.7636 6.29057C16.8393 6.21103 16.9149 6.21103 16.9905 6.21103C17.0662 6.29057 17.1418 6.29057 17.2174 6.3701Z" fill="#A6A7AC"/>
</svg>
