<svg width="30" height="30" viewBox="0 0 30 30" fill="none" xmlns="http://www.w3.org/2000/svg">
<path fill-rule="evenodd" clip-rule="evenodd" d="M2.67593 15C2.81254 15.2361 2.99365 15.5369 3.21802 15.8843C3.79429 16.7766 4.64771 17.9632 5.75567 19.1451C7.9944 21.533 11.1244 23.75 15 23.75C18.8756 23.75 22.0056 21.533 24.2443 19.1451C25.3523 17.9632 26.2057 16.7766 26.782 15.8843C27.0063 15.5369 27.1875 15.2361 27.3241 15C27.1875 14.7639 27.0063 14.4631 26.782 14.1157C26.2057 13.2234 25.3523 12.0368 24.2443 10.8549C22.0056 8.46695 18.8756 6.25 15 6.25C11.1244 6.25 7.9944 8.46695 5.75567 10.8549C4.64771 12.0368 3.79429 13.2234 3.21802 14.1157C2.99365 14.4631 2.81254 14.7639 2.67593 15ZM28.75 15C29.868 14.441 29.8678 14.4406 29.8676 14.4401L29.8656 14.4361L29.8613 14.4275L29.8471 14.3998C29.8352 14.3766 29.8183 14.3441 29.7966 14.303C29.7531 14.2209 29.69 14.104 29.6075 13.9575C29.4428 13.6646 29.2002 13.2519 28.8821 12.7593C28.2474 11.7766 27.304 10.4632 26.0682 9.14507C23.6194 6.53305 19.8744 3.75 15 3.75C10.1256 3.75 6.3806 6.53305 3.93183 9.14507C2.69604 10.4632 1.75258 11.7766 1.11792 12.7593C0.799813 13.2519 0.55724 13.6646 0.392464 13.9575C0.310029 14.104 0.246925 14.2209 0.203442 14.303C0.181696 14.3441 0.164844 14.3766 0.152922 14.3998L0.138737 14.4275L0.134424 14.4361L0.132963 14.439C0.132733 14.4395 0.131966 14.441 1.25 15L0.131966 14.441C-0.0439887 14.7929 -0.0439887 15.2071 0.131966 15.559L1.25 15C0.131966 15.559 0.131736 15.5586 0.131966 15.559L0.134424 15.5639L0.138737 15.5725L0.152922 15.6002C0.164844 15.6234 0.181696 15.6559 0.203442 15.697C0.246925 15.7791 0.310029 15.896 0.392464 16.0425C0.55724 16.3354 0.799813 16.7481 1.11792 17.2407C1.75258 18.2234 2.69604 19.5368 3.93183 20.8549C6.3806 23.467 10.1256 26.25 15 26.25C19.8744 26.25 23.6194 23.467 26.0682 20.8549C27.304 19.5368 28.2474 18.2234 28.8821 17.2407C29.2002 16.7481 29.4428 16.3354 29.6075 16.0425C29.69 15.896 29.7531 15.7791 29.7966 15.697C29.8183 15.6559 29.8352 15.6234 29.8471 15.6002L29.8613 15.5725L29.8656 15.5639L29.867 15.561C29.8673 15.5605 29.868 15.559 28.75 15ZM28.75 15L29.868 15.559C30.044 15.2071 30.0435 14.792 29.8676 14.4401L28.75 15Z" fill="#70B4CA"/>
<path fill-rule="evenodd" clip-rule="evenodd" d="M15 12.5C13.6193 12.5 12.5 13.6193 12.5 15C12.5 16.3807 13.6193 17.5 15 17.5C16.3807 17.5 17.5 16.3807 17.5 15C17.5 13.6193 16.3807 12.5 15 12.5ZM10 15C10 12.2386 12.2386 10 15 10C17.7614 10 20 12.2386 20 15C20 17.7614 17.7614 20 15 20C12.2386 20 10 17.7614 10 15Z" fill="#70B4CA"/>
</svg>
