<svg width="30" height="30" viewBox="0 0 30 30" xmlns="http://www.w3.org/2000/svg">
    <path d="M6.25 15C5.55964 15 5 15.5596 5 16.25V25C5 25.6904 5.55964 26.25 6.25 26.25H23.75C24.4404 26.25 25 25.6904 25 25V16.25C25 15.5596 24.4404 15 23.75 15H6.25ZM2.5 16.25C2.5 14.1789 4.17893 12.5 6.25 12.5H23.75C25.8211 12.5 27.5 14.1789 27.5 16.25V25C27.5 27.0711 25.8211 28.75 23.75 28.75H6.25C4.17893 28.75 2.5 27.0711 2.5 25V16.25Z"/>
    <path d="M15 3.75C13.6739 3.75 12.4021 4.27678 11.4645 5.21447C10.5268 6.15215 10 7.42392 10 8.75V13.75C10 14.4404 9.44036 15 8.75 15C8.05964 15 7.5 14.4404 7.5 13.75V8.75C7.5 6.76088 8.29018 4.85322 9.6967 3.4467C11.1032 2.04018 13.0109 1.25 15 1.25C16.9891 1.25 18.8968 2.04018 20.3033 3.4467C21.7098 4.85322 22.5 6.76088 22.5 8.75V13.75C22.5 14.4404 21.9404 15 21.25 15C20.5596 15 20 14.4404 20 13.75V8.75C20 7.42392 19.4732 6.15215 18.5355 5.21447C17.5979 4.27678 16.3261 3.75 15 3.75Z"/>
</svg>
