<svg width="30" height="30" viewBox="0 0 30 30" fill="none" xmlns="http://www.w3.org/2000/svg">
<path fill-rule="evenodd" clip-rule="evenodd" d="M1.83058 19.3306C3.00268 18.1585 4.5924 17.5 6.25 17.5H15C16.6576 17.5 18.2473 18.1585 19.4194 19.3306C20.5915 20.5027 21.25 22.0924 21.25 23.75V26.25C21.25 26.9404 20.6904 27.5 20 27.5C19.3096 27.5 18.75 26.9404 18.75 26.25V23.75C18.75 22.7554 18.3549 21.8016 17.6517 21.0984C16.9484 20.3951 15.9946 20 15 20H6.25C5.25544 20 4.30161 20.3951 3.59835 21.0984C2.89509 21.8016 2.5 22.7554 2.5 23.75V26.25C2.5 26.9404 1.94036 27.5 1.25 27.5C0.559644 27.5 0 26.9404 0 26.25V23.75C0 22.0924 0.658481 20.5027 1.83058 19.3306Z" fill="#A6A7AC"/>
<path fill-rule="evenodd" clip-rule="evenodd" d="M10.625 5C8.55393 5 6.875 6.67893 6.875 8.75C6.875 10.8211 8.55393 12.5 10.625 12.5C12.6961 12.5 14.375 10.8211 14.375 8.75C14.375 6.67893 12.6961 5 10.625 5ZM4.375 8.75C4.375 5.29822 7.17322 2.5 10.625 2.5C14.0768 2.5 16.875 5.29822 16.875 8.75C16.875 12.2018 14.0768 15 10.625 15C7.17322 15 4.375 12.2018 4.375 8.75Z" fill="#A6A7AC"/>
<path fill-rule="evenodd" clip-rule="evenodd" d="M20 13.75C20 13.0596 20.5596 12.5 21.25 12.5H28.75C29.4404 12.5 30 13.0596 30 13.75C30 14.4404 29.4404 15 28.75 15H21.25C20.5596 15 20 14.4404 20 13.75Z" fill="#A6A7AC"/>
</svg>
