<svg width="20" height="20" viewBox="0 0 20 20" fill="none" xmlns="http://www.w3.org/2000/svg">
<g clip-path="url(#clip0)">
<path d="M8.29144 15.2443L5.93475 17.601C4.95771 18.5781 3.37548 18.5781 2.39926 17.6012C1.42285 16.6248 1.42285 15.0424 2.39907 14.0662L7.11327 9.35199C8.08949 8.37573 9.67188 8.37573 10.6481 9.35199C10.9735 9.67742 11.5012 9.67742 11.8266 9.35199C12.1521 9.02656 12.1521 8.4989 11.8266 8.17346C10.1995 6.54635 7.56187 6.54635 5.93475 8.17346L1.22058 12.8876C-0.406536 14.5148 -0.406536 17.1524 1.22058 18.7795C2.84751 20.4075 5.48533 20.4075 7.11331 18.7795L9.47001 16.4228C9.79544 16.0974 9.79544 15.5697 9.47001 15.2443C9.14458 14.9189 8.61688 14.9189 8.29144 15.2443Z" fill="#589585"/>
<path d="M18.7795 1.22034C17.1524 -0.40678 14.5139 -0.40678 12.8867 1.22034L10.0592 4.04786C9.73379 4.37329 9.73379 4.90095 10.0592 5.22638C10.3847 5.55181 10.9123 5.55181 11.2377 5.22638L14.0653 2.39886C15.0415 1.42261 16.6247 1.42261 17.6009 2.39886C18.5772 3.37508 18.5772 4.95747 17.6009 5.93369L12.4159 11.1188C11.4397 12.095 9.85731 12.095 8.88109 11.1188C8.55566 10.7933 8.028 10.7933 7.70257 11.1188C7.37714 11.4442 7.37714 11.9718 7.70257 12.2973C9.32969 13.9244 11.9673 13.9244 13.5944 12.2973L18.7795 7.11225C20.4066 5.48513 20.4066 2.84746 18.7795 1.22034Z" fill="#589585"/>
</g>
<defs>
<clipPath id="clip0">
<rect width="20" height="20" fill="white"/>
</clipPath>
</defs>
</svg>
