<svg width="20" height="20" viewBox="0 0 20 20" fill="none" xmlns="http://www.w3.org/2000/svg">
<g clip-path="url(#clip0)">
<path d="M1.77068 11.0552L0.220052 12.6536C-0.0797536 12.9627 -0.0722926 13.4563 0.23681 13.7562C0.388294 13.9032 0.584037 13.9763 0.779662 13.9763C0.983178 13.9763 1.18654 13.897 1.33939 13.7395L2.89002 12.141C3.18982 11.8319 3.18236 11.3383 2.87326 11.0385C2.56416 10.7386 2.07052 10.7461 1.77068 11.0552Z" fill="#589585"/>
<path d="M5.38007 11.5596C4.94948 11.5596 4.60034 11.9087 4.60034 12.3393V19.201C4.60034 19.6315 4.94944 19.9807 5.38007 19.9807H5.38011C5.8107 19.9807 6.15984 19.6316 6.15984 19.201L6.15976 12.3393C6.15976 11.9087 5.8107 11.5596 5.38007 11.5596Z" fill="#589585"/>
<path d="M8.42109 9.84473C7.9905 9.84473 7.64136 10.1938 7.64136 10.6245V19.2015C7.64136 19.6321 7.99046 19.9812 8.42109 19.9812C8.85171 19.9812 9.20081 19.6321 9.20081 19.2015V10.6244C9.20077 10.1938 8.85171 9.84473 8.42109 9.84473Z" fill="#589585"/>
<path d="M17.6609 0.0195312H15.3217C14.8911 0.0195312 14.542 0.368633 14.542 0.799259C14.542 1.22989 14.8911 1.57899 15.3217 1.57899H17.3768L11.6514 7.30318C11.4978 7.45681 11.2968 7.54419 11.098 7.54419C11.0938 7.54419 11.0895 7.54416 11.0853 7.54408C10.8939 7.54048 10.6982 7.45271 10.5487 7.30314L9.63198 6.38642C9.18319 5.93763 8.58741 5.67747 7.99729 5.67263C7.99155 5.67259 7.98585 5.67259 7.98014 5.67259C7.36936 5.67259 6.75944 5.93958 6.30362 6.40693L4.63267 8.08541C4.32884 8.3906 4.32994 8.88427 4.63513 9.1881C4.78724 9.33955 4.98623 9.41525 5.18521 9.41525C5.38533 9.41525 5.58545 9.33865 5.73779 9.1856L7.41178 7.50412C7.41409 7.50185 7.41631 7.49955 7.41858 7.49724C7.58139 7.32955 7.79358 7.23009 7.98452 7.23201C8.1662 7.23349 8.36987 7.32958 8.52936 7.48908L9.44608 8.4058C9.8846 8.84435 10.4565 9.09205 11.0564 9.10322C11.6802 9.11494 12.2994 8.86068 12.7541 8.40588L18.4406 2.72055V4.65892C18.4406 5.08954 18.7897 5.43864 19.2203 5.43864C19.651 5.43864 20.0001 5.08954 20.0001 4.65892V2.35872C20.0001 1.06891 18.9507 0.0195312 17.6609 0.0195312Z" fill="#589585"/>
<path d="M2.30289 15.0684C1.87125 15.0669 1.52051 15.4164 1.52051 15.8481V19.2009C1.52051 19.6315 1.86961 19.9806 2.30023 19.9806H2.30027C2.7309 19.9806 3.08 19.6315 3.08 19.2009V15.8481C3.07996 15.4185 2.73254 15.0698 2.30289 15.0684Z" fill="#589585"/>
<path d="M17.6218 6.68652C17.1911 6.68652 16.842 7.03563 16.842 7.46625V19.2012C16.842 19.6318 17.1911 19.9809 17.6218 19.9809H17.6218C18.0524 19.9809 18.4015 19.6318 18.4015 19.2012V7.46625C18.4015 7.03559 18.0524 6.68652 17.6218 6.68652Z" fill="#589585"/>
<path d="M11.4618 10.8193C11.0312 10.8193 10.6821 11.1684 10.6821 11.5991V19.2014C10.6821 19.632 11.0312 19.9811 11.4618 19.9811H11.4619C11.8924 19.9811 12.2416 19.632 12.2416 19.2014V11.5991C12.2415 11.1684 11.8925 10.8193 11.4618 10.8193Z" fill="#589585"/>
<path d="M14.5391 9.3379C14.1095 9.33946 13.7622 9.68813 13.7622 10.1176V19.2015C13.7622 19.6321 14.1113 19.9812 14.5419 19.9812H14.542C14.9725 19.9812 15.3217 19.6321 15.3217 19.2015V10.1176C15.3216 9.68587 14.9708 9.33629 14.5391 9.3379Z" fill="#589585"/>
</g>
<defs>
<clipPath id="clip0">
<rect width="20" height="20" fill="white"/>
</clipPath>
</defs>
</svg>
