<svg width="20" height="20" viewBox="0 0 20 20" fill="none" xmlns="http://www.w3.org/2000/svg">
<path d="M5.02878 19C4.83157 19 4.63573 18.9358 4.4686 18.8097C4.15727 18.5742 4.01183 18.1695 4.09657 17.779L5.25455 12.4563L1.32739 8.86244C1.03872 8.59948 0.928442 8.18303 1.04696 7.80198C1.16548 7.42165 1.48793 7.15238 1.86972 7.11555L7.06583 6.6233L9.12019 1.60661C9.27166 1.23803 9.61664 1 9.99994 1C10.3832 1 10.7282 1.23803 10.8797 1.60575L12.934 6.6233L18.1293 7.11555C18.5119 7.15152 18.8344 7.42165 18.9529 7.80198C19.0714 8.18232 18.9618 8.59948 18.6732 8.86244L14.746 12.4555L15.904 17.7782C15.9889 18.1695 15.8433 18.5742 15.5321 18.809C15.2216 19.0437 14.8075 19.0618 14.4805 18.8567L9.99994 16.0627L5.51933 18.8583C5.36785 18.9521 5.19907 19 5.02878 19ZM9.99994 14.8591C10.1702 14.8591 10.3389 14.9068 10.4905 15.0006L14.7191 17.6397L13.6262 12.6159C13.5482 12.2583 13.6645 11.885 13.9293 11.6431L17.6374 8.24967L12.7315 7.78479C12.3783 7.75111 12.0745 7.51939 11.9365 7.17975L9.99994 2.44552L8.06108 7.18047C7.92457 7.51781 7.62079 7.74953 7.2684 7.78321L2.36178 8.24809L6.06976 11.6416C6.33536 11.8842 6.45154 12.2568 6.37285 12.6152L5.28078 17.6389L9.50939 15.0006C9.66086 14.9068 9.82965 14.8591 9.99994 14.8591ZM7.02614 6.72032C7.02614 6.72032 7.02614 6.72118 7.02532 6.72189L7.02614 6.72032ZM12.9722 6.71802L12.9731 6.7196C12.9731 6.71874 12.9731 6.71874 12.9722 6.71802Z" fill="#589585" stroke="#589585" stroke-width="0.4"/>
</svg>
