<svg width="20" height="20" viewBox="0 0 20 20" fill="none" xmlns="http://www.w3.org/2000/svg">
<path fill-rule="evenodd" clip-rule="evenodd" d="M1.22039 12.8874C2.00179 12.106 3.0616 11.667 4.16667 11.667H10.8333C11.9384 11.667 12.9982 12.106 13.7796 12.8874C14.561 13.6688 15 14.7286 15 15.8337V17.5003C15 17.9606 14.6269 18.3337 14.1667 18.3337C13.7064 18.3337 13.3333 17.9606 13.3333 17.5003V15.8337C13.3333 15.1706 13.0699 14.5347 12.6011 14.0659C12.1323 13.5971 11.4964 13.3337 10.8333 13.3337H4.16667C3.50363 13.3337 2.86774 13.5971 2.3989 14.0659C1.93006 14.5347 1.66667 15.1706 1.66667 15.8337V17.5003C1.66667 17.9606 1.29357 18.3337 0.833333 18.3337C0.373096 18.3337 0 17.9606 0 17.5003V15.8337C0 14.7286 0.438987 13.6688 1.22039 12.8874Z" fill="#589585"/>
<path fill-rule="evenodd" clip-rule="evenodd" d="M7.49992 3.33366C6.11921 3.33366 4.99992 4.45295 4.99992 5.83366C4.99992 7.21437 6.11921 8.33366 7.49992 8.33366C8.88063 8.33366 9.99992 7.21437 9.99992 5.83366C9.99992 4.45295 8.88063 3.33366 7.49992 3.33366ZM3.33325 5.83366C3.33325 3.53247 5.19873 1.66699 7.49992 1.66699C9.8011 1.66699 11.6666 3.53247 11.6666 5.83366C11.6666 8.13485 9.8011 10.0003 7.49992 10.0003C5.19873 10.0003 3.33325 8.13485 3.33325 5.83366Z" fill="#589585"/>
<path fill-rule="evenodd" clip-rule="evenodd" d="M15.8597 12.3996C15.9747 11.954 16.4293 11.686 16.8749 11.8011C17.7688 12.0319 18.5607 12.553 19.1263 13.2827C19.6919 14.0123 19.9992 14.9091 19.9999 15.8323L19.9999 17.4996C19.9999 17.9599 19.6268 18.333 19.1665 18.333C18.7063 18.333 18.3332 17.9599 18.3332 17.4996L18.3332 15.8336C18.3332 15.8335 18.3332 15.8337 18.3332 15.8336C18.3327 15.2797 18.1484 14.7415 17.8091 14.3038C17.4697 13.866 16.9945 13.5533 16.4582 13.4148C16.0126 13.2998 15.7446 12.8452 15.8597 12.3996Z" fill="#589585"/>
<path fill-rule="evenodd" clip-rule="evenodd" d="M12.5262 2.40125C12.6404 1.95539 13.0944 1.6865 13.5402 1.80066C14.4365 2.03014 15.2309 2.55139 15.7982 3.28223C16.3655 4.01307 16.6734 4.91194 16.6734 5.83711C16.6734 6.76229 16.3655 7.66116 15.7982 8.392C15.2309 9.12284 14.4365 9.64409 13.5402 9.87357C13.0944 9.98773 12.6404 9.71883 12.5262 9.27298C12.4121 8.82712 12.681 8.37315 13.1268 8.25899C13.6646 8.1213 14.1412 7.80855 14.4816 7.37004C14.822 6.93154 15.0067 6.39222 15.0067 5.83711C15.0067 5.28201 14.822 4.74269 14.4816 4.30418C14.1412 3.86568 13.6646 3.55293 13.1268 3.41524C12.681 3.30108 12.4121 2.8471 12.5262 2.40125Z" fill="#589585"/>
</svg>
