<svg width="17" height="17" viewBox="0 0 17 17" fill="none" xmlns="http://www.w3.org/2000/svg">
<path d="M7.91493 0.355066L2.4047 6.14951C1.91849 6.66078 1.91849 7.51293 2.4047 8.0242L3.53916 9.21718C3.75525 9.44443 4.07936 9.61482 4.4035 9.61482C4.72764 9.61482 5.05175 9.5012 5.26785 9.21718L6.78044 7.62655L6.78044 15.6366C6.78044 16.3751 7.3747 17 8.07697 17L9.64359 17C10.2918 17 10.8321 16.3751 10.8321 15.6366L10.8321 7.68336L12.2907 9.21722C12.5068 9.44446 12.8309 9.61486 13.209 9.61486C13.5332 9.61486 13.8573 9.50124 14.1274 9.21722L15.2619 8.02423C15.478 7.79699 15.64 7.45616 15.64 7.11529C15.64 6.77443 15.532 6.4336 15.2619 6.20636L9.75164 0.411876C9.48152 0.127824 9.15738 0.0142037 8.83327 0.0142037C8.50916 -0.0426066 8.18505 0.0710141 7.91493 0.355066ZM8.99534 1.15038L14.5056 6.94486C14.6136 7.05848 14.6136 7.11526 14.5056 7.22891L13.3711 8.4219C13.3171 8.47871 13.2631 8.47871 13.2091 8.47871C13.1551 8.47871 13.101 8.47871 13.047 8.4219L10.6701 5.92234C10.5081 5.75194 10.2919 5.69509 10.0758 5.80872C9.85975 5.92234 9.7517 6.09277 9.7517 6.31998L9.7517 15.6366C9.7517 15.7502 9.69768 15.8638 9.64365 15.8638L8.07704 15.8638C7.96899 15.8638 7.86094 15.7502 7.86094 15.6366L7.86094 6.20632C7.86094 5.97908 7.7529 5.75184 7.5368 5.69506C7.32071 5.63825 7.10461 5.63825 6.94254 5.80868L4.51158 8.36506C4.45756 8.42187 4.40353 8.42187 4.40353 8.42187C4.34951 8.42187 4.34951 8.42187 4.29549 8.36506L3.16106 7.17207C3.10703 7.11526 3.05301 7.00167 3.16106 6.88802L8.67123 1.09357C8.72526 1.03676 8.77928 1.03676 8.83327 1.03676C8.88733 1.09357 8.94135 1.09357 8.99534 1.15038Z" fill="#589585"/>
</svg>
