<svg width="20" height="20" viewBox="0 0 20 20" fill="none" xmlns="http://www.w3.org/2000/svg">
<g opacity="0.5">
<path fill-rule="evenodd" clip-rule="evenodd" d="M11 3.75C11 3.33579 11.3358 3 11.75 3H16.25C16.6642 3 17 3.33579 17 3.75V8.25C17 8.66421 16.6642 9 16.25 9C15.8358 9 15.5 8.66421 15.5 8.25V4.5H11.75C11.3358 4.5 11 4.16421 11 3.75Z" fill="#A6A7AC"/>
<path fill-rule="evenodd" clip-rule="evenodd" d="M3.75 11C4.16421 11 4.5 11.3358 4.5 11.75V15.5H8.25C8.66421 15.5 9 15.8358 9 16.25C9 16.6642 8.66421 17 8.25 17H3.75C3.33579 17 3 16.6642 3 16.25V11.75C3 11.3358 3.33579 11 3.75 11Z" fill="#A6A7AC"/>
<path fill-rule="evenodd" clip-rule="evenodd" d="M16.8047 3.19526C17.0651 3.45561 17.0651 3.87772 16.8047 4.13807L12.1381 8.80474C11.8777 9.06509 11.4556 9.06509 11.1953 8.80474C10.9349 8.54439 10.9349 8.12228 11.1953 7.86193L15.8619 3.19526C16.1223 2.93491 16.5444 2.93491 16.8047 3.19526Z" fill="#A6A7AC"/>
<path fill-rule="evenodd" clip-rule="evenodd" d="M8.80474 11.1953C9.06509 11.4556 9.06509 11.8777 8.80474 12.1381L4.13807 16.8047C3.87772 17.0651 3.45561 17.0651 3.19526 16.8047C2.93491 16.5444 2.93491 16.1223 3.19526 15.8619L7.86193 11.1953C8.12228 10.9349 8.54439 10.9349 8.80474 11.1953Z" fill="#A6A7AC"/>
</g>
</svg>
