<svg width="40" height="40" viewBox="0 0 40 40" fill="none" xmlns="http://www.w3.org/2000/svg">
<path d="M38.1823 20.1678V14.5458C38.1823 12.6395 36.7036 11.0892 34.8353 10.9388L29.6144 1.81965C29.1306 0.976257 28.3493 0.373454 27.4145 0.123146C26.4841 -0.125458 25.5111 0.00510802 24.6784 0.489788L6.78069 10.9095H3.63731C1.63186 10.9095 0.000976562 12.5403 0.000976562 14.5458V36.3637C0.000976562 38.3691 1.63177 40 3.63731 40H34.5459C36.5514 40 38.1823 38.3692 38.1823 36.3637V30.7417C39.2381 30.3652 40.0004 29.3656 40.0004 28.182V22.7275C40.0004 21.5439 39.2381 20.5443 38.1823 20.1678ZM32.7227 10.9095H24.7991L30.7419 7.44967L32.7227 10.9095ZM29.8386 5.87189L21.1857 10.9095H17.5965L28.9411 4.3045L29.8386 5.87189ZM25.5936 2.0611C26.0047 1.8205 26.4849 1.75659 26.9439 1.87914C27.4083 2.0034 27.7953 2.30348 28.0359 2.72339L28.0378 2.72671L13.9832 10.9095H10.3943L25.5936 2.0611ZM36.364 36.3637C36.364 37.3659 35.5482 38.1818 34.5459 38.1818H3.63731C2.63505 38.1818 1.81919 37.3659 1.81919 36.3637V14.5458C1.81919 13.5436 2.63505 12.7277 3.63731 12.7277H34.5459C35.5482 12.7277 36.364 13.5436 36.364 14.5458V20.0003H30.9096C27.9018 20.0003 25.4551 22.447 25.4551 25.4548C25.4551 28.4625 27.9018 30.9092 30.9096 30.9092H36.364V36.3637ZM38.1823 28.182C38.1823 28.6835 37.7748 29.0911 37.2731 29.0911H30.9096C28.9041 29.0911 27.2733 27.4603 27.2733 25.4548C27.2733 23.4493 28.9041 21.8184 30.9096 21.8184H37.2731C37.7747 21.8184 38.1823 22.2259 38.1823 22.7275V28.182Z" fill="#589585"/>
<path d="M30.9089 23.6367C29.9067 23.6367 29.0908 24.4526 29.0908 25.4548C29.0908 26.4571 29.9067 27.273 30.9089 27.273C31.9112 27.273 32.7271 26.4571 32.7271 25.4548C32.7272 24.4526 31.9113 23.6367 30.9089 23.6367Z" fill="#589585"/>
</svg>
