<svg width="14" height="14" viewBox="0 0 14 14" fill="none" xmlns="http://www.w3.org/2000/svg">
<path d="M12.9111 3.09982H10.4843V1.49304C10.4843 1.23533 10.2754 1.02637 10.0177 1.02637H3.98234C3.72463 1.02637 3.51567 1.2353 3.51567 1.49304V3.09982H1.08888C0.488469 3.09982 0 3.58829 0 4.1887V11.8846C0 12.485 0.488469 12.9735 1.08888 12.9735H12.9111C13.5115 12.9735 14 12.485 14 11.8846V4.1887C14 3.58829 13.5115 3.09982 12.9111 3.09982ZM4.44902 1.95972H9.55095V3.09982H4.44902V1.95972ZM13.0667 11.8846C13.0667 11.9704 12.9969 12.0402 12.9111 12.0402H1.08888C1.00311 12.0402 0.933324 11.9704 0.933324 11.8846V4.1887C0.933324 4.10292 1.00311 4.03314 1.08888 4.03314C1.39538 4.03314 12.5923 4.03314 12.9111 4.03314C12.9969 4.03314 13.0667 4.10292 13.0667 4.1887V11.8846Z" fill="#A6A7AC"/>
<path d="M11.0997 5.47559H2.90027C2.64255 5.47559 2.43359 5.68452 2.43359 5.94226C2.43359 6.2 2.64253 6.40894 2.90027 6.40894H11.0997C11.3574 6.40894 11.5664 6.2 11.5664 5.94226C11.5664 5.68452 11.3574 5.47559 11.0997 5.47559Z" fill="#A6A7AC"/>
<path d="M11.0997 7.57007H2.90027C2.64255 7.57007 2.43359 7.779 2.43359 8.03674C2.43359 8.29449 2.64253 8.50342 2.90027 8.50342H11.0997C11.3574 8.50342 11.5664 8.29449 11.5664 8.03674C11.5664 7.779 11.3574 7.57007 11.0997 7.57007Z" fill="#A6A7AC"/>
<path d="M11.0997 9.66455H2.90027C2.64255 9.66455 2.43359 9.87348 2.43359 10.1312C2.43359 10.389 2.64253 10.5979 2.90027 10.5979H11.0997C11.3574 10.5979 11.5664 10.389 11.5664 10.1312C11.5664 9.87348 11.3574 9.66455 11.0997 9.66455Z" fill="#A6A7AC"/>
</svg>
