<svg width="14" height="14" viewBox="0 0 14 14" fill="none" xmlns="http://www.w3.org/2000/svg">
<path fill-rule="evenodd" clip-rule="evenodd" d="M0.854272 9.02102C1.40125 8.47404 2.14312 8.16675 2.91667 8.16675H7.58333C8.35688 8.16675 9.09875 8.47404 9.64573 9.02102C10.1927 9.568 10.5 10.3099 10.5 11.0834V12.2501C10.5 12.5722 10.2388 12.8334 9.91667 12.8334C9.5945 12.8334 9.33333 12.5722 9.33333 12.2501V11.0834C9.33333 10.6193 9.14896 10.1742 8.82077 9.84598C8.49258 9.51779 8.04746 9.33342 7.58333 9.33342H2.91667C2.45254 9.33342 2.00742 9.51779 1.67923 9.84598C1.35104 10.1742 1.16667 10.6193 1.16667 11.0834V12.2501C1.16667 12.5722 0.905499 12.8334 0.583333 12.8334C0.261167 12.8334 0 12.5722 0 12.2501V11.0834C0 10.3099 0.307291 9.568 0.854272 9.02102Z" fill="#A6A7AC"/>
<path fill-rule="evenodd" clip-rule="evenodd" d="M5.24992 2.33341C4.28342 2.33341 3.49992 3.11692 3.49992 4.08341C3.49992 5.04991 4.28342 5.83341 5.24992 5.83341C6.21642 5.83341 6.99992 5.04991 6.99992 4.08341C6.99992 3.11692 6.21642 2.33341 5.24992 2.33341ZM2.33325 4.08341C2.33325 2.47258 3.63909 1.16675 5.24992 1.16675C6.86075 1.16675 8.16658 2.47258 8.16658 4.08341C8.16658 5.69425 6.86075 7.00008 5.24992 7.00008C3.63909 7.00008 2.33325 5.69425 2.33325 4.08341Z" fill="#A6A7AC"/>
<path fill-rule="evenodd" clip-rule="evenodd" d="M11.1019 8.68007C11.1825 8.36814 11.5006 8.18055 11.8126 8.2611C12.4383 8.42266 12.9926 8.78745 13.3886 9.2982C13.7845 9.80895 13.9996 10.4367 14.0001 11.083L14.0001 12.2501C14.0001 12.5722 13.7389 12.8334 13.4167 12.8334C13.0946 12.8334 12.8334 12.5722 12.8334 12.2501L12.8334 11.0838C12.8334 11.0838 12.8334 11.0839 12.8334 11.0838C12.8331 10.6962 12.704 10.3194 12.4665 10.013C12.2289 9.70653 11.8963 9.48765 11.5209 9.39072C11.209 9.31018 11.0214 8.99201 11.1019 8.68007Z" fill="#A6A7AC"/>
<path fill-rule="evenodd" clip-rule="evenodd" d="M8.76813 1.68122C8.84804 1.36912 9.16582 1.18089 9.47792 1.2608C10.1053 1.42144 10.6614 1.78631 11.0585 2.2979C11.4556 2.80949 11.6711 3.4387 11.6711 4.08632C11.6711 4.73395 11.4556 5.36315 11.0585 5.87474C10.6614 6.38633 10.1053 6.75121 9.47792 6.91184C9.16582 6.99175 8.84804 6.80353 8.76813 6.49143C8.68822 6.17933 8.87644 5.86154 9.18854 5.78163C9.56497 5.68525 9.89862 5.46633 10.1369 5.15937C10.3751 4.85242 10.5045 4.4749 10.5045 4.08632C10.5045 3.69775 10.3751 3.32022 10.1369 3.01327C9.89862 2.70632 9.56497 2.48739 9.18854 2.39101C8.87644 2.3111 8.68822 1.99331 8.76813 1.68122Z" fill="#A6A7AC"/>
</svg>
