<svg width="14" height="14" viewBox="0 0 14 14" fill="none" xmlns="http://www.w3.org/2000/svg">
<path d="M12.4961 0.246094C11.7621 0.246094 11.1496 0.77484 11.0185 1.47139C8.27545 2.63717 3.98163 2.65234 3.9375 2.65234H2.05078C0.91998 2.65234 0 3.57232 0 4.70312V6.67188C0 7.80268 0.91998 8.72266 2.05078 8.72266H3.60557L4.33032 12.1215C4.52752 13.0674 5.37187 13.7539 6.33801 13.7539C7.0403 13.7539 7.56148 13.1081 7.41874 12.4245L7.1222 11.001C7.92843 10.7376 8.56108 10.0897 8.80502 9.27719C9.57419 9.4179 10.3232 9.60993 11.0186 9.90415C11.1499 10.6004 11.7622 11.1289 12.4961 11.1289C13.3253 11.1289 14 10.4543 14 9.625V1.75C14 0.920746 13.3253 0.246094 12.4961 0.246094ZM8.56234 8.40427C8.1092 8.31942 5.78591 8.02386 4.34766 7.92641V3.46593C5.46533 3.43571 8.60839 3.27004 10.9922 2.36584V9.01138C10.2137 8.72235 9.38498 8.53847 8.56234 8.40427ZM0.820312 6.67188V4.70312C0.820312 4.02464 1.3723 3.47266 2.05078 3.47266H3.52734V7.90234H2.05078C1.3723 7.90234 0.820312 7.35036 0.820312 6.67188ZM6.33801 12.9336C5.75832 12.9336 5.25167 12.5217 5.133 11.9523L4.45145 8.75602C4.90377 8.78891 5.37742 8.83247 5.84325 8.88398L6.61574 12.592C6.65254 12.7683 6.51823 12.9336 6.33801 12.9336ZM6.95338 10.1906L6.7019 8.98352C7.12808 9.03309 7.55746 9.08417 7.98443 9.14506C7.80782 9.62402 7.43023 10.0073 6.95338 10.1906ZM13.1797 9.625C13.1797 10.0019 12.873 10.3086 12.4961 10.3086C12.1192 10.3086 11.8125 10.0019 11.8125 9.625V1.75C11.8125 1.37307 12.1192 1.06641 12.4961 1.06641C12.873 1.06641 13.1797 1.37307 13.1797 1.75V9.625Z" fill="#A6A7AC"/>
</svg>
