<svg width="34" height="34" viewBox="0 0 34 34" fill="none" xmlns="http://www.w3.org/2000/svg">
<path d="M18.2952 28.7424L26.0095 20.6301C26.6902 19.9144 26.6902 18.7213 26.0095 18.0056L24.4213 16.3354C24.1187 16.0173 23.665 15.7787 23.2112 15.7787C22.7574 15.7787 22.3036 15.9378 22.0011 16.3354L19.8835 18.5623L19.8835 7.34824C19.8835 6.31434 19.0515 5.43945 18.0683 5.43945L15.875 5.43945C14.9675 5.43945 14.2112 6.31429 14.2112 7.34824L14.2112 18.4827L12.1691 16.3353C11.8666 16.0172 11.4128 15.7787 10.8834 15.7787C10.4296 15.7787 9.97586 15.9377 9.5977 16.3353L8.00945 18.0055C7.70692 18.3237 7.48002 18.8008 7.48002 19.278C7.48002 19.7553 7.63129 20.2324 8.00945 20.5506L15.7238 28.6628C16.1019 29.0605 16.5557 29.2196 17.0095 29.2196C17.4632 29.2991 17.917 29.14 18.2952 28.7424ZM16.7826 27.6289L9.06827 19.5166C8.917 19.3576 8.917 19.2781 9.06827 19.119L10.6565 17.4488C10.7321 17.3693 10.8078 17.3693 10.8834 17.3693C10.959 17.3693 11.0346 17.3693 11.1102 17.4488L14.4379 20.9482C14.6648 21.1867 14.9674 21.2663 15.2699 21.1073C15.5724 20.9482 15.7237 20.7096 15.7237 20.3915L15.7237 7.34824C15.7237 7.18917 15.7993 7.0301 15.875 7.0301L18.0682 7.0301C18.2195 7.0301 18.3708 7.18917 18.3708 7.34824L18.3708 20.5506C18.3708 20.8687 18.522 21.1869 18.8246 21.2664C19.1271 21.3459 19.4296 21.3459 19.6565 21.1073L23.0599 17.5284C23.1355 17.4488 23.2111 17.4488 23.2111 17.4488C23.2868 17.4488 23.2868 17.4488 23.3624 17.5284L24.9506 19.1986C25.0262 19.2781 25.1019 19.4371 24.9506 19.5962L17.2363 27.7085C17.1607 27.788 17.0851 27.788 17.0095 27.788C16.9338 27.7085 16.8582 27.7085 16.7826 27.6289Z" fill="#A6A7AC"/>
</svg>
