<svg width="34" height="34" viewBox="0 0 34 34" fill="none" xmlns="http://www.w3.org/2000/svg">
<path d="M15.9121 22.5252H18.0881V21.4202H19.1761C19.7745 21.4202 20.2641 20.9229 20.2641 20.3152V17.0002C20.2641 16.3924 19.7745 15.8952 19.1761 15.8952H15.9121V14.7902L20.2641 14.7902V12.5802L18.0881 12.5802V11.4752H15.9121V12.5802H14.8241C14.2257 12.5802 13.7361 13.0774 13.7361 13.6852L13.7361 17.0002C13.7361 17.6079 14.2257 18.1052 14.8241 18.1052H18.0881V19.2102H13.7361V21.4202H15.9121V22.5252ZM25.7041 8.16016L8.29612 8.16016C7.08844 8.16016 6.131 9.14361 6.131 10.3702L6.12012 23.6302C6.12012 24.8567 7.08844 25.8402 8.29612 25.8402L25.7041 25.8402C26.9118 25.8402 27.8801 24.8567 27.8801 23.6302L27.8801 10.3702C27.8801 9.14361 26.9118 8.16016 25.7041 8.16016ZM25.7041 23.6302L8.29612 23.6302L8.29612 10.3702L25.7041 10.3702L25.7041 23.6302Z" fill="#A6A7AC"/>
</svg>
