<svg width="45" height="45" viewBox="0 0 45 45" fill="none" xmlns="http://www.w3.org/2000/svg">
<path d="M22.5 29.3568C23.985 29.3568 25.2 28.161 25.2 26.6996C25.2 25.2382 23.985 24.0425 22.5 24.0425C21.015 24.0425 19.8 25.2382 19.8 26.6996C19.8 28.161 21.015 29.3568 22.5 29.3568ZM30.5999 17.3996H29.25V14.7425C29.25 11.0756 26.226 8.09961 22.5 8.09961C18.774 8.09961 15.75 11.0756 15.75 14.7425H18.3149C18.3149 12.4706 20.1915 10.6239 22.5 10.6239C24.8085 10.6239 26.685 12.4706 26.685 14.7425V17.3996H14.4C12.915 17.3996 11.7 18.5953 11.7 20.0568L11.7 33.3425C11.7 34.8039 12.915 35.9996 14.4 35.9996H30.5999C32.0849 35.9996 33.2999 34.8039 33.2999 33.3425V20.0568C33.2999 18.5953 32.0849 17.3996 30.5999 17.3996ZM30.5999 33.3425H14.4L14.4 20.0568L30.5999 20.0568V33.3425Z" fill="#A6A7AC"/>
</svg>
