<svg width="34" height="34" viewBox="0 0 34 34" fill="none" xmlns="http://www.w3.org/2000/svg">
<path d="M27.2001 14.8701L19.5155 14.8701L22.6211 11.6741C19.5269 8.61411 14.5172 8.50078 11.423 11.5608C8.32877 14.6321 8.32877 19.5848 11.423 22.6561C14.5172 25.7274 19.5269 25.7274 22.6211 22.6561C24.1625 21.1374 24.9332 19.3581 24.9332 17.1141H27.2001C27.2001 19.3581 26.2027 22.2708 24.2078 24.2428C20.2296 28.1868 13.7691 28.1868 9.79087 24.2428C5.82394 20.3101 5.78993 13.9181 9.7682 9.98545C13.7465 6.05278 20.1276 6.05278 24.1058 9.98545L27.2001 6.80078V14.8701ZM17.5661 12.4674V17.2841L21.533 19.6414L20.7169 21.0128L15.866 18.1341V12.4674H17.5661Z" fill="#A6A7AC"/>
</svg>
