<svg width="45" height="45" viewBox="0 0 45 45" fill="none" xmlns="http://www.w3.org/2000/svg">
<path d="M22.5 12.2063C24.4575 12.2063 26.0438 13.7925 26.0438 15.75C26.0438 17.7075 24.4575 19.2938 22.5 19.2938C20.5425 19.2938 18.9562 17.7075 18.9562 15.75C18.9562 13.7925 20.5425 12.2063 22.5 12.2063ZM22.5 27.3937C27.5119 27.3937 32.7938 29.8575 32.7938 30.9375V32.7938H12.2063V30.9375C12.2063 29.8575 17.4881 27.3937 22.5 27.3937ZM22.5 9C18.7706 9 15.75 12.0206 15.75 15.75C15.75 19.4794 18.7706 22.5 22.5 22.5C26.2294 22.5 29.25 19.4794 29.25 15.75C29.25 12.0206 26.2294 9 22.5 9ZM22.5 24.1875C17.9944 24.1875 9 26.4487 9 30.9375V36H36V30.9375C36 26.4487 27.0056 24.1875 22.5 24.1875Z" fill="#A6A7AC"/>
</svg>
