<svg width="27" height="29" viewBox="0 0 27 29" fill="none" xmlns="http://www.w3.org/2000/svg">
<path fill-rule="evenodd" clip-rule="evenodd" d="M13.106 19.0444V22.2515H15.5446V17.2892L14.8495 17.6025C14.7924 17.7798 14.7104 17.9526 14.6045 18.1177C14.3895 18.46 14.0275 18.736 13.5787 18.9C13.4257 18.9575 13.2676 19.0057 13.106 19.0444ZM13.1231 18.3807L13.106 18.3884V18.3921C13.1117 18.3883 13.1175 18.3846 13.1231 18.3807Z" fill="#47A68A"/>
<path d="M22.9697 0L19.5046 5.67647H20.7237V19.9885L16.8507 24.049H4.19464L0 28.3333H18.9583L24.9375 22.1411V5.67647H26.4444L22.9697 0Z" fill="#47A68A"/>
<path d="M17.4526 5.83132L19.8333 1.88892H5.7978L0 7.95416V28.3334L4.03876 24.1083V10.077L7.82704 5.83132H17.4526Z" fill="#21232F"/>
<path d="M18.889 11.3333H16.0557V21.7222L18.889 18.7768V11.3333Z" fill="#47A68A"/>
<path fill-rule="evenodd" clip-rule="evenodd" d="M10.2607 16.8839H10.1343C10.1771 16.8903 10.2194 16.8996 10.2607 16.9117V16.8839ZM11.4829 19.1616C10.7022 19.1616 10.1323 18.9916 9.7733 18.6516C9.64221 18.5381 9.53285 18.4081 9.44775 18.2666V22.2007H11.8864V19.1404C11.7529 19.1549 11.6181 19.1619 11.4829 19.1616Z" fill="#47A68A"/>
<path d="M11.8261 17.9445C11.1837 17.9445 10.7148 17.7984 10.4194 17.5061C10.1458 17.2588 9.98704 16.9193 9.97779 16.5617C9.97448 16.4531 10.0011 16.3455 10.0551 16.2496C10.1056 16.1666 10.1784 16.0979 10.2661 16.0502C10.3681 16.0022 10.4806 15.9772 10.5946 15.9772C10.7086 15.9772 10.821 16.0022 10.923 16.0502C11.0106 16.0977 11.0831 16.1665 11.1327 16.2496C11.1884 16.345 11.216 16.4528 11.2129 16.5617C11.2186 16.6918 11.1791 16.8201 11.1004 16.9269C11.0347 17.0142 10.9409 17.079 10.8331 17.1116C10.9386 17.2386 11.0879 17.3264 11.255 17.36C11.442 17.4113 11.6356 17.4377 11.8303 17.4384C12.0881 17.4405 12.3405 17.3693 12.5547 17.2339C12.7769 17.0857 12.9426 16.8737 13.0273 16.6296C13.1346 16.339 13.187 16.0329 13.182 15.7252C13.1907 15.4044 13.1334 15.0851 13.0132 14.7848C12.9228 14.5447 12.7513 14.3394 12.5251 14.2005C12.3149 14.0748 12.0708 14.0089 11.822 14.0106C11.6052 14.0278 11.3961 14.0949 11.2129 14.2058L10.7613 14.4196V14.2058L12.7909 11.6348H9.97779V14.3028C9.96985 14.4953 10.0238 14.6856 10.1326 14.8486C10.1852 14.9197 10.2563 14.9766 10.3391 15.0141C10.4219 15.0515 10.5136 15.0682 10.6052 15.0624C10.7744 15.0592 10.9381 15.0047 11.0721 14.907C11.224 14.8019 11.3562 14.6735 11.4631 14.5272C11.4727 14.5015 11.4905 14.4793 11.514 14.4634C11.5328 14.448 11.5569 14.4396 11.5818 14.4395C11.6307 14.4438 11.6769 14.4623 11.7141 14.4926C11.7611 14.5423 11.7867 14.6067 11.7857 14.6733C11.7804 14.718 11.7719 14.7623 11.7604 14.8061C11.6605 15.0344 11.493 15.2308 11.2779 15.3717C11.0783 15.4993 10.8423 15.5669 10.6012 15.5658C9.99214 15.5658 9.57016 15.4524 9.33535 15.2258C9.21465 15.1005 9.12163 14.9538 9.06173 14.7941C9.00184 14.6345 8.97626 14.4651 8.98651 14.2961V11.6348H7.55566V11.1391H8.99317V10.0089L8.66405 9.69795V9.44446H9.61909L9.97779 9.61975V11.1391L13.6939 11.1284L14.0639 11.4791L11.7853 13.6411C11.9229 13.5888 12.0678 13.5557 12.2156 13.5428C12.508 13.5549 12.7934 13.6318 13.0485 13.7673C13.3439 13.8999 13.5928 14.1096 13.7659 14.3718C13.9208 14.5937 14.0306 14.841 14.0894 15.1009C14.1377 15.306 14.1637 15.5152 14.1668 15.7252C14.1683 16.1261 14.072 16.5218 13.8854 16.882C13.7085 17.2306 13.4107 17.5118 13.0415 17.6789C12.6634 17.8547 12.2475 17.9457 11.8261 17.9445Z" fill="#47A68A"/>
</svg>
