<svg width="170" height="29" viewBox="0 0 170 29" fill="none" xmlns="http://www.w3.org/2000/svg">
<g clip-path="url(#clip0)">
<path d="M46.2778 25.1315V24.1513C46.7663 24.5188 47.3041 24.7027 47.8909 24.7027C48.6784 24.7027 49.0721 24.4354 49.0721 23.9007C49.0721 23.7485 49.0375 23.6203 48.9682 23.5164C48.9026 23.4087 48.8115 23.314 48.6948 23.2323C48.5818 23.1506 48.4469 23.0783 48.2902 23.0151C48.1371 22.9483 47.9711 22.8796 47.7925 22.809C47.5446 22.7088 47.3259 22.6085 47.1363 22.5083C46.9504 22.4043 46.7937 22.2892 46.6661 22.163C46.5421 22.0331 46.4474 21.8864 46.3817 21.723C46.3198 21.5596 46.2888 21.3684 46.2888 21.1494C46.2888 20.882 46.3489 20.6462 46.4692 20.442C46.5895 20.2341 46.7499 20.0614 46.9504 19.924C47.1509 19.7829 47.3788 19.6772 47.634 19.6066C47.8927 19.5361 48.1589 19.5007 48.4323 19.5007C48.9172 19.5007 49.351 19.5861 49.7337 19.757V20.6815C49.3218 20.4067 48.8479 20.2693 48.312 20.2693C48.1443 20.2693 47.993 20.2897 47.8582 20.3306C47.7233 20.3677 47.6066 20.4216 47.5082 20.4921C47.4134 20.5627 47.3386 20.648 47.2839 20.7483C47.2329 20.8449 47.2074 20.9525 47.2074 21.0713C47.2074 21.2199 47.2329 21.3443 47.2839 21.4445C47.3386 21.5448 47.417 21.6339 47.5191 21.7119C47.6212 21.7898 47.7451 21.8603 47.8909 21.9235C48.0368 21.9866 48.2026 22.0553 48.3886 22.1296C48.6365 22.2261 48.8588 22.3263 49.0557 22.4303C49.2525 22.5306 49.4203 22.6456 49.5587 22.7756C49.6973 22.9019 49.8031 23.0485 49.876 23.2156C49.9525 23.3827 49.9908 23.5814 49.9908 23.8116C49.9908 24.0938 49.9288 24.3388 49.8049 24.5467C49.6845 24.7547 49.5223 24.9273 49.3182 25.0647C49.114 25.2021 48.8789 25.3042 48.6128 25.371C48.3466 25.4379 48.0677 25.4713 47.7761 25.4713C47.2001 25.4713 46.7007 25.358 46.2778 25.1315Z" fill="#21232F"/>
<path d="M60.8928 25.3376H59.996V22.0627C59.996 21.4316 59.8993 20.9748 59.7062 20.6926C59.5166 20.4104 59.1958 20.2693 58.7437 20.2693C58.3609 20.2693 58.0347 20.4475 57.7649 20.8041C57.4988 21.1605 57.3658 21.5875 57.3658 22.085V25.3376H56.4689V21.9514C56.4689 20.83 56.0442 20.2693 55.1949 20.2693C54.8011 20.2693 54.4766 20.4383 54.2214 20.7762C53.9663 21.1103 53.8387 21.5466 53.8387 22.085V25.3376H52.9419V19.6344H53.8387V20.5367H53.8606C54.2579 19.846 54.8376 19.5007 55.5995 19.5007C55.9822 19.5007 56.3158 19.6103 56.6002 19.8293C56.8846 20.0447 57.0796 20.3287 57.1853 20.6815C57.6008 19.8943 58.2206 19.5007 59.0445 19.5007C60.2766 19.5007 60.8928 20.2749 60.8928 21.8232V25.3376Z" fill="#21232F"/>
<path d="M68.1641 25.3376H67.2673V24.4465H67.2454C66.8554 25.1297 66.2812 25.4713 65.5229 25.4713C64.9652 25.4713 64.5277 25.3209 64.2106 25.0202C63.897 24.7194 63.7402 24.3202 63.7402 23.8227C63.7402 22.7571 64.3564 22.137 65.5885 21.9625L67.2673 21.723C67.2673 20.7539 66.8827 20.2693 66.1135 20.2693C65.4391 20.2693 64.8303 20.5033 64.2871 20.9711V20.0354C64.8376 19.6789 65.4719 19.5007 66.19 19.5007C67.5061 19.5007 68.1641 20.2099 68.1641 21.6283V25.3376ZM67.2673 22.4526L65.9166 22.642C65.5011 22.7014 65.1875 22.8072 64.976 22.9594C64.7647 23.1079 64.6589 23.3734 64.6589 23.7558C64.6589 24.0343 64.7555 24.2627 64.9487 24.4409C65.1456 24.6155 65.4062 24.7027 65.7307 24.7027C66.1755 24.7027 66.5418 24.5449 66.8298 24.2293C67.1214 23.91 67.2673 23.5071 67.2673 23.0207V22.4526Z" fill="#21232F"/>
<path d="M74.3419 20.5589C74.1851 20.4363 73.9591 20.3751 73.6639 20.3751C73.2811 20.3751 72.9603 20.5589 72.7014 20.9265C72.4462 21.2941 72.3186 21.7953 72.3186 22.4303V25.3375H71.4219V19.6343H72.3186V20.8095H72.3405C72.4681 20.4086 72.6632 20.0966 72.9256 19.8738C73.1881 19.6474 73.4816 19.5341 73.806 19.5341C74.0393 19.5341 74.218 19.5601 74.3419 19.6121V20.5589Z" fill="#21232F"/>
<path d="M79.4805 25.282C79.2691 25.4008 78.9902 25.4602 78.6439 25.4602C77.6632 25.4602 77.1729 24.9031 77.1729 23.7893V20.4142H76.2104V19.6344H77.1729V18.2421L78.0697 17.9468V19.6344H79.4805V20.4142H78.0697V23.6278C78.0697 24.0102 78.1335 24.2831 78.2611 24.4465C78.3887 24.6099 78.6002 24.6916 78.8954 24.6916C79.1214 24.6916 79.3164 24.6284 79.4805 24.5022V25.282Z" fill="#21232F"/>
<path d="M87.3462 18.1863C87.1858 18.1863 87.0491 18.1306 86.9361 18.0192C86.8231 17.9078 86.7666 17.7667 86.7666 17.5959C86.7666 17.4251 86.8231 17.2841 86.9361 17.1726C87.0491 17.0575 87.1858 17 87.3462 17C87.5103 17 87.6488 17.0575 87.7619 17.1726C87.8785 17.2841 87.9368 17.4251 87.9368 17.5959C87.9368 17.7593 87.8785 17.8985 87.7619 18.0137C87.6488 18.1288 87.5103 18.1863 87.3462 18.1863ZM87.7837 25.3376H86.8869V19.6343H87.7837V25.3376Z" fill="#21232F"/>
<path d="M95.8148 25.3376H94.9185V22.085C94.9185 20.8745 94.4841 20.2693 93.6168 20.2693C93.1684 20.2693 92.7965 20.442 92.5012 20.7873C92.2096 21.129 92.0637 21.5615 92.0637 22.085V25.3376H91.167V19.6344H92.0637V20.5813H92.0857C92.5085 19.8609 93.121 19.5007 93.923 19.5007C94.5351 19.5007 95.0035 19.7031 95.3284 20.1078C95.6524 20.5088 95.8148 21.0899 95.8148 21.8511V25.3376Z" fill="#21232F"/>
<path d="M103.48 19.6343L101.249 25.3376H100.369L98.2466 19.6343H99.2307L100.653 23.7781C100.759 24.0826 100.824 24.3481 100.849 24.5745H100.871C100.908 24.2887 100.967 24.0306 101.047 23.8004L102.533 19.6343H103.48Z" fill="#21232F"/>
<path d="M110.516 22.7144H106.563C106.577 23.3492 106.745 23.8394 107.066 24.1847C107.386 24.53 107.827 24.7027 108.389 24.7027C109.02 24.7027 109.599 24.4911 110.128 24.0678V24.9254C109.636 25.2893 108.985 25.4713 108.176 25.4713C107.384 25.4713 106.763 25.2132 106.311 24.6972C105.859 24.1773 105.633 23.4477 105.633 22.5083C105.633 21.6209 105.879 20.8987 106.371 20.3418C106.867 19.781 107.482 19.5007 108.214 19.5007C108.946 19.5007 109.514 19.7421 109.914 20.2247C110.316 20.7074 110.516 21.3777 110.516 22.2354V22.7144ZM109.597 21.9402C109.594 21.4129 109.468 21.0027 109.22 20.7093C108.976 20.416 108.635 20.2693 108.197 20.2693C107.774 20.2693 107.415 20.4235 107.121 20.7316C106.825 21.0398 106.643 21.4427 106.574 21.9402H109.597Z" fill="#21232F"/>
<path d="M113.106 25.1315V24.1513C113.595 24.5188 114.133 24.7027 114.72 24.7027C115.507 24.7027 115.901 24.4354 115.901 23.9007C115.901 23.7485 115.866 23.6203 115.797 23.5164C115.731 23.4087 115.64 23.314 115.523 23.2323C115.41 23.1506 115.276 23.0783 115.119 23.0151C114.966 22.9483 114.8 22.8796 114.621 22.809C114.373 22.7088 114.155 22.6085 113.965 22.5083C113.779 22.4043 113.622 22.2892 113.495 22.163C113.371 22.0331 113.276 21.8864 113.21 21.723C113.148 21.5596 113.118 21.3684 113.118 21.1494C113.118 20.882 113.177 20.6462 113.298 20.442C113.418 20.2341 113.579 20.0614 113.779 19.924C113.979 19.7829 114.208 19.6772 114.463 19.6066C114.721 19.5361 114.988 19.5007 115.261 19.5007C115.746 19.5007 116.18 19.5861 116.562 19.757V20.6815C116.15 20.4067 115.676 20.2693 115.141 20.2693C114.973 20.2693 114.822 20.2897 114.686 20.3306C114.551 20.3677 114.435 20.4216 114.337 20.4921C114.242 20.5627 114.167 20.648 114.112 20.7483C114.061 20.8449 114.036 20.9525 114.036 21.0713C114.036 21.2199 114.061 21.3443 114.112 21.4445C114.167 21.5448 114.245 21.6339 114.347 21.7119C114.449 21.7898 114.574 21.8603 114.72 21.9235C114.865 21.9866 115.031 22.0553 115.217 22.1296C115.465 22.2261 115.688 22.3263 115.884 22.4303C116.081 22.5306 116.249 22.6456 116.387 22.7756C116.526 22.9019 116.632 23.0485 116.705 23.2156C116.781 23.3827 116.819 23.5814 116.819 23.8116C116.819 24.0938 116.758 24.3388 116.633 24.5467C116.513 24.7547 116.351 24.9273 116.147 25.0647C115.943 25.2021 115.707 25.3042 115.441 25.371C115.175 25.4379 114.896 25.4713 114.604 25.4713C114.029 25.4713 113.53 25.358 113.106 25.1315Z" fill="#21232F"/>
<path d="M122.369 25.282C122.157 25.4008 121.878 25.4602 121.532 25.4602C120.551 25.4602 120.061 24.9031 120.061 23.7893V20.4142H119.098V19.6344H120.061V18.2421L120.958 17.9468V19.6344H122.369V20.4142H120.958V23.6278C120.958 24.0102 121.021 24.2831 121.149 24.4465C121.276 24.6099 121.488 24.6916 121.783 24.6916C122.009 24.6916 122.204 24.6284 122.369 24.5022V25.282Z" fill="#21232F"/>
<path d="M133.085 25.3376H132.188V22.0627C132.188 21.4316 132.091 20.9748 131.898 20.6926C131.709 20.4104 131.387 20.2693 130.936 20.2693C130.553 20.2693 130.227 20.4475 129.957 20.8041C129.691 21.1605 129.558 21.5875 129.558 22.085V25.3376H128.661V21.9514C128.661 20.83 128.236 20.2693 127.387 20.2693C126.993 20.2693 126.669 20.4383 126.413 20.7762C126.158 21.1103 126.031 21.5466 126.031 22.085V25.3376H125.134V19.6344H126.031V20.5367H126.052C126.45 19.846 127.03 19.5007 127.792 19.5007C128.174 19.5007 128.508 19.6103 128.792 19.8293C129.076 20.0447 129.272 20.3287 129.378 20.6815C129.793 19.8943 130.413 19.5007 131.236 19.5007C132.469 19.5007 133.085 20.2749 133.085 21.8232V25.3376Z" fill="#21232F"/>
<path d="M140.848 22.7144H136.894C136.909 23.3492 137.076 23.8394 137.398 24.1847C137.719 24.53 138.16 24.7027 138.721 24.7027C139.352 24.7027 139.931 24.4911 140.459 24.0678V24.9254C139.967 25.2893 139.317 25.4713 138.507 25.4713C137.717 25.4713 137.094 25.2132 136.643 24.6972C136.191 24.1773 135.965 23.4477 135.965 22.5083C135.965 21.6209 136.21 20.8987 136.703 20.3418C137.198 19.781 137.813 19.5007 138.546 19.5007C139.279 19.5007 139.846 19.7421 140.246 20.2247C140.647 20.7074 140.848 21.3777 140.848 22.2354V22.7144ZM139.93 21.9402C139.926 21.4129 139.8 21.0027 139.552 20.7093C139.307 20.416 138.967 20.2693 138.529 20.2693C138.107 20.2693 137.747 20.4235 137.452 20.7316C137.157 21.0398 136.974 21.4427 136.906 21.9402H139.93Z" fill="#21232F"/>
<path d="M148.426 25.3376H147.529V22.085C147.529 20.8745 147.095 20.2693 146.227 20.2693C145.779 20.2693 145.407 20.442 145.112 20.7873C144.82 21.129 144.675 21.5615 144.675 22.085V25.3376H143.777V19.6344H144.675V20.5813H144.696C145.119 19.8609 145.731 19.5007 146.533 19.5007C147.146 19.5007 147.615 19.7031 147.939 20.1078C148.263 20.5088 148.426 21.0899 148.426 21.8511V25.3376Z" fill="#21232F"/>
<path d="M154.286 25.282C154.075 25.4008 153.796 25.4602 153.449 25.4602C152.469 25.4602 151.978 24.9031 151.978 23.7893V20.4142H151.016V19.6344H151.978V18.2421L152.875 17.9468V19.6344H154.286V20.4142H152.875V23.6278C152.875 24.0102 152.939 24.2831 153.067 24.4465C153.194 24.6099 153.406 24.6916 153.701 24.6916C153.927 24.6916 154.122 24.6284 154.286 24.5022V25.282Z" fill="#21232F"/>
<path d="M42.1834 6.8236C44.1466 6.69018 45.0805 5.31783 45.0805 3.79301C45.0805 1.60107 43.1173 0.400269 40.182 0.400269H31.1665V13.7425H40.7348C43.8797 13.7425 45.8429 12.4845 45.8429 10.0829C45.8429 7.91003 44.2609 6.95702 42.1834 6.8236ZM33.4156 2.3063H39.8199C41.6115 2.3063 42.8124 2.68751 42.8124 4.15515C42.8124 5.62279 41.6115 6.02306 39.8199 6.02306H33.4156V2.3063ZM40.2964 11.8364H33.4156V7.87191H40.2964C42.2977 7.87191 43.4985 8.34842 43.4985 9.85423C43.4985 11.36 42.2977 11.8364 40.2964 11.8364Z" fill="#47A68A"/>
<path d="M61.9046 0.400269V7.3001C61.9046 10.2925 60.1321 12.1033 56.93 12.1033C53.7469 12.1033 51.9743 10.2925 51.9743 7.3001V0.400269H49.687V7.45259C49.687 11.3981 52.222 14.1428 56.93 14.1428C61.6569 14.1428 64.1919 11.3981 64.1919 7.45259V0.400269H61.9046Z" fill="#47A68A"/>
<path d="M67.209 0.400269L73.7849 9.12989V13.7425H76.072V9.12989L82.6288 0.400269H79.9985L74.9475 7.16668L69.8584 0.400269H67.209Z" fill="#47A68A"/>
<path d="M98.2942 0.400269H83.8848V2.4016H89.9268V13.7425H92.2141V2.4016H98.2942V0.400269Z" fill="#21232F"/>
<path d="M104.011 11.7411V7.96721H113.121V5.96588H104.011V2.4016H114.837V0.400269H101.742V13.7425H115.027V11.7411H104.011Z" fill="#21232F"/>
<path d="M132.058 0.400269H118.277V2.36348H128.627L117.934 12.1414V13.7425H132.363V11.7793H121.365L132.058 2.00134V0.400269Z" fill="#21232F"/>
<path d="M143.323 14.1428C148.45 14.1428 151.614 11.4743 151.614 7.07138C151.614 2.66844 148.45 0 143.323 0C138.196 0 135.032 2.66844 135.032 7.07138C135.032 11.4743 138.196 14.1428 143.323 14.1428ZM143.323 12.1223C139.682 12.1223 137.357 10.3116 137.357 7.07138C137.357 3.83112 139.701 2.02039 143.323 2.02039C146.944 2.02039 149.269 3.83112 149.269 7.07138C149.269 10.3116 146.944 12.1223 143.323 12.1223Z" fill="#21232F"/>
<path d="M162.448 5.85151C159.532 5.62279 157.301 5.37501 157.301 3.96454C157.301 2.47784 159.817 1.96321 161.934 1.98228C164.145 2.00133 166.032 2.57314 167.404 3.77394L168.852 2.21099C167.251 0.857712 164.793 0 161.895 0C158.064 0 154.995 1.46764 154.995 4.11703C154.995 6.84265 158.465 7.66225 162.143 7.96721C165.497 8.25311 167.174 8.61526 167.174 9.98759C167.174 11.379 165.536 12.1605 162.563 12.1605C159.875 12.1605 157.74 11.4362 155.929 9.81608L154.5 11.4362C156.578 13.2279 159.341 14.1428 162.467 14.1428C167.003 14.1428 169.501 12.332 169.501 9.797C169.501 7.01419 166.603 6.17554 162.448 5.85151Z" fill="#21232F"/>
<path fill-rule="evenodd" clip-rule="evenodd" d="M13.106 19.0444V22.2515H15.5446V17.2892L14.8495 17.6025C14.7924 17.7798 14.7104 17.9526 14.6045 18.1177C14.3895 18.46 14.0275 18.736 13.5787 18.9C13.4257 18.9575 13.2676 19.0057 13.106 19.0444ZM13.1231 18.3807L13.106 18.3884V18.3921C13.1117 18.3883 13.1175 18.3846 13.1231 18.3807Z" fill="#47A68A"/>
<path d="M22.9697 0L19.5046 5.67647H20.7237V19.9885L16.8507 24.049H4.19464L0 28.3333H18.9583L24.9375 22.1411V5.67647H26.4444L22.9697 0Z" fill="#47A68A"/>
<path d="M17.4526 5.83132L19.8333 1.88892H5.7978L0 7.95416V28.3334L4.03876 24.1083V10.077L7.82704 5.83132H17.4526Z" fill="#21232F"/>
<path d="M18.889 11.3333H16.0557V21.7222L18.889 18.7768V11.3333Z" fill="#47A68A"/>
<path fill-rule="evenodd" clip-rule="evenodd" d="M10.2607 16.8839H10.1343C10.1771 16.8903 10.2194 16.8996 10.2607 16.9117V16.8839ZM11.4829 19.1616C10.7022 19.1616 10.1323 18.9916 9.7733 18.6516C9.64221 18.5381 9.53285 18.4081 9.44775 18.2666V22.2007H11.8864V19.1404C11.7529 19.1549 11.6181 19.1619 11.4829 19.1616Z" fill="#47A68A"/>
<path d="M11.8261 17.9445C11.1837 17.9445 10.7148 17.7984 10.4194 17.5061C10.1458 17.2588 9.98704 16.9193 9.97779 16.5617C9.97448 16.4531 10.0011 16.3455 10.0551 16.2496C10.1056 16.1666 10.1784 16.0979 10.2661 16.0502C10.3681 16.0022 10.4806 15.9772 10.5946 15.9772C10.7086 15.9772 10.821 16.0022 10.923 16.0502C11.0106 16.0977 11.0831 16.1665 11.1327 16.2496C11.1884 16.345 11.216 16.4528 11.2129 16.5617C11.2186 16.6918 11.1791 16.8201 11.1004 16.9269C11.0347 17.0142 10.9409 17.079 10.8331 17.1116C10.9386 17.2386 11.0879 17.3264 11.255 17.36C11.442 17.4113 11.6356 17.4377 11.8303 17.4384C12.0881 17.4405 12.3405 17.3693 12.5547 17.2339C12.7769 17.0857 12.9426 16.8737 13.0273 16.6296C13.1346 16.339 13.187 16.0329 13.182 15.7252C13.1907 15.4044 13.1334 15.0851 13.0132 14.7848C12.9228 14.5447 12.7513 14.3394 12.5251 14.2005C12.3149 14.0748 12.0708 14.0089 11.822 14.0106C11.6052 14.0278 11.3961 14.0949 11.2129 14.2058L10.7613 14.4196V14.2058L12.7909 11.6348H9.97779V14.3028C9.96985 14.4953 10.0238 14.6856 10.1326 14.8486C10.1852 14.9197 10.2563 14.9766 10.3391 15.0141C10.4219 15.0515 10.5136 15.0682 10.6052 15.0624C10.7744 15.0592 10.9381 15.0047 11.0721 14.907C11.224 14.8019 11.3562 14.6735 11.4631 14.5272C11.4727 14.5015 11.4905 14.4793 11.514 14.4634C11.5328 14.448 11.5569 14.4396 11.5818 14.4395C11.6307 14.4438 11.6769 14.4623 11.7141 14.4926C11.7611 14.5423 11.7867 14.6067 11.7857 14.6733C11.7804 14.718 11.7719 14.7623 11.7604 14.8061C11.6605 15.0344 11.493 15.2308 11.2779 15.3717C11.0783 15.4993 10.8423 15.5669 10.6012 15.5658C9.99214 15.5658 9.57016 15.4524 9.33535 15.2258C9.21465 15.1005 9.12163 14.9538 9.06173 14.7941C9.00184 14.6345 8.97626 14.4651 8.98651 14.2961V11.6348H7.55566V11.1391H8.99317V10.0089L8.66405 9.69795V9.44446H9.61909L9.97779 9.61975V11.1391L13.6939 11.1284L14.0639 11.4791L11.7853 13.6411C11.9229 13.5888 12.0678 13.5557 12.2156 13.5428C12.508 13.5549 12.7934 13.6318 13.0485 13.7673C13.3439 13.8999 13.5928 14.1096 13.7659 14.3718C13.9208 14.5937 14.0306 14.841 14.0894 15.1009C14.1377 15.306 14.1637 15.5152 14.1668 15.7252C14.1683 16.1261 14.072 16.5218 13.8854 16.882C13.7085 17.2306 13.4107 17.5118 13.0415 17.6789C12.6634 17.8547 12.2475 17.9457 11.8261 17.9445Z" fill="#47A68A"/>
</g>
<defs>
<clipPath id="clip0">
<rect width="170" height="28.3333" fill="white"/>
</clipPath>
</defs>
</svg>
