<svg width="26" height="26" viewBox="0 0 26 26" fill="none" xmlns="http://www.w3.org/2000/svg">
<path d="M12.5938 13.8125C10.8017 13.8125 9.34375 12.3546 9.34375 10.5625C9.34375 8.77043 10.8017 7.3125 12.5938 7.3125C14.3858 7.3125 15.8438 8.77043 15.8438 10.5625C15.8438 12.3546 14.3858 13.8125 12.5938 13.8125ZM12.5938 8.9375C11.6977 8.9375 10.9688 9.66646 10.9688 10.5625C10.9688 11.4585 11.6977 12.1875 12.5938 12.1875C13.4898 12.1875 14.2188 11.4585 14.2188 10.5625C14.2188 9.66646 13.4898 8.9375 12.5938 8.9375Z" fill="#589585"/>
<path d="M25.1875 14.6688V11.3313C25.6896 10.8182 26 10.1167 26 9.3438C26 8.57091 25.6896 7.86937 25.1875 7.35632V2.33594C25.1875 1.04792 24.1396 0 22.8516 0H2.33594C1.04792 0 0 1.04792 0 2.33594V23.6641C0 24.9521 1.04792 26 2.33594 26H22.8516C24.1396 26 25.1875 24.9521 25.1875 23.6641V18.6437C25.6896 18.1306 26 17.4291 26 16.6562C26 15.8834 25.6896 15.1818 25.1875 14.6688ZM24.375 9.34375C24.375 10.0158 23.8282 10.5625 23.1562 10.5625H22.3438V8.125H23.1562C23.8282 8.125 24.375 8.67171 24.375 9.34375ZM20.7188 7.3125V11.375V14.625V18.6875V20.8203C20.7188 21.2123 20.3998 21.5312 20.0078 21.5312H5.17969C4.78766 21.5312 4.46875 21.2123 4.46875 20.8203V5.17969C4.46875 4.78766 4.78766 4.46875 5.17969 4.46875H20.0078C20.3998 4.46875 20.7188 4.78766 20.7188 5.17969V7.3125ZM22.3438 12.1875H23.1562C23.2942 12.1875 23.4298 12.1771 23.5625 12.158V13.842C23.4298 13.8229 23.2942 13.8124 23.1562 13.8124H22.3438V12.1875ZM22.3438 15.4375H23.1562C23.8282 15.4375 24.375 15.9842 24.375 16.6562C24.375 17.3283 23.8282 17.875 23.1562 17.875H22.3438V15.4375ZM22.8516 24.375H2.33594C1.94391 24.375 1.625 24.0561 1.625 23.6641V2.33594C1.625 1.94391 1.94391 1.625 2.33594 1.625H22.8516C23.2436 1.625 23.5625 1.94391 23.5625 2.33594V6.5295C23.4298 6.51041 23.2942 6.5 23.1562 6.5H22.3438V5.17969C22.3438 3.89167 21.2958 2.84375 20.0078 2.84375H5.17969C3.89167 2.84375 2.84375 3.89167 2.84375 5.17969V20.8203C2.84375 22.1083 3.89167 23.1562 5.17969 23.1562H20.0078C21.2958 23.1562 22.3438 22.1083 22.3438 20.8203V19.5H23.1562C23.2942 19.5 23.4298 19.4896 23.5625 19.4705V23.6641C23.5625 24.0561 23.2436 24.375 22.8516 24.375Z" fill="#589585"/>
<path d="M7.3125 17.875C6.86375 17.875 6.5 17.5112 6.5 17.0625V13.8125C6.5 13.3638 6.86375 13 7.3125 13C7.76125 13 8.125 13.3638 8.125 13.8125V17.0625C8.125 17.5112 7.76125 17.875 7.3125 17.875Z" fill="#589585"/>
</svg>
