<svg width="26" height="26" viewBox="0 0 26 26" fill="none" xmlns="http://www.w3.org/2000/svg">
<g clip-path="url(#clip0)">
<path d="M15.5774 9.88623H10.8373C10.4426 9.88623 10.1131 10.1881 10.0786 10.5815L9.6638 15.3218C9.64515 15.5347 9.71676 15.7453 9.86097 15.9028C10.0054 16.0603 10.2091 16.1498 10.4227 16.1498H15.1628C15.5578 16.1498 15.8873 15.8481 15.9218 15.4545L16.3364 10.7144C16.355 10.5016 16.2834 10.2909 16.1392 10.1334C15.9948 9.97589 15.7911 9.88623 15.5774 9.88623ZM14.4648 14.6265H11.2539L11.5354 11.4097H14.7463L14.4648 14.6265Z" fill="#589585"/>
<path d="M23.0827 11.4099C23.8017 11.4099 24.4988 11.133 25.0455 10.6303C25.5914 10.1285 25.9266 9.45682 25.9893 8.73953C26.0544 7.99527 25.8215 7.29207 25.3335 6.75946C24.8471 6.22864 24.1705 5.93645 23.4266 5.93645H20.7045L20.9429 3.20953C21.0082 2.46507 20.7753 1.76187 20.2871 1.22926C19.8009 0.698639 19.1243 0.40625 18.382 0.40625C17.6629 0.40625 16.9659 0.683167 16.4192 1.18582C15.8733 1.68768 15.5381 2.35915 15.4754 3.07663L15.2251 5.93645H12.0141L12.2528 3.20934C12.3178 2.46507 12.0849 1.76187 11.597 1.22906C11.1106 0.698441 10.434 0.40625 9.69168 0.40625C8.97261 0.40625 8.27556 0.682968 7.72887 1.18562C7.18297 1.68768 6.84793 2.35915 6.78505 3.07663L6.53491 5.93625H3.67767C2.9586 5.93625 2.26155 6.21317 1.71486 6.71582C1.16896 7.21788 0.833726 7.88934 0.771043 8.60683C0.705979 9.35109 0.939057 10.0545 1.42703 10.5871C1.91342 11.1177 2.58984 11.4099 3.33212 11.4099H6.05586L5.77438 14.6268H2.91734C2.19827 14.6268 1.50122 14.9035 0.954529 15.4062C0.408631 15.9082 0.0735938 16.5797 0.0107124 17.297C-0.0543511 18.0414 0.178529 18.7446 0.666703 19.2772C1.15289 19.8079 1.82951 20.1001 2.57179 20.1001H5.29573L5.0571 22.8272C4.99204 23.5714 5.22492 24.2746 5.71309 24.8074C6.19928 25.3381 6.8759 25.6302 7.61818 25.6302C8.33725 25.6302 9.0343 25.3535 9.5808 24.8509C10.1269 24.3488 10.4621 23.6774 10.5248 22.9601C10.5252 22.9563 10.5256 22.9525 10.5258 22.9488L10.7749 20.1001L13.9859 20.1003L13.7474 22.827C13.6822 23.5714 13.9153 24.2746 14.4032 24.8072C14.8894 25.3381 15.566 25.6302 16.3083 25.6302C17.0274 25.6302 17.7244 25.3535 18.2711 24.8509C18.817 24.3488 19.1523 23.6774 19.2151 22.9599C19.2153 22.9577 19.2155 22.9553 19.2157 22.9529L19.4653 20.1003H22.3225C22.3285 20.1003 22.3344 20.1003 22.3404 20.1001C23.0531 20.0955 23.7432 19.8192 24.2853 19.3207C24.8312 18.8186 25.1665 18.1472 25.2292 17.4299C25.2942 16.6856 25.0613 15.9824 24.5732 15.4496C24.087 14.919 23.4104 14.6268 22.6665 14.6268H19.9441L20.2256 11.4099H23.0827ZM18.551 15.9031C18.6954 16.0606 18.8992 16.1502 19.1128 16.1502H22.6679C22.9779 16.1502 23.2556 16.2669 23.45 16.4789C23.646 16.6929 23.7388 16.9834 23.7115 17.297C23.6508 17.9906 23.0146 18.5766 22.3223 18.5766C22.3174 18.5766 22.3124 18.5768 22.3073 18.5768H18.7672C18.3723 18.5768 18.0428 18.8787 18.0085 19.2721L17.6975 22.8256C17.6975 22.8278 17.6973 22.8297 17.6971 22.8317C17.6338 23.5234 16.999 24.1068 16.3083 24.1068C15.9983 24.1068 15.7206 23.9902 15.5264 23.7781C15.3304 23.5641 15.2374 23.2735 15.2649 22.9599L15.576 19.405C15.5946 19.1921 15.523 18.9815 15.3788 18.824C15.2344 18.6665 15.0307 18.5768 14.817 18.5768L10.0769 18.5766C9.68196 18.5766 9.35248 18.8785 9.31816 19.2721L9.00733 22.8256C9.00693 22.8288 9.00673 22.8317 9.00653 22.8347C8.94186 23.525 8.30769 24.107 7.61818 24.107C7.30814 24.107 7.03043 23.9902 6.83603 23.7781C6.64005 23.5643 6.54721 23.2737 6.57478 22.9599L6.88582 19.4048C6.90447 19.1921 6.83286 18.9813 6.68865 18.8238C6.54424 18.6665 6.34052 18.5768 6.12688 18.5768H2.57179C2.26175 18.5768 1.98404 18.46 1.78984 18.2481C1.59386 18.0341 1.50082 17.7435 1.5284 17.4299C1.5891 16.7362 2.22505 16.1502 2.91734 16.1502H6.47243C6.86737 16.1502 7.19685 15.8483 7.23117 15.455L7.64595 10.7146C7.6646 10.502 7.59299 10.2911 7.44878 10.1336C7.30457 9.97633 7.10065 9.88667 6.88721 9.88667H3.33212C3.02208 9.88667 2.74437 9.76984 2.55017 9.55798C2.35419 9.34395 2.26115 9.05334 2.28873 8.73973C2.34943 8.04585 2.98558 7.45988 3.67767 7.45988H7.23276C7.6277 7.45988 7.95718 7.15797 7.9915 6.76462L8.30274 3.20953C8.36343 2.51585 8.99939 1.92989 9.69168 1.92989C10.0017 1.92989 10.2794 2.04652 10.4736 2.25858C10.6696 2.47241 10.7627 2.76302 10.7351 3.07663L10.424 6.63171C10.4054 6.84456 10.477 7.05542 10.6212 7.21272C10.7654 7.37022 10.9693 7.45988 11.1828 7.45988H15.9229C16.3178 7.45988 16.6473 7.15797 16.6818 6.76462L16.9929 3.20953C17.0536 2.51585 17.6897 1.92989 18.382 1.92989C18.6919 1.92989 18.9698 2.04652 19.164 2.25858C19.36 2.47241 19.4528 2.76302 19.4254 3.07663L19.1144 6.63171C19.0957 6.84456 19.1673 7.05522 19.3116 7.21272C19.4558 7.37022 19.6595 7.45988 19.8731 7.45988H23.4284C23.7383 7.45988 24.016 7.57672 24.2102 7.78857C24.4063 8.00261 24.4992 8.29321 24.4716 8.60683C24.4111 9.3007 23.7749 9.88667 23.0827 9.88667H19.5274C19.1326 9.88667 18.8031 10.1886 18.7686 10.5819L18.3539 15.3223C18.3352 15.5349 18.4068 15.7456 18.551 15.9031Z" fill="#589585"/>
</g>
<defs>
<clipPath id="clip0">
<rect width="26" height="26" fill="white"/>
</clipPath>
</defs>
</svg>
