<svg width="26" height="26" viewBox="0 0 26 26" fill="none" xmlns="http://www.w3.org/2000/svg">
<g clip-path="url(#clip0)">
<path d="M25.8601 10.7781L21.2943 4.28086C20.9897 3.84748 20.3469 3.84839 20.043 4.28086L18.3053 6.75361C16.338 4.21168 13.3535 2.78076 10.2191 2.78076C4.58431 2.78076 0 7.36507 0 12.9999C0 18.6348 4.58431 23.2191 10.2192 23.2191C12.8449 23.2191 15.3242 22.2183 17.1958 20.467L17.1485 21.2322C17.1214 21.6723 17.4713 22.044 17.9118 22.044H23.4255C23.8665 22.044 24.2159 21.6718 24.1888 21.2322L23.6174 11.9824H25.2345C25.8533 11.9824 26.2152 11.2835 25.8601 10.7781ZM10.2192 21.6897C5.42758 21.6897 1.52936 17.7915 1.52936 12.9999C1.52936 8.20839 5.42758 4.31012 10.2192 4.31012C13.1124 4.31012 15.7527 5.70826 17.3777 8.0736L15.4772 10.7781C15.1214 11.2844 15.4851 11.9824 16.1029 11.9824H17.72L17.3504 17.9645C15.7228 20.3006 13.0723 21.6897 10.2192 21.6897ZM22.804 10.453C22.3631 10.453 22.0136 10.8253 22.0408 11.2648L22.6122 20.5146H18.7252L19.2966 11.2648C19.3238 10.8248 18.9738 10.453 18.5334 10.453H17.5749C18.0116 9.83155 20.2311 6.67327 20.6687 6.05049L23.7625 10.453H22.804Z" fill="#589585"/>
<path d="M11.1842 12.2353H9.25387C8.71965 12.2353 8.28499 11.8007 8.28499 11.2665C8.28499 10.7304 8.71894 10.2976 9.25367 10.2976C9.25805 10.2976 9.26234 10.2976 9.26667 10.2976H11.1158C11.5707 10.3019 12.0103 10.5504 12.2631 10.9455L12.2728 10.9608C12.4999 11.317 12.9726 11.4217 13.3287 11.1946C13.6848 10.9677 13.7895 10.4949 13.5625 10.1388L13.5521 10.1224C13.0189 9.28904 12.1491 8.76822 10.9837 8.76822V7.85108C10.9837 7.42876 10.6413 7.08643 10.219 7.08643C9.79676 7.08643 9.45438 7.42881 9.45438 7.85108V8.76822C8.72363 8.76822 8.09091 8.90077 7.49388 9.49342C7.01778 9.96601 6.75564 10.5957 6.75564 11.2664C6.75564 12.644 7.87639 13.7646 9.25387 13.7646H11.1842C11.7184 13.7646 12.153 14.1992 12.153 14.7334C12.153 15.2488 11.7448 15.7023 11.1714 15.7023H9.15375C8.75636 15.6986 8.37523 15.5125 8.10779 15.1915C7.83744 14.8669 7.35527 14.8231 7.03083 15.0934C6.70639 15.3637 6.66249 15.8459 6.93279 16.1703C7.6484 17.0293 8.48122 17.2316 9.45433 17.2316V18.1488C9.45433 18.5711 9.79671 18.9134 10.219 18.9134C10.6413 18.9134 10.9836 18.571 10.9836 18.1488V17.2316C12.7647 17.2316 13.6823 15.977 13.6823 14.7334C13.6824 13.356 12.5617 12.2353 11.1842 12.2353Z" fill="#589585"/>
</g>
<defs>
<clipPath id="clip0">
<rect width="26" height="26" fill="white"/>
</clipPath>
</defs>
</svg>
