<svg width="34" height="34" viewBox="0 0 34 34" fill="none" xmlns="http://www.w3.org/2000/svg">
<path fill-rule="evenodd" clip-rule="evenodd" d="M13.3805 21.9931L16.6708 18.8647C16.243 18.8222 15.925 18.8009 15.574 18.8009C12.6456 18.8009 6.7998 20.2268 6.7998 23.0572V25.1853H16.6708L13.3805 21.9931ZM15.574 16.6727C17.9979 16.6727 19.9611 14.7681 19.9611 12.4165C19.9611 10.0648 17.9979 8.16016 15.574 8.16016C13.1501 8.16016 11.1869 10.0648 11.1869 12.4165C11.1869 14.7681 13.1501 16.6727 15.574 16.6727Z" fill="#A6A7AC"/>
<path fill-rule="evenodd" clip-rule="evenodd" d="M20.3245 25.8397L16.6709 22.1155L18.145 20.6151L20.3245 22.8284L25.7259 17.3271L27.1999 18.8275L20.3245 25.8397Z" fill="#A6A7AC"/>
</svg>
