<svg width="34" height="34" viewBox="0 0 34 34" fill="none" xmlns="http://www.w3.org/2000/svg">
<path d="M22.2019 16.9998C23.7972 16.9998 25.0804 15.6942 25.0804 14.0856C25.0804 12.4769 23.7972 11.1713 22.2019 11.1713C20.6067 11.1713 19.3119 12.4769 19.3119 14.0856C19.3119 15.6942 20.6067 16.9998 22.2019 16.9998ZM13.5319 15.8341C15.4509 15.8341 16.9884 14.2721 16.9884 12.337C16.9884 10.4019 15.4509 8.83984 13.5319 8.83984C11.613 8.83984 10.0639 10.4019 10.0639 12.337C10.0639 14.2721 11.613 15.8341 13.5319 15.8341ZM22.2019 19.3313C20.0865 19.3313 15.8439 20.4037 15.8439 22.537V25.1598H28.5599V22.537C28.5599 20.4037 24.3174 19.3313 22.2019 19.3313ZM13.5319 18.1656C10.8385 18.1656 5.43994 19.5294 5.43994 22.2456V25.1598H13.5319V22.537C13.5319 21.5461 13.9134 19.8092 16.2717 18.492C15.2659 18.2821 14.2949 18.1656 13.5319 18.1656Z" fill="#A6A7AC"/>
</svg>
