<svg width="34" height="34" viewBox="0 0 34 34" fill="none" xmlns="http://www.w3.org/2000/svg">
<path d="M17.5212 15.5038C14.4886 14.7014 13.5134 13.8718 13.5134 12.5798C13.5134 11.0974 14.8627 10.0638 17.1204 10.0638C19.4984 10.0638 20.3802 11.2198 20.4603 12.9198H23.4128C23.3193 10.5806 21.9165 8.43177 19.1244 7.73817V4.75977H15.1165V7.69737C12.5248 8.26857 10.4407 9.98217 10.4407 12.607C10.4407 15.7486 12.9923 17.3126 16.7196 18.2238C20.0595 19.0398 20.7275 20.2366 20.7275 21.5014C20.7275 22.4398 20.0729 23.9358 17.1204 23.9358C14.3684 23.9358 13.2862 22.6846 13.1393 21.0798H10.2002C10.3605 24.0582 12.5515 25.731 15.1165 26.2886V29.2398H19.1244V26.3158C21.7295 25.8126 23.8002 24.2758 23.8002 21.4878C23.8002 17.6254 20.5538 16.3062 17.5212 15.5038Z" fill="#A6A7AC"/>
</svg>
