<svg width="34" height="34" viewBox="0 0 34 34" fill="none" xmlns="http://www.w3.org/2000/svg">
<path d="M19.0376 15.7482L17.0001 14.8499L19.0376 13.9516L19.9674 11.9829L20.8971 13.9516L22.9347 14.8499L20.8971 15.7482L19.9674 17.7169L19.0376 15.7482ZM9.08739 19.6283L10.0171 17.6596L12.0547 16.7612L10.0171 15.8629L9.08739 13.8942L8.15764 15.8629L6.12012 16.7612L8.15764 17.6596L9.08739 19.6283ZM13.5383 14.8499L14.6164 12.5467L17.0001 11.505L14.6164 10.4633L13.5383 8.16016L12.4602 10.4633L10.0765 11.505L12.4602 12.5467L13.5383 14.8499ZM9.58194 25.8402L15.5165 20.0965L19.4728 23.9192L27.8801 14.783L26.4855 13.4355L19.4728 21.0522L15.5165 17.2295L8.0983 24.4066L9.58194 25.8402Z" fill="#A6A7AC"/>
</svg>
