<svg width="20" height="20" viewBox="0 0 20 20" fill="none" xmlns="http://www.w3.org/2000/svg">
<path d="M10.0003 14.9999C10.4606 14.9999 10.8337 14.6268 10.8337 14.1666C10.8337 13.7063 10.4606 13.3333 10.0003 13.3333C9.54009 13.3333 9.16699 13.7063 9.16699 14.1666C9.16699 14.6268 9.54009 14.9999 10.0003 14.9999Z" fill="#589585"/>
<path fill-rule="evenodd" clip-rule="evenodd" d="M10.2971 7.13313C9.89245 7.15089 9.67667 7.3137 9.60197 7.4724C9.40598 7.88882 8.90953 8.06752 8.49311 7.87153C8.07669 7.67555 7.89799 7.17909 8.09398 6.76267C8.52913 5.83808 9.46658 5.50131 10.224 5.46806C10.9526 5.43609 11.8593 5.66816 12.361 6.3223C12.747 6.82567 12.9639 7.46376 12.8763 8.13468C12.7875 8.81497 12.3994 9.42521 11.7698 9.8884C10.929 10.5069 10.9305 10.8225 10.9307 10.8685C10.9308 10.8691 10.9308 10.8698 10.9308 10.8703C10.9308 11.3306 10.5577 11.7036 10.0974 11.7036C9.63718 11.7036 9.26409 11.3306 9.26409 10.8703C9.26409 10.0731 9.72782 9.32155 10.7822 8.54589C11.1063 8.30748 11.2027 8.07936 11.2236 7.91895C11.2458 7.74915 11.1977 7.54418 11.0384 7.33651C11.0272 7.3219 10.9664 7.26112 10.8139 7.20635C10.6684 7.15405 10.4855 7.12486 10.2971 7.13313Z" fill="#589585"/>
<path d="M10.0002 19.1666C4.91683 19.1666 0.833496 15.0833 0.833496 9.99992C0.833496 4.91658 4.91683 0.833252 10.0002 0.833252C15.0835 0.833252 19.1668 4.91658 19.1668 9.99992C19.1668 15.0833 15.0835 19.1666 10.0002 19.1666ZM10.0002 2.49992C5.8335 2.49992 2.50016 5.83325 2.50016 9.99992C2.50016 14.1666 5.8335 17.4999 10.0002 17.4999C14.1668 17.4999 17.5002 14.1666 17.5002 9.99992C17.5002 5.83325 14.1668 2.49992 10.0002 2.49992Z" fill="#589585"/>
</svg>
