<svg width="16" height="16" viewBox="0 0 16 16" fill="none" xmlns="http://www.w3.org/2000/svg">
<path d="M15.865 6.53159C15.8245 6.31313 15.6362 6.15309 15.414 6.14841C15.1907 6.14356 14.9969 6.29566 14.9473 6.51222C14.4704 8.59028 12.6459 10.0416 10.5104 10.0416C8.00041 10.0416 5.95834 7.99956 5.95834 5.48956C5.95834 3.35409 7.40969 1.52962 9.48778 1.05281C9.70434 1.00312 9.85625 0.808219 9.85163 0.586125C9.84697 0.364 9.68697 0.175625 9.46853 0.135063C8.98578 0.0454375 8.49172 0 8 0C5.86312 0 3.85416 0.832156 2.34313 2.34316C0.832156 3.85416 0 5.86312 0 8C0 10.1369 0.832156 12.1458 2.34313 13.6568C3.85416 15.1678 5.86312 16 8 16C10.1369 16 12.1458 15.1678 13.6569 13.6568C15.1678 12.1458 16 10.1369 16 8C16 7.50869 15.9546 7.01466 15.865 6.53159ZM8 15.0625C4.10572 15.0625 0.9375 11.8943 0.9375 8C0.9375 4.30541 3.7895 1.26425 7.40737 0.962125C6.96859 1.26306 6.57225 1.62784 6.23509 2.04591C5.45203 3.01688 5.02081 4.23987 5.02081 5.48956C5.02081 8.51653 7.48344 10.9791 10.5104 10.9791C11.7601 10.9791 12.9831 10.5479 13.9541 9.76484C14.3721 9.42769 14.7369 9.03137 15.0379 8.59262C14.7358 12.2105 11.6946 15.0625 8 15.0625Z" fill="#21232F"/>
</svg>
