<svg width="34" height="34" viewBox="0 0 34 34" fill="none" xmlns="http://www.w3.org/2000/svg">
<path d="M15.3773 14.574C15.985 13.9561 16.3198 13.1272 16.3198 12.2398C16.3198 10.5502 15.0325 8.83984 12.5717 8.83984C11.4265 8.83984 10.4603 9.2086 9.77758 9.90622C9.17281 10.5243 8.83984 11.353 8.83984 12.2398C8.83984 13.9295 10.1217 15.6398 12.5717 15.6398C13.7212 15.6399 14.6915 15.2714 15.3773 14.574ZM12.5717 10.4207C13.92 10.4207 14.5341 11.3643 14.5341 12.241C14.5341 12.7179 14.3629 13.1594 14.0518 13.484C13.7047 13.8465 13.2003 14.0382 12.5936 14.0382C11.2111 14.0382 10.5813 13.0947 10.5813 12.2181C10.5813 11.3236 11.1969 10.4207 12.5717 10.4207Z" fill="#CF5959"/>
<path d="M22.1344 10.2301C21.9092 10.2343 21.6016 10.3793 21.451 10.5522L10.2703 23.3847C10.1197 23.5577 10.2264 23.8002 10.4516 23.8002H11.915C12.1402 23.8002 12.4474 23.6584 12.5978 23.4853L23.7094 10.6553C23.8597 10.482 23.8497 10.2001 23.4775 10.2002L22.1344 10.2301Z" fill="#CF5959"/>
<path d="M21.4119 18.3599C20.267 18.3599 19.3009 18.7288 18.6181 19.4264C18.0133 20.0442 17.6802 20.8731 17.6802 21.7599C17.6802 23.4495 18.962 25.1599 21.412 25.1599C22.5617 25.1599 23.5318 24.7913 24.2177 24.094C24.8255 23.476 25.1602 22.6471 25.1602 21.7599C25.1601 20.0704 23.8727 18.3599 21.4119 18.3599ZM21.434 23.5996C20.063 23.5996 19.4383 22.6344 19.4383 21.738C19.4383 21.2499 19.6127 20.7981 19.9296 20.466C20.2828 20.0953 20.7954 19.8994 21.412 19.8994C22.7831 19.8994 23.4075 20.8645 23.4075 21.7611C23.4075 22.2492 23.2331 22.701 22.9164 23.0332C22.5631 23.4037 22.0505 23.5996 21.434 23.5996Z" fill="#CF5959"/>
</svg>
