<svg width="20" height="20" viewBox="0 0 20 20" fill="none" xmlns="http://www.w3.org/2000/svg">
<path fill-rule="evenodd" clip-rule="evenodd" d="M9.1665 3.33366C5.94484 3.33366 3.33317 5.94533 3.33317 9.16699C3.33317 12.3887 5.94484 15.0003 9.1665 15.0003C12.3882 15.0003 14.9998 12.3887 14.9998 9.16699C14.9998 5.94533 12.3882 3.33366 9.1665 3.33366ZM1.6665 9.16699C1.6665 5.02486 5.02437 1.66699 9.1665 1.66699C13.3086 1.66699 16.6665 5.02486 16.6665 9.16699C16.6665 13.3091 13.3086 16.667 9.1665 16.667C5.02437 16.667 1.6665 13.3091 1.6665 9.16699Z" fill="#589585"/>
<path fill-rule="evenodd" clip-rule="evenodd" d="M13.2856 13.2861C13.611 12.9606 14.1387 12.9606 14.4641 13.2861L18.0891 16.9111C18.4145 17.2365 18.4145 17.7641 18.0891 18.0896C17.7637 18.415 17.236 18.415 16.9106 18.0896L13.2856 14.4646C12.9601 14.1391 12.9601 13.6115 13.2856 13.2861Z" fill="#589585"/>
</svg>
