<svg width="20" height="20" viewBox="0 0 20 20" fill="none" xmlns="http://www.w3.org/2000/svg">
<path d="M10 0C7.09223 0 4.72656 2.36566 4.72656 5.27344C4.72656 8.18121 7.09223 10.5469 10 10.5469C12.9078 10.5469 15.2734 8.18121 15.2734 5.27344C15.2734 2.36566 12.9078 0 10 0ZM10 9.375C7.7384 9.375 5.89844 7.53504 5.89844 5.27344C5.89844 3.01184 7.7384 1.17188 10 1.17188C12.2616 1.17188 14.1016 3.01184 14.1016 5.27344C14.1016 7.53504 12.2616 9.375 10 9.375Z" fill="#A6A7AC"/>
<path d="M11.6341 11.7578H8.36586C5.66266 11.7578 2.99488 13.0059 1.21094 15.682V20H18.7891V15.682C17.0077 13.0098 14.3407 11.7578 11.6341 11.7578ZM17.6172 18.8281H17.6172H2.38281V16.0405C3.75121 14.0892 5.97469 12.9297 8.3659 12.9297H11.6341C14.0254 12.9297 16.2488 14.0892 17.6172 16.0405V18.8281Z" fill="#A6A7AC"/>
</svg>
