<svg width="70" height="70" viewBox="0 0 70 70" fill="none" xmlns="http://www.w3.org/2000/svg">
<path d="M54.8337 68.8334H18.667C16.7341 68.8334 15.167 67.2663 15.167 65.3334V40.8334H8.16699V4.66675C8.16699 2.73389 9.73413 1.16675 11.667 1.16675H50.167C52.7441 1.16675 54.8337 3.25627 54.8337 5.83342V68.8334Z" fill="#D3D5DA"/>
<path d="M32.667 33.8333V31.5L25.667 37.3333L32.667 43.1667V40.8333H66.5003V33.8333H32.667Z" fill="#589585"/>
<path d="M18.667 68.8333C20.5999 68.8333 22.167 67.2661 22.167 65.3333V61.8333H57.167C59.0999 61.8333 60.667 63.4004 60.667 65.3333C60.667 67.2661 59.0999 68.8333 57.167 68.8333H18.667Z" fill="#A6A7AC"/>
<path d="M15.167 40.8334H8.16699V4.66675C8.16699 2.73389 9.73413 1.16675 11.667 1.16675C13.5999 1.16675 15.167 2.73389 15.167 4.66675V40.8334Z" fill="#A6A7AC"/>
<path d="M21 7H32.6667V9.33333H21V7Z" fill="#D3D5DA"/>
<path d="M21 11.6667H32.6667V14.0001H21V11.6667Z" fill="#D3D5DA"/>
<path d="M25.667 51.3333H49.0003V53.6666H25.667V51.3333Z" fill="#D3D5DA"/>
<path d="M25.667 56H49.0003V58.3333H25.667V56Z" fill="#D3D5DA"/>
<path d="M42 46.6667H49V49.0001H42V46.6667Z" fill="#D3D5DA"/>
<path d="M44.3333 23.3333L37.3333 17.5V19.8333H3.5V26.8333H37.3333V29.1667L44.3333 23.3333Z" fill="#CF5959"/>
<path d="M66.4997 32.6667H55.9997V5.83333C55.9957 2.61304 53.3866 0.00398764 50.1663 0H11.6663C9.08919 0 6.99967 2.08952 6.99967 4.66667V18.6667H3.49967C2.85539 18.6667 2.33301 19.189 2.33301 19.8333V26.8333C2.33301 27.4776 2.85539 28 3.49967 28H6.99967V40.8333C6.99967 41.4776 7.52205 42 8.16634 42H13.9997V65.3333C13.9997 67.9105 16.0892 70 18.6663 70H57.1663C59.7435 70 61.833 67.9105 61.833 65.3333C61.833 62.7562 59.7435 60.6667 57.1663 60.6667H55.9997V42H66.4997C67.144 42 67.6663 41.4776 67.6663 40.8333V33.8333C67.6663 33.189 67.144 32.6667 66.4997 32.6667ZM9.33301 4.66667C9.33301 3.37809 10.3778 2.33333 11.6663 2.33333C12.9549 2.33333 13.9997 3.37809 13.9997 4.66667V18.6667H9.33301V4.66667ZM4.66634 21H37.333C37.9198 21 38.4154 20.5648 38.4906 19.9826L42.5107 23.3333L38.4906 26.6841C38.4154 26.1019 37.9198 25.6667 37.333 25.6667H4.66634V21ZM9.33301 39.6667V28H13.9997V39.6667H9.33301ZM59.4997 65.3333C59.4997 66.6219 58.4549 67.6667 57.1663 67.6667H22.7064C23.1182 66.958 23.3341 66.1531 23.333 65.3333V63H57.1663C58.4549 63 59.4997 64.0448 59.4997 65.3333ZM53.6663 60.6667H22.1663C21.5221 60.6667 20.9997 61.189 20.9997 61.8333V65.3333C20.9997 66.6219 19.9549 67.6667 18.6663 67.6667C17.3778 67.6667 16.333 66.6219 16.333 65.3333V28H36.1663V29.1667C36.1663 29.6195 36.4284 30.032 36.8385 30.224C37.2487 30.4159 37.7329 30.3533 38.081 30.0627L45.081 24.2294C45.3464 24.0078 45.5002 23.6797 45.5002 23.3333C45.5002 22.987 45.3464 22.6589 45.081 22.4373L38.081 16.6039C37.7329 16.3134 37.2487 16.2507 36.8385 16.4427C36.4284 16.6347 36.1663 17.0471 36.1663 17.5V18.6667H16.333V4.66667C16.329 3.84521 16.1057 3.03971 15.6864 2.33333H50.1663C52.0992 2.33333 53.6663 3.90047 53.6663 5.83333V32.6667H33.833V31.5C33.833 31.0471 33.571 30.6347 33.1608 30.4427C32.7507 30.2507 32.2664 30.3134 31.9184 30.6039L24.9184 36.4373C24.6529 36.6589 24.4991 36.987 24.4991 37.3333C24.4991 37.6797 24.6529 38.0078 24.9184 38.2294L31.9184 44.0627C32.2664 44.3533 32.7507 44.4159 33.1608 44.224C33.571 44.032 33.833 43.6195 33.833 43.1667V42H53.6663V60.6667ZM65.333 39.6667H32.6663C32.5159 39.6672 32.3673 39.6974 32.2288 39.7555C32.1861 39.7777 32.1451 39.8028 32.1052 39.8302C32.0215 39.8735 31.9429 39.9264 31.8717 39.9885C31.8341 40.0307 31.7993 40.0751 31.768 40.1218C31.711 40.1873 31.6626 40.2591 31.6222 40.3366C31.5994 40.3913 31.5817 40.4482 31.5686 40.5069C31.5441 40.5639 31.5247 40.6231 31.5111 40.6841L27.4887 37.3333L31.5088 33.9826C31.5225 34.0435 31.5418 34.1028 31.5663 34.1597C31.5789 34.2184 31.5971 34.2754 31.6199 34.3301C31.6597 34.4076 31.7087 34.4793 31.7657 34.5448C31.797 34.5916 31.8318 34.636 31.8694 34.6781C31.9406 34.7402 32.0192 34.7932 32.1029 34.8365C32.1428 34.8638 32.1838 34.8889 32.2266 34.9111C32.3656 34.9698 32.5154 35 32.6663 35H65.333V39.6667Z" fill="#161718"/>
<path d="M21 7H32.6667V9.33333H21V7Z" fill="#161718"/>
<path d="M21 11.6667H32.6667V14.0001H21V11.6667Z" fill="#161718"/>
<path d="M25.667 51.3333H49.0003V53.6666H25.667V51.3333Z" fill="#161718"/>
<path d="M25.667 56H49.0003V58.3333H25.667V56Z" fill="#161718"/>
<path d="M42 46.6667H49V49.0001H42V46.6667Z" fill="#161718"/>
</svg>
