<svg width="60" height="60" viewBox="0 0 60 60" fill="none" xmlns="http://www.w3.org/2000/svg">
<g clip-path="url(#clip0)">
<path fill-rule="evenodd" clip-rule="evenodd" d="M3.66117 38.6612C6.00537 36.317 9.18479 35 12.5 35H32.5C35.8152 35 38.9946 36.317 41.3388 38.6612C43.683 41.0054 45 44.1848 45 47.5V52.5C45 53.8807 43.8807 55 42.5 55C41.1193 55 40 53.8807 40 52.5V47.5C40 45.5109 39.2098 43.6032 37.8033 42.1967C36.3968 40.7902 34.4891 40 32.5 40H12.5C10.5109 40 8.60322 40.7902 7.1967 42.1967C5.79018 43.6032 5 45.5109 5 47.5V52.5C5 53.8807 3.88071 55 2.5 55C1.11929 55 0 53.8807 0 52.5V47.5C0 44.1848 1.31696 41.0054 3.66117 38.6612Z" fill="#A6A7AC"/>
<path fill-rule="evenodd" clip-rule="evenodd" d="M2.6005 37.6005C5.22601 34.975 8.78697 33.5 12.5 33.5H32.5C36.213 33.5 39.774 34.975 42.3995 37.6005C45.025 40.226 46.5 43.787 46.5 47.5V52.5C46.5 54.7091 44.7091 56.5 42.5 56.5C40.2909 56.5 38.5 54.7091 38.5 52.5V47.5C38.5 45.9087 37.8679 44.3826 36.7426 43.2574C35.6174 42.1321 34.0913 41.5 32.5 41.5H12.5C10.9087 41.5 9.38258 42.1321 8.25736 43.2574C7.13214 44.3826 6.5 45.9087 6.5 47.5V52.5C6.5 54.7091 4.70914 56.5 2.5 56.5C0.290861 56.5 -1.5 54.7091 -1.5 52.5V47.5C-1.5 43.787 -0.0250037 40.226 2.6005 37.6005ZM12.5 36.5C9.58262 36.5 6.78473 37.6589 4.72183 39.7218C2.65893 41.7847 1.5 44.5826 1.5 47.5V52.5C1.5 53.0523 1.94772 53.5 2.5 53.5C3.05228 53.5 3.5 53.0523 3.5 52.5V47.5C3.5 45.1131 4.44821 42.8239 6.13604 41.136C7.82387 39.4482 10.1131 38.5 12.5 38.5H32.5C34.8869 38.5 37.1761 39.4482 38.864 41.136L37.8033 42.1967L38.864 41.136C40.5518 42.8239 41.5 45.1131 41.5 47.5V52.5C41.5 53.0523 41.9477 53.5 42.5 53.5C43.0523 53.5 43.5 53.0523 43.5 52.5V47.5C43.5 44.5826 42.3411 41.7847 40.2782 39.7218C38.2153 37.6589 35.4174 36.5 32.5 36.5H12.5Z" fill="#2A2C3A"/>
<path fill-rule="evenodd" clip-rule="evenodd" d="M22.5 10C18.3579 10 15 13.3579 15 17.5C15 21.6421 18.3579 25 22.5 25C26.6421 25 30 21.6421 30 17.5C30 13.3579 26.6421 10 22.5 10ZM10 17.5C10 10.5964 15.5964 5 22.5 5C29.4036 5 35 10.5964 35 17.5C35 24.4036 29.4036 30 22.5 30C15.5964 30 10 24.4036 10 17.5Z" fill="#A6A7AC"/>
<path fill-rule="evenodd" clip-rule="evenodd" d="M8.5 17.5C8.5 9.76801 14.768 3.5 22.5 3.5C30.232 3.5 36.5 9.76801 36.5 17.5C36.5 25.232 30.232 31.5 22.5 31.5C14.768 31.5 8.5 25.232 8.5 17.5ZM22.5 6.5C16.4249 6.5 11.5 11.4249 11.5 17.5C11.5 23.5751 16.4249 28.5 22.5 28.5C28.5751 28.5 33.5 23.5751 33.5 17.5C33.5 11.4249 28.5751 6.5 22.5 6.5ZM22.5 11.5C19.1863 11.5 16.5 14.1863 16.5 17.5C16.5 20.8137 19.1863 23.5 22.5 23.5C25.8137 23.5 28.5 20.8137 28.5 17.5C28.5 14.1863 25.8137 11.5 22.5 11.5ZM13.5 17.5C13.5 12.5294 17.5294 8.5 22.5 8.5C27.4706 8.5 31.5 12.5294 31.5 17.5C31.5 22.4706 27.4706 26.5 22.5 26.5C17.5294 26.5 13.5 22.4706 13.5 17.5Z" fill="#2A2C3A"/>
<path fill-rule="evenodd" clip-rule="evenodd" d="M47.5795 37.1998C47.9247 35.863 49.2882 35.059 50.6251 35.4042C53.3068 36.0966 55.6825 37.66 57.3794 39.8489C59.0762 42.0379 59.9981 44.7284 60.0001 47.498L60.0001 52.4998C60.0001 53.8805 58.8808 54.9998 57.5001 54.9998C56.1194 54.9998 55.0001 53.8805 55.0001 52.4998L55.0001 47.5017C55.0001 47.5014 55.0001 47.5019 55.0001 47.5017C54.9987 45.8402 54.4456 44.2254 53.4277 42.9123C52.4096 41.5989 50.9841 40.6609 49.3751 40.2454C48.0382 39.9003 47.2343 38.5367 47.5795 37.1998Z" fill="#A6A7AC"/>
<path fill-rule="evenodd" clip-rule="evenodd" d="M46.127 36.8252C46.6793 34.6862 48.861 33.3999 51 33.9522C54.0034 34.7277 56.6643 36.4787 58.5648 38.9303C60.4652 41.3819 61.4977 44.3953 61.5 47.4972L61.5 52.5002C61.5 54.7093 59.7091 56.5002 57.5 56.5002C55.2909 56.5002 53.5 54.7093 53.5 52.5002L53.5 47.5033C53.5 47.5031 53.5 47.5035 53.5 47.5033C53.4988 46.1742 53.0562 44.8819 52.242 43.8316C51.4276 42.781 50.2872 42.0305 49 41.6982C46.861 41.1459 45.5747 38.9642 46.127 36.8252ZM54.919 47.5021L56.5 47.5021V52.5002C56.5 53.0525 56.9477 53.5002 57.5 53.5002C58.0523 53.5002 58.5 53.0525 58.5 52.5002L58.5 47.4994L59.9994 47.4983H58.5V47.4994C58.4982 45.0622 57.687 42.6946 56.1937 40.7683C54.7005 38.842 52.6098 37.4663 50.25 36.8569C49.7152 36.7189 49.1698 37.0404 49.0317 37.5752C48.8937 38.1099 49.2152 38.6554 49.75 38.7934C51.6808 39.292 53.3913 40.4176 54.6131 41.9936C55.8347 43.5696 56.4983 45.5071 56.5 47.5008L55.0845 47.502" fill="#2A2C3A"/>
<path fill-rule="evenodd" clip-rule="evenodd" d="M37.5782 7.20472C37.9207 5.86716 39.2826 5.06047 40.6202 5.40295C43.309 6.09139 45.6922 7.65514 47.3941 9.84767C49.096 12.0402 50.0197 14.7368 50.0197 17.5123C50.0197 20.2879 49.096 22.9844 47.3941 25.177C45.6922 27.3695 43.309 28.9333 40.6202 29.6217C39.2826 29.9642 37.9207 29.1575 37.5782 27.8199C37.2358 26.4824 38.0425 25.1204 39.38 24.7779C40.9933 24.3649 42.4232 23.4266 43.4443 22.1111C44.4655 20.7956 45.0197 19.1776 45.0197 17.5123C45.0197 15.847 44.4655 14.229 43.4443 12.9135C42.4232 11.598 40.9933 10.6598 39.38 10.2467C38.0425 9.90423 37.2358 8.54229 37.5782 7.20472Z" fill="#A6A7AC"/>
<path fill-rule="evenodd" clip-rule="evenodd" d="M36.125 6.83302C36.6729 4.69292 38.852 3.40223 40.9921 3.95018C44.0036 4.72124 46.6728 6.47264 48.5789 8.92827C50.485 11.3839 51.5196 14.4041 51.5196 17.5127C51.5196 20.6213 50.485 23.6415 48.5789 26.0971C46.6728 28.5527 44.0036 30.3041 40.9921 31.0752C38.852 31.6231 36.6729 30.3324 36.125 28.1923C35.577 26.0522 36.8677 23.8731 39.0078 23.3252C40.2984 22.9947 41.4424 22.2441 42.2593 21.1917C43.0762 20.1393 43.5196 18.8449 43.5196 17.5127C43.5196 16.1804 43.0762 14.8861 42.2593 13.8336C41.4424 12.7812 40.2985 12.0306 39.0078 11.7002C36.8677 11.1522 35.577 8.97313 36.125 6.83302ZM40.248 6.85643C39.713 6.71944 39.1682 7.04212 39.0312 7.57714C38.8942 8.11217 39.2169 8.65694 39.7519 8.79393C41.6879 9.28961 43.4038 10.4155 44.6291 11.9941C45.8545 13.5728 46.5196 15.5143 46.5196 17.5127C46.5196 19.5111 45.8545 21.4526 44.6291 23.0312C43.4038 24.6099 41.6879 25.7358 39.7519 26.2314C39.2169 26.3684 38.8942 26.9132 39.0312 27.4482C39.1682 27.9832 39.713 28.3059 40.248 28.1689C42.6142 27.5631 44.7114 26.187 46.209 24.2576C47.7067 22.3282 48.5196 19.9552 48.5196 17.5127C48.5196 15.0702 47.7067 12.6972 46.209 10.7678C44.7114 8.83836 42.6142 7.46226 40.248 6.85643Z" fill="#2A2C3A"/>
</g>
<defs>
<clipPath id="clip0">
<rect width="60" height="60" fill="white"/>
</clipPath>
</defs>
</svg>
